<?xml version="1.0" encoding="UTF-8"?> <svg xmlns="http://www.w3.org/2000/svg" xmlns:xlink="http://www.w3.org/1999/xlink" width="400px" height="371px" viewBox="0 0 400 371"><!-- Generator: Sketch 64 (93537) - https://sketch.com --><title>Automation Through Rule Engine</title><desc>Created with Sketch.</desc><defs><polygon id="path-1" points="0.192114695 0.367980884 20.9366786 0.367980884 20.9366786 16.0812425 0.192114695 16.0812425"></polygon><path d="M352.86595,272.092712 C352.86595,280.790442 345.823656,287.840382 337.135484,287.840382 L108.482676,287.840382 C99.7945042,287.840382 92.7541219,280.790442 92.7541219,272.092712 L92.7541219,100.188292 C92.7541219,91.4915173 99.7945042,84.4415771 108.482676,84.4415771 L337.137395,84.4415771 C345.824612,84.4415771 352.86595,91.4915173 352.86595,100.188292 L352.86595,272.092712 L352.86595,272.092712 Z" id="path-3"></path><filter x="-2.9%" y="-3.7%" width="105.8%" height="107.4%" id="filter-4"><feOffset dx="0" dy="0" in="SourceAlpha" result="shadowOffsetOuter1"></feOffset><feGaussianBlur stdDeviation="2.5" in="shadowOffsetOuter1" result="shadowBlurOuter1"></feGaussianBlur><feColorMatrix values="0 0 0 0 0 0 0 0 0 0 0 0 0 0 0 0 0 0 0.2 0" type="matrix" in="shadowBlurOuter1"></feColorMatrix></filter></defs><g id="Page-1" stroke="none" stroke-width="1" fill="none" fill-rule="evenodd"><g id="Automation-Through-Rule-Engine" transform="translate(0.000000, -1.000000)"><g id="crmfeatures6"><path d="M97.3151732,99.6281959 C88.9223417,99.6281959 82.0922342,106.464994 82.0922342,114.868339 L82.0922342,286.773716 C82.0922342,295.177061 88.9223417,302.013859 97.3151732,302.013859 L325.969892,302.013859 C334.36368,302.013859 341.193787,295.177061 341.193787,286.773716 L341.193787,114.867384 C341.193787,106.464038 334.36368,99.6281959 325.969892,99.6281959 L97.3151732,99.6281959 L97.3151732,99.6281959 Z M325.969892,303.027001 L97.3151732,303.027001 C88.3641577,303.027001 81.0800478,295.736201 81.0800478,286.773716 L81.0800478,114.867384 C81.0800478,105.904898 88.3632019,98.6150538 97.3151732,98.6150538 L325.969892,98.6150538 C334.92282,98.6150538 342.205018,105.904898 342.205018,114.867384 L342.205018,286.77276 C342.205018,295.735245 334.92282,303.027001 325.969892,303.027001 L325.969892,303.027001 Z" id="Shape" fill="#D5BCDC" fill-rule="nonzero"></path><path d="M376.549582,121.284588 C376.549582,121.284588 380.720669,123.169415 382.585424,123.824134 C384.448268,124.477897 391.271685,123.741935 392.030585,124.328793 C392.78853,124.914695 392.820072,127.131183 391.72282,127.51828 C390.625568,127.907288 382.474552,129.919235 379.632019,129.632497 C376.790442,129.345759 371.787814,131.26595 370.594982,131.015532 C369.400239,130.767025 369.297013,124.055436 369.548387,122.508961 C369.801673,120.960573 376.549582,121.285544 376.549582,121.285544" id="Path" fill="#211E20" fill-rule="nonzero"></path><path d="M375.589964,118.594982 L376.548626,121.284588 C376.548626,121.284588 371.521147,123.078614 369.549343,122.508005 L368.889845,119.766786 L375.589964,118.595938 L375.589964,118.594982 Z" id="Path" fill="#FE8D23" fill-rule="nonzero"></path><path d="M365.303704,123.676941 C365.303704,123.676941 369.23871,126.079809 371.015532,126.966786 C372.794265,127.852808 379.651135,127.989486 380.339307,128.6681 C381.028435,129.346714 380.815293,131.551732 379.682676,131.796416 C378.551016,132.043011 370.234648,133.00454 367.443728,132.357467 C364.653763,131.71135 359.475269,132.981601 358.317802,132.583035 C357.160335,132.184468 357.796894,125.506332 358.217443,124.001912 C358.637993,122.498447 365.303704,123.676941 365.303704,123.676941" id="Path" fill="#211E20" fill-rule="nonzero"></path><path d="M364.714934,120.882198 L365.303704,123.676941 C365.303704,123.676941 360.112784,124.820072 358.216487,124.001912 L357.865711,121.195699 L364.714934,120.882198 L364.714934,120.882198 Z" id="Path" fill="#FE8D23" fill-rule="nonzero"></path><path d="M325.278853,70.5567503 C325.278853,70.5567503 343.219116,70.7144564 345.419355,71.0260454 C347.803106,71.3643967 357.137395,71.6664277 358.265233,73.3772999 C369.641099,90.6637993 377.068578,118.966786 377.068578,118.966786 L368.076464,120.737873 C368.076464,120.737873 359.379689,103.8681 355.739068,95.1034648 C352.469295,87.2353644 349.669773,85.2129032 342.802389,85.3868578 C335.935006,85.5598566 313.97276,84.0449223 301.308483,82.4735962 L325.279809,70.5567503 L325.278853,70.5567503 Z" id="Path" fill="#EC2A45" fill-rule="nonzero"></path><path d="M323.381601,28.9223417 C323.381601,28.9223417 328.705376,40.3918757 328.273357,44.6528076 C327.84325,48.9127838 323.264994,60.7225806 322.940024,63.0948626 C322.617921,65.4681004 324.933811,70.158184 324.933811,70.158184 L300.963441,81.2673835 C300.963441,81.2673835 299.998088,74.2442055 300.963441,66.1562724 C301.928793,58.0673835 302.641816,49.3753883 303.707527,44.8038232 C307.343369,29.2052569 316.962485,22.7402628 316.962485,22.7402628 L323.381601,28.9223417 Z" id="Path" fill="#5235AD" fill-rule="nonzero"></path><path d="M324.933811,70.1591398 C324.933811,70.1591398 342.874074,70.3178017 345.074313,70.6274791 C347.45902,70.9667861 357.00454,71.1283154 357.920191,72.9806452 C364.43871,86.1600956 365.902031,121.339068 365.902031,121.339068 L357.51589,122.354122 C357.51589,122.354122 353.946953,104.397611 352.10227,95.9961768 C351.123536,91.5373955 347.412186,86.1323775 342.326404,86.4296296 C335.469534,86.8329749 308.562007,93.4872162 300.963441,81.2673835 L324.934767,70.1591398 L324.933811,70.1591398 Z" id="Path" fill="#FF536B" fill-rule="nonzero"></path><path d="M309.442294,39.7562724 C309.493907,37.535006 310.782318,27.9502987 316.183513,28.6050179 C321.583751,29.2616487 320.959618,35.7476703 320.459737,40.6403823 C319.935962,45.7596177 317.282676,58.3101553 318.127599,58.9562724 C318.971565,59.6014337 325.378256,61.5292712 326.756511,61.80454 C328.132855,62.0817204 336.439665,64.1204301 337.122103,64.3106332 C337.790203,64.4970131 336.453047,67.7304659 336.453047,67.7304659 C336.453047,67.7304659 313.448029,67.055675 309.6,65.2310633 C305.751971,63.4054958 309.442294,39.7562724 309.442294,39.7562724" id="Path" fill="#FDC2CC" fill-rule="nonzero"></path><path d="M337.122103,64.311589 C337.122103,64.311589 338.831063,64.7416965 339.655914,64.8076464 C340.478853,64.8735962 344.380406,63.3232975 345.593309,63.5469534 C346.807168,63.7715651 354.613142,67.5431302 354.962007,67.8078853 C355.312784,68.0716846 354.755556,68.5916368 354.755556,68.5916368 L336.452091,67.9292712 L337.122103,64.311589 L337.122103,64.311589 Z" id="Path" fill="#FDC2CC" fill-rule="nonzero"></path><polygon id="Path" fill="#807066" fill-rule="nonzero" points="359.926404 71.4771804 329.490084 70.2442055 329.603823 67.4532855 360.040143 68.6862605"></polygon><polygon id="Path" fill="#807066" fill-rule="nonzero" points="370.23178 42.776583 359.936918 71.4762246 357.310394 70.5328554 367.604301 41.8322581"></polygon><path d="M337.34098,10.8597372 C337.34098,10.8597372 337.915412,15.5698925 336.640382,15.7667861 C335.588053,15.930227 335.958901,20.4759857 335.958901,21.1956989 C335.958901,21.9144564 333.983274,21.6621266 333.445161,21.9144564 C332.906093,22.1658303 329.843728,26.6590203 328.303943,26.227957 C326.766069,25.7968937 321.002628,20.8592593 319.925448,18.2566308 C318.847312,15.6540024 320.695818,6.52807646 323.318519,3.39976105 C325.939307,0.272401434 336.299164,2.61887694 337.340024,10.8597372" id="Path" fill="#FDC2CC" fill-rule="nonzero"></path><path d="M325.338112,22.8941458 C325.338112,22.8941458 325.182318,23.3051374 324.954839,23.9455197 C324.751073,24.5151287 324.552895,25.0867212 324.360335,25.6602151 C323.775388,27.4121864 323.133094,29.5407407 323.085305,30.5787336 C322.994504,32.5189964 316.962485,22.7412186 316.962485,22.7412186 C316.962485,22.7412186 319.132139,16.8516129 320.485544,9.96415771 C321.837037,3.0776583 325.338112,22.8941458 325.338112,22.8941458" id="Path" fill="#FFD0CA" fill-rule="nonzero"></path><g id="Group" transform="translate(318.558662, 0.751254)"><g id="Clipped"><mask id="mask-2" fill="white"><use xlink:href="#path-1"></use></mask><g id="a"></g><path d="M18.8702509,11.1158901 C18.8702509,11.1158901 22.6523297,7.75340502 19.9856631,3.11589008 C17.3189964,-1.52162485 8.01911589,1.13835125 7.130227,1.03130227 C6.24038232,0.923297491 1.60095579,-0.550537634 0.701553166,8.4004779 C-0.197849462,17.353405 0.368936679,16.0095579 0.368936679,16.0095579 C0.368936679,16.0095579 2.64755078,12.1663082 4.27431302,12.7866189 C5.90107527,13.4069295 8.74551971,13.7041816 8.74551971,13.7041816 C8.74551971,13.7041816 8.79904421,9.52449223 11.1426523,9.84755078 C13.4862605,10.1715651 17.0188769,9.4614098 18.8702509,11.1158901" id="Path" fill="#93332D" fill-rule="nonzero" mask="url(#mask-2)"></path></g></g><path d="M309.031302,40.172043 L321.362007,40.6193548 C321.362007,40.6193548 323.277419,27.7744325 316.189247,28.0210275 C309.101075,28.2685783 309.031302,40.1729988 309.031302,40.1729988" id="Path" fill="#5235AD" fill-rule="nonzero"></path><path d="M325.837993,11.4752688 C325.844683,10.9017921 326.073118,8.51517324 323.740024,9.05519713 C321.405974,9.59426523 322.810992,14.8109916 323.111111,14.990681 C323.412186,15.167503 325.783513,16.3029869 325.837993,11.4752688 M316.962485,22.7412186 C316.962485,22.7412186 327.54313,41.883871 327.268817,39.1703704 C327.053763,37.0485066 322.470729,26.8023895 322.470729,26.8023895 L316.962485,22.7412186 L316.962485,22.7412186 Z" id="Shape" fill="#FFD0CA" fill-rule="nonzero"></path><path d="M324.954839,23.9464755 C324.751079,24.5157668 324.552901,25.0870408 324.360335,25.6602151 C322.227001,23.0031063 320.747431,19.9961768 320.311589,19.060454 C321.182318,20.6470729 324.954839,23.9464755 324.954839,23.9464755" id="Path" fill="#A77860" fill-rule="nonzero"></path><polygon id="Path" fill="#D683A3" fill-rule="nonzero" points="324.933811 70.1591398 301.364875 84.4100358 300.963441 81.2673835"></polygon><polygon id="Path" fill="#D5BCDC" fill-rule="nonzero" points="31.2850657 126.70681 123.500119 126.70681 123.500119 125.58853 31.2850657 125.58853"></polygon><g id="Path"><use fill="black" fill-opacity="1" filter="url(#filter-4)" xlink:href="#path-3"></use><use fill="#FFFFFF" fill-rule="evenodd" xlink:href="#path-3"></use></g><path d="M353.126882,100.188292 L353.126882,104.641338 L93.014098,104.641338 L93.014098,100.188292 C93.014098,91.4915173 100.055436,84.4415771 108.743608,84.4415771 L337.398327,84.4415771 C346.084588,84.4415771 353.126882,91.4915173 353.126882,100.188292" id="Path" fill="#5235AD" fill-rule="nonzero"></path><path d="M122.302509,163.165591 C120.690297,163.164831 119.144419,162.523653 118.00495,161.383109 C116.865482,160.242565 116.226523,158.696083 116.226523,157.083871 L116.226523,137.825568 C116.226523,136.213355 116.865482,134.666873 118.00495,133.526329 C119.144419,132.385785 120.690297,131.744607 122.302509,131.743847 L195.707527,131.743847 C199.064412,131.745958 201.784141,134.468683 201.782557,137.825568 L201.782557,157.083871 C201.784141,160.440756 199.064412,163.163481 195.707527,163.165591 L122.302509,163.165591 L122.302509,163.165591 Z M122.302509,173.977539 C119.231541,173.977539 116.733094,176.477897 116.733094,179.552688 L116.733094,198.810992 C116.733094,201.884827 119.231541,204.386141 122.302509,204.386141 L195.707527,204.386141 C198.777539,204.386141 201.275986,201.884827 201.275986,198.810992 L201.275986,179.551732 C201.275986,176.477897 198.777539,173.977539 195.706571,173.977539 L122.301553,173.977539 L122.302509,173.977539 Z M195.707527,205.399283 L122.302509,205.399283 C118.673357,205.399283 115.720908,202.443967 115.720908,198.810992 L115.720908,179.551732 C115.720908,175.919713 118.673357,172.964397 122.302509,172.964397 L195.707527,172.964397 C199.335723,172.964397 202.288172,175.919713 202.288172,179.552688 L202.288172,198.810992 C202.288172,202.443967 199.335723,205.399283 195.706571,205.399283 L195.707527,205.399283 Z M289.130705,220.265711 L222.600717,220.265711 C222.180933,220.265457 221.778444,220.098456 221.481791,219.801445 C221.185139,219.504434 221.018877,219.101743 221.018877,218.681959 L221.018877,216.779928 C221.018877,215.905376 221.727121,215.197133 222.600717,215.197133 L289.130705,215.197133 C290.004301,215.197133 290.712545,215.904421 290.712545,216.780884 L290.712545,218.682915 C290.712545,219.557467 290.004301,220.265711 289.130705,220.265711 M289.130705,238.678136 L222.600717,238.678136 C221.727121,238.678136 221.018877,237.970848 221.018877,237.096296 L221.018877,235.195221 C221.018877,234.319713 221.727121,233.610514 222.600717,233.610514 L289.130705,233.610514 C290.004301,233.610514 290.712545,234.319713 290.712545,235.195221 L290.712545,237.096296 C290.712545,237.970848 290.004301,238.678136 289.130705,238.678136 M229.667861,132.250418 C225.177539,132.250418 221.526404,135.907288 221.526404,140.401434 L221.526404,196.23417 C221.526404,200.728315 225.177539,204.386141 229.667861,204.386141 L320.960573,204.386141 C325.44994,204.386141 329.102987,200.728315 329.102987,196.23417 L329.102987,140.401434 C329.102987,135.907288 325.44994,132.250418 320.959618,132.250418 L229.667861,132.250418 Z M320.960573,205.398327 L229.667861,205.398327 C224.619355,205.398327 220.513262,201.287455 220.513262,196.23417 L220.513262,140.401434 C220.513262,135.348148 224.619355,131.237276 229.667861,131.237276 L320.960573,131.237276 C326.007168,131.237276 330.115173,135.348148 330.115173,140.401434 L330.115173,196.23417 C330.115173,201.287455 326.008124,205.398327 320.960573,205.398327 Z" id="Shape" fill="#EAF6FF" fill-rule="nonzero"></path><path d="M317.050418,221.863799 L311.267861,216.817204 C310.793306,216.403618 310.74388,215.683636 311.157467,215.20908 C311.571054,214.734524 312.291036,214.685099 312.765591,215.098686 L316.853524,218.667622 L322.685783,212.155795 C323.105968,211.687309 323.826377,211.648154 324.294863,212.068339 C324.763348,212.488524 324.802503,213.208934 324.382318,213.677419 L317.051374,221.863799 L317.050418,221.863799 Z M317.050418,241.418399 L311.267861,236.371804 C310.960536,236.104431 310.819198,235.693412 310.897087,235.293574 C310.974976,234.893736 311.26026,234.565824 311.645474,234.433359 C312.030688,234.300894 312.45731,234.384001 312.764636,234.651374 L316.853524,238.222222 L322.685783,231.709438 C322.954095,231.392568 323.373442,231.24659 323.780522,231.328352 C324.187602,231.410114 324.518061,231.70669 324.643215,232.102588 C324.768368,232.498487 324.66843,232.931122 324.382318,233.232019 L317.051374,241.418399 L317.050418,241.418399 Z" id="Shape" fill="#FE526A" fill-rule="nonzero"></path><path d="M289.130705,258.232736 L222.600717,258.232736 C222.181021,258.232736 221.778529,258.065947 221.481849,257.769088 C221.185169,257.472229 221.018877,257.069636 221.018877,256.64994 L221.018877,254.748865 C221.018877,253.874313 221.727121,253.166069 222.600717,253.166069 L289.130705,253.166069 C290.004301,253.166069 290.712545,253.873357 290.712545,254.748865 L290.712545,256.650896 C290.712545,257.523536 290.004301,258.232736 289.130705,258.232736" id="Path" fill="#FF536B" fill-rule="nonzero"></path><path d="M317.050418,260.972043 L311.267861,255.925448 C310.824843,255.504533 310.792008,254.809342 311.193381,254.348544 C311.594754,253.887747 312.287876,253.824893 312.765591,254.205974 L316.853524,257.775866 L322.685783,251.263082 C323.106232,250.794597 323.826855,250.755656 324.29534,251.176105 C324.763826,251.596554 324.802767,252.317178 324.382318,252.785663 L317.051374,260.972043 L317.050418,260.972043 Z" id="Path" fill="#FE526A" fill-rule="nonzero"></path><path d="M125.780645,147.367264 C125.805824,145.264304 126.797881,143.290061 128.470251,142.014815 C129.683784,141.084435 131.175433,140.590137 132.704421,140.611708 C135.548869,140.64906 138.072965,142.44383 139.042294,145.11828 L139.045161,145.121147 C139.268817,145.739546 139.406452,146.398088 139.442772,147.084349 L139.441816,147.084349 C139.483613,147.882779 139.385604,148.682373 139.15221,149.447073 C138.912159,150.242524 138.528983,150.987499 138.021505,151.6454 C137.83769,151.881643 137.63845,152.105469 137.42509,152.315412 C135.758444,153.975166 133.352617,154.656142 131.063321,154.116129 C130.847068,154.067432 130.633348,154.0081 130.422939,153.938351 C127.615975,152.984166 125.742098,150.331726 125.780645,147.367264 M141.732855,147.57276 C141.734767,147.419833 141.729032,147.268817 141.723297,147.116846 C141.721386,147.064277 141.723297,147.012664 141.721386,146.961051 C141.673739,146.065013 141.494022,145.180923 141.188053,144.337395 C139.930227,140.87264 136.633692,138.378973 132.73405,138.328315 C130.714399,138.298533 128.742702,138.94444 127.132139,140.163441 C124.874756,141.862477 123.533153,144.512496 123.500119,147.337634 C123.448751,151.291864 125.948462,154.829809 129.692712,156.10227 C130.597542,156.408076 131.544839,156.569668 132.499881,156.581123 C133.582375,156.596424 134.658911,156.418404 135.678853,156.055436 C137.319547,155.467369 138.758077,154.422793 139.82509,153.044683 C141.04129,151.47787 141.711312,149.556086 141.732855,147.57276" id="Shape" fill="#5DB0FE" fill-rule="nonzero"></path><path d="M375.507766,201.733811 L284.21601,201.733811 C279.438949,201.733811 275.567981,197.857109 275.567981,193.076225 L275.567981,137.242533 C275.567981,132.460693 279.438949,128.584946 284.21601,128.584946 L375.507766,128.584946 C380.284827,128.584946 384.15675,132.460693 384.15675,137.243489 L384.15675,193.075269 C384.15675,197.856153 380.284827,201.732855 375.507766,201.732855" id="Path" fill="#FF536B" fill-rule="nonzero"></path><path d="M289.77491,168.31828 C288.908902,168.31828 288.078492,167.973632 287.46649,167.360913 C286.854489,166.748195 286.511067,165.917382 286.511827,165.051374 L286.511827,140.592593 C286.511067,139.726673 286.854519,138.895958 287.466548,138.283391 C288.078577,137.670824 288.90899,137.326643 289.77491,137.326643 L319.732378,137.326643 C320.598386,137.326643 321.428896,137.670794 322.041077,138.283333 C322.653258,138.895873 322.996923,139.726585 322.996416,140.592593 L322.996416,165.051374 C322.996923,165.91747 322.653289,166.74828 322.041135,167.360971 C321.428982,167.973662 320.598473,168.31828 319.732378,168.31828 L289.77491,168.31828 L289.77491,168.31828 Z M374.138112,145.593309 L331.014576,145.593309 C329.958423,145.593309 329.102986,144.735962 329.102986,143.678853 L329.102986,139.240143 C329.10248,138.732827 329.303655,138.246116 329.662202,137.88721 C330.020749,137.528304 330.50726,137.326643 331.014576,137.326643 L374.138112,137.326643 C374.645429,137.326643 375.131939,137.528304 375.490486,137.88721 C375.849034,138.246116 376.050209,138.732827 376.049703,139.240143 L376.049703,143.678853 C376.050463,144.186335 375.8494,144.673292 375.490825,145.032405 C375.13225,145.391517 374.645594,145.593309 374.138112,145.593309 M374.138112,158.524253 L331.014576,158.524253 C329.958423,158.524253 329.102987,157.667861 329.102987,156.610753 L329.102987,152.171087 C329.102987,151.113978 329.958423,150.257587 331.014576,150.257587 L374.138112,150.257587 C374.645429,150.257587 375.131939,150.459248 375.490486,150.818154 C375.849034,151.17706 376.050209,151.663771 376.049702,152.171087 L376.049702,156.610753 C376.050209,157.118069 375.849034,157.60478 375.490486,157.963686 C375.131939,158.322592 374.645429,158.524253 374.138112,158.524253 M374.312067,191.723775 L357.679331,191.723775 C357.218316,191.723522 356.776297,191.540076 356.45058,191.21382 C356.124862,190.887565 355.942145,190.445244 355.942651,189.984229 L355.942651,189.196655 C355.942651,188.237037 356.719713,187.457109 357.679331,187.457109 L374.312067,187.457109 C375.271685,187.457109 376.048746,188.237037 376.048746,189.196655 L376.048746,189.985185 C376.048746,190.945759 375.271685,191.724731 374.312067,191.724731" id="Shape" fill="#FFFFFF" fill-rule="nonzero"></path><path d="M363.259259,219.513501 C363.259259,219.513501 361.526404,216.477897 364.274313,208.339307 C366.933333,200.469295 376.135723,201.183274 379.060454,206.226045 C381.984229,211.267861 380.995938,214.398088 376.691995,220.092712 C372.386141,225.784468 365.047551,222.116129 363.260215,219.513501 M385.145998,363.365352 C385.203345,363.867145 390.211708,363.069056 390.211708,363.069056 L390.616965,359.091039 C390.616965,359.091039 385.259737,359.048984 384.633692,359.521147 C384.633692,359.521147 385.08865,362.862605 385.145998,363.365352 Z" id="Shape" fill="#FFD0CA" fill-rule="nonzero"></path><path d="M385.092473,362.939068 C385.092473,362.939068 383.504898,364.953883 381.969892,365.831302 C380.434886,366.708722 378.024373,367.057587 377.116368,367.964636 C376.460693,368.620311 374.729749,371.444683 381.104898,371.388292 C387.480048,371.330944 390.551971,371.785902 391.234409,370.703943 C391.919713,369.621983 390.247073,362.713501 390.247073,362.713501 C390.247073,362.713501 388.68626,363.153166 385.092473,362.939068" id="Path" fill="#211E20" fill-rule="nonzero"></path><path d="M349.9546,359.521147 C349.9546,359.521147 350.409558,362.862605 350.46595,363.365352 C350.523297,363.867145 355.531661,363.069056 355.531661,363.069056 L355.937873,359.091039 C355.937873,359.091039 350.580645,359.048984 349.9546,359.521147" id="Path" fill="#FFD0CA" fill-rule="nonzero"></path><path d="M347.291756,365.830346 C345.75675,366.709677 340.108961,367.430346 339.201912,368.337395 C338.546237,368.994982 337.456631,371.634886 346.425806,371.388292 C352.798088,371.212425 355.873835,371.785902 356.557228,370.703943 C357.239665,369.621983 355.567981,362.713501 355.567981,362.713501 C355.567981,362.713501 353.589486,363.066189 350.412425,362.939068 C350.412425,362.939068 348.825806,364.953883 347.291756,365.831302 L347.291756,365.830346 Z" id="Path" fill="#211E20" fill-rule="nonzero"></path><path d="M382.946714,276.304898 C382.946714,276.304898 385.514934,284.295341 385.177539,291.179928 C384.838232,298.064516 386.505137,305.598088 387.184707,312.790442 C387.944564,320.807646 391.052808,339.789725 391.165591,344.077419 C391.277419,348.367025 390.681959,362.060693 390.681959,362.060693 L384.462605,362.212664 C384.462605,362.212664 379.239188,329.028435 377.886738,325.642055 C376.533333,322.256631 369.824612,298.118996 369.598088,295.410275 C369.372521,292.700597 382.946714,276.304898 382.946714,276.304898" id="Path" fill="#5235AD" fill-rule="nonzero"></path><path d="M357.158423,275.474313 C357.158423,275.474313 353.383035,296.597372 352.9319,300.812425 C352.480765,305.025568 352.180645,321.203345 351.955078,323.837515 C351.728554,326.470729 350.451613,358.300597 349.250179,362.212664 L356.184468,362.212664 C356.184468,362.212664 363.305137,339.073835 363.305137,328.126165 C363.305137,317.177539 368.020072,304.325926 371.064277,297.101075 C374.107527,289.878136 381.075269,289.708005 382.946714,276.304898 C382.946714,276.304898 359.692234,271.222939 357.159379,275.473357" id="Path" fill="#5235AD" fill-rule="nonzero"></path><path d="M365.775866,221.662127 C365.775866,221.662127 366.557706,223.941697 365.775866,225.567503 C364.992115,227.195221 375.770609,226.217443 375.770609,226.217443 C375.770609,226.217443 375.283154,222.857826 376.691995,220.092712 C378.099881,217.326643 365.775866,221.662127 365.775866,221.662127" id="Path" fill="#FFD0CA" fill-rule="nonzero"></path><path d="M383.446595,278.046356 C383.446595,278.046356 379.570848,282.032975 356.810514,277.42509 L357.158423,275.474313 L383.03178,276.449223 L383.446595,278.046356 Z" id="Path" fill="#FF536B" fill-rule="nonzero"></path><path d="M364.144325,226.096057 C364.144325,226.096057 360.163441,226.50227 359.027001,226.720191 C357.887694,226.937157 350.233692,225.348626 348.662366,225.187097 C347.091995,225.023656 340.395699,220.429152 340.178734,219.887216 C339.961768,219.345281 336.104182,209.567503 335.887216,207.45233 C335.671207,205.338112 332.129988,206.42963 332.432975,207.888172 C333.001673,210.613142 333.7319,217.230108 334.131422,219.147431 C334.563441,221.217682 335.719952,225.90681 336.369892,226.485066 C337.019833,227.06141 343.048984,231.654002 348.951971,233.605735 C354.854958,235.556511 359.299403,238.432497 359.299403,238.432497 L388.393787,238.432497 C388.393787,238.432497 399.708483,222.238471 399.953166,219.797372 C400.196894,217.357228 392.048746,201.142174 390.423895,199.108244 C388.799044,197.076225 386.44779,199.773477 386.44779,199.773477 C386.44779,199.773477 391.317563,214.072162 391.967503,216.105137 C392.617443,218.139068 386.305376,227.071924 384.572521,227.099642 C382.83871,227.126404 378.387575,226.557706 376.411947,226.475508 C374.433453,226.395221 372.349821,225.52736 372.349821,225.52736 L364.144325,226.096057 L364.144325,226.096057 Z" id="Path" fill="#FFD0CA" fill-rule="nonzero"></path><path d="M351.607168,236.912784 C351.607168,236.912784 355.168459,239.283154 355.493429,243.349104 C355.817443,247.416965 357.117324,253.84086 357.767264,256.035364 C358.417204,258.232736 357.198566,274.173477 357.037037,275.310872 C356.873596,276.450179 379.549821,279.154122 383.03178,276.450179 C383.03178,276.450179 384.006691,261.566547 384.412903,257.337157 C384.81816,253.108722 386.767981,242.862605 387.417921,241.47957 C388.067861,240.095579 395.948387,229.031302 396.273357,227.57276 C396.273357,227.57276 392.195938,221.066667 389.272162,220.985424 C389.272162,220.985424 384.627001,226.434409 383.113023,226.67718 C381.599044,226.921864 372.316368,225.219594 372.314456,225.205257 C372.314456,225.205257 371.301314,226.585424 365.915412,224.958662 C365.915412,224.958662 359.502031,225.685066 358.457348,225.816965 C357.193787,225.97945 348.410992,224.713023 348.410992,224.713023 C348.410992,224.713023 344.886977,230.669534 345.505376,233.678375 L351.607168,236.91374 L351.607168,236.912784 Z" id="Path" fill="#5DB0FE" fill-rule="nonzero"></path><path d="M336.0908,208.723536 C336.0908,208.723536 335.295579,204.954839 336.254241,203.871924 C336.799044,203.256392 338.108483,201.625806 338.228913,201.384946 C338.349343,201.145998 339.754361,200.338351 339.754361,199.947431 C339.754361,199.558423 338.378017,199.07957 337.181362,200.188292 C335.984707,201.295102 335.23632,201.535962 334.757467,201.416487 C334.27957,201.295102 333.591398,197.312306 333.530227,196.323059 C333.470012,195.333811 333.089606,192.728315 332.472162,192.907049 C331.854719,193.087694 331.884349,194.226045 331.884349,194.226045 C331.884349,194.226045 331.166547,192.247551 330.687694,192.639427 C330.209797,193.027479 330.2681,193.986141 330.2681,193.986141 C330.2681,193.986141 329.371565,192.877419 329.130705,193.686022 C328.891756,194.495579 329.130705,195.214337 329.130705,195.214337 C329.130705,195.214337 328.203584,194.704898 328.144325,195.962724 C328.085066,197.221505 328.413859,200.907049 329.072401,202.223178 C329.729032,203.542174 332.194982,206.991637 332.487455,208.337395 C332.78184,209.685066 336.0908,208.723536 336.0908,208.723536 M387.242055,202.104659 C387.242055,202.104659 384.535245,197.549343 383.615771,197.142174 C382.694385,196.735962 381.393548,196.505615 380.257109,195.691278 C379.119713,194.878853 377.617204,194.202151 377.697491,193.930705 C377.779689,193.660215 379.119713,193.76822 380.555317,194.391398 C381.989008,195.014576 382.619833,194.713501 382.7546,194.387575 C382.890323,194.062605 381.989964,191.766786 381.556989,191.222939 C381.123059,190.681959 378.036798,187.571804 378.55006,187.112067 C379.064277,186.651374 381.068578,188.360335 381.393548,188.712067 C381.393548,188.712067 379.796416,185.350538 380.418638,185.188053 C381.042772,185.025568 382.20693,186.216487 382.20693,186.216487 C382.20693,186.216487 382.071207,183.344325 385.159379,188.006691 C385.159379,188.006691 384.509438,186.461171 385.455675,186.976344 C386.403823,187.491517 387.325209,190.392354 387.622461,191.856631 C387.919713,193.319952 389.271207,197.983274 390.424851,199.108244 C391.575627,200.233214 387.242055,202.104659 387.242055,202.104659" id="Shape" fill="#FFD0CA" fill-rule="nonzero"></path><path d="M372.232258,219.17037 C369.199522,218.120908 368.972999,212.812425 368.317324,213.442294 C366.978256,214.724014 365.71374,213.838949 365.20908,213.079092 C365.20908,213.079092 366.690562,211.12736 366.003345,210.187814 C365.318041,209.248268 364.200717,208.562007 364.200717,208.562007 C364.200717,208.562007 366.33405,198.2681 376.041099,202.957228 C387.415054,208.453047 376.691039,220.091756 376.691039,220.091756 C376.691039,220.091756 375.264994,220.216965 372.232258,219.17037 L372.232258,219.17037 Z" id="Path" fill="#93332D" fill-rule="nonzero"></path><path d="M365.775866,225.567503 L366.118041,224.080287 C366.118041,224.080287 372.313501,223.956033 375.694146,224.444444 L376.049701,226.222222 C376.049701,226.222222 371.719952,228.188292 365.77491,225.567503 M367.304182,212.140502 C367.867145,211.203823 369.946953,210.572999 370.192593,213.224373 C370.38184,215.280287 366.47264,217.525448 366.43632,215.60908 C366.4,213.694624 366.92951,212.76368 367.304182,212.139546" id="Shape" fill="#FFD0CA" fill-rule="nonzero"></path><path d="M335.942652,207.867145 C335.942652,207.867145 333.708005,207.923536 332.624134,208.903226 C332.624134,208.903226 332.554361,209.525448 332.804779,210.017682 C332.804779,210.017682 334.74313,209.111589 336.228435,208.942413 C336.228435,208.942413 336.202628,208.128076 335.943608,207.867145" id="Path" fill="#FF536B" fill-rule="nonzero"></path><path d="M77.7127838,208.930944 C74.3558991,208.928833 71.6361698,206.206108 71.6377525,202.849223 L71.6377525,183.591876 C71.6361696,180.234308 74.3561725,177.510882 77.7137395,177.508244 L151.118757,177.508244 C152.731135,177.509257 154.277058,178.15081 155.416374,179.29174 C156.555691,180.432669 157.195055,181.979498 157.193791,183.591876 L157.193791,202.849223 C157.193791,204.461436 156.554829,206.007918 155.41536,207.148462 C154.275892,208.289006 152.730014,208.930184 151.117802,208.930944 L77.7127838,208.930944 Z" id="Shape" fill="#5235AD" fill-rule="nonzero"></path><path d="M5.14982079,270.123775 C5.14982079,270.123775 5.48721625,271.962724 6.51947431,272.235125 C7.39593787,272.465472 8.36224612,273.398327 8.660454,273.68411 C9.05806452,274.066428 10.7192354,274.787097 10.2422939,275.294624 C9.76439665,275.803106 7.44659498,274.240382 6.89510155,274.010036 C6.34360812,273.780645 7.13405018,276.334528 6.91039427,276.915651 C6.68769415,277.498686 2.38470729,278.56822 2.04540024,276.750299 C1.7051374,274.934289 2.54145759,272.768459 2.4181601,272.459737 C2.2948626,272.153883 2.11899642,271.148387 2.11899642,271.148387 L5.14982079,270.123775 L5.14982079,270.123775 Z" id="Path" fill="#FE8D23" fill-rule="nonzero"></path><path d="M6.93142174,276.473118 C6.93142174,276.473118 7.6004779,282.105615 7.33189964,282.517563 C7.06332139,282.931422 6.75555556,282.948626 6.67240143,282.424851 C6.58637993,281.902031 5.86571087,277.002628 5.86571087,277.002628 C5.86571087,277.002628 5.54074074,283.802151 5.39450418,284.187336 C5.30848268,284.414815 4.71589008,284.483632 4.6442055,284.208363 C4.5744325,283.932139 4.51135006,277.174671 4.51135006,277.174671 C4.51135006,277.174671 4.19593787,283.523059 3.97610514,283.808841 C3.78494624,284.060215 3.22485066,283.98853 3.2172043,283.515412 C3.20764636,283.04325 3.16750299,277.13644 3.16750299,277.13644 C3.16750299,277.13644 2.64755078,281.741458 2.31971326,281.874313 C2.11899642,281.956511 1.61051374,282.040621 1.78160096,280.855436 C1.95364397,279.672162 2.06451613,276.835364 2.06451613,276.835364 L6.93142174,276.474074 L6.93142174,276.473118 Z M65.5655914,201.032258 C65.5655914,201.032258 66.4898447,199.305137 66.8052569,197.925926 C67.1216249,196.546714 68.8401434,194.708722 69.5407407,194.276703 C70.2403823,193.84086 75.3156511,190.200239 75.9034648,190.200239 C76.4903226,190.201195 76.1491039,191.329988 75.6415771,191.659737 C75.1340502,191.98853 71.0117085,195.203823 71.0117085,195.203823 C71.0117085,195.203823 76.1405018,191.660693 76.6767025,191.758184 C77.2119474,191.853763 77.5942652,192.535245 77.0188769,193.237754 C77.0188769,193.237754 78.1878136,194.008124 76.9691756,194.942891 L74.5452808,196.819116 C74.5452808,196.819116 75.9713262,196.076464 75.4427718,197.224373 C75.1608124,197.835125 72.1777778,199.615771 71.7008363,200.160573 C71.2229391,200.705376 67.4618877,202.539546 67.4618877,202.539546 L65.5655914,201.032258 L65.5655914,201.032258 Z M35.5096774,358.859737 L36.7808841,358.859737 C36.7808841,358.859737 36.3574671,354.054002 37.5359618,354.005257 C38.711589,353.957467 41.6296296,357.917324 43.3729988,358.530944 C45.1144564,359.142652 54.0587814,359.660693 54.1065711,358.010992 C54.153405,356.364158 50.6695341,355.702748 49.5866189,355.231541 C48.5037037,354.760335 43.2305854,349.621983 42.2900836,349.009319 C41.3476703,348.397611 39.7945042,345.287455 39.7945042,345.287455 L34.9916368,345.287455 C34.9916368,345.287455 34.464994,347.896774 34.1620072,350.005257 C34.0492234,350.784229 33.9679809,351.494385 33.9555556,351.979928 C33.9087216,353.770131 35.5087216,358.859737 35.5087216,358.859737 M13.4174432,357.909677 L14.4764636,357.909677 L14.4764636,353.434648 C15.3596177,353.508244 18.3264038,356.319235 19.2439665,357.133572 C20.1615293,357.945998 21.4212664,357.909677 25.2874552,358.156272 C29.153644,358.400956 29.5197133,356.085066 28.907049,355.295579 C28.2953405,354.506093 26.3168459,354.161051 25.2874552,353.670729 C24.2580645,353.175627 20.1978495,348.592593 19.1149343,347.50681 C18.0320191,346.422939 17.3715651,343.317563 17.3715651,343.317563 L12.8535245,343.710394 C12.8535245,343.710394 12.8821983,346.552927 12.3660693,348.935723 L12.3660693,348.937634 C12.3224651,349.144007 12.2724208,349.348965 12.2160096,349.55221 C11.5459976,352.030585 13.4174432,357.909677 13.4174432,357.909677 M23.9904421,208.349821 C23.9904421,208.349821 21.7835125,213.008363 22.9620072,216.81816 C22.9620072,216.81816 16.1758662,215.891039 15.972282,215.09773 C15.7696535,214.301553 16.8229391,207.158901 16.0391876,204.967264 C15.2544803,202.775627 23.9904421,208.349821 23.9904421,208.349821" id="Shape" fill="#FFD0CA" fill-rule="nonzero"></path><path d="M24.1510155,215.274552 C24.1510155,215.274552 28.0793309,216.963441 29.8714456,217.482437 C31.6635603,218.002389 35.3452808,220.03632 34.5567503,226.633214 C33.7682198,233.228196 32.2169654,238.886499 31.5976105,241.700358 C30.9782557,244.514217 30.7135006,251.771565 31.1292712,255.336679 C31.1292712,255.336679 21.2989247,257.015054 10.1075269,253.812186 C10.1075269,253.812186 12.5562724,247.960812 12.6164875,246.406691 C12.6767025,244.849701 6.9390681,231.594743 6.77371565,229.556033 C6.61123059,227.517324 5.91158901,218.524253 9.10107527,216.78184 C12.2896057,215.037515 14.7507766,215.476225 16.1060932,214.691517 C17.4614098,213.904898 22.3120669,214.506093 24.1510155,215.274552" id="Path" fill="#5235AD" fill-rule="nonzero"></path><path d="M24.1318996,225.53405 C24.1318996,225.53405 22.6236559,217.610514 30.2958184,217.623895 C37.0399044,217.635364 43.4112306,216.355556 44.4798088,215.760096 C45.5483871,215.167503 49.6726404,213.138351 51.8394265,210.907527 C54.0052569,208.677658 65.7414576,199.741935 65.7414576,199.741935 L68.9854241,203.026045 C68.9854241,203.026045 56.6040621,216.487455 54.6083632,217.797849 C52.6117085,219.1092 35.8518519,228.480765 33.7252091,228.776105 C31.5985663,229.072401 25.627718,230.697252 24.1318996,225.53405 M0.0238948626,250.013859 C-0.206451613,252.803823 1.31135006,272.067861 1.31135006,272.067861 L6.76702509,272.698686 C6.76702509,272.698686 6.37992832,253.67264 6.07311828,249.283632 C5.98422939,247.98853 6.28243728,246.008124 6.7479092,243.860454 L6.7479092,243.859498 C7.0432497,242.493668 7.40740741,241.061888 7.78112306,239.695102 C8.43270828,237.325681 9.14790114,234.974214 9.92592593,232.64325 C9.92592593,232.64325 16.0353644,216.732139 8.36989247,217.374432 C8.36989247,217.374432 5.52162485,220.315412 4.31541219,225.140263 C3.11015532,229.966069 1.73094385,237.195699 1.67741935,240.076464 C1.62580645,242.956272 0.192114695,247.961768 0.0238948626,250.013859" id="Shape" fill="#FF536B" fill-rule="nonzero"></path><path d="M29.814098,255.180884 C29.814098,255.180884 31.5746714,259.348148 31.7295102,260.401434 C31.8853047,261.453763 37.4050179,275.210514 37.7892473,279.235364 C38.1782557,283.305137 39.3424134,294.167742 39.7562724,295.72282 C40.1710872,297.279809 38.8243728,304.225568 38.6179211,305.781601 C38.4105137,307.335723 38.5127838,332.740741 40.3784946,345.285544 C40.3784946,345.285544 36.027718,347.153166 32.7130227,345.285544 C32.7130227,345.285544 27.2238949,325.688889 27.5345281,314.386619 C27.8461171,303.084349 29.2778973,298.316846 27.5259259,293.751016 C25.7739546,289.19092 15.521147,275.502987 14.4850657,274.052091 C13.4489845,272.600239 6.95913978,264.578256 13.1039427,255.888172 C19.2497013,247.197133 29.814098,255.180884 29.814098,255.180884" id="Path" fill="#FF536B" fill-rule="nonzero"></path><path d="M8.6088411,292.301075 C9.15364397,295.930227 8.58112306,300.699642 7.4427718,313.974671 C6.30155317,327.244922 9.43560335,343.316607 9.43560335,343.316607 C13.3715651,344.664277 17.9029869,343.316607 17.9029869,343.316607 C17.7988053,342.383751 17.9029869,310.964875 17.9029869,308.165352 C17.9029869,305.364875 18.7058542,302.188769 18.9123059,298.974432 C19.0537634,296.785663 20.0716846,292.746476 21.2157706,288.62509 C21.5598566,287.390203 21.9135006,286.149582 22.2585424,284.948148 L22.2585424,284.946237 L22.8272401,282.968698 C24.4406213,277.369654 26.609319,255.748626 26.609319,255.748626 C26.609319,255.748626 14.5882915,246.05687 8.73596177,255.180884 C2.88363202,264.304898 5.88769415,270.941935 6.09510155,272.081243 C6.30155317,273.222461 8.06403823,288.672879 8.6088411,292.301075" id="Path" fill="#FF536B" fill-rule="nonzero"></path><path d="M31.9015532,238.872162 C31.9015532,238.872162 30.8339307,256.049701 34.0281959,265.716607 C34.0281959,265.716607 21.3352449,267.835603 5.14121864,262.373238 C5.14121864,262.373238 9.59522103,250.826284 9.44229391,249.021744 C9.28841099,247.216249 4.60119474,226.190681 6.85113501,221.485305 C9.10011947,216.780884 31.1034648,223.457109 31.902509,238.872162" id="Path" fill="#5235AD" fill-rule="nonzero"></path><path d="M21.5340502,189.197611 C24.4358423,189.081004 31.8451613,190.205974 30.464994,201.385902 C29.0848268,212.563919 25.0532855,211.596655 21.0580645,210.112306 C17.0647551,208.627001 12.8382318,199.587097 13.0064516,197.259737 C13.1737157,194.932378 13.2530466,189.532139 21.5340502,189.197611" id="Path" fill="#FFD0CA" fill-rule="nonzero"></path><path d="M30.4229391,196.217921 C30.4229391,196.217921 26.8807646,200.121386 23.5498208,200.875508 C23.5498208,200.875508 20.7149343,205.186141 16.2542413,206.013859 C16.2542413,206.013859 7.56415771,196.398566 15.902509,190.245161 C24.2399044,184.092712 30.7240143,192.789486 30.4238949,196.217921" id="Path" fill="#353A3D" fill-rule="nonzero"></path><path d="M24.2752688,199.376822 C24.2102748,198.755556 22.9419355,197.407885 21.7930705,198.729749 C20.6442055,200.050657 22.3197133,203.445639 23.0432497,203.499164 C23.7658303,203.550777 24.520908,201.733811 24.2762246,199.376822" id="Path" fill="#EEA886" fill-rule="nonzero"></path><path d="M13.5923536,272.800956 C13.6850657,273.008363 19.6750299,286.316846 21.2167264,288.62509 C21.5598566,287.390203 21.9135006,286.149582 22.2585424,284.947192 C22.2585424,284.947192 13.7930705,273.095341 13.5923536,272.800956" id="Path" fill="#8D3154" fill-rule="nonzero"></path><path d="M6.48028674,230.216487 C6.48028674,230.216487 6.05686977,238.674313 6.7479092,243.859498 C7.04229391,242.494624 7.40740741,241.061888 7.78207885,239.696057 C7.75149343,239.502031 6.59020311,231.550777 6.47933094,230.216487" id="Path" fill="#40081D" fill-rule="nonzero"></path><path d="M19.2984468,188.473118 C19.2984468,188.473118 9.2004779,188.241816 10.7173238,205.612425 C11.8833931,218.963919 6.98016726,225.557945 7.6702509,227.504898 C8.36129032,229.450896 10.7287933,232.702509 16.0305854,229.770131 C21.3323775,226.835842 17.841816,211.535484 20.6900836,205.579928 C23.5383513,199.626284 29.7902031,196.866906 29.7902031,196.866906 C29.7902031,196.866906 28.692951,186.728793 19.2984468,188.474074" id="Path" fill="#93332D" fill-rule="nonzero"></path><path d="M32.9252091,223.648268 C32.9252091,223.648268 35.2305854,231.891995 35.7782557,233.84086 C36.4912784,236.370848 33.1842294,241.132616 30.255675,239.671207 C27.3271207,238.205974 32.9252091,223.648268 32.9252091,223.648268" id="Path" fill="#5235AD" fill-rule="nonzero"></path><path d="M13.4174432,357.909677 L14.4764636,357.909677 L14.4764636,353.434648 C15.3596177,353.508244 18.3264038,356.319235 19.2439665,357.133572 C20.1615293,357.945998 21.4212664,357.909677 25.2874552,358.156272 C29.153644,358.400956 29.5197133,356.085066 28.907049,355.295579 C28.2953405,354.506093 26.3168459,354.161051 25.2874552,353.670729 C21.1517324,353.890562 16.1041816,348.069773 13.6812425,348.081226 C12.3937873,348.086977 12.4062127,348.801912 12.3670251,348.935723 L12.3670251,348.937634 C12.3234209,349.144007 12.2733766,349.348965 12.2169654,349.55221 C11.5459976,352.030585 13.4174432,357.909677 13.4174432,357.909677 M36.7818399,358.859737 C36.7818399,358.859737 36.3574671,354.054002 37.5359618,354.005257 C38.711589,353.957467 41.6296296,357.917324 43.3729988,358.530944 C45.1144564,359.142652 54.0587814,359.660693 54.1065711,358.010992 C54.153405,356.364158 50.6695341,355.702748 49.5866189,355.231541 C45.8972521,355.221983 39.89773,351.157945 38.0367981,350.33405 C36.1777778,349.5092 34.162963,350.005257 34.162963,350.005257 C34.0501792,350.784229 33.9689367,351.494385 33.9565114,351.979928 C33.9096774,353.770131 35.5096774,358.859737 35.5096774,358.859737 L36.7808841,358.859737 L36.7818399,358.859737 Z" id="Shape" fill="#211E20" fill-rule="nonzero"></path><path d="M110.193548,259.191398 L117.97945,259.191398 L117.97945,230.876941 L110.194504,230.876941 L110.193548,259.191398 Z M121.273118,259.191398 L129.05902,259.191398 L129.05902,228.020072 L121.273118,228.020072 L121.273118,259.191398 Z M132.501792,259.191398 L140.286738,259.191398 L140.286738,233.951732 L132.500836,233.951732 L132.501792,259.191398 Z M143.72951,259.190442 L151.514456,259.190442 L151.514456,222.253763 L143.72951,222.253763 L143.72951,259.190442 Z M155.510633,259.191398 L163.296535,259.191398 L163.296535,225.933572 L155.510633,225.933572 L155.510633,259.191398 Z M167.451374,259.191398 L175.237276,259.191398 L175.237276,230.876941 L167.451374,230.876941 L167.451374,259.191398 Z M178.529988,259.191398 L186.31589,259.191398 L186.31589,228.020072 L178.529988,228.020072 L178.529988,259.191398 Z M189.758662,259.191398 L197.544564,259.191398 L197.544564,233.951732 L189.758662,233.951732 L189.758662,259.191398 Z" id="Shape" fill="#5DB0FE" fill-rule="nonzero"></path><path d="M82.255675,192.498925 C82.280724,190.396465 83.2728692,188.422752 84.9452808,187.148387 C86.1583519,186.216922 87.6501671,185.721896 89.1794504,185.743369 C92.024143,185.780869 94.5483107,187.57607 95.5173238,190.250896 L95.5201912,190.253763 C95.7438471,190.872162 95.8814815,191.531661 95.9178017,192.21601 C95.9597122,193.015701 95.861706,193.81657 95.6281959,194.582557 C95.2984557,195.666127 94.7046398,196.650784 93.9001195,197.448029 C92.23192,199.106457 89.8261299,199.786857 87.5364397,199.24779 C87.3208282,199.199423 87.1077438,199.14041 86.8979689,199.070968 C84.0904768,198.116926 82.2164094,195.46383 82.255675,192.498925 M98.1983274,192.226523 C98.1964158,192.182557 98.1983274,192.137634 98.1964158,192.093668 C98.1487685,191.197629 97.9690519,190.313539 97.6630824,189.470012 C96.4062127,186.005257 93.1096774,183.510633 89.2100358,183.460932 C87.1901702,183.430661 85.2181146,184.076239 83.6071685,185.295102 C81.3495219,186.994342 80.007888,189.644775 79.9751493,192.470251 C79.9245212,196.424546 82.4244477,199.96225 86.1686977,201.234886 C89.8529715,202.482664 93.9230713,201.253686 96.3010753,198.175388 C97.6176437,196.479435 98.2902281,194.371597 98.1992832,192.226523" id="Shape" fill="#F1E8F1" fill-rule="nonzero"></path></g></g></g></svg> 