<?xml version="1.0" encoding="UTF-8"?> <svg xmlns="http://www.w3.org/2000/svg" xmlns:xlink="http://www.w3.org/1999/xlink" width="440px" height="352px" viewBox="0 0 440 352"><!-- Generator: Sketch 64 (93537) - https://sketch.com --><title>Email Centralisation (add-on)</title><desc>Created with Sketch.</desc><g id="Page-1" stroke="none" stroke-width="1" fill="none" fill-rule="evenodd"><g id="Email-Centralisation-(add-on)" fill-rule="nonzero"><rect id="Rectangle" fill="#93332D" x="215" y="33" width="38" height="48"></rect><path d="M253.129006,35.0002013 C249.763707,44.941756 244.603469,54 234.086686,54 C223.569904,54 215.636934,45.4768303 215.044367,35.0002013 C214.287184,21.6131582 223.327275,15.9449532 234.086686,16.0004027 C246.797154,16.065902 257.122807,23.2019963 253.129006,35.0002013 Z" id="Path" fill="#8B322E"></path><path d="M244,50 C244,50 240.918919,68 242.459459,68.5 C244,69 225,71 225,71 C225,71 230.648649,57.5 229.108108,55 C227.567568,52.5 244,50 244,50 Z" id="Path" fill="#FFD0CA"></path><path d="M244,50 C244,50 240.918919,68 242.459459,68.5 C244,69 225,71 225,71 C225,71 230.648649,57.5 229.108108,55 C227.567568,52.5 244,50 244,50 Z" id="Path" fill="#000000" opacity="0.1"></path><path d="M281.618585,115.4054 L290,122 C290,122 283.072184,87.2118464 282.878307,84.6550951 C282.684429,82.0983439 276.168722,64.5855509 269.190129,67.2811341 C262.211535,69.9767173 274.141612,89.1628356 274.141612,89.1628356 L281.936276,116.963979 L281.618585,115.4054 Z" id="Path" fill="#FFD0CA"></path><circle id="Oval" fill="#FFD0CA" cx="232.5" cy="44.5" r="14.5"></circle><path d="M233.274336,66.0454545 L226.716814,63 C226.716814,63 223.185841,69.5984848 221.168142,69.5984848 C219.150442,69.5984848 202,73.1515152 202,76.7045455 C202,80.2575758 207.044248,105.636364 207.044248,105.636364 C207.044248,105.636364 217.132743,130 217.637168,130 C218.141593,130 253.955752,125.431818 253.955752,125.431818 L255.973451,119.848485 L259,86.8560606 C259,86.8560606 246.893805,78.7348485 246.893805,76.1969697 C246.893805,73.6590909 245.884956,65.030303 243.867257,65.030303 C241.849558,65.030303 238.318584,68.0757576 238.318584,68.0757576 L233.274336,66.0454545 Z" id="Path" fill="#FF536B"></path><path d="M254.506044,88.0403659 L259.024175,86 C259.024175,86 262.538278,92.6311892 263.542307,93.1412807 C264.546336,93.6513721 266.05238,96.2018295 266.05238,97.2220125 C266.05238,98.2421954 269.064468,106.403659 271.574541,106.913751 C274.084614,107.423842 278.100731,109.464208 277.598716,110.994482 C277.286137,111.814971 277.286137,112.724451 277.598716,113.54494 L279.606775,110.994482 L290.149082,119.155946 C290.149082,119.155946 295.671243,136.499056 287.639009,135.988965 C279.606775,135.478873 272.57857,131.398141 269.064468,129.357775 C265.550365,127.31741 265.550365,128.337592 263.542307,125.277044 C261.534249,122.216495 253,116.605489 253,116.605489 L254.506044,88.0403659 Z" id="Path" fill="#FF536B"></path><path d="M216.863568,124.893028 L212.81873,126.915854 L213.829939,134.501451 C213.829939,134.501451 157.707809,333.244085 165.797485,334.761204 C173.887162,336.278323 196.639377,340.323975 208.773891,343.358214 C220.908406,346.392452 238.098969,346.898159 238.098969,343.358214 C238.098969,339.818269 243.155016,213.897363 243.155016,213.897363 C243.155016,213.897363 244.671831,347.403865 249.222274,347.403865 C253.772717,347.403865 291.18747,355.495168 293.715494,347.403865 C296.243518,339.312562 281.58098,157.258241 263.379208,136.01857 C263.379208,136.01857 254.278322,124.387322 254.783926,122.870202 C255.289531,121.353083 254.278322,119.330257 254.278322,119.330257 C254.278322,119.330257 254.783926,118.318844 249.222274,119.835964 C243.660621,121.353083 241.132597,121.353083 239.615783,120.847377 C238.098969,120.34167 235.570945,118.318844 234.05413,119.835964 C232.537316,121.353083 227.986873,123.881615 225.964454,123.375909 C223.942035,122.870202 222.930825,119.835964 220.908406,121.85879 C219.714467,123.061148 218.351903,124.083277 216.863568,124.893028 Z" id="Path" fill="#5235AD"></path><path d="M169.341632,333 C169.341632,333 166.32296,349.525248 169.341632,350.041662 C172.360305,350.558076 187.453668,351.590904 187.95678,350.558076 C188.459893,349.525248 184.434996,335.065656 182.925659,334.032828 C181.416323,333 169.341632,333 169.341632,333 Z" id="Path" fill="#191847"></path><path d="M273.658368,335 C273.658368,335 276.67704,349.519172 273.658368,350.037713 C270.639695,350.556255 255.546332,351.593339 255.04322,350.556255 C254.540107,349.519172 258.565004,337.074167 260.074341,336.037084 C261.583677,335 273.658368,335 273.658368,335 Z" id="Path" fill="#191847"></path><path d="M172,117.036815 C172,117.036815 192.731101,122.577312 197.787467,123.584675 C202.843833,124.592038 208.405836,129.628853 208.911472,131.643579 C209.417109,133.658305 213.967838,142.724573 217.507295,140.709847 C221.046751,138.695121 217.507295,121.569949 214.979112,121.066267 C212.450929,120.562586 181.607096,112 181.607096,112 L172,117.036815 Z" id="Path" fill="#FFD0CA"></path><path d="M206.873045,75 L201.347922,75 L169.201751,99.4468328 C169.201751,99.4468328 161.667493,101.484069 162.169776,103.011996 C162.67206,104.539923 154.635518,113.707485 159.658357,115.744721 C164.681196,117.781957 168.699467,118.291266 170.708603,119.819193 C172.717739,121.34712 185.274836,112.688867 185.274836,112.688867 L183.265701,111.16094 C183.265701,111.16094 206.370761,103.011996 208.379896,104.030614 C210.389032,105.049232 206.873045,75 206.873045,75 Z" id="Path" fill="#FF536B"></path><polygon id="Path" fill="#FFFFFF" points="222 67.5 234 75 233 102 236.5 95.5 238.5 102 238.5 75 247 75 246.5 70.5 236.5 72 223.5 65"></polygon><path d="M224.987773,24.4545457 C224.987773,24.4545457 224.821028,23.5228955 218.299673,25.9774389 C211.778318,28.4319822 207.869219,46.5454562 211.129896,57.1818192 C212.443936,61.4682558 211.374988,64.5587441 209.630312,66.7211103 C203.083224,74.8356231 205.660541,87.023398 215.19688,91.1961608 C215.466053,91.3139312 215.74073,91.4303631 216.020912,91.5454566 L220.096757,94 C220.096757,94 214.900928,87.1381175 217.501116,78.3605116 C219.759191,70.8816495 220.038048,62.9415131 218.310239,55.3216306 C218.01193,54.0362072 217.67307,52.7111887 217.28815,51.3589915 C214.027472,39.904444 215.613324,41.2272747 227.025695,29.7727272 C227.025695,29.7727272 233.54705,34.681819 239.253233,37.1363624 C244.959417,39.5909057 249.850433,42.0454541 245.774588,50.2272738 C241.698744,58.4090934 231.916712,65.7727286 238.438062,76.4090916 C244.959411,87.0454546 245.774588,82.9545473 244.959396,87.0454546 L244.959396,87.0454546 L244.144229,91.1363619 L249.035246,86.2272751 L245.774568,92.7727258 C245.774568,92.7727258 256.371768,92.7727258 259.632445,84.5909112 L261.262784,86.2272751 C261.262784,86.2272751 267.784134,74.7727276 255.556596,64.1363646 C255.556596,64.1363646 251.480751,61.6818162 257.186934,53.5 C262.893118,45.3181871 258.510721,27.7272736 251.174199,24.4545457 C243.837677,21.1818179 224.987773,24.4545457 224.987773,24.4545457 Z" id="Path" fill="#93332D"></path><circle id="Oval" fill="#93332D" cx="234.5" cy="11.5" r="7.5"></circle><path d="M225.454545,7.5 C225.454827,3.64845894 228.283908,0.423171989 232,0.03787 C231.760742,0.01337 231.518259,0 231.272727,0 C227.256111,0 224,3.35786438 224,7.5 C224,11.6421356 227.256111,15 231.272727,15 C231.518259,15 231.760742,14.986635 232,14.96213 C228.283912,14.5768191 225.454836,11.3515375 225.454545,7.5 L225.454545,7.5 Z" id="Path" fill="#93332D"></path><ellipse id="Oval" fill="#FFD0CA" cx="248" cy="43" rx="1" ry="2"></ellipse><path d="M71.0354177,317.877606 C74.4641256,330.304015 86.208225,338 86.208225,338 C86.208225,338 92.3932933,325.548799 88.9645803,313.122394 C85.5358673,300.69599 73.791773,293 73.791773,293 C73.791773,293 67.6067098,305.451201 71.0354177,317.877606 Z" id="Path" fill="#11B99C"></path><path d="M76.4643822,315.878963 C85.8532248,324.991664 87,339 87,339 C87,339 72.9244554,338.233733 63.5356178,329.121037 C54.1467803,320.008341 53,306 53,306 C53,306 67.0755446,306.766272 76.4643822,315.878963 Z" id="Path" fill="#1CD5B5"></path><rect id="Rectangle" fill="#4EA3F2" x="62" y="351" width="328" height="1"></rect><path d="M91,351 L78,351 L78,338 L91,338 L91,351 Z M79,350 L90,350 L90,339 L79,339 L79,350 Z" id="Shape" fill="#4EA3F2"></path><polyline id="Path" fill="#4EA3F2" points="111.570259 222 0 222 0 153 127 153 127 201.365956"></polyline><polygon id="Path" fill="#000000" points="118.065771 216 6 216 6 146 134 146 134 194.863043 132.988142 194.863043 132.988142 147.014493 7.01185771 147.014493 7.01185771 214.985507 118.065771 214.985507"></polygon><polygon id="Path" fill="#000000" points="163 217 133 217 133 215.962307 159.137537 215.962307 133.007017 200.906425 133.494211 200"></polygon><rect id="Rectangle" fill="#000000" x="20" y="171" width="99" height="1"></rect><rect id="Rectangle" fill="#000000" x="20" y="181" width="99" height="1"></rect><rect id="Rectangle" fill="#000000" x="20" y="191" width="99" height="1"></rect><circle id="Oval" fill="#5235AD" cx="161" cy="216" r="4"></circle><rect id="Rectangle" fill="#4EA3F2" x="95" y="38" width="47" height="32"></rect><path d="M146,67 L98,67 L98,34 L146,34 L146,67 Z M99.0075177,66.0027078 L144.992482,66.0027078 L144.992482,34.9972922 L99.0075177,34.9972922 L99.0075177,66.0027078 Z" id="Shape" fill="#000000"></path><polygon id="Path" fill="#000000" points="121.809358 51 98 34.8208855 98.5795505 34.0019924 121.813934 49.7910868 145.42655 34 146 34.8228779"></polygon><circle id="Oval" fill="#5235AD" cx="122" cy="50" r="4"></circle><rect id="Rectangle" fill="#4EA3F2" x="339" y="204" width="47" height="32"></rect><rect id="Rectangle" fill="#5235AD" x="375" y="207" width="10" height="3"></rect><rect id="Rectangle" fill="#FFFFFF" x="362" y="216" width="23" height="2"></rect><rect id="Rectangle" fill="#FFFFFF" x="351" y="220" width="34" height="2"></rect><rect id="Rectangle" fill="#FFFFFF" x="351" y="224" width="34" height="2"></rect><polyline id="Path" fill="#4EA3F2" points="328.429741 83 440 83 440 14 313 14 313 62.3659559"></polyline><polygon id="Path" fill="#000000" points="434 78 321.934229 78 321.934229 76.9855072 432.988142 76.9855072 432.988142 9.01449275 307.011858 9.01449275 307.011858 56.8630435 306 56.8630435 306 8 434 8"></polygon><polygon id="Path" fill="#000000" points="307 78 277 78 306.505789 61 306.992983 61.9064245 280.862463 76.9623073 307 76.9623073"></polygon><rect id="Rectangle" fill="#000000" x="321" y="32" width="99" height="1"></rect><rect id="Rectangle" fill="#000000" x="321" y="42" width="99" height="1"></rect><rect id="Rectangle" fill="#000000" x="321" y="52" width="99" height="1"></rect><circle id="Oval" fill="#5235AD" cx="279" cy="77" r="4"></circle></g></g></svg> 