<?xml version="1.0" encoding="UTF-8"?> <svg xmlns="http://www.w3.org/2000/svg" xmlns:xlink="http://www.w3.org/1999/xlink" width="421px" height="346px" viewBox="0 0 421 346"><!-- Generator: Sketch 64 (93537) - https://sketch.com --><title>Module &amp; Customization</title><desc>Created with Sketch.</desc><defs><rect id="path-1" x="0" y="30" width="195" height="201"></rect><filter x="-4.6%" y="-4.5%" width="109.2%" height="109.0%" id="filter-2"><feOffset dx="0" dy="0" in="SourceAlpha" result="shadowOffsetOuter1"></feOffset><feGaussianBlur stdDeviation="3" in="shadowOffsetOuter1" result="shadowBlurOuter1"></feGaussianBlur><feColorMatrix values="0 0 0 0 0 0 0 0 0 0 0 0 0 0 0 0 0 0 0.238909528 0" type="matrix" in="shadowBlurOuter1"></feColorMatrix></filter><rect id="path-3" x="214" y="28" width="195" height="81"></rect><filter x="-4.6%" y="-11.1%" width="109.2%" height="122.2%" id="filter-4"><feOffset dx="0" dy="0" in="SourceAlpha" result="shadowOffsetOuter1"></feOffset><feGaussianBlur stdDeviation="3" in="shadowOffsetOuter1" result="shadowBlurOuter1"></feGaussianBlur><feColorMatrix values="0 0 0 0 0 0 0 0 0 0 0 0 0 0 0 0 0 0 0.238909528 0" type="matrix" in="shadowBlurOuter1"></feColorMatrix></filter></defs><g id="Page-1" stroke="none" stroke-width="1" fill="none" fill-rule="evenodd"><g id="Module-&amp;-Customization" transform="translate(6.000000, 0.000000)"><path d="M219.27477,320.104583 C116.524683,312.293318 -6.00957989,232.760401 0.228821719,150.868254 C6.46722333,68.9761075 125.142973,-7.25864506 227.893064,0.552619973 C330.643155,8.36388501 389.789612,161.406492 383.551198,243.298643 C377.312784,325.190794 322.024861,327.915865 219.27477,320.104583 Z" id="Path" fill="#D9EEFE" fill-rule="nonzero"></path><g id="Rectangle" fill-rule="nonzero"><use fill="black" fill-opacity="1" filter="url(#filter-2)" xlink:href="#path-1"></use><use fill="#FAFBFC" xlink:href="#path-1"></use></g><path d="M98.4416446,90.0121857 C98.1219786,90.0047401 97.8016414,90 97.4801943,90 C79.2569942,90.0094322 63.2844958,102.189896 58.4529068,119.761811 C53.6213179,137.333725 61.1207727,155.968712 76.7771147,165.294638 C92.4334567,174.620564 112.390159,172.340232 125.539428,159.722863 C138.688696,147.105495 141.791556,127.259045 133.120971,111.229942 L99.5905353,136.429857 L98.4416446,90.0121857 Z" id="Path"></path><path d="M133.743381,111.662004 C142.455732,127.753308 139.345847,147.682373 126.145119,160.353906 C112.944392,173.025438 92.9055637,175.317095 77.1850365,165.953021 C61.4645093,156.588947 53.9359176,137.876507 58.790724,120.233652 C63.6455303,102.590796 79.6874808,90.3648328 97.9853916,90.3624349 C98.3078959,90.3624349 98.6292865,90.3671906 98.9500038,90.3746606 L98.5201153,73.0067756 C98.3417004,73.0051749 98.1641664,73 97.9853916,73 C71.6457212,73.0075925 48.6187521,90.7645806 41.9151067,116.237969 C35.2114614,141.711358 46.5147506,168.503542 69.4384272,181.47649 C92.3621037,194.449438 121.148919,190.345013 139.533842,171.482283 C157.918764,152.619553 161.284447,123.735866 147.729223,101.150988 L133.743381,111.662004 Z" id="Path" fill="#5235AD" fill-rule="nonzero"></path><path d="M134.073586,112 L148,101.395239 C137.658027,83.9330861 119.097755,73.1775074 99,73 L99.4280618,90.5227916 C113.942338,90.8673315 127.16261,99.0627487 134.073586,112 L134.073586,112 Z" id="Path" fill="#5235AD" fill-rule="nonzero" opacity="0.3"></path><line x1="127" y1="181" x2="147" y2="202" id="Path" stroke="#2F2E41" stroke-width="2"></line><line x1="141" y1="55" x2="127" y2="80" id="Path" stroke="#2F2E41" stroke-width="2"></line><rect id="Rectangle" fill="#F2F2F2" fill-rule="nonzero" x="131" y="201" width="33" height="8"></rect><rect id="Rectangle" fill="#F2F2F2" fill-rule="nonzero" x="124" y="47" width="33" height="8"></rect><g id="Rectangle" fill-rule="nonzero"><use fill="black" fill-opacity="1" filter="url(#filter-4)" xlink:href="#path-3"></use><use fill="#FAFBFC" xlink:href="#path-3"></use></g><path d="M293,91 L271.11986,91 C269.626713,82.397213 269.626713,73.602787 271.11986,65 L293,65 C290.535025,73.4925731 290.535025,82.5074269 293,91 Z" id="Path" fill="#FF6584" fill-rule="nonzero"></path><path d="M354,91 L332.11986,91 C330.626713,82.397213 330.626713,73.602787 332.11986,65 L354,65 C351.535025,73.4925731 351.535025,82.5074269 354,91 Z" id="Path" fill="#FF536B" fill-rule="nonzero"></path><path d="M261,73 L239.11986,73 C237.626713,64.397213 237.626713,55.602787 239.11986,47 L261,47 C258.535025,55.4925731 258.535025,64.5074269 261,73 Z" id="Path" fill="#5235AD" fill-rule="nonzero"></path><path d="M301,73 L322.880143,73 C324.373286,64.3972127 324.373286,55.6027873 322.880143,47 L301,47 C303.464971,55.4925737 303.464971,64.5074263 301,73 Z" id="Path" fill="#5235AD" fill-rule="nonzero"></path><path d="M361,73 L382.880143,73 C384.373286,64.3972127 384.373286,55.6027873 382.880143,47 L361,47 C363.464971,55.4925737 363.464971,64.5074263 361,73 L361,73 Z" id="Path" fill="#5235AD" fill-rule="nonzero"></path><path d="M371,320.985611 C371,329.409608 331.613562,346 283.288647,346 C234.963733,346 196,329.409608 196,320.985611 C196,312.561613 234.963733,315.494013 283.288647,315.494013 C331.613562,315.494013 371,312.561613 371,320.985611 Z" id="Path" fill="#3F3D56" fill-rule="nonzero"></path><path d="M371,320.985611 C371,329.409608 331.613562,346 283.288647,346 C234.963733,346 196,329.409608 196,320.985611 C196,312.561613 234.963733,315.494013 283.288647,315.494013 C331.613562,315.494013 371,312.561613 371,320.985611 Z" id="Path" fill="#FFA9B5" fill-rule="nonzero" opacity="0.1"></path><ellipse id="Oval" fill="#FFA9B5" fill-rule="nonzero" cx="283.5" cy="320.5" rx="87.5" ry="15.5"></ellipse><ellipse id="Oval" fill="#FFA9B5" fill-rule="nonzero" opacity="0.1" cx="283.5" cy="321" rx="68.5" ry="12"></ellipse><path d="M253,230 L231.11986,230 C229.626713,221.397213 229.626713,212.602787 231.11986,204 L253,204 C250.535025,212.492573 250.535025,221.507427 253,230 Z" id="Path" fill="#5235AD" fill-rule="nonzero"></path><path d="M323.188395,97 L326.173306,98.5187493 C326.173306,98.5187493 342.341585,139.778118 336.869246,149.650007 C331.396907,159.521897 314.233657,178 314.233657,178 L311,168.634376 L324.225026,139.457441 L323.188395,97 Z" id="Path" fill="#FF536B" fill-rule="nonzero"></path><path d="M323.188395,97 L326.173306,98.5187493 C326.173306,98.5187493 342.341585,139.778118 336.869246,149.650007 C331.396907,159.521897 314.233657,178 314.233657,178 L311,168.634376 L324.225026,139.457441 L323.188395,97 Z" id="Path" fill="#000000" fill-rule="nonzero" opacity="0.1"></path><path d="M319.338138,303 C319.338138,303 323.595735,312.533334 321.341714,313.266665 C319.087692,314 316.332795,314 313.577848,314 C310.822901,314 307.567125,313.022221 307.066234,312.044443 C306.565342,311.066664 309.069805,304.711109 309.069805,304.711109 L319.338138,303 Z" id="Path" fill="#F2F2F2" fill-rule="nonzero"></path><path d="M262.131752,307.729807 C262.131752,307.729807 264.945703,316.378932 263.666636,316.873166 C262.387569,317.3674 258.294552,319.591466 255.992231,318.850111 C253.68991,318.108755 250.108527,316.37894 249.341085,315.637577 C248.573643,314.896213 249.341085,310.942341 249.341085,310.942341 L252.922473,306 L262.131752,307.729807 Z" id="Path" fill="#F2F2F2" fill-rule="nonzero"></path><path d="M311.899309,176.422172 L315.53622,177.685092 C315.53622,177.685092 316.466196,186.272949 315.451331,189.30396 C314.436466,192.334971 312.15302,214.309778 313.4216,218.856288 C314.690181,223.402797 313.929035,230.727739 313.929035,230.727739 C313.929035,230.727739 321.540518,255.480969 320.018218,260.785237 C318.495918,266.089505 318.749637,273.667021 320.271937,277.455781 C321.794237,281.244541 323.062814,282.760044 322.301664,285.791055 C321.540514,288.822066 320.018218,290.337565 321.540518,292.863405 C323.062818,295.389245 326.107405,296.146999 324.585109,298.420256 C323.062814,300.693513 321.540518,302.461599 322.047957,303.977102 C322.555396,305.492605 308.601002,308.271029 307.332422,305.997776 C307.332422,305.997776 311.391883,302.461599 307.332422,300.440925 C303.272961,298.420251 304.541545,290.842735 304.541545,290.842735 C304.541545,290.842735 297.437493,261.79557 297.691213,259.522317 C297.944932,257.249064 286.527704,221.887298 286.527704,221.887298 C286.527704,221.887298 269.782434,272.404101 268.767573,274.677358 C267.752712,276.950615 270.036153,282.507478 268.767573,284.022964 C267.498992,285.538451 269.275003,289.327228 267.498992,290.842735 C265.722981,292.358243 270.543584,297.915085 267.498992,299.935759 C264.454401,301.956433 262.932101,308.271029 263.185816,309.533949 C263.439531,310.796869 250.500011,309.281366 250.500011,307.513279 C250.500011,305.745193 250.753726,304.229685 249.485146,301.198679 C248.216565,298.167673 247.45542,296.147016 248.470285,295.136662 C249.48515,294.126308 250.246296,292.863405 249.231431,289.327228 C248.216565,285.791051 250.753726,274.929941 249.992581,272.909267 C249.231435,270.888593 249.485146,257.24906 249.485146,257.24906 C249.485146,257.24906 252.022298,237.294922 251.261161,234.011324 C250.500024,230.727726 251.261161,229.969981 251.514876,228.707061 C251.768592,227.444141 253.290887,213.804603 254.305753,211.783934 C255.320618,209.763264 256.589198,175.159248 262.42467,173.391161 C268.260142,171.623075 311.899309,176.422172 311.899309,176.422172 Z" id="Path" fill="#5235AD" fill-rule="nonzero"></path><path d="M313.549022,311.948191 C313.549022,311.948191 322.725492,310.423293 323.235294,311.948191 C323.745096,313.473089 325.274511,325.418134 321.705883,325.672283 C318.137255,325.926432 312.019607,326.688883 311,324.401534 C309.980399,322.114184 305.137256,320.589286 305.137256,320.589286 C305.137256,320.589286 298,318.556086 298,316.268741 C298,313.981396 298.254901,310.423293 299.529411,310.169144 C300.803921,309.914995 305.901964,307.119343 305.901964,306.102747 C305.901964,305.086151 313.549022,311.948191 313.549022,311.948191 Z" id="Path" fill="#211E20" fill-rule="nonzero"></path><path d="M257.129862,315.726306 C257.129862,315.726306 263.581014,313.730947 265.06974,314.978048 C266.558466,316.225149 268.543437,329.943258 265.06974,329.693839 C261.596044,329.444419 252.415564,330.94094 251.919319,328.945577 C251.423074,326.950214 244.723805,326.451383 244.723805,326.451383 C244.723805,326.451383 237.528292,322.9595 238.024537,319.218198 C238.520781,315.476895 239.265142,314.229811 242.242594,313.980375 C245.220046,313.730939 247.453137,310.239072 247.701261,309.989653 C247.949386,309.740234 250.137021,307.917037 250.407867,309.951024 C250.678713,311.985012 253.904289,316.474568 257.129862,315.726306 Z" id="Path" fill="#211E20" fill-rule="nonzero"></path><circle id="Oval" fill="#FDC2CC" fill-rule="nonzero" cx="277.5" cy="56.5" r="15.5"></circle><path d="M290.890153,60 C290.890153,60 291.87901,76.9620271 295.587223,78.4810136 C299.295435,80 276.798947,80 276.798947,80 C276.798947,80 276.551733,69.3670908 273.337947,66.8354453 C270.124162,64.3037998 290.890153,60 290.890153,60 Z" id="Path" fill="#FDC2CC" fill-rule="nonzero"></path><path d="M297.079439,74.8166524 C297.079439,74.8166524 281.4875,69.0438893 275.954874,78.079515 C275.954874,78.079515 258.35107,86.3621744 257.093655,91.3819669 C255.83624,96.4017594 267.65594,134.050203 267.65594,134.050203 C267.65594,134.050203 267.65594,165.172918 265.141119,168.435785 C262.626299,171.698652 257.848114,175.212503 261.117393,175.965474 C264.386673,176.718444 315.689184,182.240214 315.437702,178.977347 C315.18622,175.714481 311.916941,172.953595 315.437702,170.945681 C318.958464,168.937766 315.940666,166.678855 318.204014,160.153125 C320.467361,153.627396 326,99.6646263 326,99.6646263 C326,99.6646263 322.227756,92.8879038 321.47331,92.1349375 C320.718864,91.3819711 297.079439,74.8166524 297.079439,74.8166524 Z" id="Path" fill="#FF536B" fill-rule="nonzero"></path><path d="M251.94118,185 C251.94118,185 241.753448,206.791794 250.635061,209.7634 C259.516674,212.735007 258.994211,186.733445 258.994211,186.733445 L251.94118,185 Z" id="Path" fill="#FFB9B9" fill-rule="nonzero"></path><path d="M284.804554,59.4615789 C283.922581,57.6802087 282.602341,55.6251669 280.630224,55.7336423 C279.633016,55.788494 278.773073,56.4139503 277.884303,56.8730838 C276.995532,57.3322173 275.856787,57.6168425 275.044127,57.0317021 C273.855453,56.1758182 274.224007,54.1457761 273.160773,53.1360376 C272.000057,52.0337391 269.665577,52.6491703 268.916658,51.2299939 C268.516769,50.4721974 268.839719,49.5320108 268.665335,48.6918863 C267.450425,48.7148734 266.196638,48.7309913 265.070513,48.2708662 C263.944388,47.8107412 262.969252,46.7446363 263.000742,45.520179 C263.068799,44.6774837 263.470484,43.89787 264.115239,43.3570963 C265.648578,41.9516835 267.866559,41.6821721 269.758652,40.8298198 C271.264381,40.1515118 272.573642,39.0943985 274.053575,38.3606523 C276.60065,37.0978411 279.539188,36.8529538 282.369419,37.070968 C286.660779,37.4015293 291.000494,38.8371063 294.11239,41.8340858 C297.224286,44.8310653 298.871201,49.5591793 297.529132,53.6812544 C296.768643,56.0170228 295.156984,57.9803231 294.257599,60.2653917 C293.706249,61.8291249 293.324068,63.4483138 293.117707,65.0947871 L292.486274,69 C292.584543,68.3922439 291.260678,66.8678156 290.826504,66.5050944 C289.879484,65.7138849 288.501957,65.9823457 287.622747,65.2494772 C286.322275,64.1654612 285.569714,61.0070449 284.804554,59.4615789 Z" id="Path" fill="#93332D" fill-rule="nonzero"></path><path d="M262.970188,89.1440315 L258.897774,91.6597362 C258.897774,91.6597362 252.280096,131.156431 253.043676,136.691002 C253.807255,142.225573 249.989366,173.420413 251.261996,175.936126 C252.534625,178.451839 253.043676,178.95498 253.043676,180.464411 C253.043676,181.973843 249.480312,187.508406 251.771046,188.514692 C254.06178,189.520978 262.461138,191.281975 262.461138,188.514692 C262.461138,185.747408 260.933979,181.973838 263.733767,180.212837 C266.533556,178.451835 268.569756,167.13113 268.569756,167.13113 C268.569756,167.13113 269.842386,155.558851 271.115007,153.294708 C272.387628,151.030565 274.169321,142.72871 274.169321,139.206715 C274.169321,135.68472 277.22363,121.345149 275.441951,114.049584 C273.660271,106.754019 273.151225,87.1314593 262.970188,89.1440315 Z" id="Path" fill="#000000" fill-rule="nonzero" opacity="0.1"></path><path d="M260.970191,88.1440316 L256.897773,90.6597363 C256.897773,90.6597363 250.2801,130.156435 251.043679,135.691002 C251.807259,141.225569 247.989366,172.420412 249.261995,174.936126 C250.534625,177.451839 251.043679,177.954984 251.043679,179.464411 C251.043679,180.973838 247.480316,186.508409 249.77105,187.514691 C252.061784,188.520973 260.461137,190.281979 260.461137,187.514691 C260.461137,184.747403 258.933982,180.973838 261.733766,179.21284 C264.53355,177.451843 266.569759,166.13113 266.569759,166.13113 C266.569759,166.13113 267.842389,154.55885 269.11501,152.294708 C270.387631,150.030565 272.169319,141.728714 272.169319,138.206715 C272.169319,134.684716 275.223633,120.34517 273.441949,113.049584 C271.660265,105.753998 271.151228,86.1314595 260.970191,88.1440316 Z" id="Path" fill="#FF536B" fill-rule="nonzero"></path></g></g></svg> 