<?xml version="1.0" encoding="UTF-8"?> <svg xmlns="http://www.w3.org/2000/svg" xmlns:xlink="http://www.w3.org/1999/xlink" width="368px" height="299px" viewBox="0 0 368 299"><!-- Generator: Sketch 64 (93537) - https://sketch.com --><title>Web-to-Lead </title><desc>Created with Sketch.</desc><g id="Page-1" stroke="none" stroke-width="1" fill="none" fill-rule="evenodd"><g id="Web-to-Lead-" transform="translate(1.000000, 0.000000)"><ellipse id="Oval" fill="#FF536B" fill-rule="nonzero" opacity="0.200000003" cx="293.5" cy="284" rx="66.5" ry="15"></ellipse><ellipse id="Oval" stroke="#3F3D56" cx="299.5" cy="280" rx="66.5" ry="15"></ellipse><circle id="Oval" fill="#5235AD" fill-rule="nonzero" cx="192" cy="134" r="13"></circle><circle id="Oval" fill="#5235AD" fill-rule="nonzero" cx="245" cy="134" r="13"></circle><circle id="Oval" fill="#6C63FF" fill-rule="nonzero" cx="298" cy="134" r="13"></circle><circle id="Oval" fill="#F86B75" fill-rule="nonzero" cx="5.5" cy="9.5" r="1.5"></circle><circle id="Oval" fill="#FAD375" fill-rule="nonzero" cx="9.5" cy="9.5" r="1.5"></circle><circle id="Oval" fill="#8BCC55" fill-rule="nonzero" cx="13.5" cy="9.5" r="1.5"></circle><rect id="Rectangle" fill="#5235AD" fill-rule="nonzero" x="29" y="30" width="91" height="28"></rect><rect id="Rectangle" stroke="#3F3D56" x="0" y="5" width="160" height="95"></rect><line x1="0" y1="12" x2="160" y2="12" id="Path" stroke="#3F3D56"></line><circle id="Oval" stroke="#3F3D56" cx="5.5" cy="8.5" r="1.5"></circle><circle id="Oval" stroke="#3F3D56" cx="9.5" cy="8.5" r="1.5"></circle><circle id="Oval" stroke="#3F3D56" cx="13.5" cy="8.5" r="1.5"></circle><rect id="Rectangle" stroke="#3F3D56" x="35" y="24" width="91" height="28"></rect><rect id="Rectangle" fill="#CBE7FF" fill-rule="nonzero" x="18" y="70" width="121" height="4"></rect><rect id="Rectangle" fill="#CBE7FF" fill-rule="nonzero" x="18" y="79" width="121" height="4"></rect><rect id="Rectangle" fill="#CBE7FF" fill-rule="nonzero" x="18" y="88" width="121" height="4"></rect><rect id="Rectangle" stroke="#3F3D56" x="20" y="68" width="121" height="4"></rect><rect id="Rectangle" stroke="#3F3D56" x="20" y="77" width="121" height="4"></rect><rect id="Rectangle" stroke="#3F3D56" x="20" y="86" width="121" height="4"></rect><circle id="Oval" fill="#F86B75" fill-rule="nonzero" cx="42.5" cy="174.5" r="1.5"></circle><circle id="Oval" fill="#FAD375" fill-rule="nonzero" cx="46.5" cy="174.5" r="1.5"></circle><circle id="Oval" fill="#8BCC55" fill-rule="nonzero" cx="50.5" cy="174.5" r="1.5"></circle><rect id="Rectangle" fill="#5235AD" fill-rule="nonzero" x="66" y="195" width="91" height="28"></rect><polyline id="Path" stroke="#3F3D56" points="197 189.351852 197 265 37 265 37 170 167.10989 170"></polyline><line x1="37" y1="177" x2="167" y2="177" id="Path" stroke="#3F3D56"></line><circle id="Oval" stroke="#3F3D56" cx="42.5" cy="173.5" r="1.5"></circle><circle id="Oval" stroke="#3F3D56" cx="46.5" cy="173.5" r="1.5"></circle><circle id="Oval" stroke="#3F3D56" cx="50.5" cy="173.5" r="1.5"></circle><rect id="Rectangle" stroke="#3F3D56" x="72" y="189" width="91" height="28"></rect><circle id="Oval" fill="#F86B75" fill-rule="nonzero" cx="172.5" cy="97.5" r="1.5"></circle><circle id="Oval" fill="#FAD375" fill-rule="nonzero" cx="176.5" cy="97.5" r="1.5"></circle><circle id="Oval" fill="#8BCC55" fill-rule="nonzero" cx="180.5" cy="97.5" r="1.5"></circle><rect id="Rectangle" stroke="#3F3D56" x="167" y="94" width="160" height="95"></rect><line x1="167" y1="101" x2="327" y2="101" id="Path" stroke="#3F3D56"></line><circle id="Oval" stroke="#3F3D56" cx="173.5" cy="97.5" r="1.5"></circle><circle id="Oval" stroke="#3F3D56" cx="177.5" cy="97.5" r="1.5"></circle><circle id="Oval" stroke="#3F3D56" cx="194" cy="132" r="13"></circle><circle id="Oval" stroke="#3F3D56" cx="247" cy="132" r="13"></circle><circle id="Oval" stroke="#3F3D56" cx="301" cy="132" r="13"></circle><rect id="Rectangle" fill="#CBE7FF" fill-rule="nonzero" x="174" y="156" width="36" height="4"></rect><rect id="Rectangle" fill="#CBE7FF" fill-rule="nonzero" x="228" y="156" width="36" height="4"></rect><rect id="Rectangle" fill="#F2F2F2" fill-rule="nonzero" x="282" y="156" width="36" height="4"></rect><rect id="Rectangle" stroke="#3F3D56" x="176" y="155" width="36" height="4"></rect><rect id="Rectangle" stroke="#3F3D56" x="230" y="155" width="36" height="4"></rect><rect id="Rectangle" stroke="#3F3D56" x="283" y="155" width="36" height="4"></rect><rect id="Rectangle" fill="#CBE7FF" fill-rule="nonzero" x="43" y="234" width="28" height="24"></rect><rect id="Rectangle" fill="#CBE7FF" fill-rule="nonzero" x="94" y="234" width="28" height="24"></rect><rect id="Rectangle" fill="#CBE7FF" fill-rule="nonzero" x="145" y="234" width="28" height="24"></rect><rect id="Rectangle" stroke="#3F3D56" x="47" y="229" width="28" height="24"></rect><rect id="Rectangle" stroke="#3F3D56" x="98" y="229" width="28" height="24"></rect><rect id="Rectangle" stroke="#3F3D56" x="149" y="230" width="28" height="24"></rect><polygon id="Path" fill="#79758C" fill-rule="nonzero" points="264.190215 90 252 97 265 92.247186"></polygon><ellipse id="Oval" fill="#3F3D56" fill-rule="nonzero" transform="translate(267.707950, 90.619488) rotate(-17.994250) translate(-267.707950, -90.619488) " cx="267.70795" cy="90.619488" rx="3.444203" ry="6.94471454"></ellipse><ellipse id="Oval" fill="#3F3D56" fill-rule="nonzero" transform="translate(278.443594, 85.323615) rotate(-17.994250) translate(-278.443594, -85.323615) " cx="278.443594" cy="85.3236154" rx="2.59844914" ry="4.9035493"></ellipse><polygon id="Path" fill="#3F3D56" fill-rule="nonzero" points="268 86.9058203 276.247076 84 278 88.7383897 270.017901 94"></polygon><path d="M267.29978,105 L269.508022,100.046277 C269.508022,100.046277 274.807802,85.6354475 269.94967,88.3374781 C265.091538,91.0395087 263.324945,98.2449236 263.324945,98.2449236 L262,102.748308 L267.29978,105 Z" id="Path" fill="#F4BFA7" fill-rule="nonzero"></path><path d="M328,177.819325 C328,177.819325 320.444444,192.543253 318.222222,192.989433 C316,193.435613 316,179.604044 316,179.604044 C316,179.604044 320.444444,175.588427 322.222222,176.034607 C324,176.480786 328,177.819325 328,177.819325 Z" id="Path" fill="#F4BFA7" fill-rule="nonzero"></path><path d="M317.303032,269 C317.303032,269 321.331836,271.253306 319.541257,276.210579 C317.750677,281.167852 316.855387,279.815868 315.960098,283.871819 C315.064808,287.927769 307.007201,287.477108 306.559556,285.674464 C306.111911,283.871819 305.216622,276.66124 307.454846,273.957273 C309.69307,271.253306 317.303032,269 317.303032,269 Z" id="Path" fill="#191847" fill-rule="nonzero"></path><path d="M277.696968,269 C277.696968,269 273.668164,271.253306 275.458743,276.210579 C277.249323,281.167852 278.144613,279.815868 279.039902,283.871819 C279.935192,287.927769 287.992799,287.477108 288.440444,285.674464 C288.888089,283.871819 289.783378,276.66124 287.545154,273.957273 C285.30693,271.253306 277.696968,269 277.696968,269 Z" id="Path" fill="#191847" fill-rule="nonzero"></path><path d="M314.9628,180.492947 C314.9628,180.492947 318.510319,182.696128 319.397199,196.355855 C320.284079,210.015582 318.953759,225.437854 318.510319,228.962945 C318.066879,232.488036 318.953759,237.775672 319.840639,240.41949 C320.727519,243.063308 317.623439,263.33258 317.623439,263.33258 C318.948398,266.122637 318.948398,269.35525 317.623439,272.145307 C315.40624,276.992307 308.754642,281.839307 306.980883,276.992307 C306.887961,275.301245 306.434509,273.6491 305.650563,272.145307 C304.320244,269.501489 306.537443,258.926217 306.537443,258.926217 C306.537443,258.926217 304.763684,242.182035 305.207123,237.775672 C305.650563,233.369308 299.885845,207.371764 298.998965,202.9654 C298.112086,198.559037 298.555525,195.033946 298.112086,196.355855 C297.668646,197.677764 289.686728,234.250581 289.686728,234.250581 C289.686728,234.250581 290.573608,257.604308 290.130168,260.688762 C289.686728,263.773216 291.903928,269.942125 290.573608,272.145307 C289.243288,274.348489 286.582649,282.279943 281.704811,277.432943 C276.826972,272.585943 277.713852,270.823398 277.270412,268.620216 C276.826972,266.417035 277.270412,263.773216 277.270412,260.248126 C277.270412,256.723035 273.722893,236.894399 275.496653,233.809945 C277.270412,230.72549 276.383532,226.759763 275.940093,219.709582 C275.496653,212.6594 275.053213,178.730401 279.487611,172.561492 C283.92201,166.392584 314.9628,180.492947 314.9628,180.492947 Z" id="Path" fill="#FF536B" fill-rule="nonzero"></path><circle id="Oval" fill="#A0616A" fill-rule="nonzero" cx="304.5" cy="87.5" r="10.5"></circle><path d="M311.08745,92.3313203 C311.08745,92.3313203 310.64931,108.500749 312.840009,111.195653 C315.030707,113.890558 294,108.949899 294,108.949899 C294,108.949899 298.819537,98.6194313 295.752559,91.8821695 C292.685581,85.1449077 311.08745,92.3313203 311.08745,92.3313203 Z" id="Path" fill="#F4BFA7" fill-rule="nonzero"></path><path d="M314.919355,108.421919 C314.919355,108.421919 314.032258,104.898161 308.709677,104.017221 C303.387097,103.136282 297.092773,102.255342 295.139128,104.017221 C293.185484,105.7791 292.298387,107.981449 290.967742,107.981449 L284.758065,107.981449 L275,125.159768 C275,125.159768 279.879032,130.885875 278.548387,141.457148 C277.217742,152.028422 275,171.40909 275,171.40909 C278.555925,176.11012 281.673623,181.122786 284.314516,186.385061 C288.75,195.194455 319.354839,194.313516 317.580645,178.897075 C317.580645,178.897075 315.362903,174.932848 316.25,171.40909 C317.137097,167.885332 319.798387,144.099967 319.798387,144.099967 L330,117.231313 C330,117.231313 315.806452,110.183797 314.919355,108.421919 Z" id="Path" fill="#5235AD" fill-rule="nonzero"></path><path d="M326.53645,117 L329.681458,117 C329.681458,117 331.478605,127.202299 331.029319,133.412393 C330.580032,139.622488 330.580032,154.260569 330.580032,154.260569 C330.580032,154.260569 332.377179,157.809195 331.927892,160.914242 C331.478605,164.019289 330.580032,172.447275 330.580032,172.447275 C330.580032,172.447275 330.130745,184.423887 321.594295,178.213792 C321.594295,178.213792 318.898574,176.883057 320.246434,171.116541 C321.594295,165.350024 319.347861,159.139929 319.347861,159.139929 C319.347861,159.139929 320.695721,155.147725 320.246434,152.486256 C319.797147,149.824787 318,141.396801 318,141.396801 L326.53645,117 Z" id="Path" fill="#5235AD" fill-rule="nonzero"></path><path d="M287,109.33942 L284.824056,108.034372 C284.824056,108.034372 281.777735,106.729323 277.425848,108.034372 C273.073961,109.33942 270.898017,108.904404 269.157262,108.469388 C267.416507,108.034372 268.722073,103.684211 268.722073,103.684211 C268.722073,103.684211 265.240564,97.593985 261.759054,101.074114 C258.277544,104.554243 258.277544,111.514501 258.277544,111.514501 C258.277544,111.514501 256.1016,115.864662 263.934997,118.474758 C271.768394,121.084855 275.249904,125 275.249904,125 L283.953679,125 L287,109.33942 Z" id="Path" fill="#5235AD" fill-rule="nonzero"></path><path d="M303.80428,100 C303.77699,99.207095 303.288645,98.5038453 302.556379,98.2029377 C302.077183,98.0393388 301.578353,97.9405802 301.073095,97.9092769 C299.595085,97.7182052 298.074665,97.174831 297.213721,96.042908 C296.067333,94.5357036 296.380682,92.4273057 295.461899,90.7911349 C295.034568,90.1469444 294.566732,89.530702 294.061234,88.9461524 C292.45786,86.7949819 292.175276,84.0486356 292.029283,81.4359115 C291.957499,80.9062524 292.018188,80.3670111 292.205889,79.8667019 C292.481125,79.4166294 292.814106,79.0047262 293.196297,78.6415493 C293.84387,77.8871889 294.193232,76.9210727 294.178302,75.9259402 C294.1314,73.9023958 297.019533,72.5426115 299.064982,71.8438066 C301.110431,71.1450017 303.328697,71.0337014 305.507929,71.0041347 C306.760739,70.9871387 308.053728,71.0019982 309.205203,71.460706 C309.867431,71.7491898 310.490344,72.1209907 311.05893,72.5671481 C313.472221,74.3380594 315.73876,76.5152417 316.548778,79.2707909 C316.866612,80.5286264 317.014528,81.8235516 316.988562,83.1208554 C317.02705,83.5239251 316.968075,83.930357 316.816631,84.3057286 C316.527024,84.8894954 315.844309,85.2056913 315.402941,85.7007798 C314.578583,86.6254662 314.725318,87.9633987 314.620871,89.1599419 C314.349799,91.6623094 312.908886,93.8867103 310.73884,95.1528009 C310.294475,95.370887 309.885229,95.6545194 309.524746,95.9942437 C309.253034,96.3548645 309.028059,96.7485888 308.855213,97.1659849 C307.987004,98.8354079 305.799572,99.9409319 303.80428,100 Z" id="Path" fill="#93332D" fill-rule="nonzero"></path><polygon id="Path" fill="#79758C" fill-rule="nonzero" points="84.626188 5 79 8 85 5.96313864"></polygon><ellipse id="Oval" fill="#3F3D56" fill-rule="nonzero" transform="translate(86.348004, 5.201189) rotate(-17.994250) translate(-86.348004, -5.201189) " cx="86.3480044" cy="5.20118896" rx="1.63489964" ry="3.29653026"></ellipse><ellipse id="Oval" fill="#3F3D56" fill-rule="nonzero" transform="translate(91.444018, 2.687331) rotate(-17.994250) translate(-91.444018, -2.687331) " cx="91.4440175" cy="2.68733149" rx="1.23343492" ry="2.32762248"></ellipse><polygon id="Path" fill="#3F3D56" fill-rule="nonzero" points="87 3.45258267 91.1234948 2 92 4.36904437 88.0090544 7"></polygon><polygon id="Path" fill="#79758C" fill-rule="nonzero" points="124.626188 169 119 172 125 169.963139"></polygon><ellipse id="Oval" fill="#3F3D56" fill-rule="nonzero" transform="translate(125.939339, 169.012685) rotate(-17.994250) translate(-125.939339, -169.012685) " cx="125.939339" cy="169.012685" rx="1.63489964" ry="3.29653026"></ellipse><ellipse id="Oval" fill="#3F3D56" fill-rule="nonzero" transform="translate(131.035352, 166.498827) rotate(-17.994250) translate(-131.035352, -166.498827) " cx="131.035352" cy="166.498827" rx="1.23343492" ry="2.32762248"></ellipse><polygon id="Path" fill="#3F3D56" fill-rule="nonzero" points="126 167.452583 130.123495 166 131 168.369044 127.009054 171"></polygon></g></g></svg> 