<svg data-name="Layer 1" xmlns="http://www.w3.org/2000/svg" viewBox="0 0 142.48 171.98"><path d="M128 110.19c-1.92 2.87-8.89 10.14-12.44 19.37-1.14 3-1.39 6.7-1.11 11a9 9 0 001.29 4.39 23 23 0 012 2.85c1.17 2.43.76 6.79-2.63 8.12a8.12 8.12 0 01-5.73-.42 5.66 5.66 0 01-2.49-7.68c.81-1.83 1.83-3.66 1.77-5.67-.47-15-3.95-20.93-11.12-22.34-8.56-1.68-14.7 5-13.69 11.4.46 2.85 1 5.88.56 8.79a3.55 3.55 0 01-2.85 3 3.19 3.19 0 01-4.08-2.23c-.7-1.81.94-6.62-1-7.76-1.54-.92-3.24 1.27-3.28 2.7-.56 16.42 2 18 2.66 25.33.49 6-3.5 9.69-9.55 8-2.22-.61-4.33-3.61-4.37-6-.09-5.34 2.3-9.91 2.31-29.65 0-3.49.76-6.93-3.1-10.6a11.3 11.3 0 00-11.88-2.29c-4.71 1.76-8.62 9.34-6.22 13.13a11.87 11.87 0 011.6 3.88c.84 3.6-.85 7.56-5.45 7.95-5.39.45-7.29-4.84-5.87-10.08a11 11 0 00-2.61-9.38c-6-6-13-12-15.62-15.78a69.73 69.73 0 01-12.18-39 68.57 68.57 0 11125 39zm-3.43 28.26a2.48 2.48 0 001-.84 4.51 4.51 0 00.37-4.27A2.88 2.88 0 00125 132a1.55 1.55 0 00-1.52-.21c-1.51.72-1.95 4.15-1.37 5.48a2.2 2.2 0 001 1.17 1.7 1.7 0 001.38 0zm-2.82-9a1.79 1.79 0 00-2.35-1.16 1.74 1.74 0 00-1 1.94c.33 1.33 2.15 2.23 3.14 1a1.72 1.72 0 00.24-1.75zm-4.44 6.18c.63-.22 1.81.1 1.74 1a.82.82 0 01-.28.53c-.5.52-1.93.78-2.2-.11a1.15 1.15 0 01.74-1.37zm-62-10c-.65.12-1.78-.37-1.58-1.2A1 1 0 0154 124c.59-.43 2-.48 2.17.44a1.16 1.16 0 01-.93 1.25zM41.13 153a2.46 2.46 0 00-1.42-2.53 2.13 2.13 0 00-3.12 2.53 2.31 2.31 0 003.68 1.32 2 2 0 00.86-1.26zm51.76-22.25a3.64 3.64 0 00-2.1-3.74c-2.58-1.22-5.48.7-4.62 3.65a3.42 3.42 0 005.45 1.95 2.85 2.85 0 001.27-1.86z" fill="#010101" fill-rule="evenodd"/></svg>