<svg data-name="Layer 1" xmlns="http://www.w3.org/2000/svg" viewBox="0 0 385.6 317.68"><path d="M72.25 34.11a32.59 32.59 0 0119 7.58c3.9 3.29 7.09 7.55 11.64 9.87 6.57 3.35 14.58 1.93 21.44-.81a62.82 62.82 0 0013.88-7.7 28.08 28.08 0 007.57-7.68 10.86 10.86 0 001.79-5.89 6.12 6.12 0 00-2.94-5.19 6.93 6.93 0 00-3.71-.66c-4.45.25-8.33 2.91-12.09 5.31q-4.18 2.68-8.56 5.06a10.36 10.36 0 01-3.75 1.44c-2.8.33-5.35-1.5-7.6-3.21-5.31-4-10.9-8.09-17.41-9.55a39.3 39.3 0 00-10.67-.57c-3.66.2-7.58.72-10.28 3.2a5.43 5.43 0 00-1.81 3.09c-.29 2.06 1.14 4.06 3 5.07a15.64 15.64 0 006 1.47M220.94 67.08a38.23 38.23 0 0010.8-6.42c.32-.24.63-.5.94-.76h-30.52a16.61 16.61 0 006.51 6.76c3.73 1.95 8.33 1.79 12.27.42zM187.42 39.53a36.38 36.38 0 0110.84 12.66c.69 1.33 1.34 2.74 2 4.14H237a141.93 141.93 0 0021.86-23.5c2.81-3.81 5.54-8.16 5.26-12.89a6.54 6.54 0 00-1.78-4.38c-2.57-2.41-6.81-1.07-9.7.92-5.33 3.67-9.23 9-13.54 13.84s-9.46 9.39-15.81 10.68a5.47 5.47 0 01-3.75-.31c-1.92-1.11-2.13-3.81-1.75-6 1.24-7.33 6.29-14.76 3.35-21.59-2.75-6.38-10.94-8.18-17.89-8-5.74.13-11.61 1.05-16.55 4-13.08 7.55-9.83 22.33.72 30.43zM306.06 243.79a93.77 93.77 0 01-13.78-5.86c-.5-.28-1-.55-1.48-.84-5.23-3.08-9.51-7.51-14.9-10.26-4.47-2.27-9.66-4.06-14.72-3-5.59 1.15-10.13 6-12.3 11.13-1.36 3.21-1.58 6.81-2.93 10h52.17a27.77 27.77 0 007.94-1.17zM311.39 245.67h-.12a31.09 31.09 0 01-13.15 2.9h-54.3a28.72 28.72 0 01-5.4 5.1 59.59 59.59 0 01-8.94 5.61c-2.32 1.18-4.88 2.37-6.11 4.66a7.48 7.48 0 00.41 7.07 15.59 15.59 0 005.23 5.11c13.1 8.62 32 7.15 43.58-3.39 3.29-3 6-6.57 9.22-9.63s7.17-5.68 11.6-6.05c3.47-.29 6.89.83 10.24 1.79a26.57 26.57 0 007.73 1.28 9.15 9.15 0 007-2.94c.08-.12.16-.24.23-.37 3.7-6.09-2.15-9.34-7.22-11.14z" fill="#231f20"/><path d="M304.87 101.32c-5.21 18.21 6.27 32.08 20.94 44.79v71.16a27.69 27.69 0 01-13.94 24 100.56 100.56 0 01-15.2-7.76c-6.7-4.19-13.12-9-20.48-11.89s-16.09-3.59-22.9.41c-8.22 4.83-11.45 14.8-16.48 22.91h-66c-1.83-1.59-3.64-3.17-5.45-4.71-12.28-10.48-29.77-19.64-43.83-11.71-6.58 3.7-10.71 10.35-15.3 16.42H75.81a27.71 27.71 0 01-27.68-27.68v-45.32c2.72-2.08 5.4-4.19 7.94-6.44 11.75-10.39 21.09-27.39 13.93-41.35-3.6-7-10.58-11.57-17.26-15.79l-4.62-2.91V87.59A27.72 27.72 0 0175.81 59.9H95a26 26 0 009.21 6.1 20 20 0 0013 0c3.4-1.3 6.63-3.82 9.48-6.08h66.22c4 4.91 8.26 9.2 13.89 11.07 15.43 4.41 27.22-1.85 38.2-11.07h53.09a27.72 27.72 0 0126.76 20.61c-8.06 6.47-17.45 11.93-19.98 20.79zm-6.75-45A31.32 31.32 0 01327.87 78c5.47-4.92 9.75-10.7 9.8-19a32.29 32.29 0 00-.7-9.6 34.45 34.45 0 00-26.27-25.57A38.37 38.37 0 00291.8 25a57.25 57.25 0 00-9 3.68c-12.62 6.13-22.91 17.85-33.65 27.61zm-108 0c-7.23-9.56-14.09-19.79-27.1-18.9a32.67 32.67 0 00-8.02 1.93 42.05 42.05 0 00-7.5 3.68c-6 3.73-11.13 8.67-16.46 13.3zM44.55 103.19v-15.6a31.29 31.29 0 0131.26-31.26H91.4a86.56 86.56 0 00-7.94-7.86C69.61 37.15 49.59 38.11 32.05 41.6c-12 2.38-25.89 7.86-28 19.88C1.85 74.08 14.16 84 25 90.85zM175 248.53c9.45 7.94 19.56 15 31.55 15 10.92 0 21.07-6.32 27.76-15zm192.71-64.37c-2.45-2.86-5-5.62-7.7-8.31-8-9.23-19.87-17.74-30.64-26.7v68.12A31.23 31.23 0 01316 242.86c16.82 5.91 35.14 6.73 50-2.38 6.79-4.16 12.55-10.45 14.74-18.11 3.91-13.5-3.86-27.56-13.01-38.21zm-291.9 64.37a31.29 31.29 0 01-31.26-31.26v-42.62c-8.73 6.55-17.48 13-23.19 22.23-9.59 15.45-8.33 35.87-.51 52.28 2.68 5.64 6.2 11.07 11.28 14.69 4.51 3.22 10 4.83 15.49 5.64a62.87 62.87 0 0055.79-21z" fill="#231f20"/><path d="M51.36 118.53a38.82 38.82 0 016.4 4.91c7.15 7.32 7 20 .82 28.14-2.84 3.72-6.66 6.54-10.47 9.25q-5.23 3.75-10.58 7.34a45.18 45.18 0 01-10.39 5.71 15.42 15.42 0 01-5.89 1 15.8 15.8 0 01-5.85-1.6c-4.36-2.05-8.28-5.79-9-10.54-.89-5.57 2.77-11 7.27-14.36S23.54 143 28.32 140c2.06-1.29 4.17-3 4.43-5.45.22-2-.91-3.87-2.07-5.5a53.49 53.49 0 00-6.05-7c-4.17-4.07-9.18-7.69-11.31-13.11-1.11-2.81-1.09-6.55 1.39-8.29 1.94-1.36 4.4-1 6.55-.51a22.78 22.78 0 017 2.94 64.84 64.84 0 015.53 3.91c1.75 1.35 3.69 2.43 5.54 3.65zM113.77 244.07c3.08-4.81 6.94-9.4 12.18-11.67 6.55-2.85 14.32-1.58 20.67 1.71s11.56 8.36 16.62 13.41 10.16 10.21 16.39 13.72c3.62 2 7.55 3.47 11.14 5.54s7 4.93 8.45 8.8c2 5.23.06 11.52-4.09 15.29s-10.1 5.19-15.67 4.52a32.92 32.92 0 01-15.29-6.56 30.71 30.71 0 01-8.28-8.61c-3.44-5.69-4.44-13.07-9.58-17.29a6 6 0 00-3.89-1.6c-3.32.12-4.94 4-5.72 7.27-1.75 7.3-3.33 14.75-6.78 21.42a41.88 41.88 0 01-67.86 9.33c-3.29-3.53-6-7.81-6.65-12.59a13.66 13.66 0 012.27-9.58c2.11-3 6.12-5.07 9.55-6 3.17-.9 6.53-.68 9.82-.78a50.2 50.2 0 0017.81-3.84 26.68 26.68 0 006.6-3.73c2.78-2.25 4.19-5.4 6.07-8.33 2.19-3.44 4.07-7.03 6.24-10.43zM318.41 128.33c-6.9-12.25-3.56-28.1 4.35-39.92a48.55 48.55 0 015.09-5.56 124.72 124.72 0 0111.93-9.58c1.61-1.18 3.38-2.42 5.38-2.34 2.82.11 4.9 2.92 5.34 5.71.93 6-3.58 11.36-7.83 15.7s-8.92 9.44-8.4 15.5c.54 6.35 6.46 10.61 10.94 15.16 4.16 4.21 7.55 9.85 6.88 15.74a10.17 10.17 0 01-15 8 37.63 37.63 0 01-7.89-5.72 68.45 68.45 0 01-6.88-7.48c-1.42-1.76-2.73-3.54-3.91-5.21z" fill="#231f20"/></svg>