<svg data-name="Layer 1" xmlns="http://www.w3.org/2000/svg" viewBox="0 0 156.3 128.9"><path d="M58.55 15.08c13.56 0 26.46 4.33 35.61 13 10.38 9.78 14.36 32.52 36 9.54 5.84-6.19 12.16-9 16.74-6.86 7.54 3.53 7.63 19.28.2 35.18-19 40.74-53.76 69.17-101.18 57.94-23.78-5.7-42.8-22.97-42.8-53.36a55.44 55.44 0 0155.43-55.44z" fill="#231f20" fill-rule="evenodd"/><path d="M145.5 10.85c-2.88-2.71-9.9-2.82-15.55-1-7.44 2.37-8.8 6.87-7.36 10.51 2.54 6.42 7.73 6.41 12.58 4 6.65-3.35 12.67-11.27 10.33-13.48zM109.72 5.33a3.08 3.08 0 103.9 2 3.09 3.09 0 00-3.9-2zM116.83 2.78a2 2 0 102.56 1.29 2 2 0 00-2.56-1.29zM109.68 13.49c3.23 0 8.93 6.26 8.93 11.86s-3.33 7.54-6.56 7.54-5.13-1.95-5.13-7.54-.47-11.86 2.76-11.86z" fill="#231f20" fill-rule="evenodd"/></svg>