<svg data-name="Layer 1" xmlns="http://www.w3.org/2000/svg" viewBox="0 0 201.22 186.34"><path fill="#010101" d="M34.21 170.66l17.32 10.75v-21.5l-17.32 10.75zM54.98 134.99l17.33 10.75v-21.5l-17.33 10.75zM76.02 122.84l17.33 10.75v-21.5l-17.33 10.75zM34.21 122.97l17.32 10.75v-21.5l-17.32 10.75zM13.24 86.51l17.33 10.75V75.77L13.24 86.51zM34.21 74.56l17.32 10.75v-21.5L34.21 74.56zM97.84 158.91l17.33 10.74v-21.5l-17.33 10.76zM71.53 122.97L54.2 112.22v21.5l17.33-10.75zM92.11 110.62L74.78 99.87v21.51l17.33-10.76zM91.72 134.93l-17.33-10.75v21.49l17.33-10.74zM134.19 134.67l-17.33-10.75v21.49l17.33-10.74zM113.28 146.69l-17.33-10.75v21.49l17.33-10.74zM113.4 75.08L96.08 64.33v21.49l17.32-10.74zM29.48 122.64l-17.32-10.75v21.5l17.32-10.75zM92.33 158.78l-38.27-22.77v45.53l38.27-22.76zM71.36 99L33.09 76.23v45.53L71.36 99zM55.61 86.83l38.28 22.77V64.07L55.61 86.83zM2.85 128.81l7.33 4.55v-9.09l-7.33 4.54zM86.45 152.73l7.32 4.54v-9.09l-7.32 4.55zM86.45 140.77l7.32 4.54v-9.09l-7.32 4.55zM75.86 146.45l7.33 4.55v-9.09l-7.33 4.54zM54.69 110.78l7.34 4.55v-9.09l-7.34 4.54zM65.67 117.25L73 121.8v-9.09l-7.33 4.54zM65.67 105.1l7.33 4.55v-9.09l-7.33 4.54zM13.14 110.59l7.33 4.54v-9.09l-7.33 4.55zM23.92 116.85l7.32 4.56v-9.1l-7.32 4.54zM23.92 104.9l7.32 4.55v-9.09l-7.32 4.54zM97.28 134.96l7.34 4.55v-9.1l-7.34 4.55zM107.21 140.71l7.34 4.54v-9.09l-7.34 4.55zM107.21 128.81l7.34 4.55v-9.09l-7.34 4.54zM117.41 159.13l7.33 4.55v-9.1l-7.33 4.55zM128.39 128.95l7.32 4.54v-9.09l-7.32 4.55zM92.5 146.75l-7.33-4.54v9.09l7.33-4.55zM71.53 110.49l-7.34-4.55v9.09l7.34-4.54zM30.17 110.88l-7.33-4.55v9.1l7.33-4.55zM61.34 81.09L54 76.54v9.1l7.34-4.55zM114.06 134.73l-7.33-4.54v9.09l7.33-4.55zM103.08 91.48l-7.33-4.55v9.09l7.33-4.54zM124.51 152.76l-7.34-4.54v9.09l7.34-4.55zM96.4 110.03l17.33 10.76V99.28L96.4 110.03zM117.18 74.36l17.33 10.75V63.6l-17.33 10.76zM138.22 62.2l17.33 10.75V51.46L138.22 62.2zM96.4 62.34l17.33 10.75V51.6L96.4 62.34zM75.43 25.88l17.33 10.75V15.14L75.43 25.88zM96.4 13.92l17.33 10.76V3.18L96.4 13.92zM160.03 98.27l17.34 10.75V87.53l-17.34 10.74zM133.72 62.34L116.39 51.6v21.49l17.33-10.75zM154.3 49.99l-17.32-10.75v21.5l17.32-10.75zM153.91 74.3l-17.32-10.76v21.51l17.32-10.75zM196.38 74.05l-17.33-10.76v21.5l17.33-10.74zM175.46 86.06L158.14 75.3v21.5l17.32-10.74zM175.6 14.46L158.27 3.7v21.5l17.33-10.74zM91.69 62.02L74.35 51.27v21.49l17.34-10.74zM154.53 98.15l-38.27-22.77v45.54l38.27-22.77zM133.55 38.36L95.29 15.6v45.53l38.26-22.77zM117.81 26.21l38.27 22.76V3.44l-38.27 22.77zM65.05 68.18l7.32 4.56v-9.1l-7.32 4.54zM148.63 92.1l7.34 4.54v-9.09l-7.34 4.55zM148.63 80.14l7.34 4.55V75.6l-7.34 4.54zM138.05 85.82l7.34 4.55v-9.09l-7.34 4.54zM116.89 50.16l7.33 4.54v-9.09l-7.33 4.55zM127.87 56.63l7.32 4.54v-9.09l-7.32 4.55zM127.87 44.47l7.32 4.55v-9.1l-7.32 4.55zM75.33 49.95l7.34 4.56v-9.09l-7.34 4.53zM86.11 56.23l7.33 4.55v-9.09l-7.33 4.54zM86.11 44.27l7.33 4.55v-9.09l-7.33 4.54zM159.49 74.33l7.33 4.55v-9.1l-7.33 4.55zM169.41 80.08l7.33 4.54v-9.08l-7.33 4.54zM169.41 68.18l7.33 4.56v-9.1l-7.33 4.54zM179.6 98.5l7.33 4.54v-9.08l-7.33 4.54zM190.58 68.32l7.33 4.54v-9.09l-7.33 4.55zM154.69 86.13l-7.32-4.56v9.1l7.32-4.54zM133.72 49.87l-7.33-4.55v9.08l7.33-4.53zM92.37 50.26l-7.33-4.55v9.1l7.33-4.55zM123.53 20.46l-7.33-4.54V25l7.33-4.54zM176.25 74.11l-7.33-4.56v9.1l7.33-4.54zM165.27 30.86l-7.32-4.56v9.1l7.32-4.54zM186.7 92.13l-7.34-4.55v9.09l7.34-4.54z"/></svg>