<svg data-name="Layer 1" xmlns="http://www.w3.org/2000/svg" viewBox="0 0 144.51 159.06"><path d="M128.35 53.66c-12-6.75 15.72-9 13.53-23.76C138.32 5.86 113.63.08 95.51 3.8 65.09 10 66.56 17 48.68 11.81 36 8.11 18.4 11.46 14.27 19.38 8.79 29.9 18.29 35 7.51 41.32c-11.87 7 2 28.18 15.9 34.93 11.94 5.79-1.51 34.26 2.1 44.52 2.94 8.37 13.75 6.9 13.36-3.35-.26-6.71-6.32-24.42 3.19-24.42 13.89 0 8 23.12 5.84 39.28-2.09 15.46-1.45 22.45 7.78 22.79 7.07.26 11.54-5.79 7.62-23.47-3.36-15.09-4.79-54.23 7.39-54.23S79.33 94 88.37 94s3.78-20.84 17.31-21.23c8.64-.25 12.95 21.3 6.27 40.76-5.19 15.12 15.82 15.3 14.21 1.7-2.36-19.88-3.14-35.87 4-39.35 5.66-2.76 16.84-11.7-1.81-22.22z" fill="#010101"/><path d="M89.45 108.54c-3.51.71-6.59 10-6.59 16.15 0 8.05 11.33 10.39 12.55 1.82.7-4.89-2.29-18.7-5.96-17.97z" fill="#010101"/></svg>