<svg data-name="Layer 1" xmlns="http://www.w3.org/2000/svg" viewBox="0 0 170.8 173.22"><path d="M93.79 66.15C78.5 62.9 57.09 60.24 51 43.35c-4.47-12.45-7.07-30.24-24.72-18.93C15.34 31.43 8.4 46 4.73 57.94-5.44 91 8.85 127.57 35.63 148.72c26.12 20.63 67.42 30.91 95.34 7.78 10.07-8.35 17.73-20.81 19-33.88 3.08-30.45-29.9-50.89-56.18-56.47z" fill="#231f20"/><path d="M93.93 55.07c7.49 2.27 15.26 3.64 22.62 6.3a67.76 67.76 0 0128.64 19.95c4.14 4.91 9 11.07 15.39 10.08 8.83-1.37 9.51-12.7 8.4-19.57-1.65-10.16-8.51-18.07-17.64-22.64-10.92-5.47-22.56-5.55-34.53-5.2-4.53.14-9 .66-13.52 0a42.35 42.35 0 01-12.91-3.89c-4.93-2.41-9.17-5.85-13.92-8.56-2-1.17-5.52-2.16-7.32 0-2.21 2.6.38 6.82 2 9 5.12 7.16 14.43 11.99 22.79 14.53zM129.85 20.85c-4.52-8.59-19.44-8.94-22.86.9-3.69 10.63 10 16.41 18.25 12.63 6.37-2.93 7.08-8.84 4.61-13.53zM160.38 41.63a2.69 2.69 0 112.72-2.69 2.7 2.7 0 01-2.72 2.69zm0-4.75a2.06 2.06 0 102.09 2.06 2.08 2.08 0 00-2.09-2.06zM57 10.17a2.69 2.69 0 112.72-2.69A2.71 2.71 0 0157 10.17zm0-4.75a2.06 2.06 0 102.09 2.06A2.07 2.07 0 0057 5.42zM82.84 23.5a2.69 2.69 0 112.72-2.69 2.7 2.7 0 01-2.72 2.69zm0-4.75a2.06 2.06 0 102.08 2.06 2.08 2.08 0 00-2.08-2.06zM141.37 30.76a.32.32 0 01-.32-.31v-3.16a.32.32 0 01.32-.32.32.32 0 01.32.32v3.16a.31.31 0 01-.32.31z" fill="#231f20"/><path d="M143 29.18h-3.2a.32.32 0 010-.63h3.2a.32.32 0 110 .63zM160.38 109.17a.31.31 0 01-.31-.32v-3.15a.32.32 0 11.63 0v3.15a.32.32 0 01-.32.32z" fill="#231f20"/><path d="M162 107.59h-3.19a.32.32 0 110-.63H162a.32.32 0 110 .63zM120.43 173.22a.32.32 0 01-.32-.32v-3.16a.32.32 0 01.32-.31.31.31 0 01.32.31v3.16a.32.32 0 01-.32.32z" fill="#231f20"/><path d="M122 171.64h-3.19a.32.32 0 110-.63H122a.32.32 0 110 .63zM99.78 5.07a.31.31 0 01-.31-.32V1.6a.32.32 0 11.63 0v3.15a.32.32 0 01-.32.32z" fill="#231f20"/><path d="M101.38 3.49h-3.19a.32.32 0 110-.63h3.19a.32.32 0 110 .63zM64.3 25.82a5.07 5.07 0 00-5-5.78 5.21 5.21 0 00-4.81 5 5 5 0 009.86.78zM166.32 127a5.08 5.08 0 00-5.06-5.78 5.2 5.2 0 00-4.8 5 5 5 0 009.86.79z" fill="#231f20"/></svg>