<svg data-name="Layer 1" xmlns="http://www.w3.org/2000/svg" viewBox="0 0 193.01 129.6"><path d="M137.37 7.79c-27-5.79-47.65-5.3-48.05 3.6-.3 6.5 22.23-1.72 20 9.34-2.15 10.81-59.13-12.15-58.6 4S122 26.53 120.6 39s-61.5-3-62.23 8.74c-.75 11.88 30.28-.66 30.55 9.51C89.26 70.09 26.71 53.34 29 71s78.34-6.49 81.2 10.46c1.86 11.07-30.35 3.89-30.5 16-.12 10.32 19.31.48 19.76 9.42.94 18.23-39.46-3.88-41.87 11.71-1.69 11 18.79 7.55 42.81 6.52s84.61-4.27 88.89-54.42C193 27 166.47 14 137.37 7.79z" fill="#010101"/><path d="M45.87 90.43c-7.85.12-8.68 14.16 0 13.1s10.24-13.26 0-13.1zM38.07 48.72c4 0 6.39-7.78 0-8.68s-4 8.68 0 8.68zM20.42 40.23c-3.88-1-17.52-4-17.52 4 0 6.2 8.16 7.19 17 3.47s6.58-5.93.52-7.47z" fill="#010101"/></svg>