<svg data-name="Layer 1" xmlns="http://www.w3.org/2000/svg" viewBox="0 0 240.79 131.39"><path fill="#231f20" d="M50.51 39.14l-15.71-9.1-15.53 9.72.23 17.95 15.87 8.88 15.65-9.69-.51-17.76zM87.79 40.75l-15.7-9.1-15.53 9.72.23 17.95 15.87 8.88 15.65-9.7-.52-17.75zM69.98 9.1L54.28 0 38.75 9.72l.22 17.95 15.88 8.88 15.65-9.69-.52-17.76zM31.23 9.1L15.53 0 0 9.72l.22 17.95 15.88 8.88 15.65-9.69-.52-17.76zM71.27 72.29l-15.7-9.1-15.53 9.72.23 17.95 15.87 8.88 15.65-9.7-.52-17.75zM34.63 72.29l-15.7-9.1L3.4 72.91l.22 17.95 15.88 8.88 15.65-9.7-.52-17.75zM53.32 103.94l-15.71-9.11-15.52 9.73.22 17.94 15.87 8.89 15.65-9.7-.51-17.75zM90.11 103.94l-15.7-9.11-15.53 9.73.22 17.94 15.88 8.89 15.65-9.7-.52-17.75zM200.67 39.14l-15.7-9.1-15.53 9.72.22 17.95 15.88 8.88 15.65-9.69-.52-17.76zM237.96 40.75l-15.71-9.1-15.52 9.72.22 17.95 15.88 8.88 15.64-9.7-.51-17.75zM220.14 9.1L204.44 0l-15.53 9.72.23 17.95 15.87 8.88 15.65-9.69-.52-17.76zM181.4 9.1L165.69 0l-15.53 9.72.23 17.95 15.87 8.88 15.65-9.69-.51-17.76zM221.44 72.29l-15.71-9.1-15.52 9.72.22 17.95 15.88 8.88 15.65-9.7-.52-17.75zM184.8 72.29l-15.71-9.1-15.53 9.72.23 17.95 15.87 8.88 15.65-9.7-.51-17.75zM203.48 103.94l-15.7-9.11-15.53 9.73.22 17.94 15.88 8.89 15.65-9.7-.52-17.75zM240.27 103.94l-15.7-9.11-15.53 9.73.23 17.94 15.87 8.89 15.65-9.7-.52-17.75zM125.59 39.14l-15.71-9.1-15.52 9.72.22 17.95 15.87 8.88 15.66-9.69-.52-17.76zM162.88 40.75l-15.71-9.1-15.52 9.72.22 17.95 15.87 8.88 15.65-9.7-.51-17.75zM145.06 9.1L129.36 0l-15.53 9.72.23 17.95 15.87 8.88 15.65-9.69-.52-17.76zM106.31 9.1L90.61 0 75.08 9.72l.23 17.95 15.87 8.88 15.65-9.69-.52-17.76zM146.35 72.29l-15.7-9.1-15.53 9.72.23 17.95 15.87 8.88 15.65-9.7-.52-17.75zM109.71 72.29l-15.7-9.1-15.53 9.72.23 17.95 15.87 8.88 15.65-9.7-.52-17.75zM128.4 103.94l-15.71-9.11-15.52 9.73.22 17.94 15.88 8.89 15.64-9.7-.51-17.75zM165.19 103.94l-15.7-9.11-15.53 9.73.22 17.94 15.88 8.89 15.65-9.7-.52-17.75z"/></svg>