<svg data-name="Layer 1" xmlns="http://www.w3.org/2000/svg" viewBox="0 0 362.68 278.57"><path d="M27.06 86.85a17 17 0 0114.22-7.29c3.53 0 6.1-.64 8.49-3.27a8.35 8.35 0 013.88-2.15c3-.82 6.12-1.6 6.89 3 1.13-.22 1.88-.14 2.33-.49 6.13-4.84 13.43-7.11 20.48-9.9.4-.15.84-.2 1.22-.38 1.16-.52 2.52-1 2.45-2.65-.1-2.29-1.91-2-3.31-2.19s-3 0-4.42-.48a54 54 0 01-5.87-2.73c.29-1.76 1-3.54.7-5.07-.28-1.33-1.91-2.3-2.62-3.62-.45-.82-.3-2-.44-3.29-2.2-1.54-4.74 0-7.19-.09-.81-1.71.72-1.73 1.36-2.34s1.87-1.32 2.31-2.23c2.4-4.9 6.86-7.1 11-9.75 5.08-3.22 10-6.64 15.11-9.89a27.73 27.73 0 014.56-2.28c13.78-5.67 28.29-8.09 42.82-10.25a411.76 411.76 0 0146.37-4.34c7.43-.26 14.86-1 22.3-1 11.48-.13 23.05-.8 34.42.4 12.09 1.29 24.22.53 36.27 2.06 5.76.68 11.46 1.37 16.91 3.37 2.27.83 4.27 1.81 4 5.1-.19 2.57 2.49 2.66 3.9 3.85l.08-.08c-1.81-.29-3.62-.66-5.88.54a18.12 18.12 0 009.38 3.34c3.4.21 5.8 2.59 8.91 3.26s6.13 1.74 9.18 2.65a2.16 2.16 0 011.12.61c2.92 4.14 6.84 7.68 7.6 13.14.41 2.93-.88 4.23-3.93 4.37h-1.9c-3.18.4-5 3.92-2.77 6.18a16.1 16.1 0 014.56 9.25 11.35 11.35 0 00-2.72.74c-.65.35-1.63 1.48-1.5 1.74.93 1.83-.12 2.29-1.43 2.76-.69.25-1.32.68-3.15 1.65l10.76-.83-.09-.1c-2 .8-4 1.5-5.91 2.42-3.46 1.65-6.56 3.47-8.62 7.34a18.63 18.63 0 01-10.53 9 11.26 11.26 0 00-3.46 1.59c-3.5 2.82-7.69 4-11.78 4.84-10.43 2.15-21 3.67-31.43 5.63-8.38 1.57-16.71 3.39-25.05 5.14a85.17 85.17 0 00-8.69 2.08c-1.33.42-3.61-.06-3.49 2.85 0 .48-2.08 1.25-3.28 1.57-7.62 2.06-15.26 4-22.89 6-1.55.41-3.07.95-5.64 1.75 2.54 1.14 4 1.93 5.58 2.47 5.64 1.94 11.32 3.78 17 5.69 1.41.47 1.38 1.35.22 2.5 3 1.45 5.76 3 8.7 4.22 24.71 10 47.72 23.46 70.37 37.66 9.3 5.83 18.53 11.8 27.11 18.79a9 9 0 011.5 1.22c6.35 8.23 15.39 13.33 22.28 20.91l3.28 2a2.19 2.19 0 01.57.29c4.1 3.89 4.69 9.74 7.22 14.52 1.64 3.08.77 6.94 0 10.4-.74 3.12-.92 6.09 1.1 8.82a5.62 5.62 0 01.69 1.85c.76 2.78-.82 5.49-3.65 5.55-2 .05-3.67.27-5.2 1.86-1-1.16-1.85-2.25-3.14-3.8-2 4.63-3.84 8.69-5.42 12.86-.41 1.09.07 2.55.13 3.83h.09c-1.69-.41-2.76.46-3.8 1.76-3 3.68-6.8 3.46-10.42 1.67-6.12-3-12.88-4.6-18.42-8.92a5.27 5.27 0 00-2.37-.87c-6.46-1-12.08-4-17.52-7.59-12.25-8-24.42-16.18-36.82-23.92-10.76-6.72-21.49-13.53-33.13-18.56-12.75-5.52-25.89-9.89-38.92-14.59-14.7-5.29-29.88-8.6-44.84-12.82-2.89-.82-5.72-1.56-8.09-3.68-1.74-1.56-3.48-2.06-5.59 0a3.12 3.12 0 01-5-.49c-2.31-4-6.07-4.53-9.8-5.32-15.86-3.34-32-4.43-48-6.44a5 5 0 00-1.27-.08c-7.24 1-13.82-1.64-20.42-4.06a31.83 31.83 0 00-9.35-1.76c-1.89-.1-3.84-.51-4-3.32-.08-1.58-1.48-2.17-2.74-2.3a19.53 19.53 0 00-3.79.28l.09.09c-1.34-4.15-4.79-5.93-8.47-7.95a16.53 16.53 0 002.32-2.15c.33-.44.54-1.5.28-1.8a2.67 2.67 0 00-2-1 24.3 24.3 0 00-4.28 1.39c.91-2.71 3.05-3.17 3.89-4.65 0-.49.15-1 0-1.31a20.19 20.19 0 00-2.51-3.78c-2.23-2.34-2.09-5.69-1.33-7.85.88-2.52.51-4.71.53-7.43l4.11-3.92c-.32-1.2-.65-2.42-1.11-4.12l6.81-3.75c-1.7-2.37-3.91-.07-6-.68 1.73-2.77 4-3.9 6.27-5a6.28 6.28 0 003.61-4.32c1.23-5.63 4.93-9.67 8.16-14a9.72 9.72 0 00.3 1.21c0 .13.26.19.41.29-.29-.49-.55-.96-.81-1.43zm243.59-76.62c2.52 1.86 5.3 1.54 8 1.9 2.94.4 5.86 1 8.8 1.41 2.56.35 5.07 1.66 7.77.41a59.62 59.62 0 00-24.57-3.72zM88.72 57.81L87.32 59c.48.29 1 .81 1.44.82s.95-.51 1.43-.8zm18-36.25c-.11-.29-.23-.59-.34-.89L103.24 22c.11.27.21.55.32.82zM262 8.76l-1.15.34a4.8 4.8 0 00.36 1 10.18 10.18 0 001.58-.47zM241.38 9v-.69l-3.58.18V9z"/></svg>