<svg xmlns="http://www.w3.org/2000/svg" viewBox="0 0 388.55 244.55"><g data-name="Layer 1" fill="#231f20"><path d="M335.78 77.78l10-17.34a2.22 2.22 0 00-1.92-3.33h-20a2.22 2.22 0 00-1.92 3.33l10 17.34a2.22 2.22 0 003.84 0z" style="mix-blend-mode:overlay"/><path d="M163.52 149L225.2 42.16a13.69 13.69 0 00-11.85-20.53H90a13.69 13.69 0 00-11.86 20.53L139.82 149a13.68 13.68 0 0023.7 0zM285.4 234.29l37.6-65.15a15.88 15.88 0 00-13.75-23.81H234a15.87 15.87 0 00-13.74 23.81l37.61 65.15a15.87 15.87 0 0027.53 0zM255.94 8.83L194.65 115a13.6 13.6 0 0011.78 20.4H329a13.6 13.6 0 0011.79-20.4L279.49 8.83a13.59 13.59 0 00-23.55 0zM178.2 145.66l-22.82 39.52a9.63 9.63 0 008.34 14.44h45.63a9.63 9.63 0 008.34-14.44l-22.82-39.52a9.62 9.62 0 00-16.67 0zM2.62 112.59l18.13 35.62a8.43 8.43 0 0014.58.77l21.78-33.5a8.43 8.43 0 00-6.62-13l-39.91-2.11a8.43 8.43 0 00-7.96 12.22zM332.59 9.77l-15.42 26.7a6.5 6.5 0 005.63 9.75h30.83a6.5 6.5 0 005.64-9.75l-15.42-26.7a6.5 6.5 0 00-11.26 0zM362.13 58l-8 13.89a3.38 3.38 0 002.87 5.02h16a3.38 3.38 0 003-5.07L368 58a3.39 3.39 0 00-5.87 0zM74.48 106.56L39.64 166.9a14.7 14.7 0 0012.73 22h69.68a14.7 14.7 0 0012.73-22l-34.84-60.34a14.7 14.7 0 00-25.46 0zM55.62 50.83L40.51 77A6.38 6.38 0 0046 86.56h30.24A6.38 6.38 0 0081.76 77l-15.1-26.17a6.37 6.37 0 00-11.04 0zM370.58 121.86l15.1-26.17a6.37 6.37 0 00-5.52-9.56H350a6.37 6.37 0 00-5.52 9.56l15.11 26.17a6.37 6.37 0 0010.99 0zM309.42 22.64l7.7-13.35a3.25 3.25 0 00-2.81-4.88h-15.42a3.25 3.25 0 00-2.81 4.88l7.7 13.35a3.26 3.26 0 005.64 0z"/></g></svg>