<svg data-name="Layer 1" xmlns="http://www.w3.org/2000/svg" viewBox="0 0 120.88 156.8"><path d="M87.2 127.87c-.14 5.47 1.91 13.47 3.72 15.79 3.76 4.79 1.67 9.92-3.06 11.33-4.48 1.34-9.29-2.65-9.38-6.39-.08-2.78 1.42-4.26 2.33-5.74 2.31-3.79 2.57-19.58.73-22.6-3.51-5.72-12.37-5-17.71-7.16-2.34-1-6.26-.4-9 3.16-3.75 4.83-1.27 16.15-1.75 19.26-.26 1.66-1.33 3-3.06 1.87a23.84 23.84 0 01-2.34-2.27c-2.22-1.86-5 1.21-5.64 3.34-.86 2.73 2.57 7.5-1 9.74a5.75 5.75 0 01-3.86.28c-2.09-.62-1.75-3-1.72-6.84.11-15.51-5.9-26.23-9.71-26.68a6.88 6.88 0 01-2.86-.64c-1.61-1-.89-2.82-1-4.68-.24-3.34-7.88-13.91-9.38-16.08a58 58 0 11105.65-33c0 12.27-3.5 23.77-10.23 33-5.88 8-20.34 18.06-20.75 34.31z" fill="#010101" fill-rule="evenodd"/></svg>