<svg data-name="Layer 1" xmlns="http://www.w3.org/2000/svg" viewBox="0 0 236.17 211.71"><path d="M16.27 116.4c-.45-.33-1.35-.76-1.29-1 .63-2-.46-3.18-2.18-3.93a33.05 33.05 0 01-.32-5.14 8.71 8.71 0 011.33-3.33c.92-1.55 2.24-2.92 3-5-1 .09-1.66.08-2.3.21-1.9.38-1.9.4-2.88-1.54.92.13 1.82.85 2.74.11a1.15 1.15 0 00.27-.86c0-.12-.33-.31-.53-.34a2.58 2.58 0 00-2.44 1.14h-.35C9 96.2 9 96.2 9.45 94l.09-.27v.31a4.7 4.7 0 01-.54-.43c-1.94-2.13-2.59-2.44-.23-5l.76-1-.45-.17-.28 1.23L6 88l1.76-2.86c-1.16-1.27-2.31-2.58-3.53-3.83a1.56 1.56 0 01-.39-1.87A6.8 6.8 0 015.24 77c2.08-1.81 3-4.38 5.27-6.06.59-.44 1.12-1.06.68-1.77-.68-1.09.08-1.67.82-2.3Q22.41 58 32.82 49c.63-.54 1.32-1.35 2-1.43 2.09-.2 2.84-1.62 4-2.81A31.48 31.48 0 0144 40.27c8.52-5.69 16.53-11.94 24.69-18 2.81-2.09 5.82-4 8.76-5.94 5.28-3.52 10.58-7 15.84-10.54 2.53-1.7 5.21-2.77 8.63-2.06.13.11.51.29.66.57 1.64 3.21 5 3.63 8.27 3.83 1.12.07 2.34-.69 3.44-1.2s2.33-1.41 3.87-.9a2.83 2.83 0 01.68 2.87c-.69 2.09.93 3.4 2 4.87a2.12 2.12 0 001.69.46c3.43-.64 6.81-1.26 9.83-3.16a64.22 64.22 0 019-4.33 5.2 5.2 0 015 0l-1.65 2.94a1.7 1.7 0 002.37.63c2.3-1.12 4.86-.94 7.54-1.61.56 1.55 1.09 3 1.64 4.51a6.19 6.19 0 004.17-1.21c1.68-1 3.39-2 5.16-2.86a17.89 17.89 0 012.77-.84 2.33 2.33 0 01-.25 3.32c-.78.88-1.76 1.62-2.6 2.46a8.39 8.39 0 00-1.3 1.63c-.12.2.08.68.31.89a1.17 1.17 0 001 .27c1-.46 1.93-1 2.87-1.55 1.62.52 1.77 1.94 2.58 2.88a9.3 9.3 0 001.93 2 4.39 4.39 0 004.61.14c2.06-1.09 4.15-2.15 6.22-3.23a2.27 2.27 0 012.77.21l1.61.72h-.05l2.47.52c.8 1.66.29 3-1.43 4.21a14.06 14.06 0 00-2.42 2.88l-1-.07c.08.06.16.18.22.17a5.78 5.78 0 00.7-.14c2.44.47 3.4 2.15 3.93 4.35l4.33-1.24c.21 2.16.41 4.22.64 6.5l3.58-1.21c.23.7.39 1.3.62 1.88a1.63 1.63 0 002.32 1c1.17-.4 2.35-.78 3.52-1.17h-.05c-.56.59-1.13 1.17-1.7 1.75-.88.9-.45 2.44.71 2.28 1.84-.25 3.3.93 5.05.67.47 2.89.47 2.89-.56 4.92.59 0 1.14.06 1.44-.14a7.93 7.93 0 015.64-1c-.06 2.12-2 3.41-3 5.33.63.23 1.16.44 1.7.62 1.4.45 1.61 1.29.52 2.18-.74.61-1.49 1.21-2.26 1.78-2.21 1.64-3.18 4-4.68 6.3.43.55.87 1.2 1.41 1.79a2.27 2.27 0 002.34.75 4.58 4.58 0 011.87-.11 3.74 3.74 0 011.53.85c.56.45.26.92.05 1.5-.36.94.21 1.51 1.29 1.48.75 0 1.5-.21 2.25-.22a1.16 1.16 0 011.14 1.45c-.38.94-.89 1.85-1.44 3l3.21 1.67-1 3.6 2.31 1.35-1.79 1.54a1 1 0 00-.24-.23h-.26l.55.2c.29.32.53.86.88.93a2.74 2.74 0 012 1.82c-.4.42-.78.82-1.12 1.16.34 1.25 2.65.4 2.41 2.26-.11.78 1.26 1.64 1.39 2.54a12.32 12.32 0 01-.55 3.52h3.54c-.24.88-.38 1.51-.59 2.11-.29.86-.73 1.68-.95 2.55-.16.63.32 1.06 1 1.19a2.69 2.69 0 00.75 0c.74-.07 1.54-.35 2 .41a1.77 1.77 0 01-1 2.32 22.68 22.68 0 00-5.66 4.94c-.41.43-1.08.88-1.1 1.34-.12 2-1.85 2.61-3.4 3.26a11.36 11.36 0 00-4.62 3.4c-.59.72-1.41 1.29-2.06 2-1 1-2.78 1.66-2.43 3.49 0 .14-.67.32-.85.59s-.5.85-.35 1.13a1.67 1.67 0 001.18.58 9.9 9.9 0 002-.26c.47 1.78-.61 3.12-1.17 4.82l3.15.3c.09.29.25.51.2.68a27.73 27.73 0 01-1.37 4.19c-.35.76-1.23 1.33-2 2.17l2.15 1.03c0 .2.1.49 0 .61-.87.84-1.7 1.69-1.58 2.95a6 6 0 01-2.13 4.89 11.54 11.54 0 00-1.1 1.49c2.28 2 4.44 3.92 3.44 6.93a9.43 9.43 0 012.36 1.83c.46.73.2 1.78.55 2.6.71 1.69 1.66 3.29 3.91 3.75.37.08.75.1 1.12.15a2.35 2.35 0 012.3 2.3 6.3 6.3 0 00.08 1.69c.67 1.95 1.48 3.84 4.23 4.29-.31 1.49-.58 2.79-.83 4 3.15 2.37 3.15 2.37 1.74 5.5l2.76 1.59c-.11 1.87-1.58 2.84-2.85 3.87a18.43 18.43 0 01-3.31 2.26 5.45 5.45 0 00-3 3.7 12 12 0 01-.8 1.75 22.26 22.26 0 00-7.78 2.94 2.94 2.94 0 01-1.75.53c-2.09-.3-3.64.69-5.25 1.55a35.2 35.2 0 01-12.25 4.33 48.3 48.3 0 00-5.8 1.56c-1.08.29-2.2.46-3.31.69a.88.88 0 00-.22-.25h-.27l.54.23c-.71.16-1.52.6-2.1.43a8.57 8.57 0 00-5.5.47c-2.24.77-4.55 1.36-6.85 2a15.29 15.29 0 01-3.32.62 4.35 4.35 0 01-1.95-.76c-.29-.16-.35-.69-.64-.82-1.95-.83-2.32-2.2-1.7-3.83-.31-.23-.48-.38-.67-.5l-2.07-1.29c-1.44 1.07-3.14-.21-4.68.45a6.45 6.45 0 01-5.13-.11 4.66 4.66 0 00-3.31.05c-2.4.72-4.77 1.51-7.19 2.15-2.63.7-5.25 1.78-8.1.68a1.39 1.39 0 00-1.08.07c-1.51 1.06-3.26.86-5 1a24.67 24.67 0 00-4.65 1.37h.06c-2.3.1-4.71-.12-6.69 1.24a2.39 2.39 0 01-2.12.26 7.32 7.32 0 00-4.38.6c-2.82 1-5.69 1.8-8.58 2.59-1.61.43-1.85.31-4.62-.52.27-1.13.55-2.3.84-3.49-.38-.68-.82-1.37-1.17-2.09-.87-1.79-2.09-3.09-4.57-2.71a11.49 11.49 0 00-9.39.56 29.85 29.85 0 01-5.39 1.54 11.94 11.94 0 01-3 .47 2 2 0 01-1.47-.84 1.72 1.72 0 01.41-1.5c.82-1 1.82-1.85 2.71-2.79a1.72 1.72 0 00.49-.89 1 1 0 00-.37-.88 1.15 1.15 0 00-1-.09c-1.22.79-2.37 1.68-3.58 2.5a52.9 52.9 0 01-10.93 5.81 2.64 2.64 0 01-1.67-.41c-.39-.2-.64-.64-1-1-2.47 1-4.84 1.55-7.35.34-1.23-.59-2.48-.06-3.59.53-2.65 1.42-5.68 1.88-8.57 2.65-1.56.42-3.24.66-4.5-.65-.29-2.32 2.69-3.26 2.75-5.23-1.92-.45-3.75-.76-5.47-1.33a1.68 1.68 0 01-1.28-2.45 7.94 7.94 0 01.74-1.56c.26-.47.6-.9 1.26-1.87l-3.2 1.09c0-1.2.32-2.28-.09-3s-1.61-1.38-2.42-2.08c-.36-.31-.6-.74-1-1a2.29 2.29 0 01-.73-3.05c.56-1.25.95-2.55 1.41-3.81l-1.64-2c-1-1.14-1-1.14-.56-2.9l-2.8-3.47c.27-.71.48-1.24.68-1.74a3.4 3.4 0 00-.36-.6c-.58-.58-1.19-1.13-1.77-1.71-1.37-1.37-1.32-2.81-.38-4.37 1.25-2.09 2.42-4.21 3.71-6.47a3.76 3.76 0 00-.71-1c-.86-.62-1.36-1.26-1-2.32a1.35 1.35 0 00-1-1.9c-.73-.92-1.46-1.8-1.09-3.09a1.57 1.57 0 00-.51-1.45 1.42 1.42 0 01-.5-2.08c.75-1.46.19-2.47-1.08-3.53-2-1.65-2.67-3.79-1.6-6.09a52.63 52.63 0 013.21-5.7c.81-1.3 1.7-2.4.78-4-.38-.67.12-1.73.23-2.71a4 4 0 01-2-4.61 15 15 0 00.2-2 1.31 1.31 0 00.35 0c.08 0 .14-.12.2-.18zm137.13 80.66l.3-.16c-.08-.07-.15-.18-.24-.19s-.18.09-.27.14zM22.57 173.73v-.22l-.23.08z"/></svg>