<svg data-name="Layer 1" xmlns="http://www.w3.org/2000/svg" viewBox="0 0 272.34 246.16"><circle cx="162.72" cy="224.42" r="20.54" fill="#231f20"/><path d="M243.68 101.8c4.07-16.16 11.74-40.33-4.23-53.09-13.83-11.06-34.72-3.42-49.87 1-2.51.74-5 1.41-7.42 2a43.45 43.45 0 01-86.22-3.15 59.66 59.66 0 01-6-3.51c-31.31-21-55.44-14.37-64.16.51C5 81.17 47.94 118.43 28.39 141.1 2.73 170.87-9.08 191.92 17.1 216.56c24 22.63 97.44-10 134.24-18.11 18-4 35.48-4.16 54.14-5 18.83-.83 35.07-9.62 38.05-29.74 3.1-20.87-5.03-41.36.15-61.91z" fill="#231f20"/><path d="M100.07 50.58a39.56 39.56 0 0078 2.21c-32.14 7.59-58.9 6.09-78-2.21z" fill="#231f20"/><path d="M99.67 45A39.56 39.56 0 11178 52.79q2.05-.48 4.14-1a44.89 44.89 0 00.53-6.8 43.46 43.46 0 00-86.92 0c0 1.23.07 2.44.17 3.65q2 1 4.13 2a39.94 39.94 0 01-.38-5.64z" fill="#231f20"/><circle cx="260.92" cy="113.5" r="9.67" fill="#231f20"/></svg>