<svg data-name="Layer 1" xmlns="http://www.w3.org/2000/svg" viewBox="0 0 178.65 188.35"><path d="M96 185.63c-.63 0-.82-1.18.34-1.33-.23.42-.53.82-.34 1.33zM97.75 181.29c-1.36-.15-.91-.64-.63-1.17 1.21.18.05.88.63 1.17zM98.59 174.23c-.43 0-1.09-.53-.06-.56-.32.33-.02.27.06.56zM98.25 173.37c-1.1-.59-.63-.58-.93-1.48 1.06.21.85.9.93 1.48zM103 171.62c-.58-.13.9-.39.44-.74.66.12 0 .62-.44.74zM103.64 170.71c-.53 0-.27-.28-.8-.28.07-.11.64-.09 1-.12-.19.1-.3.22-.2.4zM96.71 171c1.06-.34.42-.8.38-1.31.78.21 1.57 1.02-.38 1.31zM153.61 168.05c-.89.1-.46-.21-.29-.26-.13-.64.68.21.29.26zM58.92 171.81c-.34.27-1-.06-.8-.32.99-.19.12.37.8.32zM87.49 169c-1.15 0-1.15-.51-.82-.8 1.01.11-.09.56.82.8zM93.89 168.48c-.24 0-.4-.21-.51-.06-.66-.06.18-.37.74-.36.21.07.29.18.28.32-.3 0-.46.03-.51.1zM84.31 167.44c-.36.27-.41-.47 0-.5.21 0 .24 0 .25.08s.11.07.27.07c-.13.14-.83.1-.52.35zM58.57 167.13c-.48.21-.21-.64-.32-.87.81.21.12.43.32.87zM69.79 165.72v-.34c.96-.1.99.38 0 .34zM69.17 164c-1.43-.13.3-.6-.07-1 .51.2.39.85.07 1zM111.93 161.44c-.08-.23.56-.25.48-.48.81.04.38.49-.48.48zM78.89 159.38c-.77-.11-.71-.55-.57-.75.45.16.32.52.57.75zM78.81 158.12c-.86-.07 0-.74-.59-1.09a.81.81 0 01.59 1.09zM114.12 156.09c-.6-.1-.22-.57.75-.47.13.26-1.14.13-.75.47zM80.72 156c-.9-.06-.71-.5-.8-.83.65-.07.45.57 1 .24.69.11-.33.38-.2.59zM79.65 154.5c.51-.17.5 0 1 .08-.23.14 0 .45-.75.42.13-.07.26-.14.25-.25-.15-.09-.58-.09-.5-.25z" fill="#231f20" fill-rule="evenodd"/><path d="M79.39 154.58c-.74-.23.82-.53 0-.84 1.21.1.72.7 0 .84zM37 152.89c-1.06.05-.38-.45 0-.46.71.08-.37.23 0 .46zM57.71 151c-1 .06-.57-.58.24-.44-.21.13-.33.26-.24.44zM45.84 149.16c-.39-.13-.74-.48-.27-.64.57.04.12.48.27.64zM1.64 147c-.35-.07-.49-.22-.53-.41.46 0 .54-.11 1-.09v.3c-.42-.13-.55-.08-.47.2zM71.1 144.23a2.15 2.15 0 01-.24-1.77 11.92 11.92 0 00.44-1.83c1.33.64 1.07 1.23.58 1.82s-1.18 1.17-.78 1.78zM27.21 143.31c-.85 0-1.17-.55 0-.48zM16.15 142.4c-.55-.07-.25-.6 0-.68.76.17-.22.43 0 .68zM26.9 141.5c-.4-.15-.55-.39-.52-.68.97-.05.32.46.52.68zM23.81 140.18c-.49.42-1-.67 0-.48.34.3-.75.38 0 .48zM23.82 139.51c-.65 0-.93-.86 0-.77-.36.26.12.35 0 .77zM72.07 140.56c-1.11 0-.27-.6-1.28-.64.16-.2.34-.39 1-.39.7.31-.12.8.28 1.03zM60.52 138.89c-.72.31-.49-.43-.51-.63.22 0 .24 0 .26.09h.51c.11.22-.78.47-.26.54zM61.81 137.35c-.57-.15-1.2-.27-1-.65.19.3.86.37 1 .65zM36.92 135.88a.66.66 0 01-.51-.58c.82.01.93.45.51.58zM22.81 135.16c-.28 0-.17-.2-.51-.21.74-.15.58-.22.77-.45.71.18.02.58-.26.66zM1.78 133.87c-1 0-.33-.48-.51-.72.73.04.46.44.51.72zM125.16 136.09a2.77 2.77 0 01-1.28-.52c.37 0 .62.33.77.12.35.08.55.21.51.4zM27.45 131.06c-.47-.2-.21-.91.52-.93a1.56 1.56 0 00-.52.93zM130.54 135a3.35 3.35 0 00-.77-.11c.83-.33.41-.4.25-.95 1.18.28.98.79.52 1.06zM121.05 134.07c-.81-.16-.43-.61-.52-.94.66.23.37.47.52.94zM130.53 133.84c-1.52 0 .33-.46-.77-.41-.63-.05-.06-.25.25-.21-.22-1 .6-.29.26.09 0 .07.31.08.51.1.22.24-.44.2-.25.43zM15.94 127.3c-.55-.11-1-.46-.51-.61a.7.7 0 01.51.61zM27 127.42c1.06-.24.19-.67-.25-1a3.21 3.21 0 001 .15c-.12.32.1.54.25.78a3.53 3.53 0 01-1 .07zM23.89 127.06c-.34-.73-2.28-1.52-1.25-2.09.57 0 .1.41.24.59.73 0 .48-.37.54-.64.58.44 1.15 1.67.47 2.14zM130.53 132.29c-.74 0-.46-.33-.5-.54.52.1.54.31.5.54zM130.8 131.65c-.8 0-.81-.21-.76-.42.53.08.96.17.76.42zM130.3 131.1c-1.24-.08 1.33-.9-.74-.86a3.49 3.49 0 011.54 0c-.32.44-.54.42-.8.86zM23.21 123.47h-.76c.44-.2.68-.48.55-.93.68 0-.26.52.75.43-.24.11-.75.15-.54.5zM66.27 126.11c.06-.29-.07-.67.79-.64-.06.31.16.71-.79.64zM24.28 122.57a2.19 2.19 0 00-1.28-.18c.55-.16.15-.44-.49-.51-.12-.31 1.27.05 1-.32.26.35.78.6.77 1.01zM18.91 121.93c-.58-.11-.82-.7.28-.56-.31.09-.31.32-.28.56zM24.06 121.5c-.53-.23-.91-.52-.48-.8a.68.68 0 01.48.8zM25.09 121.38c-.89-.17-.7-.38-.23-.59.56.05.14.41.23.59zM18.73 119.88c-.28.13-.52-.93-.22-1 .58.19.07.7.22 1zM128.6 127.57c-.55 0-.54-.23-.5-.41.78 0 .93.15 1.54.19-.24.11-.95.05-1.04.22zM26.69 119.77c-.88.07-1.19-1.18-.72-1.2.18-.01.42 1.04.72 1.2zM6 117.2v-.3c.25-.09 1.33 0 1.27.29-.72-.14-.66.09-1.27.01zM124.29 126c-.38-.12-1.15-.16-1-.38.57.05 1.18.12 1 .38zM124.31 125c-.78-.06-.63-.32-.75-.51.77.06.63.31.75.51zM23.74 116.48c-.5-.2-.33 0-1-.08.31-.12.24-.41 1-.3zM25.59 115.19c.43 0 .48.11.5.23h.52c.88.34-1.25.18-1.02-.23zM12.79 114.25c-.67-.61.58-.66-.21-1.3 1.35.05.8 1.2.21 1.3zM26.12 114.66a2.42 2.42 0 01-1.26-.68c.24.08.94.3.78 0 .37 0 .61.42.76.16.99.37-1.16.08-.28.52zM23.05 114.4c-1.26-.3 0-1 .05-1.34.79.62-.68.74-.05 1.34zM126.17 122.75c-.67-.26.52-.46.27-.8.68.26-.08.62-.27.8zM13.47 110.27c-.05.11-.47 0-.78 0 .21-.29-.8-.72-1-.58-.59-.53.26-.89-.16-1.5a3.42 3.42 0 001 .2c-1.09.71.62 1.16.94 1.88zM24.24 110.46c-.51-.28-.67-1.09.55-.62-.97.03.12.44-.55.62zM10 108.27c-.8.08-.74-.72 0-.5zM23.8 109.36c-.44.11-.14-.77-.44-1 1.16.23.51.64.44 1zM24.57 109.33c-.41-.59.77-1.27 1.66-1.57.57.48-1.32.93-1.66 1.57zM12.31 108.09c-1.46-.22.95-.48-.47-.64.09-.13.65 0 1 0a4.32 4.32 0 00-.53.64zM21.54 108.57c-.56 0-.09-.36-.22-.51a3.89 3.89 0 001.27.12c-.18.21-.86.18-1.05.39zM19.79 107.82c-.63-.16-1.23-.51-.47-.54.37.12.53.3.47.54zM21.65 107c-.56-.33-1.26-1.06-.43-1.21.51.22.05.36 1 .3-.6.12-.59.53-.57.91zM77 110.61c0 .09-.47 0-.78 0-.19-.29.43-.22.54-.37.87.12-.51.33.24.37zM22.35 104.38c-1.37 0-1.05-1.89.61-1.39-.05.11-.47 0-.77 0 .5.46-.57.91.16 1.39zM79.88 109.3c-.28-.17-1-.38-.48-.48l.77.08c.06.21-.07.32-.29.4zM76.12 108c-.32 0-.48-.68-.45-1 .59.19.48.57.45 1zM129.75 113.14c0-.22.68-.17.79-.35.46.13-.15.43-.79.35zM79.79 106.73c-.63-.2-1.38-.37-1.23-.74.51.23 1.15.43 1.23.74zM20.69 99c-.57-.11-.07-.49-.21-.7.63.13.52.4.21.7zM78.09 105.34c-.53-.08-.22-.34-.75-.43 0-.08.11-.07.27 0s.24 0 .25-.06c.49.08.67.4.23.49zM130.69 110.19l-.76-.09c.32-.15-.05-1.53.28-.49.2.19.65.33.48.58zM139.88 111c-.69-.18-.49-.46-.22-.61.57.15.08.44.22.61zM77.32 101.65c-1-.15-.41-.92-.15-1.05.35.18-.44.71.15 1.05zM140.27 109.33c-.17-.23-1-.48-.22-.47.54.23.95.39.22.47zM141.34 108.88l-.76-.1c.31-.07.25-.29 1-.15.06.13-.28.11-.24.25zM20.26 91.87c-.54-.16-.88-.36-.71-.68.62.13.53.44.71.68zM130.52 106.13c-.62.2-.35-.33-1-.36.07-.12.45-.11 1 0 .35.23-.74.23 0 .36zM140 107.17c-1.06-.16.14-.24-.47-.5l.77.1c.11.23-.51.15-.3.4zM137.19 106.43c-.55.14.2-.5-1-.5.55-.29 1.38.22 1 .5zM141.33 106.19c-.25 0-.19-.12-.24-.18s-.25-.08-.26 0c-.34-.07-.19-.21-.22-.32.91.04.75.31.72.5zM137.1 104.57l-1-.14c.36-.05.28-.28.3-.48.81.13.5.41.7.62zM142.85 103.56a9.94 9.94 0 01-.95-.86c.83.22 1.1.52.95.86zM20.11 85.87c-.91-.27.22-.81.13-1.26.68.06-.29.5.73.49-.97.12-.52.35-.86.77zM143.34 96.35l-1-.17c.67.14 1.14-.24.28-.18-.83-.24.54-.08.3-.31.41.19.49.41.42.66zM143.82 92.47c-.51-.16-.51-.37-.44-.59.32.25.85.44.44.59zM12.66 68.76c-.52-.11 0-.44-.43-.58a1.11 1.11 0 00-.55.21c-.73-.31.22-.5 1.07-.22-.26.31.41.5-.09.59zM138.17 90.12c-.22-.08-.44-.16-.51-.09-.5-.26.56 0 .06-.43.64.12.47.33.45.52zM141 90.41c-.48-.19-.23-.67.09-.72.45.19.21.67-.09.72zM137.73 89.52c-.24-.27.05-.47.1-.8.53.23 0 .58.41.82-.24-.06-.45-.06-.51-.02zM148 87.84c-.67-.3.46-.35-.16-.69 1.44.29.16.46.16.69zM145.49 87.35c-.83-.07-.15-.27-1-.34 0-.18.74.07.79-.06.85.23.12.15.21.4zM149.56 87.92c.36 0 .21-.3.57-.33.6.28.48.53-.57.33zM145.7 86.07c-.62-.34-.78-1.11-.09-1.12.49.14.65.32.7.5-.61-.42-1.08.42.19.48.04.2-.99-.14-.8.14zM144.59 83.19l-.75-.16c-.23-.32 1 .08.81-.2.59.17.09.34-.06.36zM147.31 82.42c-1.33-.34-.07-.43-.65-.8.84.22.24.55.65.8zM152.87 83.36l-.75-.16c.58.07-.16-.53.82-.26zM17.26 49.78c-.64-.18-.46-.57-.6-1.05.42.13.49 0 .54-.08.39.35-.4.64.06 1.13zM158.8 80.17c-.47-.2-.07-.45-.41-.66.86.24.61.54.41.66zM19.2 39.77c-.48-.18-.61-.42-.65-.66 1.01.11.7.4.65.66zM18.85 30.08c-.22-.12-.31-.37-.47-.23-.6-.6-.17-1.19.36-1.55.13.7.03 1 .11 1.78zM22.13 30.72c-.62-.36-.75-.79-1.31-1.16 1.4.44 1.29.68 1.31 1.16zM20.75 28.73c-.29-.06-.25.12-.31.22-.68-.29-.43-.7-1.08-1 .19-.12.58.09.47.23.9.14.61.14 1.51.29a2.15 2.15 0 00.54 1.06 2.35 2.35 0 01-1.29-.13c-.76-.5.73-.32.16-.67zM18.63 27.66c-.91-.38-.19-.53-.33-.81-.24-.45-1.43-.28.09-.39.5.54.03.67.24 1.2zM163 65.4c-1.61-.49.36-.23-.38-.68.94.22.16.46.38.68zM19.35 24.65c-.35 0-.23-.85-.25-1.2a1 1 0 01.25 1.2zM21.54 23.19c.51-.05.09-.23.12-.48 1.01.18.85.85-.12.48zM26 23.39c-.38-.28.1-.24-.11-.64.91.16.31.62.11.64zM168.51 61.59c.53-.1 0-.34-.13-.61.73.23 1.62 1.02.13.61zM52.68 28.65l-.74-.21c-.53-.39.12-.53.19-.81.12.37.65.66.55 1.02zM44.63 22.54c-.42-.14-.52-.32-.4-.51.28.1.44.11.51 0 .58.24.05.5-.11.51zM43.47 21.91c-.34-.27.16-.31-.09-.72.89.2.68.49.6.77-.28-.1-.44-.11-.51-.05zM36.6 18.71a10.51 10.51 0 01-.76-1.13c.23 0 .46.05.54 0 .6.14-.25.38.66.5-.4.14-.15.26-.44.63zM64 23.43c-1.35-.38.19-.58-.5-1.11-1.1-.37-.78.21-.65.47-1.85-.67 1.15-.63-1-1.25.21-.17.46-.3.44-.64.91.19.25.46.35.68 1 0 .77.56 2 .51a1 1 0 00-.64 1.34zM170.49 54.43c-1.42-.39.27-.29-.88-.71.48 0 1.3.63 2 .54.83.51-1.07-.04-1.12.17zM167.31 51.32c-.42-.5-1.23-.16-1.36-.87l1.22.39c.02.27.63.38.14.48z" fill="#231f20" fill-rule="evenodd"/><path d="M169.36 51.6c-.36-.54-1.88-1.12-2-1.65a6 6 0 00-.75-.16c.28.26.32.51.59.78-.71-.18-2.23-.91-2.52-.5-1.21-.76 1.89 0 1.73-.57a7.6 7.6 0 002.27.43 13.55 13.55 0 011.6 1c0 .27-.47.23-1.08.1.6.37.22.27.16.57zM162 48.38c0-.55 1.53.46 1.59 0 .17.19.58.39.64.58-1.12-.44-1.23-.22-2.23-.58zM54.74 11.55c-.59-.46-.59-.26-1.47-.47.07-.15-.25-.28-.15-.44.43.36 2.04.57 1.62.91zM41 6.26c-.45-.33-.56-.79.61-.31.14.34-.68-.04-.61.31zM36.69 1.79c-.89-.24-.31-1 0-1-.04-.28-.83-.52-1.34-.79a11.74 11.74 0 012.33.26c.36.3-.17 1.12-.74.67-.04.34.12.67-.25.86zM63.43 9.12c-.59-.36.08-.65.46-.62.5.29-.43.38-.46.62zM70.53 8.71c-.18-.37-.64-.74-.74-1.11 1.27.45 1.01.84.74 1.11zM104.47 19.68l-.73-.25c.17-.07-.16-.51.37-.32.89.2.3.38.36.57zM106.56 19.86c-.64-.25-.76-.49-.85-.73.72.27.91 0 1.48.42.04.29-.8-.08-.63.31zM174.15 41.85c-.06-.37-.56-.63.19-.67.31.13.26.32-.06.2a1.8 1.8 0 00.92.54c-.08.16-.43.14-1.05-.07zM175.4 42.14c1.27 0 .67-1 2.58-.64-.59.08-.84 1.07-2.58.64zM86.52 9.86c-.14-.24-.3-.76.67-.41-.12.22-.55.19-.67.41zM171.62 38.59c-.72-.3-1.37-.6-1.36-.85a9.44 9.44 0 011.68.66c-.21 0-.31.07-.32.19zM96.37 11.85c-1-1.2.92-1.92 3.13-1.53-.5.54-2.89.46-3.13 1.53zM106.51 12c-.94-.44.12-.32 0-.73-.52-.21-.8-.22-.81 0-.65-.47.71-.24 1.15-.2.76.21.39.38 1.16.59-.25.26-1.01.15-1.5.34zM159.92 29.4c-.54-.57.64-.62 1.07-.78.51.56-1.09.3-1.07.78zM158.24 18c-.35-.18-.57-.34-.91-.52a2.73 2.73 0 011.76.38c-.09.22-.59.08-.85.14zM95.74 187.44c-.13.18-.61.28-.45.53-.71 0-1.79 0-1.5.38a7 7 0 00-1.12-.64c1.06 0 2-.45 2.07 0 .79-.13.3-.24.2-.43.32-.28.15.3.8.16zM106.45 182.47c-1.53.16-2-.51-.87-.65-.37.7.21.31.87.65zM96.57 182.1c.78 0 .67.48.34.62s-.42-.11-.79-.1c.58-.07.88-.18.45-.52z" fill="#231f20" fill-rule="evenodd"/><path d="M107.59 171.55c.42-.71.73-1.65.3-2.13 1.88-.35-.68-1.57 2.15-1.8.07-.32-1.49-.06-1.31-.42a13.78 13.78 0 001.23-.74c-.85-.2-.48-.67.46-.8 0 .11.46.06.52.14-.81.32-.51 1.1.2 1.39 0-.56.55-1.29-.12-1.78 0 .1.06.22-.24.24 0-.22-.6-.21-.55-.44.56-.07.83.19.77-.11-.26-.09-.71-.13-.79-.28.73-.53 1.1-1.32.39-1.8 2.09-.75-.77-2.19 2.66-2.38-.63-.61-.77-1.25.38-1.85 0-.15-.85 0-.79-.22 1.51-.64-.8-1.56-.16-2.32 1 0-.19.78 1.06.53-1.1-1.09 1-2 .9-2.85.59 0 .26.34 1 .31-.07-.24.38-.75 0-1.07a4.6 4.6 0 011-.08c-.62-.56.48-1.05 1-1.67-.59-.11-1 .19-1 0v-.45c.35.1 1 .1 1-.07-.46-.66.19-1.45-.85-2.07 1 .24.23-.2.25-.23s.5 0 .51 0c1.18-1.13-1.38-3.54.1-4-.59.12-1.65-.38-.79-.63.69 0 .52.17 1 .18-.48-1.86.13-3.86 0-6-.06.06 0 .15-.26.14.34-1 1.06-1.39.5-2.27.43-.74.13-2.18.25-2.58-.16.06-.54.41-.77.19 1.67-.73 1.59-1.43 1.55-2.58 1.22 0 1.28-.83 0-.91-.16.23.06.38.5.49-.37.07 0 .4-1 .24 0-.39-.21-1.63.8-.94-.89-1.25 1-1.48.33-2.57 2.48 0 .49-1.58 1.84-1.39-.63-.32-.49-.75.53-.94.64.7.15 1.12.73 1.57-.07-.26 0-.47.53-.49-.83-.4-.7-.73 0-1-1.13-.08-.14-.32 0-.38-.83-.16-.21.23-1 .07-.42-.53 0-1.1.8-1.52 0 .14.17.26.51.34-.36-.45 1-.81-.49-1-.15.14.31.52-.26.51-.43-.59-.11-1 .54-1.24 0 .09-.05.54.25.32s-.32-.48-.5-.72c1.88-.6 1.24-1.2 1.88-2-.92-.19-.64-.61-.71-1a3.24 3.24 0 00.77 0c.67 0 .18.31 1 .32.09-.29-.29-1 .85-1.34-.51-.24-1-1.21.58-1.14.2.54.46 1-.07 1.26.85.17-.58 1.49.93 1.52-.37 0-.81 0-.78.22.4.15.74.41 1.5.67-1.83-.21.83.52-.8.45-.24.21.65.21.75.37-.25.17-.89.2-1 .42 1.91 1.87-.44 3.58.12 5.31.26-.36.18-.84 1-1 .07.13-.73.31 0 .44.24-.11.1-.36.52-.4.43.43-.94.59-.53.77.14-.41 1 .1 1 .08.44-.11-.25-.39.78-.53h-1c.08-.14.7-.09.78-.23-2.58-1.24-.13-2.65-1.44-4 1.31 0 .63-.27 0-.3a3.28 3.28 0 011.55-.38c-1.71-.46.24-1.18-.93-1.72 1.58-.3-.12-1.51.12-2-.06.05-.21.07-.51 0-.1-.27-.37-.46.29-.56.61.24-.39.1-.28.34 1.86-.34.49-1.34 1.15-2a2.61 2.61 0 01-.74-.53c.73 0 .52-.49.57-.83-.74-.14-1.23-.32-1-.63-1.78.18-1.36.93-1.11 1.45-.95-.37-1.16 0-1.78-.35 1.44-.06.5-1.36.87-1.63-.11.13-.11.31-.78.21 0-.23-.65-.72 0-.83-.21.36.88.4 0 .53a4.21 4.21 0 001.82-.39c-.79-.15-.33.22-1.29 0 0-.08-.2-.12-.24-.18.71 0 .32-.79 1.31-.45-.39-.59-.13-1.38 1.36-1.41-.55-1-1.22-1.79-.57-2.63.39 0 .94.15 1 .06-.56-.13-.61-.34-1-.5.89.09 0-.21.53-.16 0 .11.55.16.75.25-.07-.18.06-.28.29-.34-.79-.16-.34.22-1.29 0 0-.18-.38-.28-.48-.43 1-.17-.64-.84.38-1.24a4.3 4.3 0 001 .22c-.06-.29-1.11-.42-1.23-.7.37.07.42.18.75.26-1.81-.63.32-1.23.4-1.45-.07.07-.44.12-.52 0 .6-1.13.15-2.24.31-3.35.28 0 .38.17.5.08-.16-.53-2.77-3.57.24-2.61.06-.05 0-.14.27-.11 0 .1-.06.21.23.27.42-.17-.31-.72-.4-1a8 8 0 001-.06c-1.7-.84 1.11-.76.45-1.43.66.08.16.31 1 .38-2-1.1 0-2.08-.62-3.27.67.1-.29.38.72.43-.61-.89.45-2.18-.11-3.27.74.37.38-.21 1.05-.11 1.61.95 0 1.37 1.24 2.48.37 0 1.3.31 1.27.15-2.32-.65-.79-1.32-1.55-2.08.4 0 .25-.19 1 0-1.39-.84-.88-1.91.06-2.62-1.08-.43.26-.69-.37-1.2.36.23 1.44.4 1.48.66-.68 0-1.07-.44-1-.12 1.84.45.47 1.16 1.1 1.48.09-.17.43.19 1 .19-.65-.44.13-.58-.65-1 .79 0 1.62-.48.06-.44 1.49 0 .42-.77 1.67-.8-.34.75.79 1.27.78 1.87.91-.18.45-.47.61-.78a3.27 3.27 0 01.75.22c.29-1 .15-1.77 1.9-2.22-.29-.07-.72-.13-.74-.23 1.11-.25.81-1.2.79-1.69 0 .08-.11.15-.53 0 0-.32-.12-.74.87-.57-.07-.18-1.09-.29-1-.49.59-.11 1.61 0 2.1-.16-1 0-1.34-1.29.35-.59.24-.41-.47-.82.91-.85a5.5 5.5 0 01-1.19-.69c-2.41-.47-2.67-.68-4.51-1.05.48.51.73.85-.87.64.65.23.52.8-.13.81 1.51.82-.75 1.06-.56 1.91-1.21-.29-.34.18-1.32.11a3.69 3.69 0 00-.38-.84 3 3 0 001.53.17c-.73-.26-.48-.59.09-.59-1-.3-.5.22-1.06.16a7.55 7.55 0 00-.87-1.09c1.42.16 1.43-.4.92-.86a2 2 0 011.25.26c-1-.9-.51-1.66.56-1.91-1.8-.6.7-.66.16-1a1.66 1.66 0 01-.79.05c.22-.18-.39-.31-.18-.49 1 .23.95-.07 1.32-.16-.45-.18-.87 0-1-.23.37-.55.6-.74 0-1.37.83.12 1.53.35 1.59-.09a5.22 5.22 0 01-1-.3c-.36.1.68.46-.07.36-.41-.54 1.29-.47-.29-1.21.24 0 .25-.23 1 0-.13.11-1-.17-.8.12 1.18.17 1.12.55 1.15.79.19-.45 3-.1 1.18-.71a23.45 23.45 0 013.03-1.31c.36.1.41.21.73.32.59-.26-1.16-.91.37-.59 0 .36-.33.73.32 1 .06-.13.21-.2.56-.17-.65.18.95.3.37.76 1 .17.73.39 1.47.57.43-.08.42-.4 1.1-.34.63.73.38 1-.73 1.09-.12-.13.36-.3-.18-.41.06.42-.84-.46-.78 0a3.52 3.52 0 011.37 1.05c-1-.37.61.48-.84.25.22.18.81.34.95.52-1.71.18-1.68 1.31-2.12 1.81.31 0 .26-.27 1-.06 0 .07.19.13.23.19-1.16 0 0 .73-1.37.51 0 .37.2.41-.34.52.54.18 1.18.22.94.57-.5-.13-.46-.3-1-.43-.19.54.58 1.76-.81 1.82 3.73 1.74-1.92 2.07.77 3.4-.33-.06-.25.08-.53 0q.27-.23-.72-.36c0 .38-.08.34-.64.75 1.41.18 1.31-.42 2.4-.4.45.25.09.56.13.84a.81.81 0 00.9-.77s-.8-.21-.73-.3.73 0 .8-.13c.32-.42-.84-1.38.73-1.31-.18.22.15.41.68.58-.37-1.3.49-1.87.5-3.25a3.15 3.15 0 01.5.18c-.5-.59.53-.89-.53-1.65.36.09.41.21.73.3a3.61 3.61 0 00-.88-1c.58.29.87 0 1.54.06-.54-.11-.78-.24-.71-.39.38-.07.59.23.76.1-.24-.43-.28-.86-.81-1.28.46.1.78.55 1.23.43-1.21-.74.83-1.51 1.14-1.86-.35.13-.76-.41-.2-.34-.61-.24-.83.09-1-.17 1 .14.37-.49.87-.45.91.1.2.27.71.38a3.29 3.29 0 001.43-.68c1 .91-1.25 1.74.46 3.09.6.08-.15-.35-.17-.47 1.66.33.18-.21.83-.25 2 .65-.28.72.3 1.16 0-.08.1-.15.53 0 0 .07.19.13.22.19-.24.4-1.31 1 0 1.31-.17.31-1.91.19-1.39.62a3.76 3.76 0 012.38-.33c.35.08.08.53.46.39-.73-.69-.55-.84-.54-1.34-.41 0 0 .35-.8.1.12-.19-.17-.6.61-.44.36.3 1.33.2.77 0-.26.13-.91-.27-1-.37.37.07.26-.11.3-.22a4 4 0 001 .16c.07-.2-.24-.4-.4-.59 1.55-.56-.91-2.44.06-3.09 0 0 0 .09.23.13-1.06-.42-.13-.64-.89-.8.25 0 .74-.3.34-.42s0 .33-.56.22a1 1 0 01-.48-.26c.71 0 .38-.13.08-.41h.79c-.29-.52-.17-.69-.3-1.16a3.37 3.37 0 01.73.25c-.22-.25-.2-.42.34-.42a4.15 4.15 0 001.15.79c-.34-.4 0-.82-1.07-1.21-.17.09.67.47-.07.35a3.25 3.25 0 00-.89-.81c.44.13.59.08.53-.08a3.4 3.4 0 001.79.23c-.91-.27-1-.09-1.77-.3.27-.27-.38-.17-.46-.33 0-.39 1-.17 1.12-.44.77.28.8.58 1.4.86.23-.35-.87-.67-.85-1 .62.16.76.33 1 .18-1.46-.83-.77-1.59-.86-2.18-.63-.07.4.32-.31.21-.35-.11-.25-.23-.45-.34.61.12.59-.13 1.53.19-.79-.62.06-.84-.2-1.44.38 0 1.89.33 1.07-.08 0 .08-.11.14-.53 0a1.31 1.31 0 010-1c1.75.42 1.74-.18 2.67-.22-.32-.25-.62-.08-.72-.28 1.37-.36 1.34-.82 2.18-1.57.3.56.43-.33 1 .14-.47-.45-.73-1.1-.27-1.16.15.16-1.19-.22-1-.28.47 0 .92.24.56-.13.88.29 1.4.37 1.52.22-.13-.14-1-.28-1-.42.44-.1.27-.21.58-.27a1.78 1.78 0 00.69.42c-.12-.28.54 0 .76.14a2 2 0 011.1-.26 14.18 14.18 0 01-2.71-.78c-.17.18-1.17-.13-1.79-.22.09-1 1.34-2.12 3.45-2.41a5.38 5.38 0 002.24.59c-4.55-1.79 1.15-1.48-.58-2.93a30.29 30.29 0 00-3-.83c.35-.47-.9-1-1.74-1.49-.33-.54 0-.64-.23-1.18.3.09.59.16.53 0s-.51 0-1.25-.31c0-.52-2.34-1.37-1.69-1.65a10.76 10.76 0 01-2.68-.92c.32.1.36-.09.05-.2-.1.08-.34-.12-.21-.22.36.27 1.94.24.84-.19a2.76 2.76 0 01-2.32-.2c.06.28-.31.29-.85.18a7.39 7.39 0 01-.9-.59c-.53-.09-.84 0-1.3-.1-.68-.55-1.17-1.58.62-1.4-.25-.39-2.3-1.38-.52-1.08a2.62 2.62 0 001.12.81c.08-.27-1.36-1.13 0-.92 1.45 1.09 2.14 2.31 1.37 2.94 1.49-.08.65-1.38-.19-2.41.65-.11.55-.86-.14-1.49.2-.11.86.07 1.06 0 .06-.55-1.87-2.5 1-1.51.45-.12-.82-.31-.67-.45a2.08 2.08 0 011.28.2c2 1.4 2.86 2.74 4.7 4.12a5.29 5.29 0 012.31.23c.51-1.48-5.18-4-4.54-5.5-2.35-.54-3.15-1.53-5.33-1.88.05-.12 0-.24-.16-.36a17.61 17.61 0 01-4.58-1.72c-.4-.13-.19.15-.55.05.08-.24-.91-.52-1.37-.78-.36-.07-.12.26-.57.12-5.48-1.53-8.32-2-14.28-3.29-1.34.19-3.66-.3-5-.13-.93-.51-2.19-.33-3.22-.9 0 .2-.14.27-.57.14.11-.15 0-.3-.4-.46.1.44-1.17-.23-1.27-.25-2-.41-3.67-.29-5.9-.85-.65-1.12 2.75-.87 1.66-2a4.11 4.11 0 012.42 0c0 .25 0 .51.83.78a3.58 3.58 0 002.61-1.2c2.2.63 1.83-.59 2.68-.92.48.17.25.31.93.49-.12-.93.67-1.78 1.74-2.31 2.91.7 2.82-1.19 5.68-.21a1.78 1.78 0 011.71-.38 21.22 21.22 0 003.53 1.6c1.37.29 1.46-.36 2.5-.31-.9-.35-1.52-1.07-.73-1.07.46.22.48.42.87.64 1.54.24 2.71.75 4.24 1.06 0-.26-.2-.74.94-.38.1.18-.81 0-.12.36.11-.22 1 .12 1.1-.07-1.61-.6 0-.31.14-.43-.47-.41-1.19-.4-1.88-.86.13-1 5 .14 2.87-1.33-.36 0-.34.22-.4.41a28.75 28.75 0 00-5.62-.16 5.76 5.76 0 00-.94-.43c0 .3.52.63.51.92-.51-.08-1-.14-.89.24-1-.7-1.12-.16-2-.49-.28-.36-.4-.37-1.4-.67 0-.15-.63-.34-.39-.47.79-.44 1.85-.89 2.19-1.73-1.72-.29-2.24.32-3.39.47a11.18 11.18 0 00-4.54-1c-.37.13.77.34.39.47-2.5-.67-4.61-.64-7.48-1.89.48-.87-2.36-1.9-1.79-2.77a19.14 19.14 0 01-2-1.18 3.61 3.61 0 00-1-.13 3 3 0 01-1.08-.83c-3.1-1.42-2.69-.14-5.07-1-.4-.91.29-1.78-.73-2.72a3.53 3.53 0 01-2.45-.74c-.91.14-2.85-.52-3.69-.31.95 1.23 3.71 2.21 4.52 3.52-4-.92-4.25 1.61-5.21 2.06a1.1 1.1 0 01.77.1c.09.46-.39.49-.72.63 1 .29.29.54.83.82a1.49 1.49 0 011 .1c-.5 1.19.78 2.4.75 3.75.29.12.7.23.71.34-.74 1.59.14 3.11.18 4.81.28.11.69.21.7.32-.53.17-.63.6-.76.77.07 0 .23 0 .51.09-.78 1.07.14 3.12-3.54 2.2.31 0 .32-.11-.18-.32a3 3 0 01-2.3-.31c.18.5-1.33.31-2.09-.15a4.93 4.93 0 01-1-.23c-.28.19-.26.09.16.4a2.79 2.79 0 00-.76-.16c0-.13.11-.27-.43-.4.07.62-1.12-.24-1.79-.22 0 .35 1.46.68 1 1-.49-.35-1-.27-1.71-.54.08 0 .69-.12.08-.32-.08.2-.94-.16-1.29-.15-.05.14 0 .27.17.4-.81-.57-.09.43-1.29-.14.79-.33.49-.92.16-1.62 1.71.31 1.35-.84 3-.52a1.4 1.4 0 00.43.4c.24-.12.91.07 1.31.07-.09-1 3.87.19 4.43-.64-1.31-.45-1.24-.87-.74-1.12-1.22-.4-.84-.56-.56-.8-2.34-.58-2.33-1.53-4.27-1.86.35 0 .41-.19-.15-.4-.4-.07-.06.41-.82.08-.36-.14-.17-.27-.15-.41-2.57-.81-2.7.18-4.53-.08-1-1.74 2.73-1.16 2.34-2.44l1 .33c1.16-.68-2.87-2-2.14-2.7a6.83 6.83 0 01-2.64-2.81c-.33 0-.58-.76-1.29-1.08.4-1.38-4.56-1.62-6-2.37A12.77 12.77 0 0186.2 10c.07-.32-.36-.4-.7-.33l.11-.34c-1.53-.51-1.5-.84-2.45-.76.46 1.08-.82 1.48-3 1.11 0-.14-.6-.28-.41-.42-1.08-.46-.7.23-1.58-.07.52-.47 2.38.09 3-.28-.71-.17-.6-.34-1.19-.51-.11.15.22.29.14.43-.42-.33-.8-.09-1.51-.33-.08.38-.49.18-.93.43.4.18.66.78.06.68.25-.5-.71-.08-.9-.59-.61.61-1.33.59-1.38 1a3.24 3.24 0 00-1.79-1.18c.1.29-.56 0-.81 0-.82.93-3.42.55-4.27 1.72-1.23-.79-.18-1.32-.37-2.33a8.85 8.85 0 00-2.32-1.09c-.08 1-2.38 1.56-1.19 3.08-1.7.09.2 2.23-.62 3.08-.32.33-.49 1.33 1 2.06-.47 1.21 0 2.77-.38 4.38-.66-.09-1-.6-1-.21 1.15.84.09 1.64.71 2.31a34.14 34.14 0 001.89-4.08c.35.09.45 0 .78.06-.76.78 2.53 3.17.69 2.4.29.18-.78.26-.71.63 2.14.89-.26.9-.15 1.57.65.17.1.39.91.56s.78-.13 1.57.1c1.56 1.05.25 1.27.23 2.14-.37-.08-.45 0-.74-.23.12.27.49 1.05-.7.64-.37-.58.13-.12.36-.36A2.07 2.07 0 0066.8 25c-.42-.41-1.7-.77-1.81-1.2-.07.15-.24.25-.58.2-.54-.23-.45-.49-1.14-.72.21.42-.09.77-.8 1 1.31.39.71.81.55.93-.66-.32-.71-.61-.32-.77-1.17-.16-.25-.45-1.17-.63-.46.25 2.34 2.12 0 1.91.62-.67-.72-1.23-1.09-1.85-3.2-1.25-2.51.11-3.81.32.12.86-1.55 1.61-.86 2.44.36-.19.07-.94 1.46-.63 1.18.54-.74.35.35.77.42-.3-.11-.63.91-.5 0 .12.41.21.45.32a2.21 2.21 0 01-1.9.22c.78.19-.68.08.19.34a4.55 4.55 0 011.27.18c0-.46.48-.64 1.43-.45 1.13 1-.4 1.15 1.08 2.12-.57-.08-1.16.35-.69.66 0-.17.3-.14.79 0-1.36 1-1.41 1.78-2 2.86-.66-.52-.24-.6-.53-1.1-.45.07-.65.32-1.37.2a3.19 3.19 0 00-1.6-1c-.07-.54-.89-1.12-.18-1.48-1.12-.12-.64.47-.46.83a3.36 3.36 0 00-.51-.05c-1.24-.81-2.36-.92-4.43-1.34-.83-2.24 2.47-2.93 1.5-5.21.42-.59 2-.88 1.86-2 .58.22.57 0 1.25.28-.38-1 .57-1.48 1.54-1.77-1.66-.59.74-.59 0-1.15.36.07.44 0 .74.23-1.37-1.16 1.88-.66 1.26-1.74-.28.32-1.24-.75-1.32 0 .52.3 1 .06 1 .31-1.48-.49-1.38.35-2.72.23 1.24.92-.22 1-.46 1.71-.49-.08-2-.38-1.35.07 0-.4.85.34 1.21.47-.12.52-1 .75-1.37 1.14-1.1-.51-.72-.38-.35-.69a7.48 7.48 0 01-1.43-.46c-.42.32.34.57.57.85-1.6-.61-.91.85-1.84.92.54.14.77.31.67.49-.35-.14-.39-.23-.74-.22-.43 1.75 0 3.59-.95 5 .7.76 1 2.52-1.46 1.73-1.79 1.55-1.17 3.8-2.4 5.69a1.36 1.36 0 010 2.32c.1-.07.53.34.17.43a1.16 1.16 0 01-1.5-1.46c0 .5-1.65-.42-2.22-.67-.39-1.2-.13-2-.59-3.1.16-.21.81-.08.87-.36-.88-.65.68-.68.56-1.22-.07-.31-1.1-.8-1.07-1.08s1.14-.3 1.19-.56-.34-.54-.36-.69a5.08 5.08 0 01.47.23c.06-.28-.6-.6-.59-.85a5.94 5.94 0 01.77.11c.49-.22-.71-1-.73-1.39.78-.06 1.05.63 1.26.26-.84-.26-.6-.62-1.11-.91 1.43.13.13-1.07 1.45-.57a5.08 5.08 0 01-.43-2.6c-.07.1-.41 0-.76-.12.19-.69.22-.92-.19-1.44.25.07.28.16.47.24a5 5 0 01.69-2.58 6.83 6.83 0 01-.91-.57c.7 0 .44-.18-.12-.53.51-.05 1.47.32 1.08-.08-.78.11-.72-.6-.83-.84.49.14.38-.16 1 .11s.2.35.66.5c.1-.63-.64-.85-1.79-1.24-.45.1-.55.47-1 .61 1.35.59.24 1.33-.37 1.38 0-.12-.41-.21-.44-.33.29.07.69.22.76.13-1.38-1-.37-1.32 0-2-1-.07-.7-.4-1.67-.7a15.72 15.72 0 01-.52 2.11c.55-.15.65.49.88.66-.41.08-1.26.39-1 .62.07-.1.42 0 .76.13-0.1.06-.9.76-1.38 1.19.29-.55-.38-.45-.54-1-.44.31-.82.44 0 1l-.74-.22c.61 1.12-1.34 2-.8 3.38-.3-.07-.7-.21-.77-.11.69 1.24-1.33 2.21-.44 3-.94-.22-1.18-.79-.59-.87-1.73-.41-.54.5-.45.78 0 0-.48-.12-.49-.14.18.45 1.24.92 1.26 1.35s-1.3.34-1.06 1.11c1.22.12-.09.72.53 1.14.37-1 .9 1.45-.76 1 .15-.29-.47-.5-.61-.77 0 .55-.32.21-1.33.05.17.49-.54.36-.68.62.8.17.81-.23 1.37-.23 0 .12.08.23.19.35-.36.13-1.64-.05-.63.43a3.61 3.61 0 00-1-.17c-.16-1.61-.46-2.3.84-3.43-.55-1.06 1.26-1.52.13-2.79.47.12.25-.26.81-.07-.44-1.38 2.43-1.91.81-3.4-.11.25.06.71-.65.52.14-.28-.4-1.85 1.3-1-.09-.27-.25-.53-.06-.83-1-.44-.16.48-.86.26 0-.46-.26-1.56 1.16-1.48.41-1.72.42-3.12 2.09-3.82-1.25-.44.62 0 .59-.22-.25-.34-1.22-.28-1.2-.47s-.17-.17-.19-.26c-.12-.43.69-.15.88-.34-.65-.32-.29-.71-.23-1.08 1.86.49.87-.54 1-.9.67-1.45 2.06-3.2 2.27-4.45-1 .73-.44 1.24-1.78 1.67.68 1.42-1.15 2.37-1.26 3.66a7 7 0 00-1.28-.19c-.33-.22-.29-.47-.61-.7-.62.21.62 1.67-1 1.83.8.3.26.46.1.63a1.57 1.57 0 01.64 2.56c-.46-.16.2-.86-.34-.71-.08.28-.13.58-.89.35-.1-.21.45-.47-.09-.64-.45.19-.16.94-1.68.31-.3.34 1 .15.9.58-.19 0-.3 0-.29.11-1.17-.21-1.15-.52-1.65-.79-.77.23.24.55.61.69-.74.1-.87-.52-1.48-.44a1.42 1.42 0 00-.77.9c.08-.09.31-.07.54 0-.19.12.62.6-.12.47 0-.12.11-.26-.17-.36-.82.33-.42 1.38-1.66 1.36.27.33.79 0 1 .38.21.65-1 .25-1.2.58.35.15 1.31.25 1.21.45s.19 1-.94.65c-.16-.16-.05-.8-.38-.62.35.67-.29.89.71 1.43-.39.29-1.31-.45-1.55-.14.12.18.95.29.95.47-.48 0-1.77.72-.66.53-.32.34-.3.43-.5 1 .37.12.92.22 1 .37-1.29 1.35-.49 3-1.54 4.26.42.15.67 0 .74.2-.52.43-1 .77-.07 1.4a3 3 0 01-.72-.29c.36.51-.31.86-.79 1.11-.92-.53 0-.79-1.53-1.32 0 .7 2 1.53 1.33 2.18.54.28 1 0 1 .26-.38.21-.27.32.12.63a1.57 1.57 0 00-1.36.16c.75 1-1.08 1.31.28 2.4a5.5 5.5 0 00-.6 5.08c-.62-.07-.38.47-1.34.18.8.77-.8.7.24 1.37.05-.11.12-.21.54-.08.16.29.1.3.11.74-.39-.09-.86-.22-.79 0 1.55.69-.2 1.08-.56 1.48.49.15.52 0 .79 0 .05.41.08 1.14-1.24.93-.22-.31 1.14-.09.35-.43-.09.12-.57 0-.79 0a2.65 2.65 0 01.11 3.35c-.13.23.69.55.65.65-.12.29-1.27.28-.95.9-.06-.12 0 .13-.06.38s.34 1.23-.74 1.25c-.64-.09-.22-.83-.67-.65 0 .37.31.55-.13.78 1.31.21 1 .73.38.79-.32-.39-.29-.84-1.1-1.15.29.69 1.19 2-1 1.49.26.06.29.24 0 .2-.56-.53-1.13-.49-1.66-1 1.95 1.73-1.78 2 1.17 3.79-.48-.07-.53-.22-1-.3-.08.29.75.44.39.78-.47-.12-.58 0-1-.11.06.28 0 .57.39.79 0-.45.52-.53 1.38-.42-.5.57.59 1.12-.77 1.45.31-.34-.71-.44-.39-.78-.61 0-1.6-.3-1.58.08.37.09.94.15 1 .3-1.13-.3-1.69.91-1.81 1.46.93.29.76-.1 1.54.1-.3.06-.34.29-.35.54-.58-.33-.51-.25-1.49-.4-.28.27.81.3.69.54-1-.2-.61.41-1.36.34.77.6.05.58-.59.39.63.51.36.61 1.13 1-.53.07-.32-.07-1-.19.19.47.08.4-.37.64.26.2.69.38.94.58-.54.08-.23.37-.77-.05-.7 1 2.14 1.9 1.47 2.31 1.85.41 1 .72.37 1 .56.25 1-.07 1 .19-.6.17-.56.41-.38.84-.82-.07-.76-.3-1.24-.43.39.29-.12.52.17.64a1.31 1.31 0 01.8-.16c0 .23.4.37.17.64l-.76-.14c1.27 1.08-.15 2 .94 2.58.18.35-.68.09-.81.26a2.61 2.61 0 00.77 0c.54.35-1.56 1.16-.11.79-.17.44-1.18.41-.63.79.11-.22.72-.11.76.13-.35-.2-.79-.21-.78.07a1.42 1.42 0 01.69.62c-.66-.39-.52.37-.34.54.07-.07 0-.19.28-.15.08.21.53.83-.12.88-.34-.12 0-.38-.45-.48-.49.26.28.5.4.87-1.54-.1 1 1.16-.91 1 1.08-.62-2.09-1.68 0-1.81-1.43-.26-.52-.44-.91-1-.81 0-.59-.26-1-.37-.26.42.24.33.45.48-.28.05-.13.35-.8.17 0-.12.08-.27-.21-.34.14.44-.2.6-.85.56.51.62-.25.86 0 2 .42.26.8 0 1 .36-1.33 1.1.74 2.63 0 3.53.74.32 1.48 0 1.48.53a2.33 2.33 0 01-1.54-.14c.91 1.06-.69 1.41-.52 2.43 2.12.74-.13 1.78 1.53 2.64-.31-.51-.26-1.1.64-1.21.89.51 1.05 1.7-.65 1.31.84.67-1.15.85.38 1.25-1.62-.12-1.68 1-1.22 1.73-.06-.11-.3.1-.29.36 0 1.33-.5 2.88.58 4.27-.4 0-.88-.13-.78.1.65.09 1.31.19 1.24.46-.56 0-.78-.39-.77 0 .42.15.71.4.2.52.34.27.64 0 .75.2 0 .18-.2.3-.55.32s-.17-.27-.74-.29c.51.43.28.49.67 1 .87.13 0-.33 1.06-.26 3 2.51 1.95 4.93 2.26 7.2-.66 0-.37-.65-.74-.38.61 1 1.38 1.31.11 1.89 0 .36.87.47 1.24.72-.67.28 1 1.48-.64 1.71.94.15-.13.47.72.76-.94-.09-.75.1-.28.27-1.47-.11-.39.5-1.32.55.85.25.64.5.2.81.35.25.63-.06.76.17-.64.42.64 1.26-1.13 1.37 1.17.38.69 1.65-.39 1.83 1.44.21 1.11 1.29.46 1.23a11.2 11.2 0 011.74 1.33c-.38-.09-.64-.2-1-.29-.35 1.79 1.05 3.34-.22 5.48.44 0 .66.13.76.26-2 .52 1.47 2.34-1.62 2.14 0 .49.89.1 1.26.48-.31 1.1.52 2-.61 2.5.69.66.4.92 1 1.72-.59 0-.27-.29-.75-.33.1.94.74 1.47-.57 2.12 1.21 0 .85.56 1.78.68.1-.53.14-1.19 1.56-1.37.48.45-1 .55-.27.76 1.73-.85-.18-1.51.08-2.62a3.13 3.13 0 01.77.14c.47-.35-.13-.82-.47-1.19 1.73-1.73-1.13-4.17 1-5.77-1.13-.66-1-1.71-1.17-2.63 1.2.25.25 1.14 1.48 1.39 0-.48-.65-2.48 1.11-2-.68-.06-1.51-.08-1.53-.33-.17-.28.52-.15.53-.34-1.43-.3-.56-1.84-.42-2.38-.06.07-.22.1-.51.05.48-.13-.9-.91.07-1.16-.09.21 0 .37.48.44 1-.32-1-.43-.71-.85.59 0 .27.3.75.36-.29-.85.4-2.25 0-3-.82-.2-.22.3-1 .09.15-.12-.27-.53.29-.46.36.06.42.21.75.28.25-1.48-.15-3 .34-4.76 1.21-.11-.14-1.44.14-1.94.37-.65-.15-1.87-.3-2.87-.26-1.61.79-3.09-.36-4.56.4 0 .88.12.79-.1-.38-.07-.95-.09-1-.23.23-.42.76-.68 1.63-.77a7.64 7.64 0 01-1.24-.55c-.08.16.67.58-.06.58-.09-.2-.71-.27-.46-.55 1.67-.18.58-.1 1.11-.64 0 .16.16.27.47.36-.75-.55.7-1.05-.09-1.59-.47.45-.23.64-.88 1-.12-.52.06-.62-.39-1.13.48 0 .82.4 1 .14-1-.61 1.85-1 .7-1.77.19.22-.46.47-.54.22s.43-.25.56-.42c-1.7-.62 0-1.1-.85-1.69a2.21 2.21 0 011-.15 1.3 1.3 0 01-.88-1.41c.8.07.14.48.71.6-.07-1-.9-1.46-1.34-2 0-.24.74 0 .79-.18-1.12 0-1.28-.78-1.41-1.3a6.88 6.88 0 011.52.33c-.31.06-.15.43.19.62.53-.2.88.43 1.49.52-.16.18-.42.15-.77 0 .51.81-.25 1.6.26 2.4-.3-.06-.56-.25-.76-.11.91 0 .12.35.73.4.53-.2 1.06.39 1.23.57-.36-.16-.61-.19-.77 0 1.54.45-.25.7.66 1.08-.4.17-.79-.31-.79.08l1 .15a10.77 10.77 0 01-.04 1.63c-.15.23 1.29-.09 1 .33-1.15-.22.37 1.13-1.39 1 .74 1-.51 1.21.55 2.13-.43 0-.91.45-.32.64-.17-.18.55-.35.53-.13-1.3 1.27-.82 3.26-1.47 4.69.06-.1.3-.11.52-.13v.39a2.6 2.6 0 01-.76-.19c.61.41-1 .72-.59 1 .32-.24.28.2 0 .2.7.15.58.08 1 .41.05-.14-.07-.37.28-.36 1 1-.27 2-.47 2.87.45.36.89-.23 1.28.14-.95.2 1.18.88-.06.87-.64-.15-.35-1-1.49-.75.63.54 2.25 1 1.17 1.49 2.53.19 1.29 1.37 2.44 1.91-.52.17-1.32.73-.6 1.19a2.55 2.55 0 012.38-1.31c0 .11-.06.26.24.31.45-.49-1.11-.46-.71-.94-1-.11-.42.52-1.32.44-.08-.78-.16-1.49.4-2-.24.29.84.23.74.47-.23.06-.77.46-.3.55 1.33.28 2.19 1.45.9 1.92 1.43.44-.08.84-.07 1 .25-.24.93.17 1 .29-1.18-.13-.92.89.22.5 0 .4-.67.41-1.06.38a9.64 9.64 0 001.73 1c-.64-.08-.78-.26-1 0 .33.27.51.11.76.27-.07.07-.23.09-.52 0 1.81.52-.95 1.07-.1 1.34 0-.12.1-.22.53-.15-.15.43-.2.89-1.09 1 1.13.24-.44.28-.29.64 1.69.29 1.8 1.92.44 1.67.63.38 1.42.64.48 1 1.34.23.34-.62 1-.68.62.33-.11 1 .46 1.38a5.14 5.14 0 01-2.06.21c.16.27.93.36 1.26.58 0-.11 0-.27.27-.26.93.42.48 1.12-1.07 1 .26-.21-1.14-.41-1-.27 1.08.22.82.83 1.75 1.09.39-.39-.74-.35-.49-.7.81-.06 1.05.17 1.55-.07a1.13 1.13 0 00.21 1.25c-.51 0-.32-.28-1-.27-.29.34.86.26 1 .46-.31.15-.39.4-1 .4 1.34.9.59 1.41.67 2.52 1.12.22 0-.56.79-.51 1.35 1.15 1 2.23 2.19 3.37-.37 0-.43-.19-.77-.24 1.14.64-.18 1 1 1.2-1.32 1.3-.4 4.4-1.89 5.56 0 .73 1.6 1.74-.27 2.16 1 .42-.08 1.29.76 1.64.06-.14.42 0 .51.12-1.1 1.45 1.33 2.28.5 4 1.31 0-.37-1.22 1.54-1 .19-.92 1-1.16 1-2 0 .11-.05.26.25.29.06-.07 0-.18.26-.18-.16.43.08.72.77.87-.21-.67-.44-1.56.52-2.12 1.13.22-.15 1.38.51 1.51a5.44 5.44 0 001.29-1.71c.8.33.09-.28 1-.15.66.44 0 .64.25.94-.07-.11.75-.29.78-.06-.36.28-.06.31 0 .65-.34 0-.77-.41-1-.14.65.39 1.78 1.11.5 1.32.49 0 .57-.08 1-.05 0 .22 0 .44.26.56h-.77a3.81 3.81 0 001.78 1.17c-.24.3-.75 1.39.26 1.58.39-.47-.89-1.18.77-1.45-.09-1.24.44-2.69 0-3.49-.27-.52.44-1.2.26-1.64s-.82-1.16.52-1.36c-.54.25.43.64-.26.91.37.22.62-.09.77.12-1.66 4.48 3.47 9.6 2.68 14.52 2.32 0 1.44 1.38.82 1.82 1.44.25-.11.82 1.06.92.56-.22-.06-.86 1-.9.45.06 1.5-.09 1.54.11.5 1.09-1.6 1.71-.45 2.25 0-.57 1.89-1 1.74-1.88 0 .13 2.11.15 1.29 0-1.76.08-.31-.42-1.3-.64 0-.31.75-.38 1.53-.43 1.12.28.89 1 1.83 1.36 1.08 0 1.48-.31 1-.62 2-1.33-.49-3.67.1-5.15 0-.18.7-.1.51-.35-.3-.79-1.7-2.12.21-2.83-.42-.57-.1-1 0-1.6-.68-.05-.93-.25-.77-.56.51.17.32 0 1 0 .1.24.14.5.52.64.35-.1 0-.46 1-.32 0 .6 1.12.83 1.28 1.37.11-.17.74-.14.52-.43-1.47-.42-1.33-1.35-3.33-1.61a2.91 2.91 0 011.79-.11c1.35-.63.09-1.7 1-2.35.95 0 .93.37 1.54.5.15-.63.68.12 1.29.14-.86-.5-.67-1.32-1-2 1.56-2.13 1.52-4.49 1.38-6.85s-.42-4.71.44-6.74a20.31 20.31 0 01-.91-3.51c-1.13-.61-1.7-1.71-.95-2.11-.67-.35-.58-1.66-.65-2.1-.05.55.35 0 .77 0 0 .74-.42 1.22.93 1.49a1.09 1.09 0 01-.52.22c-.06-.07 0-.17-.25-.2-.39.55 1.67 0 1.78.52-1.36-.06.23.63-1.56.39-.12-.29.62-.31-.23-.47a3 3 0 00.44 2c.92-.23-.26-1 0-1.32.34-.06.95 0 1.29-.07.64-.4-.19-.91 1.06-1 .81 1.28-.88.87-.83 1.68 0 0 .21-.08.26 0 .19.58-.23.8.21 1.34-.38.16-2 .63 0 .78-.21-.36-.27-.79.8-.81.51-.7-1.45-1.31-.45-1.7.08.38.45.7 1.25.9.18-.36-1-.38-.75-.77.37 0 .43.18.76.24-.46-.45-.87-1.24.31-1.28.43.77.53 1.43 1 2-.36 0-1-.07-.51 0h.51c1.14-.68-1-1.21.82-1.58-.17.38.67.8 0 1 1.38.27 1.6 1.15 1.23 1.58 1.87-1-1.19-2.23-1.42-3.34.92 0 .88.69 1.77.43-1.41-1.33 1.06-2.72 1-3.81.84 1.12 1.17 2 .58 2.83-.09.26.75-.15.76.16-1 .6-.2 2.1.37 3.22a1.44 1.44 0 00-.76-.07c1.84.69.36 1.54 1 2.15.06-.06 0-.17.26-.15a3.53 3.53 0 00.63 4.26l-1-.08c.93 1.4 2 3.42.61 4.85.56 0 .81.12.76.3-.71 3.69 1.94 8.08 1 11.47 0-.13 0-.29.51-.24-1.45 1.54-.84 2.95-.71 4.4-.38.18-1.09.24-1.53.4 1.12 0 .59-.11 1.79-.14a1.4 1.4 0 00-.43 2.29H74c1 .55 1.37 1.26.57 1.71 0-.1.4-.09.76-.07.23.44.37.81-.48.84.24.23.1.53-.75.67.24.33 1.25 0 1.54.19a16 16 0 00-.61 5.47 35.41 35.41 0 00.9 5.72c.14-2.91.48-5.81-.47-8.82.74 0-.32-.55.76-.42-.93-1.65 1.13-3.77-.17-5.34.3 0 .73 0 .77-.08a1.43 1.43 0 01-1.3-.36c1.13-.15 0-.79 1.25-1.16-1.14-.14 0-1.15.21-1.35-.35-.09-1-.1-1-.28 1 0-.11-.42.75-.57-1.16-.28-.46-.71-.78-1.13 1.55 0 .75-.56.77-1-.37-.2-.62.09-.77-.11.68-2.14 0-4.26 1-6.58.06.07 0 .17.25.18.2-.25-.7-.19-.51-.44.7 0 .52-.12 1 0-.52-.42.07-.92.26-1.34-.81-.14-.63.1-1 .12.11-.2-.47-.21-.26-.44.51 0 .33.25 1 .22.34-.37-.85-.32-.51-.7 1.21.11.28-.41 1-.62a5 5 0 00-1.54-.26c.24-.21.41-.37-.25-.52h.77c-.23-.17-1.21-.91 0-.93-.32.35 1.05.79 0 1.19 2.08.08-.42-1.7 1.55-1.86.29 1.89-.12 3.29-.27 5.22.44.06.66-.09.77 0-.15.14.31.51-.26.49s.63-.32-.51-.36a2.19 2.19 0 00.25 1.45 1.07 1.07 0 011.29-.2c-1.22 1.44-.37 3.29-.52 4.61a26 26 0 01-.54 2.91c-.21 1-.44 2-.63 3h-.51c1.22.81-.52 1.48.84 2.13a1.57 1.57 0 01-1.27.49c.16.15-.29.49.28.51-.12-.38.29-.57 1.26-.58a3.32 3.32 0 01-.39 2.51c1 .79.18 2 1.12 2.7.75-.49-1-1.61 1.48-1.68-.58.53 1.18.94.31 1.51.89 0 .88.16.53.5 2.07.38 0 1.65 1.37 2.33a3 3 0 00-1.23.76c.82 0 .33-.31 1-.1.14-.14-.35-.48.22-.5a41.3 41.3 0 011.59 4.63c2.41-.06.52.89 1.11 1.14 1.16-.4.27.68.32 1a4.06 4.06 0 001.42 2c1.19-.41-.54-.82.17-1.33a2.7 2.7 0 011.29.21c-.42.08 0 .56.81.47-.37-.44 0-.68.44-1.07.79.46 2.39 1 .88 1.61 1.16.32.67.92 1.14 1.59 1.39-.19 1 .59 1.1 1.1 1.19.36 1.75 0 2.09.57.5-.23-.29-.36.23-.49 1.21.11 2.46.21 2.36.79-.36 0-.43-.11-.77-.13a2.06 2.06 0 001.37.91c-.6.39.13.28.32.54.29.42-.58 1.11.89 1.24.56-.32-.47-.67 1-.84.73.27-.65.56.31.55.7-.26-.45-1 .92-1.08v.48c.78 0 .68-.45 1.52-.23-.15-.11.26-.42-.29-.38q.09.26-.75.27a3.18 3.18 0 01.16-1 2 2 0 011.54 2.46 4.79 4.79 0 011.31.18c0-.37 0-.73-.55-.29-.14-.29.51-.39 1-.52 1.28.51-.26.45.1.94.15-.36.59-.49 1.26-.29zM16 125.54c-.9-.12-.29-.35 0-.48.56.06.1.43 0 .48zm-1-15.43l-.72-1a2.78 2.78 0 00.77.17c-.08.27 0 .5.47.63-.06.15-.52.09-.52.2zM11 71.3c.43.08.66 0 .78-.06.56.1.52.34.44.57-.49-.26-.5 0-1-.27-.13.17.27.66-.57.41.35-.07.35-.39.35-.65zm46.83-47.52c-.63-.21.38-.06.1-.36l.73.22c.06.22-.23.18-.34.28-.2-.12-.41-.24-.49-.14zm96.44 21.63c.54-.19-.73-1.07.46-.78.34.31.83 1.13-.46.78zM127 111.85a.87.87 0 01.07-1.19c.58.46.35.84-.07 1.19zm-21 58.91c-.51 0-.35-.2-1-.11-.15-.24.44-.29.21-.56.3 0 .23.14.28.23.3 0 .45 0 .5-.1.47.02.21.47.01.54zm-9-3c-.53-.06-.58-.29-.55-.55.73 0 .76.28 1.06.45-.37-.04-.51-.01-.58.06zm-8-4c-.58-.07-1.34-.75 0-.73-.33.32 0 .31 0 .71zm25.1-9.42c-.4.3-1.11-.62 0-.54-.1.1-.35.41-.05.52zm1.21-2c-.53.06-.52-.4-.77-.16-.35-.06-.68-.75.23-.69-.25.38.23.57.49.84zM30.78 133.2c-.79 0-.6-.64-.26-.77.94.19.31.63.26.77zm46.43-1.46c-1.09 0-.23-.38-.26-.52.7.04.61.43.26.52zm-.52-10c1 0 .17.47.75.57.34 0-.12-.23.27-.4-2.59-1.07-.72-2.56-.9-3.82-.14-1-1.28-2-.93-2.73.26 0 .28-.17.78-.1-.68-.36.2-.62.07-1 .84 0 .63.16.53-.29.48.21.64.07 1.28.12.16.25-.54.11-.79.18a5.16 5.16 0 001.26.46c-.19.15-.79.12-1.05.24.07.18.69.24.75.41.86-.09.14-.78 1.34-.89.13.43-.69.45-.57.88.43-.16.53-.46.82-.69-.86-.81-3.3-1-3.49-1.78-.62 0-.58.27-.79.44-1.21-.76.34-1.24-.91-1.81.26-.09.26-.29.78-.26-.15-.26-1.15-.89-.19-.88 0-.16-.85-.15-.75-.34 1.69-.39-.57-1.79.66-2.25a1.07 1.07 0 01-.39-1.85c-1.92-.68-1-2.17.18-2.65-.07-.67-.74-.68-.69-1.29-.08.17-1 .41-.55.54-.94-.13-.77-.52-.69-1.13 0 0 .29.13.24.21.53-.81-2.16-2.94 1.12-3.5a.79.79 0 00.43.92c-.39-.25.91-1-.64-1.38-.1-.28.35-.31.8-.32s1.19.21 1 .48c.61.11-.1-.41.79-.16 0 .56-.69.8-.66 1.38a1 1 0 00.88-1c1.23 1.42 1.35 2.23.68 3.52 1.17.14.89-.4 1.84-.36-.64.82.88 1.63.33 2.17l-.51-.06c-.55 0-.48-.18-.49-.32-.77.06.12.47 1 .47 0 .28.4.47.2.79-.55-.08-.53-.28-.48-.49-1.1.22.19.88.68 1.36s-.87 0-.78.17c.48.39.51 2.22-.42 2.5.31.26.51.33 1.26.31.13.33-.12.47-.8.43 1.26.46.18.87-.34 1.24 0 .3.86-.09.76.16s-.19.08-.51 0c0 .32 1.08.37.72.76a15.8 15.8 0 00-2.29-.33c0 .19 1.08.15 1.52.25.22.38-.73.25-.8.51 1.12 0 2.83.73 1 .78-.19-.31.31-.33.54-.46-.64 0-.8.08-1.28-.13.68.48.07.45-.31.82a6.41 6.41 0 002.3.24 12.71 12.71 0 01-1.08.73c-.65-.07-.49-.33-.47-.55s-1 0-1.29 0c.13.2.4-.06.76.16-.1.19-.43.28-.3.57-.51.09-.32 0-1-.1.72.61 2.5.53 2.24 1.06.32 0 .54 0 .53-.2 2.09 1.13-1.06 2.21.61 3.1-.57.22-.81 0-.27.4a3.13 3.13 0 01-2.29-.71 4.85 4.85 0 011 .17c.22-.39 1.35-.93.07-1.6 0 .76-1 1.15-1.1 1.77a2.34 2.34 0 00-1.28 0c.24.31 1.48-.1 1.79.24-.73.06.45.75-.55 1.06.09.12.45 0 .51 0 .64.19-.77.24-.53.54a1.15 1.15 0 00.52-.21c.77.12-.25.16 0 .34.25 0 .2-.09.27-.15.67.09.21.45.74.57-.51.09-1.28.34-.27.57a4.28 4.28 0 00-1.4 3.37l-.76-.06c.93.89.33 1.59.43 2.41-1.88-.73-.42-1.66-.68-2.6-.19-.51-1.2-1-.76-1.5zM78 128.4c-1.9-.69-.17-1.72-.68-2.59 1.55.65.62 1.91.68 2.59zm42.16-1.52c-1.09-.33-.41-.58-.74-1 .58.2 1.34.73.74 1zm-44-12.5c-.67 0-.83-.2-.74-.41l.77.07zm52.69 4.5c-.7-.23.07-.52.05-.74.64.19.15.59-.01.74zm-49.3-5.11c0-.25 1.46-.06 1.79.09-.21.29-.99-.04-1.75-.09zm.27-.23c-.3 0-.21-.17-.24-.28.72.14.67-.05 1.28 0 .03.27-.68.19-1 .28zm44.47 4.29c-.57-.11-.81-.59.28-.42.21.25-.23.24-.24.42zm3-2c.14-.16.53-.33 0-.53.32-.18 1.56.7-.01.5zm-55.66-6c-.87-.13-.36-.45-.21-.63.95.14.15.33.2.59zm58 5.95c-1-.1 0-.58-.72-.75.09-.25 1.12.26 1 0 .09.2-.19.47-.32.71zM23.75 102.89c-.52-.09-.49-.32-1-.4.12-.14.81 0 .54-.33.71.09.43.45.46.73zm.57-.91c-.06-.43-.54-.84-.16-1.27 1.03.29.26.95.16 1.29zM18 101c.56-.19-.2-.58.3-.65.91.04.59.9-.3.65zm5.62.52c-.61-.12-1-.49-.47-.63.32.18.85.51.44.62zM24 100c-.52-.27-.89-.57-.45-.83.55 0 .09.35.22.51.55.08.14-.33.29-.45.7.36.1.46-.06.77zm-1.3-3.36c-1.25-.24.12-.77-.44-1 .93.36.03.55.39 1.01zm1.05-.26c-.51-.17-.24-.78.06-.86.62 0-.17.42.75.38a2.26 2.26 0 00-.86.49zm49.2 5.74a3.56 3.56 0 01-1.36-2c.49.1 0 .4 1 .39-.27.62.28 1.06.31 1.62zm-50.22-6.53c-.34-.24-1.41-1.21.11-1.25-.68.26-.08.85-.11 1.25zm2.07-.23c-.63-.12-1.13-.47-.71-.57.44.14.91.29.71.57zm-1-.6c-.37-.38 0-1-.1-1.47 1.28.36-.37.93 1.17 1.12.09.21-.2.23-.29.35-.2-.19-.88-.46-.75 0zm104.64 11.54c-.87 0-.38-.28-.48-.44.89.07.89.38.48.44zM24.33 92.4c-.4-.81.07-1.74-.46-3-1.1-.07.18.5-.58.6-.84-.15-.34-.61-.42-.93.95-.07 1.24.31 2.29.31-.25 1.18.37 2.08-.83 3.02zM77 97.55c-1.23-.18-.94-.65-.92-1.07 1.23.24.92.76.92 1.07zm-2-1.38c-1.27-.19.1-1.35-.22-.38a.34.34 0 01.22.38zm-51.49-8.26c-1-.06-.28-.5-.44-.74.72.24.26.29.44.74zm.84-.66c-.67-.13-.83-.37-1-.62a3.84 3.84 0 001 .24zm-2.55-2.71c-.23-.06-.82-.49-.21-.42 0-.1-.31-.13-.5-.18.25-.24.39 0 1 .06.18.32-.44.22-.29.54zm.36-.93c-.22-.09-.45-.18-.51-.07-.56-.07-.08-.36-.21-.53.44.16.87.32.72.6zm-2-2.66c-.87-.22.1-.38-.44-.76.93.07.28.51.4.81zm-8.6-1.62c.32-.34.66-.67 2.11-.38-.82.05-1.03.49-2.15.38zm7.38.93c-.39-.2-.76-.78-1-.25-1.07-.3 0-.64-.14-1 .77.45.69.63 1.1 1.25zm111.66 17c-.51-.21-.5 0-1-.24.59-.39.62-.51.64-1 .82.34.21.83.32 1.23zM13.39 78.72c-1.1-.06-1-1 .07-.69-.24.32.54.56-.07.69zm6.11.75c-.77-.13-.53-.73-.16-.82.43.35-.07.35.16.82zM130.46 96c-.94-.09-.41-.47-.2-.49.48.09.65.39.2.49zM17.16 77.52c-.76-.1-.84-.49-.44-.57.36.14.51.33.44.57zm-1.76-2.28c.25-.62-.74-1.32-.28-1.74.78.06.72.29 1.51.35-.48.07-.05.68-1.1.42.89.29-.03.64-.13.97zm.28-.15c.44-.1 1.5.17 1.22.5-1.47-.54.08.45-1.33.28.27-.36.09-.33.11-.78zM11 73.22c-.7-.39-.16-.42.1-.69.71.39.17.47-.1.69zm123.65 16a5.93 5.93 0 01-.75-.21c0-.25.49-.23.32-.54.78.22.86.71.44.79zM17.05 67c-.84-.39.21-.6-.9-1 .24-.47.82-.55.15-1.07l1.26.23c-.4.54.11 1.35-.51 1.84zm117.51 21c.44-.19 0-.36.33-.54.82.14.59.72-.33.54zM16.82 65c-1.23-.55-1-1.32-.05-1.51-1.13-.6-2-1.13-.79-1.66.68.39-.36.9 1.6 1.41-.52.76-.21 1.46-.76 1.76zm3.3.41c-.73-.13-.52-.65-.15-.72.68.19 1 .45.93.77-.36-.09-.72-.16-.78-.06zm.63-.77c-.91-.24.11-.38-.14-.83.45.1.55 0 1 .1a2.09 2.09 0 01-.86.72zm119.92 22c-.43-.24-.39-.42-.17-.55.97.26 0 .25.17.55zM13.83 62.32c-.56-.12-.05-.44-.17-.64.52.32.55.08.56-.19.99.31-.22.56-.39.83zm3.85.23l-.75-.15.08-.48c.77.08.47.42.67.63zm123.6 23.54c-.43-.15-.52-.33-.44-.53.59.15 1 .44.44.53zm-3.75-1c-.48-.11.25-.24.31-.32.99.33.16.37-.31.37zm-.91-.79c-.64-.13-.46-.34-.44-.54.82.24.87.56.44.59zm.87-.58c-.06.08-.26 0-.25 0-.66-.15-.25.25-1 0 .13-.15-.44-.25-.2-.42h.52c.61.11.28.34.93.47zm-123.6-25c.3 0 .25-.14.31-.25.48 0 .79.46 1 .2.38.17-.88.24-1.34.24 0-.36-.65-.38-.15-.64.34.18.17.37.18.53zM143.12 84.3c-.83-.15-1.07-.63.06-.36.3.16.28.33-.06.36zm-5.28-1.14c-.79-.12-.63-.33-1.22-.47a2.57 2.57 0 011 .06c.23.13.38.25.22.41zM16.19 57.54a2.26 2.26 0 00-.74-.25c.11-.1.49-.16.52 0 .27 0 .3-.17.79 0-.17 0-.33.11 0 .19-.11.06-.54-.07-.57.06zm-.89-.89a4.47 4.47 0 011.75.45c-.55.05-1.79-.04-1.75-.45zm125.61 25.18c-.29-.07-.45-.07-.51 0-.5-.27.55 0 .07-.43.42.11.48 0 .52 0 .61.2-.78.04-.08.43zM24.14 56.75c-1.09-1-.32-2.64-.72-3.44 1.58.62.66 2.4.72 3.44zm-1.58-1.43l-.76-.15c0-.25 0-.48.35-.53.64.15.45.43.41.68zm-.64-.83l-.76-.16c.14-.16.17-.39.82-.22zM18 53.16c-.28-.07-.12-.12 0-.09-1.1-.58.68.06.57-.29.33.11.16.29.18.45-.35-.09-.75-.17-.75-.07zm5.59-.71c-.87-.21-.36-.63-.62-.94 1.11.38.16.49.6.94zM151 77.19c-.36-.19-.64-.53-.15-.55.52.16 0 .36.15.55zM30.35 40.34c1.88-.36 2.86.44 2.32 1.46.39 0 .42-.22.59-.35.8.14.1.47.66.65-.11.11-.65-.07-1-.15a9.74 9.74 0 01.1 2.1c-1-.1-.1.48-1.14.43.18.31.62-.16 1 .23-.33.61-1 .39-.76 1.2.7.18-.18-.68.84-.29-.48.34-.33.73 0 1.18a4 4 0 01-1.23-.38c-.12.23.29.39.95.51.17.54-.58.48-1.16.53-1.76-.93.51-2.19-.68-3.13.87-1 .9-2 1.43-3.12-.47-.1-.22.28-.58.25-.77-.2-.36-.69.37-.5-.46-.39-.66-.46-1.71-.62zm127.11 35.71c-.55-.18-.77-.52-.42-.53.42.16.51.34.42.53zm1.79.2c-1-.17-.9-.55.05-.27zm-18.5-4.32c-.43-.24-.43-.94.87-.48-.72.07-.62.27-.87.48zm16.3 3.52c-1.08-.66.32-1 0-1.45a5.57 5.57 0 001.46.57c-.11.33-1.09.37-.67.78-.36-.03-.97-.17-.79.1zm-121.91-29c-.56-.2 0-.54-.1-.81 1.18.43.25.42.1.78zm112.27 26.14a4.49 4.49 0 00-1-.31c-.14-.26.72 0 .57-.24.65.16.46.36.43.55zm-2.21-.75l-.75-.17c-.51-.49.29-.5.68-.82.56.44-.36.53.07.99zm-.32-1c-.63-.79.93-.91.34-1.8.6.22.53.15 1.48.44-.86.13-1.5.7-.46 1.08-.09.12-.46.06-1-.09.18.26.36.17 1 .31-.24.13-1.15-.14-1.36.01zM37.78 45c-1.12-.26.17-.26-.13-.62.59.27.35.42.13.62zm7.18.74c-.88-1.29.19-2.73.5-3.74-.21-.29-1.12-.2-1.05 0-.69-.26.14-.37.11-.55.45.1.5.24 1 .34s.19-.43.38-.58c2.16 1.85 0 2.65-.15 4.59-.37-.07-.75-.16-.75-.07zm-14.44-3.67c-.4-.19-.19-.46-.38-.68.44.12.55 0 1 .14.18.47-.79.11-.62.54zm116 27.08c-1-.24-.85-.54-.89-.82.45.1.51.22 1 .32-.63.02 0 .35-.13.5zM33.69 40.66a11 11 0 00-1.69-.52c.29-.48.89-.57 1.52-1 .98.57-.12.86.17 1.52zm-3.89-4l-.09.48a5.54 5.54 0 011.18-5.5c0-.12-.48-.2-.45-.32a1.65 1.65 0 01.63-.44c.77.23.31.58.32.89.35.1.7.2.77.1.28 1-.77 2.52.36 4.28a2.14 2.14 0 01-1.39.45c.15.33.81.14 1.24.31.14.29-1.06.19-.37.5-.27.23-.39 0-1-.15.28.57.51 1 .27 1.26.81.31.44-.19.59-.35.81.52.33 1.1-.25 1.23-1-.16-1.55-.84-1.77-.33-.78-.63 1.14-1.3.1-1.77-.75.57-.14 2.07-1.73 2.07-.88-1.29.74-1.78.6-3zm8.93 5c-.67-.17-1.15-.51-.67-.56.66.08.6.3.67.5zm-1.3-1.3a3 3 0 00.47.21c.27-1.18 0-1.39-.26-2.52 2.65.28 1.59 2.28 1.76 2.89-.74.17-1.77-.01-1.97-.64zm-3.63-1.55c-.56-.21-.6-.48-1.17-.69.78.06.19-.81 1.18-.6-.81.23.64.94-.01 1.29zM45.23 38c.24.06.21-.07.29-.12.35.11 0 .3.44.4.59 0 .21-.55.42-.76 1.07.68.53 1.53 1.15 2a3.57 3.57 0 01-1.53-.38c-.86-.13-.07.2-.58.25.27.33.58-.16 1.29.13-.13.71-.49.78.25 1.32-.43.2-.41-.12-.36.48-1.74-.38-.24-.67-.82-1.07-1.12 0 .68 1.43-1 1 .5-1.08-1-3 1-3.81.54.34-.63.15-.55.56zm-9.68 0c-.14.31-.88-.47-1-.16-.74-.28.18-.29.33-.31.56.07.2.3.67.47zm-.92-.63c-.46-.85.27-2.33 1.38-1.63-1.15.16-.19 1.08-1.38 1.59zm20.23 3.49c-.12.12-.43-.19-.52 0-1.08-.46.1-.78.23-1.08 1.26.36-.45.66.29 1.04zm.18-.9l.11-.45c.2.11.42.22.49.13.36.11 0 .29.44.4-.08.1-.48.05-1.08-.12zm-20-4.76c-.51-.79.51-2 .22-3.21 1.78 1.15.14 1.86.36 3-.7-.36-.46.01-.55.17zm22.34 2.53c.51-.08-.21-.86 1-.69-.16-.25-.57-.48-.35-.76.53.09.86 0 1.26.24 0 .23-.74-.09-.81.07s.63.39.75.2c.24 1 .2 1.48-.5 2.14-.18-.26-1-.69-.35-.76-1.54-.41-.75.24-.4.56-.3-.06-1.07.08-1-.08-.79-.2.09-.45-.33-.85-.78.06-.1 1.07-.52 1.1.62.1 1.32.15 1.2.5-1.71-.5-2.14-.14-2.44.31a3.73 3.73 0 00-1-.34c1.09-.75-.12-3.21.76-4.38.45.11.5.25 1 .36-.06-.32-.88-.57-.85-.9l1 .27c.07-.15-.26-.27-.16-.43-.1-.24-.41 0-.72-.29l.1-.45c.28.09.45.1.52.05.48.31 1.25.6 1.09 1a3.64 3.64 0 011 .18c-.54.08.34.63-.42.65a2.37 2.37 0 001 .45 2.76 2.76 0 00-.8 1.81zM33.41 31c.82.13.74.35 1.2.52-.42.45-.27.62-.53 1.15 1.32-.21.53 1.39-.31 1.31-.84-1.21.75-2.08-.36-2.98zm-1.08.12c-.57-.18 0-.46.11-.48.86.26.21.36-.11.43zm2.37 0c-.93-.18-1.06-.44-.88-.73.69.11.46.32 1 .45.9-.55.32-1.52 2.15-1.31-.54.55 0 1 .42 1.6-.28.06-.72 0-.84.17-.54-.29-.32-.33-.13-.53-1.02-.2-1.56-.08-1.72.32zm.46-3.12c-.55-.23-.1-.65.61-.34a.39.39 0 01.16.45c-.35-.11-.7-.18-.77-.11zM165 62c-1-.45.29-.29.38-.55.69.16-.28.32.42.48.05.18-.95-.23-.8.07zm-2.48-3c-.28-.5.76-.61-.24-1.32 0-.26 1.18.2 1.07-.13.48.07.78.45 1 .29a1.34 1.34 0 01.53 1.18 3.17 3.17 0 01-1.23-.36 2.25 2.25 0 01-1.11.28zM42.69 23c-.54-.17 0-.42-.11-.62.67.16.47.62.11.62zm-4.6-1.72c-.54-.2 0-.49-.09-.73 1.39.45 0 .29.09.7zM42 18.59c-.5.14-.84-.48-.62-.69 1.19.28.18.56.62.69zm108.85 30c-.28-.33-.17-.65-1.12-.8-.14-.63 2.91.11 3.75.85a4 4 0 01-2.68-.02zM69.38 20.32c-.78-.2-.73-.43-.62-.66.44.15.55.05 1 .22-.02.22-.07.43-.38.44zm81.1 20.23c-1.19-.32-.93-.6-1.34-.91-1.92-.67-2.52-.56-3.63-1.27 0-.31.58-.18.88-.26a21.25 21.25 0 013.86 1.43c.18.27-.29.52.82.82-.27.01-.31.18-.59.19zm-48.15-16.37c-.53-.21-.06-.49.14-.48.31.16.4.32.39.48-.4-.18-.47-.09-.53 0zm45.63 14c0-.14.34 0 .32-.21.71.17.6.31 1.2.48a4.21 4.21 0 01-1.48-.22zM68.34 11.52c-.93-.24-.39-.86.4-.44.47.35-.17.32-.4.44zm5-2.25V9.1c.79.28 1.23.19 1.16.58-.74-.31-.78-.09-1.19-.41z" fill="#231f20" fill-rule="evenodd"/><path d="M130.41 110.68c-.6.28-.07.78.18 1.22-1.18-.21.34.23-.52.16-1-.29.33-1.11-.94-1.53-.35 0-.22.16-.27.26-.62 0-.06-.64.8-.5-.03.29-.17.41.75.39zM10.26 93.86c0-.19-.69-.21-.48-.46.5-.36.61-.9-.38-1.34.16-.19.42-.16.78 0-.69-1.26 0-2-1.22-3.26.93.38.73-.9-.17-.73A3.76 3.76 0 008 83.23c.31.55-.71 1.3.31 1.86-1.09-.38-.22.41.21.53l-.77-.1c-.11 2.14-.23 4.41-.35 6.6a48.63 48.63 0 01-.57 6.15c.87.51-.49 1.72 1.37 2.35-.59.49-.82.65-.35 1.26-1.41-.38-.18.6-1.31.36.51.52-.74.92.17 1.22.31-.58-.39-1.06.86-1.11-.35.55.3 1.24-.89 1.51.3.49 1.16 1.45.14 1.72 1.17.16-.28.51.45.84.44.08.67-.08.77.07.51.44-.64.81-.09 1.19 0-.12.1-.23.53-.15.16.32-.46.25-.3.57.86.12.46-.39.81-.52-.78-.28-.77-1.42-.15-1.51.42.38 1 .56.2.82.69.14.53-.15 1-.1 0-.33-.81-.42-.72-.77a10.33 10.33 0 011.5.55c.1-.35-1-.37-1-.69.49 0 .84.37 1 .1-.74-.28.38-.49.56-.64-1.5-.08.17-.48-.72-.77.31.34-.77.49-1 .19.89-.14.31-.38.82-.71H11c0 .46 1.36.53.25.12a15.28 15.28 0 01.88-1.59 1.25 1.25 0 01-.53.24c0-.61 1-.39-.21-.62 0-.42 1.17-.22 1.57-.43-.93 0-.18-.46-1-.5-.13.18.31.63-.55.44.22-.63.23-.7-.16-1.31.48.08.57 0 1 0-.38.26-.42.68.45.85.38-.52-.16-.86-.93-1.3.86-.15.28-.58-.21-.62.43-.23 1 0 1.53.18-.2-.6-.22-.8.59-1.12.06.14.55.17.75.28-.6-.47-.29-.49.32-.75-.83-.44-1.44-1.8-.35-2.32-1-.51-.64-.84-.89-1.79-1.11-.28 0 .59-.81.49s-1.51-1-.41-1.14c.61 0-.19.43.73.39-.54-1.24-2.4-.15-2.76.31zM10 104.3l-.77-.08c-.27-.34.42-.2.54-.34.35.06.23.26.23.42zm1.07-.69c-.82-.41-2-1-.92-1.39l1 .11c.14.19-.78.33 0 .49-.27.31-.49-.16-.76-.17-.65.18 1.16.51.69.96zm.09-4.76c-.66-.29-.67-1.15.35-1.15-.12.38.17.97-.34 1.15zm1.84-.39c-.64-.18-.46-.58-.44-.94.91.26.69.6.44.94zm-1.47-1a.68.68 0 01-.47-.65c.94.07.87.59.47.69zm2.07-.15c-.67 0-.83-.24-.74-.49.68.09.83.28.74.53zm-2-.54c-1.65-.39.31-1.25 1.1-1-.81.32-1.13.6-1.12 1.04zm-.95-1c-.28.12-.06-.43-.2-.82 1.06.28.63.68.18.85zm2.83 0c-.66 0-1.19-.45-1.53-.19.11-.45.3-.53.61-1.22.92.29 1.08.79.9 1.39zM97.83 171.78c-.24-.1-1.19-.65-.08-.72-.24.35-.03.36.08.72zM84.69 165.52c-.33-.14-.88-.19-.8-.48.69 0 .54-.28 1.27-.28-.58.24-.85.41-.47.76zM69.54 161.77c.15.3-.9.23-.74.53-.59-.06-.29-.53.48-.44a1.12 1.12 0 00-.78-.16c.3-.35.79-.08 1.04.07zM53.65 152.44a2.21 2.21 0 01-1.3-.36c.65-1.32-.14.1 1.3.36zM46.19 152c-.12.14-.33 0-.78 0a10.32 10.32 0 01.75-.91c.89.19-.95.66.03.91zM1.2 149.91c0 .12.47.09.77.11.12.64-1.64 1.08-.73 1.7.58 0 0-.53.5-.6.52.26-.24.41.28.8-.91.09-.63 0-1.54.1-.31-.84.15-.73 0-1.81.9.31.38-.55.76-.5-1 0-.86-.38 0-.6-.26-.28-.68.14-1-.11.57-.33-.42-1.15.74-1 0-.12 0-.18.25-.2-.26-.25-1.13.18-1-.32.87.35.69-.23 1-.39 1.53.55.41 1.85 1.09 2.52a5.94 5.94 0 01-1.12.3zM30.26 151.86c-.61.09.38-.69.23-1 .78.26-.18.7-.23 1zM48.2 150.63c-.47-.12.46-.49.23-.82.72 0-.18.5.53.46-.26.12-.69.17-.76.36zM59 143.26a.83.83 0 010-1c.18.26.4.74 0 1zM23.82 138.07a.62.62 0 01-.51-.88c.44.21.28.61.51.88zM16.91 134.94c-.49-.19-.1-.68-1-.72.57-.22 1.58.55 1 .72zM2.56 132.2c-1-.19-1.7.38-1 .76-1-.2-.68-1.18-1.53-1.67.36.38 1.48.46 1 .64.07.24 1.13.11 1-.05.39.04.1.3.53.32zM125.16 135.26c-1.12-.69.55-1.66-1.3-2.32.65 0 .43-.35 1.28-.3-.67.7.79 1.07-.25 1.56.94.28.3.8.27 1.06zM22.59 129.77c.74 0 .29-.13.26-.37.41-.33-.06.39.76.23.05.28 0 .53-.77.44 0-.08.1-.08.26-.08a3.07 3.07 0 00-.77-.23c.05-.11.26-.04.26.01zM22.35 126.78c.11-.18.1-.41.77-.34-.28.41.43.5.51.79.25 0 .2-.1.26-.17 1.43.55.27 1.45-.53 2.08a3.67 3.67 0 01-1-.34c1.64-.02.54-1.62-.01-2.02zM6.21 124.79c0-.24-.43-.32-.23-.61.37.07.64.18 1 .25-1.13-1.58 1.34-3.71-.56-5.41 1.69-.4-1.14-1.27.57-1.45a4.26 4.26 0 01-1.28-.09c.9.75 0 1.75-1.35 1.7 1.39 0-1.51-.27-.24-.52-.57-.18-1 .19-1-.07a9.49 9.49 0 011.3-.41 1.8 1.8 0 00-.49-.63c.3 0 .73.06.78 0-1.49 0-.35-.54-.23-.72-.92.12-.83.7-1.83.77.85.16.12.2.23.52-.3 0-.72-.07-.77.05.27.09-.58.41.23.72.15-.2.41-.19.77 0-.42.47.33 1.1-.83 1.55 1.43.15.72.47.48.84.38 0 1 0 1 .16s-.69.16-1 .24c.07-.17-.46-.63-.76-.35.73.06-.25.67.48.73 0-.22.23-.3.78-.25-.66.2.54.25.24.62a7.28 7.28 0 011.78.31c-1.31.16.49.58.48.92a6.08 6.08 0 01-2.33.46c.17.33 0 .41.24.52.08-.2.69-.16 1-.24.54.65.3.85 0 1.5.71.16 1.07.38.77.64.76-.37-.61-1.54.77-1.75zm-.36-3.91c0 .11-.47.05-.78.05s-.33-.29-.23-.52c1.08-.08-.08.59 1.01.47zM124.11 132.28c-.65.08.51-.32.27-.58.71.13.65.44.76.72-.36-.12-.73-.42-1.03-.14zM23.7 124.07c0 .19.7.17.5.42-.51.06-1.1.29-1.29.3-.28 0-.17-.2-.51-.22 1.31-.08.39-.65 2.08-.64-.11.07-.33.17-.78.14zM23.72 123.78c-.85 0-.39-.21 0-.19 0-.13.05-.27-.24-.3.25-.22 1 .19 1 .35-.48-.06-.79-.03-.76.14zM128.28 130.23c-.05-.09-.26-.06-.26 0-.6-.21 0-.7-.49-.93.14 0 2 1.16.49 1.08-.02-.11.05-.15.26-.15zM128.81 129.22c.66.14 1.08-.33 1.56-.48-.77 0-.38-.8-.48-1.37.79.33 1.39 1.77-.3 1.83-.2.39-.06.44-.28.8a2 2 0 01-.71-2.21c.79.21.1 1.05.21 1.43zM23.86 120c-.4.35-.3 0-1-.07v-.48c.52.23.51 0 1 0 .05-.3-1.42-.15-1-.56.57 0 .35.21.76.25-.6-.37-.58-.77 0-1 .73.2.29.38 0 .57a8 8 0 001.27.38.35.35 0 00-.28.37c-.29 0-.2-.19-.24-.31-.03.05-1.37.63-.51.85zM128.62 127a3.7 3.7 0 00.77-.24c.35.05.21.2.25.31-.37-.13-.81-.11-.77.1-.31-.21-1.28-.27-1.27-.55 1.02-.03.66.24 1.02.38zM126.6 125.93c-.73-.23.26-.4-.25-.62.92.14.26.46.25.62zM23.44 117.61c-.07-.22.07-.35.52-.34-.2-.3-.37-.14-1-.17v-.39c.78.55.44-.14 1.29-.09-.47.38.39.87-.81.99zM23.53 115.21c-.24.35.39.65 0 .77-.33-.06-.39-.2-.76-.25.35-.22.6-.83 1.56-.45-.15.13-.33-.07-.8-.07zM65.27 117.82c.78 0 .85 1.15.49.66.04-.27-.76-.32-.49-.66zM66.3 117.91c-.71-.25 0-.62 0-.87.64.21-.3.48 0 .87zM26.45 112.67c-.4 0-.39.27-1 .2-.08-.69.13-.91-.2-1.46a5.35 5.35 0 001.27.31v.28c-.3-.05-.2-.2-.24-.31-.95.01-.62.88.17.98zM19.1 110.48c-.32-.36.42-.61.07-1.16.67.37.31.81-.07 1.16zM8.68 108.45c.17.32-.89 0-.54.44-.7-.15-.62-.53-1.5-.63.87-.2 1.07.58 2.04.19zM21.21 109.6c.53-.14.49-.56.83-.79h-.51c.95-.39.85.97-.32.79zM12.37 107.21a4 4 0 01-1-.2c.16-.21 1.78 0 1.06-.49.28-.28.41.25.76.27-.31.12-.86.12-.82.42zM22.1 107.94c-1.06-.23.1-.62.31-.84a2.87 2.87 0 00.77.17c-.59-.44.58-.2.8-.5-.05-.11-.5-.11-.49-.24-.1-.31.25-.4 1-.28-.46.45-.36.4-.06 1l-.77-.08c.06.23-.07.36-.29.46.66 0 .9 0 1.27.21.61.1-.11-.44.79-.21l-.81.5c-.31-.45-.84-.26-1.78-.27.49-.13 0-.23 0-.48-.94-.2-.69.26-.74.56zM11.39 106.52c.35-.23.58-.24.3-.57.44 0 .67 0 .78-.12a.94.94 0 01-1.08.69zM23.25 106.22c-.9-.38.55-.46 1.06-.48-.16-.11-.58-.15-.49-.33 1.73.39-.38.49-.57.81zM139 113.68c-.28-.16.27-.63.31-.91.5.23-.18.68-.31.91zM78.08 105.43c-.12.15.16.32.24.2.17.46-.52.46-1.28-.07 0-.09 1.12 0 .28-.22.11-.12.32.07.76.09zM78.27 102.54c-.28-.05-.13-.11 0-.09-.28-.14-.72-.24-.48-.48.61.12 1.04.45.48.57zM138.94 109.74c-.81-.31-.16-.48.07-.72.45.14-.33.41-.07.72zM141.71 102v.14h-.27c-.31-.25-.85-.46-1-.73.86.16.19.39 1.27.59zM140.94 99.11c.63.24-.61.62.47.44-.94.47-1.2 1-.66 1.66.08-.48.7-.43 1.09-.64.67.6-1.18.6-.1 1.08.08-.1.56 0 .76.11 0-.18-.1-.44.55-.35.46.15-.66.5.45.72a16.47 16.47 0 01.52-5c-.38 0-.38.28-.81.3-.06-.06 0-.14-.24-.18-.06 0 0 .14-.27.1.27-.23-.23-.72-.7-.63.82.26.19.48-.08.65.45.26 1.34.06 1.5.39-.95.31.6 1.33-.94 1.31-.63-.36 1-.89-.86-1.38-.06.41.47 1-.66 1.14l.74.34c-.46.18-.46-.17-.76-.06zm.9 1.39c-.81-.11-.89-.46-.47-.52.44.14.55.32.47.52zM131.08 100c-.56-.09-.08-.33-.21-.48.22.08.45.15.51.07.52.1-.38.2-.3.41zM136.41 95.94c-.37-.29-1.14-.84-.39-1 .42.28.15.67.39 1zM138 95.68c-.09.09-.64-.05-1-.1.12-.17-.89-.8.58-.49-.24.2-1.09.34.42.59zM144.16 93.92c-.3-.06-.45-.06-.52 0-.72-.38-.18-.59.35-.75.51.26-.24.4.17.75zM12.74 70.09c.09.27-1 .4-1.31.07-.43-.06.84.04 1.31-.07zM137.47 91.57c0 .13-.33.1-.28.25-.9-.33-.5-.37-.69-.72.35-.1.11.41.97.47zM139 89.83c-.77-.45.14-.89-.86-1.43 1.37.48.68.97.86 1.43zM140.59 89.3c.43.11.49 0 .53 0 .58.13.55.3.21.34-.54-.08-1.77-.65-.72-.43zM12 64.6c-.63 0 .74-.54.12-.89.68.4 1 0 1.32-.16.86.36.12.53.13.93-.57-.56-1.24-.05-1.57.12zM145.56 86.92c-1-.28.09-.35.09-.57.55.19-.38.27-.09.57zM12.86 51.17c.36.12-.12.1-.06.29-.34-.21-.48-.42-.51 0-.44 0-.45-.69-.12-.84.4.1.14.79.69.55zM16.68 40.6c0 .29-.56-.83-1.09-1.08.46 0 1.43-.2.89-.5 1.37.14-.21.48-.2 1 .51.1.55-.14.82-.21.56.28-.81.19-.42.79zM19.81 38.09c-.15.15.22.66-.6.36.39-.5-1-1-1.67-.81-.24-.13-.21-.29-.71-.38.91-.16 1.84.5 2.98.83zM17.4 35.76c.73.27 1.59.07 1.77.33-.27.29-1.08-.24-1.8-.13.12-.15-.16-.23-.46-.32.69-.46-.18-.91.32-1.56.41.19.57.5.15.55 1 0 .64.53 1.35 1l-1.25-.31zM7 28.92c1.22.48.94-.1 1.35-.19.82.47-1.35.93-1.35.19zM22.7 28.32c0 .24-.4 1.33-.57.16a1.24 1.24 0 00.57-.16zM22 26.9c.22.41.52.82.22 1.29-.53-.39-1-.13-1.54-.2-.12-.3.18-.68.93-.58-.18-.2-.38-.07-1-.36.37 0 .45-.36.14-.58.37-.09.31.53 1.25.43zM23.94 27.53a4.35 4.35 0 01-1.77-3.65c0-.13-.44-.21-.72-.3.38-.16.58-.17 1.28.14.11-.41-.26-.54.41-.6-.08-.15-.27-.29-.7-.4 1-1.92.66-3.78.49-5.32.68.52.49-.21 1.52.23-.11-.11-.22-.23-.18-.36-.48-.1-.28.32-1.05 0 .55-.34.34-.63 1.69-.44.67.36-1.28.18.37.62-.76 2.91-1.42 4.45-2.37 7.75-.23.21.47.32.67.49-.44-.06-.09.46-.61.34a1.43 1.43 0 00.93.56c.1.31-.5.68.04.94zM46.51 25.74c-.73-.21-.21-.52-.61-.76a1.25 1.25 0 00-.56.13c-1.51-1 0-1.63-.17-2.61a1.09 1.09 0 001.52-.45 1 1 0 00-.51-1.42c-.14-.36.69 0 .84-.15-.29-.34-1-.65-1.06-1a3.71 3.71 0 001 .38c-.29-.51 1.36-.22 2-.39-.67-.32-.38-.55-.08-.72.44.56.91.2.86-.23.49.72 1.3 1.13 1.14 1.71-.32-.12-.35-.27-.69-.4-.8.07-1.15.53-1.06 1a2.35 2.35 0 01-1.23-.36c.71.51-.58 1 .89 1.63-.24.15-.62.21-.66.5-1-.39.13-.26.14-.55a2.86 2.86 0 00-.69-.4 18 18 0 00-1.07 4.09zM55.86 27.43c-.71 0-.59.57-1.42.46.15-.36 1-.65.75-.94.19-.17.46.37.67.48zM177.61 61.93a4.65 4.65 0 00-1-.35c.82.16 1.31.08.85-.32.21 0 .69.16.77.09.87.31 0 .17.16.46-.73-.25-.79-.08-.78.12zM36.32 18.73c.25.66 0 .89.15 1.55-.29-.13-.47-.26-.42-.42a2.78 2.78 0 01-.76-.12c.91-.31.53-.86.1-1.48.18.19.82 1.09.93.47zM36.18 17.28c-.68 0 .37-.3 1.06 0-.21 0-.32.13-.34.3-.37-.04-.51-.53-.72-.3zM30.65 15.14c-.22-.05-.22-.11-.22-.17l-.5-.15c1.17.2.31-1.13 2-.52.06.23-.41.07-.79 0-.31.31-.29.7-.49.84zM13.93 6.17c0-.3.64-.13.65-.44.18.3 1 .78.52 1 .44.14.55 0 1 .2-.15.34-.44.27-.18.68.31 0 .53 0 .57-.14.67.35.05.35.85.78-.14.18-1.07-.34-1.2-.47-.33.06-.78 0-.87.27-.24-.14-.2-.3-.69-.42-.1-.7.25-.89-.65-1.46zM65.77 22.91c-.08.08-.26 0-.25-.08-.26 0-.31.13-.78 0 .21-.23.83-.16 1.15-.31.78-.08-.7.25-.12.39zM60.08 20.32c-.42-.27-1-.53-.84-.84 1.15.73-.24-.63.47-.72-.05-.1-1-.57-1-.39.51-.27.81-1.66 2.09-1.86-1.53-.69.72-.47-.76-1.11.08-.16.84.2 1 .13-.73-.7.72-.74.58-1.17.12-.1 1.93.74 1.05.05 1 .17.4.65-.64.37 0 .44-.26.6-.75.83 0 .17.37.33.93.48-.31.46-.81.34-.26 1-2.55-1-.38 1.21-2.42 1.08.89.72.22 1.26.55 2.15zM42.92 13c-.4-.21-.46-.45-.34-.7-.67-.3-.67-.07-1.25-.29.18-.5-.36-.95-.68-1.42 1.4.69 1.44-1.61 3.49-1.11A.38.38 0 0144 9c.76.07 1.25-.07 1.44-.44 1.87.11 2.58-.77 4.14-.56-.49.12 0 .87.08.72.26 1.8-3.87 3.49-1 5.72.44-.18-1-.93-.41-1.41.58.69 1.66 1.11 2.12 1.94.7.24-.13-.68.86-.22.4.28-.3.23-.17.63-1.52-.9-1.67.45-1.54.81-.49-.15-.25-.35-.94-.49-.05-.38.79-.38.22-.82-1.77-.12-.92.85-1.44 1.44-.05-.75-2.29-2.14-2.87-3.17.32-.3.49-.78-.73-1.22.13-.2.89.09.86-.24-.41-.44-1.33-.38-.81-1a2.16 2.16 0 00-.93-.49c-1.13-.09 0 1.32-1.25.71-.19.16.43.28.41.43.58.22 0-.46.81-.05.44.33 0 .49-.83.14-.02.57 1.16 1.03.9 1.57zM62.33 19.86c-.54-.19.38-.13.12-.45a2.28 2.28 0 011.21.47c-.53-.06-1.13-.39-1.33-.02zM62.84 16c.19-.31.25-.73.8-1-.03.07.12 1.2-.8 1zM53 11.19c2.09.75-.4 1-.91 1.38.14-.57.2-1.22.91-1.38zM110.79 28.25c0-.35 1.1.2 1.34-.08.43-.04-.38.5-1.34.08zM172.24 42c.08-.27 1.2.17 1.57.1.19.14-.81.16-1.57-.1zM141 30c-.59-.26.51 0 .35-.28.47.22.59.42.62.62-.39-.25-.66-.55-.97-.34zM175.26 40.77c.11-.09.11-.5 1.14-.26-.49.17-.34.29-1.14.26zM177.74 41.42c-.76-.42.49-.14.6-.23.58-.31-.06.35-.6.23zM156.33 28c.07-.11-.24-.25-.15-.37.92.34.71.86.52.9-.49-.54-1.16-.37-2-.63a3.53 3.53 0 00-1.85-.92 3 3 0 011.68-.18c-.25.2-.53.56 1.8 1.2zM155.49 19c-.62.1.16.27.69.35-1.1-.4-.2-.61-.44-1.13a7 7 0 011.48.42c0 .24-1 .48.73 1.09.66.86 0 1.6 1.08 2.49 2.5.71 1.6-.19.88-1.09.89.41.87.14 1.29.19 2.48 1.38.16 1.45-.59 1.82-.23-.28-1-.2-1.17-.53-1.64-.2-2.45.22-4.49-.29-.16.14.38.32.12.45a5.08 5.08 0 00-1.22-.39c.39.43.53.86-.86.16 0 .14-.36.26.38.46-.34 0-1-.21-1.29-.16s.76.34.39.46c-1.18-.37-1.08.21-2.35-.24.73.65-1.23.41-2.47.13-1.8-1.73 1.95-1 2.36-2.27 1.54.6 2 .34 1.7-.24a3.82 3.82 0 011.48.41.6.6 0 01.45-.55c-1.13-1.21-3.14-2.57-3.06-3.86.88.23.43 0 .84-.08a22.07 22.07 0 002.37 1.82 9.47 9.47 0 011.7.58zM1.55 129.44c-.7-.25-.81-.72-1.53-1 0-.21.65-.18 1.28-.13-.28-.14-.22-.22.27-.19-.73-.34-.11-.55-.77-.95.58-.18 1.42-.24 1.29-.73.53.74-.39 1.39.24 1.82-.4.19-1.06.26-1.29.54.33.29 1.14.41 1 .85-.51-.06-.8 0-.77.16a2.7 2.7 0 00-.77-.13 6.44 6.44 0 011.05-.24zM19.7 109.17c-.19-.17-.8-.22-.74-.46 1.16.17 1-.32 1.07-.67 1 .06.24.62.45.91-.24.05-.94-.06-.78.22zM19.68 12.41c.57.11.08.37 1.16.65-.88-.12-.69.56-1.91.17.27.63 1 1.23 3 1.71 1.4 1.49-.38 2.39-2.18 2.48-3.13-.55-5.22-1.58-5.46-2.5-.36-1.36 3.39-1.63 2.31-2.89.46-.22.79-1.17 1.7-1.39a6.2 6.2 0 001.48.44c.11.43-.51.93.72 1.26a1.36 1.36 0 01-.82.07z" fill="#231f20" fill-rule="evenodd"/></svg>