<svg data-name="Layer 1" xmlns="http://www.w3.org/2000/svg" viewBox="0 0 184.17 165.07"><path d="M87.2 147.49a23.08 23.08 0 01-2.5-2.78c-3.57-3.7-10-7.68-15.17-5.16a14.43 14.43 0 01-3 1.39 5.5 5.5 0 01-4.71-1.43c-1.4-1.22-2.16-2.93-3.54-4.14-1.64-1.43-3.3-1.82-4.41-4-1.43-2.52-2.27-2.65-7.26-1.16-3.63 1-4.67-.13-2.72-3.37 2.18-3.65.9-6.73-2.53-8.09-4.51-1.79-6.95-5-9.57-9.17-1.51-2.41-3.24-5.09-3.55-8s.06-3.89-2.05-6.31c-2.34-2.73-2.47-3.12-1.43-4.74 1.88-2.91 2.4-7.52 1-8.75-5.51-4.54-5.7-5.57-2.4-10a5.83 5.83 0 001.43-4.6c-.32-1.56.13-2.85 1.69-4.73 2.14-2.53 2.14-3.18-.33-6-3.24-3.7-2.14-6.81 2.08-6 2.39.52 3.42-.32 4.39-3.4a13.67 13.67 0 001-4.4c0-2.12-1.32-3.49.18-5.61 3-4.22 8.58-.4 8.58-7.27 0-4 1.81-6.55 3.95-5.64 3.57 1.55 6.16.84 7.07-1.95.68-2.24 2.33-3.79 2.87-6.08a7.58 7.58 0 011.29-3.29c1.31-1.57 3.67-.83 5.37-.42 3.59.9 12.35-.17 12.76-4.89A15 15 0 0176 4.07c1.14-3.48 5.24-.75 6.77.86 3.9 4.13 8.06 3.88 12.23.26a10.25 10.25 0 013.77-2.47c3.33-.91 3.16 1.92 4.87 3.43 2.22 1.95 5.15.52 7.33-.89 3-2 5.34.34 7.22 2.62a13 13 0 003 3.11c.6.4 3.81 1.18 3.81 2.18 0 1.81 7.52 3.82 9.27 2.46 3.63-2.85 6.8-1.17 5.31 2.79-2.05 5.46 1.49 7.41 6.19 7.15a29.23 29.23 0 002.31 3.07c1.26 1 2.6 1 3.95 1.7 2.91 1.42 3.93 4 2.53 7.27-1.62 3.89 1 9.53 4.34 9.53s5.19 3.69 3.31 7.26c-1 1.87-1.23 3.1-.72 4.07.65 1.25.54 2.09 1.33 3.31 1.07 1.64 2.55 2.73 3.38 4.63a13.38 13.38 0 010 10.79c-1.29 2.82-4.48 5.47-4.84 8.64-.44 3.82 6.45 5.06 5.49 7.41a3 3 0 01-2.58 1.53 18.15 18.15 0 00-3.14.27A5.27 5.27 0 00158 98.3a10.92 10.92 0 00-.52 7.18c1.3 4 0 6-4.21 6.16-3.05.13-5 2.4-4.28 5 .78 3.24-5.38 9.08-9.59 9.08-2.69 0-1.9 4.88-2.45 6.41a4 4 0 01-3 2.73c-3.78.43-6-4.23-10.08-1.56-2.26 1.48-3.09 4.38-4.81 6.47-2.29 2.78-6.09 4-9.69 3.93-2.59 0-5.29-1.14-7.84-1.57-4.39-.72-5.17.48-8.3 3.64-1.15 1.17-2.5 2.42-4.14 2.38a3.06 3.06 0 01-1.89-.66zM37.3 13.34c-1.35-.81-3.9-1.08-4.71-.51-3.44 2.5-3.2 7 .43 8.56 5.09 2.08 8.98-5.19 4.28-8.05zM3.7 93.56C3.06 94.83 3.43 95.78 5 97c1.27.9 4-.47 4-2a2.82 2.82 0 00-5.3-1.44zm110 56.69c-.21.5-.6.87-.84.77-.57-.2-.74 3.94-.17 4.61a1 1 0 01.24 1c-.14.2.2.87.74 1.48a5.48 5.48 0 011.14 1.48 6.17 6.17 0 002.16 1.21c2 .77 5.39.81 5.39.07 0-.21.26-.37.57-.37 3.9 0 4.88-7.85 1.45-11.42-2.77-2.87-9.26-2.19-10.68 1.17zM175 37.74c-7.3 0-7.37 10.4-.06 11.75a4.27 4.27 0 003.94-.71 1.62 1.62 0 011.44-.27c.34.2.41.13.21-.2a1 1 0 01.13-1.05c2.7-3.18-1.09-9.52-5.66-9.52zm-38.4 118.87c-2.59.27-3.23 4-.84 4.88 1.85.67 3.47 0 3.81-1.59.43-2.28-.69-3.53-3.02-3.29zm5.81-146.7a2.06 2.06 0 003.67-.1c.44-.94.37-1.25-.41-2.06a2 2 0 00-3.31 2.16z" fill="#231f20"/></svg>