<svg data-name="Layer 1" xmlns="http://www.w3.org/2000/svg" viewBox="0 0 443.7 251.91"><path d="M281.74 37.54a2.64 2.64 0 00-3.21-2.14.83.83 0 01.73-1 20.52 20.52 0 012.48 0 .85.85 0 00.7 1 5.84 5.84 0 001.45 0l.7.24c1.78.83 2.57 2.64 3.88 3.94.51.5-.17-.14.32.39-.12-.19-.27-.36-.41-.56a4.37 4.37 0 01-.79-1.1 2.3 2.3 0 01.16-1.32c.14-.17.28-.35.43-.52 1.37-2.61 1.44-3.69.36-5.54-.29-.48-.08-.85.47-.9s1.15.08 1.27.59a13.06 13.06 0 01.05 2.08c0 .48.13 1.32.35 1.37a3.83 3.83 0 002.41 0c.64-.35 1.56-.87 1.52-1.93a18.32 18.32 0 012.14 3.07c.11 1.08-.84 1.49-1.44 2a1.69 1.69 0 01-1.4 0c-.63-.24-.25-.94-.42-1.41-.06-.16-.47-.21-.72-.3a7.4 7.4 0 01-1.35 2.65 1 1 0 00.12 1c1.07.73.69 1.87 1 2.82a2.63 2.63 0 002.69 2c.12 0 .25.23.38.36-.22.2-.42.56-.66.59-.71.08-1.43 0-1.41 1.06 0 1.43.05 2.85 0 4.27 0 .89.74 1.13 1.11 1.69.27.4.51.5.75.26a.92.92 0 00.29-.41c.09-1-.17-2 .78-2.92.53-.53-1.18-1.1-.76-2.06a4.37 4.37 0 01.56-.76l.38.38c.34.29.64.9 1.13.18.38-.56 1.26-.77 1.13-1.67.68-.17.95.4 1.28.76a9.73 9.73 0 004.23 2.46c.6.07.71.47 1 1 1.05 2.06 1.69 4.34 3.28 6.12.34.38.51.49.76.08.52-.81 1-.74 1.51 0 .25.37.65.35.72-.14a25.39 25.39 0 00.13-2.62c.15-2.22.1-4.22-2.84-4.66-.78-.12-.24-1.26-.38-1.91a.92.92 0 001-1.3 2.64 2.64 0 00-2.1-1.92l-.32-.31v-.45l.32-.31c.92.5.93-1.49 2-.71.88.65 1.15.58 1.22-.16v-1.55a.94.94 0 01.18-.44c.1-.13.25-.33.36-.32s.28.2.36.34c.37.63-.15 1.86 1.24 1.77v2.23c-.67-.17-.92.41-1.28.75-.95.9-.9.9.12 1.88a1.59 1.59 0 001.83.45c1.44-.55 2.43 0 2.54 1.3a.81.81 0 01-.92 1c-.58 0-1.16.19-1.18.7 0 .81-.4 1.74.41 2.46.63.56 1.09 1.26 2.17 1.2.58 0 .79 1.16 1.67 1h.53a9.55 9.55 0 001.07 0h.54c.66-.12 1 .28 1.06.81.15.81-.22 1.66.52 2.42s1.42 1.17 1.48.65.15-1.2-.09-1.38c-1.07-.77-.82-1.83-.8-2.83 0-.23.37-.46.57-.69a4.31 4.31 0 00.37.37c1.42 1.22 1.55 3.42 3.31 4.39.24.13.49.23.74.35.12-.47.24-1 .34-1.43a3 3 0 000-.52.85.85 0 001.05-.7 5.76 5.76 0 000-1.44c.31-.13.83-.19.88-.38.26-1 .56-2.05-.38-2.86-.59-.51-.33-.87.18-1s1.15-.14 1.36.44a4 4 0 01.1 1.55c0 .9.42 1.14 1.25 1.22 1.25.13.75.68.21 1.23a2 2 0 00-.37.9c-.14.67.28.95.84 1s1.17-.08 1.26-.6a21.25 21.25 0 000-2.65 1 1 0 011.81-.75c.94.8 1.69 1.26 2.58.13.33-.42.62-.52.74-.06.17.65.12 1.36.24 2s.39 1 1.58 1.65c.17.27-.09-.33-.52-.81.15-.1.19 0 .31.37a2.22 2.22 0 00.49.82c.24.25.36.35-.28-.38a9.88 9.88 0 01-.52-3.42 4.56 4.56 0 000-.52c0-.52.12-1.09.66-1s.71.74 1.13 1 .43.45 0 .77c-.58.42-1.12.93.13 1.24a2.81 2.81 0 011.31.59c.52.52.83.31 1-.18a2.94 2.94 0 000-1V50.4a5.45 5.45 0 011.07 0c.32 0 .83.18.88.37a4.51 4.51 0 01.16 2.05c-.45 1.71.86 2.89 1.13 4.37.11.55 1.35.88 1.7.59.77-.62-.1-.79-.29-1.14-.46-.87-.51-2-1.43-2.61 0-1.42 0-2.83.08-4.25 0-.13.22-.3.37-.36a.44.44 0 01.36.18l2.66 5.85a.45.45 0 00.36.19c.15-.07.34-.22.37-.37.07-.33 0-.69.09-1 .13-.85-.41-1.85.33-2.52a6.48 6.48 0 011.79-.79c.15-.07.3-.37.38-.35.25.08.7.3.68.4-.2 1.09.61 1.57 1.21 2.19l.38.38c.19-.24.51-.46.57-.73.38-1.87-1.14-3.08-1.71-4.63-.13-.37-.3-.46-.16-.79a2.11 2.11 0 013-.79c1.18.76.77 2.25 1.81 3.08.47.37-.28.69-.79.7-1 0-1.29.37-.48 1.11.37.33.5.52.19.77-1 .83-1.19 1.7-.07 2.57.41.32.4.45 0 .78s-1 .93-.22 1c1.86.29 2.55 1.39 3 3 .16.59 1 .43 1.4.26a1 1 0 00.47-1.33 3.8 3.8 0 01-1.06-2.8c.11-1-.35-1.88-1.05-3.29a.94.94 0 001-1.36 13.58 13.58 0 00-1.69-3c-.82-1.16-.24-2.39-.37-3.57 0-.18.44-.45.72-.61a.94.94 0 01.53 0 2.17 2.17 0 002.29-.9c.88.77 1.72 1.57 2.65 2.28a3.3 3.3 0 011.3 3.21c0 .22.37.48.56.72.16-.29.44-.57.47-.87.12-1.6.69-1.16 1.44-.39.06.07.5-.16.71-.32s0-.34 0-.52v-1.04c.29.11.71.13.85.35.63.92-.36 2.38 1 3.11.82.44 1.63.92 2.43 1.41.07 0 0 .32 0 .48v.7a3.41 3.41 0 01-1.16 3.22c-.41.33-1 .45-1.36.76-1.21 1-3.95-1.21-4.06 1.89-.08 2.09.77 3.93 2.85 4.58 3.31 1.05 4.72 4.06 6.83 6.31a21.76 21.76 0 004.61 3.38 6.44 6.44 0 011.11 1c1.51 1.83 1.5 4.3 2.67 6.24 0 0 .46.25.48.2 5.6-3.3 5.44 2.68 7.72 4.74l.67.24c1.23.09 1.54 1.38 2.44 1.86a1.77 1.77 0 001.41.13c.87-.5-.12-.74-.29-1.09-.07-.16-.33-.27-.32-.4 0-.5-.23-1.13.39-1.4.16-.07.55.24.73.46.6.7.79.12 1-.3s.36-.92.53-1.39a8.54 8.54 0 011.57 2c.3.78-.32 1.09-1.16 1.26-1.09.21-1.08.36-.22 1.19.42.4.77 1.25 1.52.31a1.26 1.26 0 01.86-.45c1.28 0 2.51.1 2.43-1.76 0-.12.57-.4.86-.38.65 0 1.13-.3 1.09-.82a3.49 3.49 0 011.33-3.22 21.94 21.94 0 002.64-2.64 2.38 2.38 0 012.34-.85c.86.13 1.13-.76 1.73-1a3.55 3.55 0 012.09-.06c.83.25.6 1.12.63 1.79a3 3 0 00.16 1c.21.52.42.44.76 0 1.1-1.37 2.63-.48 4-.61.13 0 .44.53.45.83v3.74c0 1.25-.32 2.52 1 3.32-.05.84.23 1.66-.24 2.53-1.06 2-1 2 0 3.64.24.42.18 1 .41 1.43.43.76.84.16 1.1-.18s.56-.51.76-.06a2.72 2.72 0 01.2 1v3.21c0 .16.06.4.17.45 1.48.73.33 2.48 1.17 3.23s.47 2.07 1.46 2.63c.48.28.44.44.07.79s-1.08.44-.34 1.12 1.17 1.29 1.75 1.94c-.69 1.71 1.53 2.8 1 4.36-.73 2.25 1.53 3.85 1.11 6 1.77 1 .43 3.38 2.09 4.52.47.32-.06 1.31-.71 1.75-.37.26-.35.61.14.74.8.21 1.41.16 1.79 1.33a19 19 0 002.38 4.85c.79 1.12.21 1.34-.3 2-.33.42.17 1.47.8 1.57s1.35.18 1.32 1.16c0 1.25.06 2.5 0 3.74a4 4 0 001.06 3.33c.45.46-.27 1.55-.94 1.43-2-.37-4.28 1-6-1h-4.27c-.13 0-.38.25-.36.33a3.81 3.81 0 00.37.76c.52 1.09 1.87.79 2.56 1.53.45.48 1.28.75 1.15 1.65-.53 0-1.17-.18-1.58 0a8.88 8.88 0 00-1.54 1.47c-.4.38.57 2.06-1.14 1.2a2 2 0 00-.74-1.84 4.7 4.7 0 00-1.76-.95 5.31 5.31 0 01-2-1.7c-.61-.67-1.34-.22-2.26-.78-.14-.29-.06-.15 0 0a6 6 0 01-.42-.89c-.12.06-.06.21.45.87a4.41 4.41 0 01.23 2 .79.79 0 01-.69.35c-1.47-.42-1.46-.45-1.43.84 0 .7-.09 1.48.91 1.51.57 0 1.18.17 1.19.67 0 .81.4 1.72-.37 2.46-1 1-2.17 1.8-1.77 3.52.07.32-.52.81-.83 1.2a8.5 8.5 0 01-.74.73c-.17-.28-.48-.55-.5-.84-.05-.77-.19-1.34-1.15-1.3s-2.11 0-3.16 0c0 0-.05-.08-.05-.06v2.23c-1.06-.08-1.38 1-1 1.33 1.42 1.5.92 3.26 1 4.95.05.89-.42 1.07-1.23 1.27-1.48.36-2 2.37-3.83 2.37-.1 0-.27.59-.29.91v2.14c-.05 1-.87 1.27-1.89.66-.43-.26-.61-.83-1.29-.79a1.18 1.18 0 00-1.11.83c-.11.85.57 1.2.94 1.77s0 1.29-1.07 1.71c-.38.15-1.29.22-.58.81 1.07.88.6 1.94.7 2.94 0 .11-.28.38-.35.35-.25-.09-.59-.23-.68-.44-.77-1.75-.76-1.75-2.28-.86-1.22.71-1.33.66-2-.91-.13-.29-.36-.77-.55-.77-.48 0-1.27.09-1.38.37a10.48 10.48 0 00-.23 2.06c0 .24-.38.44-.59.66a3.11 3.11 0 01-.43-.88c-.08-.53 0-1.07 0-1.61 0-.14-.17-.29-.28-.4s-.8 0-.71.25c.48 1.46-1.74 1.87-1.2 3.3 0 .07-.23.35-.35.35a4.28 4.28 0 01-1.44-.15c-.35-.12-.23-.44.18-.73s.67-.73.05-1.11c-.13-.08-.35 0-.53 0a14.35 14.35 0 01-2.34-.14 2.36 2.36 0 01-.63-.38 5.59 5.59 0 01.84.52c.07-.12-.07-.21-.21-.14.34 1.05-.55 1.25-.93 1.81-.49.73-.86.15-1.11-.19s-.57-.51-.77-.06c-.43 1-1.68.4-2.18 1.15-.07.1.26.52.46.73a1.18 1.18 0 01.13 1.82c-.5.56-2-.16-1.82 1.29.09.9-.75 1.12-1.12 1.68s-.85.2-1.12-.16-.65-.53-.75-.09a14.44 14.44 0 000 5.71c.12.65.92.3 1.41.4.15 0 .38.29.36.36-.1.25-.31.68-.43.67-.84-.1-1.78.41-2.5-.4s-1.09-.71-1.17.37a5.46 5.46 0 000 1.07c.09.64-.25 1.11-.79 1.1-1.25 0-1.51.64-1.35 1.66a2.19 2.19 0 01-.75 1.85c-.6.7.22.68.62.81s.72.11.92.32a1.11 1.11 0 01.25.93c-.55 1.56 1.6 2.32 1.1 3.84-.1.32 0 .78-.21 1a6.75 6.75 0 00-2.26 3.36c0 .05-.27.11-.36.07s-.34-.22-.37-.37c-.72-3.56-1.08-4.31-3-6.23-.91-.89-.93-.93-2.57 0a1.48 1.48 0 01-1.85-.13c-1-.72-1.11-.65-1.14.38a18.91 18.91 0 000 2.13c.05.65-.28 1.1-.81 1.09-1.27 0-1.37.67-1.37 1.67s.36 2.07-.73 2.92-1.79 1.12-2.22.5a1.29 1.29 0 01.26-1.83c.19-.18.42-.59.34-.73-.33-.57-.92-.34-1.42-.3-.14 0-.25.24-.38.36s-.26.25-.38.38c-.25.3-.75.21-.71-.2.15-1.49-.8-1.65-1.86-1.86-.18 0-.26-.57-.38-.88-1.82-1-1.84-1.17-3.73-1-1.27.11-1.63-1.22-2.7-1.14v2.63c0 .13-.19.29-.33.38s-.31.08-.35 0c-.91-1.19-2.58-1.81-2.64-3.65 0-.46-.4-.42-.72-.17a3.29 3.29 0 00-1.33 3.16c0 .53-.36.86-1 .87s-1-.28-1.08-.82c-.09-.72-.07-1.43-1.35-1.76-.78-.92.19-1.2-.45-.88-.12.06-.06.22.19.46a.79.79 0 01.23.43c-.08-.14-.15-.29 0 0-1 2.91-1 2.9 0 6.06a6 6 0 01.25 2 2.51 2.51 0 00.89 2.33 2.49 2.49 0 011.28 2.67c-.14.6.29.94.61 1.36.51.68 1.57.95 1.53 2a2.57 2.57 0 01-3.15-2c-.36-1.53-.73-1.17-1.48-.38-.07.07-.69-.19-.69-.31 0-.49-.24-1.05.33-1.45a3.34 3.34 0 00.62-.71c-1.57-1.4-1.4-3.8-3-5.18-.38-.34-.66-.79-1.31-.7s-1.09-.35-1-.91c.44-1.83-1.8-3-1.18-4.91.1-.32-.86-1-1.39-1.48-.07-.06-.54.2-.71.4-.52.64-1 .25-1-.21-.09-1.45-.92-2.15-2.44-2.94-.78-.91.19-1.2-.45-.88-.12.07-.06.22.19.46a.83.83 0 01.23.43c-.08-.14-.15-.28 0 0-.1 2.08 1.09 3.25 1.78 4.48a4.49 4.49 0 01.62 2.36c-.67.18-.87-.48-1.29-.74-.78-.49-.79-.47-1.83.11s-1.15.63-1.16-.4a35.9 35.9 0 00-.05-3.74c-.05-.52-.75-.7-1.29-.56-.29.07-.75.35-.77.56a24.55 24.55 0 000 3.21c0 1-.42 2.18.77 2.9.1.06.13.24.19.37-1.61.76-.48 2.62-1.48 3.68-.47.49 0-.44-.57 0a14.92 14.92 0 000-2.59c-.09-.5-.58-.7-1-.12s-1.08.55-1 0c.12-1.33-.86-1.81-1.53-2.51-.49-.5-1.18-.12-1.76.9-.67-.17-.93.39-1.26.75s-.56.38-.75-.11a3.31 3.31 0 01-.13-1c0-.65 1.37-.74.74-1.53a3 3 0 01-.79-1.82c0-.5-.73-.68-1.27-.57a.88.88 0 00-.83 1.07 9.37 9.37 0 010 1.06c-.31-.12-.83-.19-.88-.38-.21-.82-.27-1.67-.42-2.5 0-.11-.26-.29-.35-.26s-.36.22-.37.35c-.07.69 0 1.4-.16 2.08 0 .23-.38.42-.61.6 0 0-.37-.26-.35-.36.29-1.47-.63-2.56-1.1-3.81-.2-.54-.32-1-.87-1.07-1.89-.34-2.57-1.51-2.42-3.34 0-.28-.28-.59-.44-.88-.2.22-.59.45-.58.66.09 1.85-.49 3.77 1 5.47.44.51 0 1.73.09 2.61s.9.86 1.59.83h.54c0 .17-.07.44 0 .49 1.69 1.2 2.17 1.8 3.2 4.12.21.47.45.87 1.07.75.13.9-.71 1.16-1.14 1.66-1.51 1.74-1.46 2.79.26 4.43.52.49.59.5.85-.56.13-.48.13-1.16.65-1.08s.75.71 1.16 1.07c.8.71-.22.8-.41 1.12a1.65 1.65 0 01-1.77.87 2 2 0 00-.54 0c-1.12.13-1.49.76-1.07 1.73s.36 1.73-.39 2.27c-.11.08-.28.2-.37.17s-.36-.23-.37-.36c0-1.24 0-2.49-.07-3.73s0-1.26-1.07-3.3c-.61-.38-.28.67-.54 0-.18-.46-.55-.94-.5-1.37a4 4 0 00-1.75-4.08c-.42-.3-.5-.51-.11-.76 1.45-.94 0-1.3-.38-1.88-.09-.15-.33-.38-.36-.36-.23.16-.61.36-.62.57-.07.88 0 1.77 0 2.66s.06 1.75.09 2.63c1.75.81.21 3.16 1.87 4 .6 1.74 1.54 3.32 1.34 5.35a4.16 4.16 0 01-1.44 2.63c-.74.78-.73.78.54 1.32.6.25 1.16 1.32.78 1.58-1.27.86-1 2.12-1.11 3.3 0 .14-.33.38-.35.36a1.82 1.82 0 01-.63-.6c-.13-.3 0-.93-.14-1-1.45-.37-2.46-1.93-4.17-1.54l-.41-.16.34-.28.07.44c.24 1.41-.2 2.28-1.77 2.36-.14 0-.25.56-.37.86a9.18 9.18 0 012.14 3.6v3.2c0 .65 1.33.65.75 1.55-.27.42-.92.62-.75 1.29-.29.12-.81.19-.85.37-.19.79-.23 1.63-.36 2.44a.59.59 0 01-.36.35c-.09 0-.28-.15-.36-.27-1.81-3-1.81-3-5.57-5l-.44-.07-.1-.42-.09.43-.44.06c-.86 0-1.78.21-2.35-.74-.25-.42-.54-.4-.73.09a1.83 1.83 0 00-.12 1c.3 1.3-.67 1.88-1.38 2.62-.24.25-.48.14-.76-.26s-1.15-.44-1 0c.55 1.78-1.19 2.79-1.23 4.33a.38.38 0 01-.71.21c-.11-.12-.28-.28-.26-.41.11-.83-.28-1.68.42-2.48 1-1.21 1-2.42-.22-3.63-1.42-1.45-3.29-2.59-3.76-4.79a2.92 2.92 0 00-.73.36c-.09.07 0 .33 0 .51 0 .52-.23 1.22-.71.8a2.77 2.77 0 00-2.34-.8c-.58.07-1.24-.2-1.2-.67.26-2.56-1.95-4.18-2.39-6.46 0-.17-.56-.25-.87-.38-.06-1.18-1.24-1.51-1.78-2.32s-1.48-.93-1.43-2c-.65-.16-.94.36-1.24.73s-.57.48-.73 0c-.28-.92-.17-2.15-1.75-1.8-.08 0-.42-.62-.38-.65 2-1.68.22-2.56-.76-3.59-.08-.09-.33 0-.5 0-.06-1.35.42-2.85-1.07-3.81 0-1.54-1.7-2.61-1.1-4.35.36-1-.64-1.49-1.16-2.16-.33-.42-.54-.5-.77 0-.54 1.05-2 .41-2.58 1.49-.19.37-.54.31-.73-.16-.12-.31.06-.88-.12-1-1-.64-.66-2.13-1.76-2.66-.76.94-.19 2-.35 3.05a7.49 7.49 0 000 1.06 5.52 5.52 0 01-.9-.38 5.73 5.73 0 01-.76-.64 2.77 2.77 0 00-.46.86c-.08.52.05 1.07-.05 1.58-.06.28-.4.68-.64.69-1.23.07-2.47 0-3.71 0-1 0-1 .75-1 1.46a3.34 3.34 0 000 1.05.94.94 0 001.18.7 4 4 0 00.87-.46c-.2-.25-.41-.49-.61-.75-.42-.57-.48.33-.34-.36a1 1 0 01.76-.53 2.61 2.61 0 011.35.55 1.37 1.37 0 002.21-.12c.79-.84 1.55-.59 2.17.21.33.41.44.4.79.09s.39-1.12 1.11-.39c.95 1 1.19 1.38.91 1.47-1.26.4-.11 2.67-2.08 2.47a31.72 31.72 0 00-4.25 0 1.05 1.05 0 00-.81.49 1.46 1.46 0 00.25 1.45 4.76 4.76 0 002.58 1.5c.41.09.31.43-.11.74s-.69.53-.18 1.14a2.75 2.75 0 002.75 1.08v1.07c0 2.34 0 2.34 1.89 4.56.24.28.2.52-.24.75a1.22 1.22 0 01-.51 0c-.18 0-.44.08-.52 0-.58-.62-1.65-1.33-1.59-1.91.21-2.2-1.45-3.07-2.6-4.31-.57-.61-1.52-.17-1.75.92s-.53 1.18-1.18.39a1.14 1.14 0 00-1.4-.39 4.17 4.17 0 00-1.67 1.88 15.92 15.92 0 00-.1 3.18 3.23 3.23 0 01-.56 1.36c-.63 1-1.06 1-1.87.18-.34-.36-.93-.61-.76-1.28a4.69 4.69 0 01-.86-.35 4.77 4.77 0 01-.72-.7 4.28 4.28 0 00-.54 1.23c-.08 1 0 2 0 3-1.08 0-1.52-1.48-2.74-1.12-.6-.8-1.74-1.21-1.61-2.57.05-.46-.69-.7-1.25-.59s-.94.4-.84 1.07a7.63 7.63 0 010 1.07c-1 .08-1-.63-1.1-1.35 0-.27-.35-.51-.54-.76-.17.28-.5.57-.48.84.1 1.32-.52 2.77.89 3.88.38.3-1.21.64-.6 1.43.43.56 1 1 1.47 1.51.77.92.18 2 .36 3-1.63-.18-2-2.52-3.88-2.27-.5-1-1-2.08-1.46-3.14-.13-.3.12-.8 0-1.05-.9-1.39-.87-3.9-3.64-3.22-.1 0-.34-.41-.44-.67 0-.06.22-.33.36-.35.35-.05.71 0 1.06 0 .15 0 .39-.29.36-.35-.1-.26-.31-.69-.44-.67-.83.09-1.77-.41-2.5.4s-1.06.67-1.18-.39c-.07-.67.4-1.53-.35-2a16.93 16.93 0 00-2.56-1c-1 1.79-1.57-.7-2.43-.25L219 226a2.81 2.81 0 01-1.35-1.35c-.06-.21-.11-.42-.17-.63-.16-.86.93-1 1-1.66 0-.36-.54-.75-.85-1.13 1.94-1.48-.34-1.75-.73-2.57-1.11.15-1.53-.29-1.55-1.45 0-1.63-.12-1.64-1.71-1.75-.7 0-1.46.05-1.47-1s.36-2.12-.08-2.59a11 11 0 01-1.62-3.1c-.93-1.9-2.27-3.64-2.72-5.78 0-.14-.24-.25-.36-.38-.2.25-.53.47-.56.73-.09.72-.05 1.45-1.1 1.37-.13-.76.45-1.77-.76-2.14-.31-.09-.82 0-.95-.15-1.1-1.58-3.16-1.85-4.35-3.26a3.15 3.15 0 01-.37-.88c-.28-.11-.81-.2-.81-.32 0-1.17-1.17-1.81-1.33-2.9-.31-.12-.86-.22-.88-.38-.15-1.51-1.86-2.54-1.28-4.29.42-1.28-.67-1.88-1.41-2.59-.07-.07-.68.18-.69.31-.05 1.06 0 2.13-.06 3.19 0 .13-.46.26-.72.31-.08 0-.28-.23-.31-.38-.06-.34 0-.7-.08-1a.63.63 0 00-.37-.36.39.39 0 00-.36.15 3.12 3.12 0 001.34 4c.67.26-.18 0 .36-.4s1.16-.93 1.21.28.06 2 1 2.81c.45.36 0 1.43-.72 1.57s-1.39.1-1.36 1.13v4.27a.82.82 0 011.05.76c.08 1.17 0 2.35 0 3.52-1.08.17-1.73 1.3-2.9 1.33-.11 0-.21.53-.31.82-.67-.12-1.17.37-1 .82a30.3 30.3 0 011.34 4.24 2.1 2.1 0 001.5 1.3c1.29.06 1.71 1.08 2.47 1.72-.26 1.44 1.61 2.21 1.13 3.82-.27.93-.36 2.19 1.4 2.08.37 0 .8.61 1.17 1 .85.84.67 2.34 1.87 2.94s.56 2.4 1.88 2.95c-.09 1.91 1.75 2.46 2.62 3.69.37-.29 1-.9 1.08-.84.63.53 1.45 1.1 1.64 1.81.26 1-.09 2.11 1 2.78-.18.22-.35.63-.53.63-2.18 0-1.26.78-.46 1.64a1.15 1.15 0 010 1c-.28.61-.69.52-1.07 0-.11-.14-.28-.38-.37-.36-1.06.2-1.57-1-2.57-.94-.09.85-.22 1.7-.24 2.55a2.57 2.57 0 01-2.15 2.52 1.5 1.5 0 010 .52c-.46 1-2.76.11-2.14 2.16-1.46.25-2.41 1.79-4 1.61-.55-.06-1.11.06-1.28.58a5.06 5.06 0 000 1.56 4.9 4.9 0 01-3.12-3.09c-.4-1.67-1.46-1.24-2.32-1.16-2.25.21-2.24.29-3.1-.54a5.6 5.6 0 00-2.89-1.91c-.74-.13-.23-1.23-.36-1.87V243l-.19-.3-.25-.24-.29-.19H181c-1.62-.17-2-2.49-3.86-2.28-.11 0-.34-.54-.42-.85-.68-2.78-1.21-3.91-2.57-5.32-1-1-2.17-1.82-1.78-3.56.08-.32-.46-1-.86-1.17-1.41-.6-.57-3.37-2.92-3l-3-3c-.6-.63-1.15-1.3-1.73-1.94.67-1.56-1.2-2.51-1-3.81.31-2.32-1.89-4.11-1.17-6.49.13-.43-.52-.67-1.1-.78a2.33 2.33 0 01-2-2c-.09-.85-.88-1.09-1.05-1.7-.07-.26.6-.73.94-1.11a3 3 0 01-1.15-2.19c-.08-.49-.46-.5-.73-.1-.43.66-1.12.65-1.79.84-.39.11-.51 1.13-.78 1.72a.65.65 0 01-.35.26c-.4-.35-.74-.77-1.15-1.11-.76-.61 0-.87.3-1.11.66-.61.21-1.34.35-2-.65-.14-1.39.31-2-.36-1.13-1.28-2.87-2.22-2.33-4.4a1 1 0 00-.66-.4c-.59.16-.77 1.43-.65 2.24a6.18 6.18 0 002.24 4.46c.36.28.23 1.34.14 2-.06.43-.36.93-1 .29a3 3 0 00-1.33-.62c-1.33-.32-.67-.83-.12-1.27.37-.31.4-.68-.1-.73-1.21-.13-2-.46-1.74-1.9a5 5 0 000-1.59 2.83 2.83 0 00-.45-.88c-.2.22-.52.42-.58.68-.18.82.33 1.79-.55 2.44-.55.42-.33.69 0 1.16a20.59 20.59 0 011.16 2.18c.75 1.37.76 1.36-.86 2a1.15 1.15 0 00-.48 2A10.14 10.14 0 00145 210a1.43 1.43 0 01.5 1.82c-.28.6-.9.42-1.41.43-1.07 0-2.14.05-3.2 0-.22 0-.54-.45-.59-.73a5.71 5.71 0 010-1.6 2.83 2.83 0 00-.88-2.32c-1-1.13-1.74-2.49-2.71-3.65-.21-.25-1-.15-1.4 0-.19.05-.34.56-.36.87-.06.71 0 1.42 0 2.13l-.37.23-.18.39a.78.78 0 01.55-.62c1-.07.76.89 1.12 1.29 2.27 2.48 3.17 5.71 4.93 8.45.49.75-.12.8-.31 1.13-.49.86-.52 1.05 0 1.8.27.41.89.61.72 1.27 0 .21 0 .43.07.64.63 1.37 1.37 2.69 2 4.07 0 .22.07.43.1.65a7.21 7.21 0 010 1c-.26 1.62.5 2.94 1.92 3.15 1.73.27 1.21 1.31 1.3 2.24-.68.17-.93-.41-1.28-.77a1.11 1.11 0 00-1.42-.21c-.68.59-1.16 1.23-1.93.12-.91-1.34-2.54-1.59-3.83-2.33-.2-.11-.66.1-.93.27s-.14.45.24.75.73.79 1.15 1.11c.63.49.28.86-.14 1.13s-.64 1.42-1.5.48c-.48-.53-.92-1.27-1.52-1.45a3.66 3.66 0 01-2.18-1.19c-.38.69-.74 1.4-1.15 2.08 0 .08-.34 0-.51 0 .34-1.4-.47-2.26-1.45-3-.1-.07-.47.21-.71.34-.91.49-.95.48-1.06-.59v-1c-.87 0-1.79-.2-2.36.75-.24.4-.69.36-.72-.12-.12-1.76-.08-3.53-.16-5.29 0-.21-.38-.51-.63-.57-1.37-.35-2.5-1.14-2.51-2.37 0-2.19-1.52-3.68-2.3-5.48a9.33 9.33 0 00-3.53-3.82 13.34 13.34 0 00-4.88-2.28c-1.82-.26-2.83-.8-3.32-2.57a3.3 3.3 0 00-1.33-1.55c-.74-.52-2.29-.14-1.84-1.84-.62-.64-1.51-1.17-1.8-1.93-.54-1.4-1.43-2.6-1.94-4a37.77 37.77 0 01-4.26-.07c-.63-.07-.48-.71 0-1.05s.48-.49.24-.77c-.52-.59-2 .17-1.87-1.25.06-.89-.71-1.15-1.08-1.71-.08-.12 0-.35 0-.52a4.89 4.89 0 01.77-.51 5.71 5.71 0 00-.77.51c-.18 0-.44.07-.52 0-.56-.64-1.4-1.25-1.55-2-.25-1.21-1.2-1.68-1.87-2.43s-.16-1.67-1.07-2.25.24-2.09-.77-2.84-.65-2-.61-2.93-.68-1.53-1.26-2.16c-.12-.13-.25-.25-.37-.37-.19.26-.53.54-.53.8 0 .83-.35 1.79.55 2.43.65.46.23.79-.13 1.13-.6.56-.75 1.31-.12 1.78 1.11.83.66 1.91.71 2.91 0 .12-.59.43-.66.36-.67-.58-1.26-1.25-1.92-1.84-.41-.38-1.39 0-1.67.65-.19.45-.34.92-.51 1.38-.49-.3-.45-.82-.6-1.3s-1-1.15-1-1.69c.12-2-2.24-.73-2.53-2.09 0-.16-1.81 1.06-1.82 1.39v3.73c0 .68.48.88.78 1.28.49.67 1.56 1 1.37 2.08s.49 1.93 1.08 2.76c-.66 1 1.79 1.53.42 2.39-.88.55-1.52-.54-2.13-1.13-.26-.25-.49-.52-.76-.74-.08-.07-.34-.09-.36-.05a3.56 3.56 0 00-.44.81 6.24 6.24 0 000 1.06c-1.23-.08-1.56-1.33-2.43-1.89s-.86-1.47-.78-2.35a.88.88 0 00-.82-1.09c-.54-.06-1.36-.19-1.27-.59.28-1.28-1.25-1.65-1.16-2.79 0-.51-1.3-1.94-1.89-2.33-.42-.27-.62-.92-1.3-.75 0 2.14.15 2.09 1 4.39.34.91.81.92 1.51 1 .21 0 .38.41.57.62-.3.14-.58.31-.89.42-1 .34-1.09.37-.56 1.07.27.36.53.64.25.75a4.62 4.62 0 01-1.44.23c-.12 0-.35-.23-.36-.36-.12-2.23-2.41-2.87-3.31-4.51.38-1.21-1.1-1.61-1.14-2.76 0-1.36-1.32-.69-2.08-.85 0 .54-.21 1.37 0 1.55 1.22.87 1 2.58 2.1 3.44a4 4 0 001.05 3.31 1.1 1.1 0 01-.16 1c-.65.82-.81-.19-1.09-.41a2 2 0 01-.82-1.23c0-1.09-.07-2-1.07-2.79-1.43-1.08-2.56-2.37-2.31-4.39 0-.22-.56-.46-.7-.76-.48-1-1.25-2.12-1.24-3.19 0-1.52-1.42-2.32-1.41-3.72-1.14-.66-.81-2.16-1.81-3.05-.57-.5.31-2-.81-2.82-1-.7.15-2-.73-2.91-.56-.55-.63-1.61-1.2-2.13-1-.88-.19-2.05-.74-2.91-.15-.23-.58-.27-.89-.39l-.65-.21a6.51 6.51 0 01-2.36-2.36l-.21-.65c.13-.3.17-.72.4-.89.49-.37 1.5 0 1.63-.79 0-.33-.83-.73-.92-1.18-.44-2.13-2.49-3.64-2.23-6.05 0-.36-.59-.81-.94-1.19s-1.12-.82-1.07-1.12c.32-1.86-.83-2.89-1.9-4.08a2.72 2.72 0 01-.29-2c.25-1.64-.58-2.95-1.08-4.38-.28-.8-1.4-1.17-1.09-2.21.36-1.22-.92-1.8-1-2.77s.06-2.14 0-3.2.57-2.46-.6-3.5c-.94-.83-.25-2-.46-3a2.38 2.38 0 00-.31-.93c-.33-.42-.79-.73-1.11-1.15-.62-.8-2-1.23-1.75-2.45.34-1.7-1.8-2.62-1.15-4.39.23-.63-.14-1.47.08-2.11.49-1.45-1.39-2-1.1-3.31a2.43 2.43 0 00-1.39-2.61c-.88-.58-.47-1.67-1.12-2.22a2 2 0 01-.74-1.84c-1.33-.72-1.06-2.45-2.22-3.39a10.49 10.49 0 01-3.14-3.47c-.64-1.35-1.56-2.63-2-4-1.17-3.29-3.47-6-4.4-9.41a1.15 1.15 0 00-.72-.62 1.76 1.76 0 00-1 .13c-.51.2-.45.42-.06.76s1.08.5.32 1.12a3.45 3.45 0 00-.55.75c1.53 1 1 2.57.9 3.87-.18 1.57 1.45 2.31 1.39 3.75 0 .09.58.27.9.3 1 .11 1.32 1.1 2 1.58-.58 1.42 1.72 1.85 1.13 3.27 1.3.56.7 2.33 1.89 3s1.13 2 1.86 3c.5.64.66 1.56 1.19 2.16s.31 1.32.4 2-.05 1-.69 1c-.15 0-.34-.56-.37-.87-.06-1-.4-1.27-1.13-.47-.33.37-.51.49-.77.19-.44-.53-1.29-1.09-1.25-1.58.1-1.34-.82-2.22-1.07-3.32s-1.32-1.7-1.92-2.54-.47-2-1.47-2.59c-1-3.07-1-3.1-3.22-4.77-.16-1.16.46-2.47-.74-3.43-.67-.53-.27-1.32-.32-2a10.32 10.32 0 00-.13-2.63c-.16-.42-1.52-.38-1.68-.8-1-2.63-3-4.85-3.48-7.62-.26-1.38-1.24-2.34-1.51-3.65-.09-.44-.85-.61-.72-1.3a2.61 2.61 0 00-1.07-2.75c.44-1.24-1.25-1.63-1.06-2.77a2.21 2.21 0 00-.83-2.34s.19-.68.32-.69c.88-.06 1.77 0 2.67 0 0-1.23.33-2.61-.1-3.67s-1.63-1.79-2.5-2.67c-.49-.5-1-1-1.48-1.51a.4.4 0 010-.35 3.46 3.46 0 01.9-.36 6.25 6.25 0 011.06 0c.13.3.23.86.38.87a2.88 2.88 0 012.75 2c.34 1.6 1.7 2.16 2.48 3.27.07.1.24.14.37.21a3.3 3.3 0 00.39-.94 2.74 2.74 0 00-1-2.82 1.06 1.06 0 01.31-1.4c.56-.38 1.76-.15 1.72.42-.08 1.07.75 1.5 1.13 2.24.77 1.49 1.58 1.84 3 1.13.44-.23.61-.92 1.29-.75.12.3.24.86.36.86 1.37 0 2.07 1 2.88 1.87.32.33.56.51.73.25a1.7 1.7 0 00.3-.91c0-1-1.38-1.44-1.09-2.69a11.18 11.18 0 000-2.59c.3.12.77.16.86.37.54 1.16.95 2.38 1.49 3.55.1.21.57.25.86.37a9.45 9.45 0 010-1.6c0-.15.6-.38.7-.3.79.67 1.61 1.35 1.55 2.56 0 .12.22.31.37.35s.33-.17.35-.29c.25-1.35.6-2.76-.37-4-.65-.8-.43-2.07-1.49-2.6a2.46 2.46 0 00-1.14-2.21 2.75 2.75 0 001.16-2.2.37.37 0 01.7-.2 11.91 11.91 0 011.3 3.19c.41 2.91 2.77 4.93 3.3 7.76 0 .23.5.42.8.54s.84 0 .95.24c.5.87.56 2 1.53 2.58s2 .45 2.61 1.49c.73 1.3 2.46 1.09 3.41 2.11.14.15.69 0 1-.13a1 1 0 00.36-1.39 3.88 3.88 0 01-1.13-2.25c0-.57-1-.67-1.76-.21-.3.17-.7.73-.74.7a11.68 11.68 0 01-1.51-1.39c0-.05.27-.59.47-.63.52-.09 1.07 0 1.6 0 1.17-.11 1-.61.3-1.2-.13-.12-.37-.25-.36-.38 0-1.23.12-2.48-1.11-3.29.19-1.53-1.24-2-1.93-3a.44.44 0 010-.37c.08-.15.23-.34.37-.36.35-.05.94-.14 1 0 .6 1 1.84.86 2.62 1.49l-1 1.14c1.25.8 1 2.07 1.12 3.27 0 .19.54.47.83.48.86 0 1.32.34 1.24 1.24a2.8 2.8 0 00.82 2.36 2.75 2.75 0 002.4.71c.12.3.16.72.39.88.5.38 1.49 0 1.65.78.06.3-.79.7-.94 1.15-.33 1 .62 1.5 1.16 2.15s.87-.07 1.1-.33.52-.44.78 0c.09.15.27.24.37.38.26.37.64.36.72-.13.15-1 .57-2.15-.51-2.84-1.83-1.18-1.5-3-1.49-4.68 0-.14.22-.39.3-.38a3.75 3.75 0 01.76.3c-.63 1.42 1.59 1.8 1.18 3.27-.09.34.87 1 1.42 1.46a7.4 7.4 0 012.25 3.31h.51c0-1.59.17-3.2-1.5-4.19-.3-.18-.49-.54-.77-.74-.9-.64-1-1.26 0-1.91 0 0 0-.26-.1-.36-.48-.65-1.95.16-1.89-1.26 0-.93-.7-.88-1.23-1.26A8.25 8.25 0 0042 56.62a.47.47 0 01-.28-.35.6.6 0 01.36-.37 8.18 8.18 0 001-.16c.46-.19.94-.49.24-1-.55-.39-.77-1.27-1.67-1.14-.12-.3-.16-.74-.38-.88-1.93-1.24-1.89-3.12-1.71-5.05 0-.14.21-.29.36-.36a.39.39 0 01.36.11c.5.65.17 1.73 1.11 2.17a3.89 3.89 0 003.27 3.3c.43.11.61.88 1.5 1.09.23.34.18.2.06 0 .05.14.11.28-.06 0-.22-.92 0-1.71-.26-2-1.35-1.21-2.43-2.48-2.27-4.46 0-.11-.57-.39-.86-.38-1 0-1.18-.6-1.11-1.36.1-1.23-.11-2.1-1.65-2-.14 0-.47-.53-.48-.82 0-.59-.16-1.15-.7-1.23-2.74-.36-2.59-2.35-2.54-4.31v-.45a1 1 0 01.6-.63h1.52c.1.63 0 1.47.33 1.84a10.84 10.84 0 012.41 3.51c0 .06.31 0 .48 0h.44a.89.89 0 01.61.61v.44c.14.65-.39 1.76.37 1.89 1.35.22 2 1.2 2.93 1.91s1.6 2.35 3.13 2.63l.66.09c1.49.55 1.48 2.34 2.62 3.12 0 0 .34.12.33.08s.34-.06.34-.06h.34a8.34 8.34 0 001.5 0c.21 0 .55-.55.52-.58a9 9 0 00-1.4-1.43c-.83-.61-.59-1.45-.62-2.25.65-.16.86.44 1.26.71a5.24 5.24 0 00.88.36l.45.07.09.42.1-.43.44-.06c.89-.13 1.15.71 1.65 1.14 1.64 1.42 2.62 1.39 4.4-.23.95-.86 1.16-.85 1.89.06a7.9 7.9 0 01.62.81 6.07 6.07 0 004.3 2.51c-.08-1 .46-2.25-1.37-2.18-.53 0-.83-.46-.8-1.1 0-.29-.25-.85-.4-.85-1.23-.05-1.61-.61-1.9-1.84s-1.62-2.23-1.85-3.45c-.16-.85-2.15-1.85-.18-2.85-1.54-1.16-.88-2.83-1-4.32 0-.12.26-.38.34-.36.25.08.7.3.68.39-.2 1.08.54 1.65 1.22 2.16.51.38 1.34.38 1.76.81a5 5 0 01.79 1.78 6.33 6.33 0 002.27 3.32c1.08.72 1.26 2 1.91 2.93a23.26 23.26 0 002.59 2.67c.51.54-.16 1.93 1.62 2.16-.33-1.22-.12-2.16-.39-2.94s-1.24-1.14-1-2.2 0-1.67-1.28-1.68c-.41 0-.79-.58-1.21-.84-.92-.58-.71-1.48-.71-2.33v-.31a3 3 0 00-.08-.32 4.85 4.85 0 01-.52-.49 1.75 1.75 0 01-.41-.64v-.38c-.13-1.28.41-2.66-.94-3.73-.34-.27 0-1.28-.15-1.93a.86.86 0 00-1.06-.78.8.8 0 01.81-1 1.76 1.76 0 011.29.54c.26.34-.13 1 .39 1.4s.89.61.73 1.26.43.88.74 1.25c.45.53.94 1.06 1.72.85.27-.07.47-.37.7-.57-2-1.66-.62-3.9-1-5.84a5.84 5.84 0 011.45 0 .84.84 0 01.7 1 .84.84 0 001-.7 5.76 5.76 0 000-1.44c.89-.13 1.13.71 1.64 1.13s1.43 1 1.44 1.49c0 1.71 2 2.17 2.15 3.34s1.25 1.6 1.23 2.72.57 1 1.16.31.86 0 .92.37c.12.71.07 1.44 1.1 1.36a2.51 2.51 0 001.08 2.7c-.48 1.24 1 1.63 1.11 2.7.12 1.47 1.43 2.04 2.23 2.93.67.7 1.16 1.74 2.51 1.57.43-.05.55.71.59 1.26a.88.88 0 001 .85 6.39 6.39 0 003.23-1.09 20.49 20.49 0 010-2.48.83.83 0 011-.74c0-.53.21-1.38 0-1.54-1.32-.89-.67-1.57 0-2.38.19-.22 0-.74.15-1 .53-.82.78 0 1.11.26.59.4-.32.49.37.32.23 0 .45-.5.53-.81.2-.83-.49-1.23-1-1.72.88-.79 1-1.55-.09-2.26l1-1.13c-1.64-1.18-.58-3.8-2.62-4.79-.76-.38-.54-1.23-.51-1.9.06-1.31-.77-1.34-1.71-1.28a3.13 3.13 0 01-.53 0 1 1 0 01-.68-1.84c1-1.11.68-1.26-.54-1.41-.62-.07-1.13-1.14-.82-1.56.47-.62 1.33-.9.31-2a7.44 7.44 0 01-1.33-2.6c-.33-.92.14-2.12-1-2.79.16-.23.27-.59.47-.66s.86-.14 1 0c.72.91.75 2.27 1.91 2.92a1.26 1.26 0 001.8-.34c.09-.11 0-.34 0-.52.29-.11.67-.15.85-.35a1.68 1.68 0 00.22-.91c.14-2.4.13-2.4 1.08-4.1 1-.08 1 .61 1.09 1.33a.83.83 0 001 .82c2.43 3.23 4.13 6.57 1.91 10.68-.33.6.14 1.37.86 1.72a4.37 4.37 0 001.13.23c1.88-.19 2.69-1.18 1.45-2.74-2.39-3-2.89-7-5.35-9.89a7.63 7.63 0 000-1.07c-.09-.67.3-1 .85-1.07s1.25.1 1.25.6c0 1.1.33 1.58 1.5 1.58.51 0 .59.63.74 1.16a2.6 2.6 0 002.1 2 23.46 23.46 0 011 2.21c.16.43.06 1.07.79.73.2-.09.22-.59.3-.9s0-1.13.82-.67 1.18 1.77 2.4 1.85c.14 1.13 1.58 1.81 1.1 3.18a1 1 0 00.31.87c1.75 1.17 1.87 3.57 3.61 4.74.69.47.22 1.28.34 1.92l-.09.34-.25-.25.34-.09c.3-.12.84-.21.86-.36.09-.82.39-2 0-2.43-1.24-1.41-1.29-3.4-2.52-4.74-.53-.58-.26-.88.22-1s1.39-.05 1.31.41c-.23 1.39 1.26 1.88 1.33 3.2 0 1.06 1.83 1.47 2 2.79v.35l.19.29.25.25.29.19h.57a2 2 0 011.3.4 11.1 11.1 0 01-.23-2.54 2.44 2.44 0 012.08 1.9 2.9 2.9 0 002.21 2.39c.07 1.92.07 1.92 1.85 2.14a3.94 3.94 0 011 .17c.51.2.3.36.05.75-1.07 1.67-1 2.53 0 3.58.86.88 1.75 1.73 2.59 2.61s.86-.07.91-.41c.11-.71.08-1.42 1.1-1.34a15.11 15.11 0 010 2 3 3 0 001.3 3c.65.46.91 1.46 1.94 1.41l.52.33a13.31 13.31 0 002.09 1.23l.52.31.56.2.59.07a2.65 2.65 0 00.89-.37c.67-.7 1.41-1.19 2.17-.28s1.89.57 2.88.6c.12 0 .28-.21.35-.36s0-.34-.11-.35a8.07 8.07 0 01-3-1.81c-1.19-.91-.82-2.68-2.18-3.34s-.73-2.27-1.84-2.92a5.7 5.7 0 00-3.49-4 4.68 4.68 0 010-.53c0-.49-.24-1.12.37-1.41.15-.07.53.2.73.38.52.48 1 1 1.51 1.48s1.56-.06 1.68-.64c.56-2.63-.92-4.25-2.76-5.71-1.34.29-1.89-.82-2.51-1.57A4.19 4.19 0 00133 29c-.54.08-1.13 0-1.31-.56a5.19 5.19 0 010-1.58c.66-.17.93.39 1.26.76s.63.39.73-.11c.19-1 .49-2-.44-2.86s-1.52-1.47-2.24-2.24c-.2-.23-.44-.65-.36-.88.47-1.4-1-2.11-1.09-3.26a9.2 9.2 0 010-1.05c3.57-.5 2.78 2.84 3.94 4.46a7.16 7.16 0 00.54 1.24 7.16 7.16 0 01-.54-1.24c-1.17-1.62-.37-5-3.94-4.46-.89.13-1.1-.76-1.66-1.13s-.18-.85.18-1.11.68-1.4 1.49-.44c.52.62 1.3.86 1.78.28.87-1.06 1.34-.47 1.93.19.08.1.33 0 .5.06s.42.07.52 0a1.87 1.87 0 00.43-.66 6.56 6.56 0 01-1.85-3.49c-.34-1.53-2.21-1.79-2.25-3.34.53 0 1.29-.23 1.56 0 1.3 1.3 3.26 2.24 2.78 4.68-.08.41.42.52 1 .17 1.55-.9 1.65-.89 3.2 0 .56.31 1.05.37 1-.13 0-1.18.5-2.45-.36-3.55-.2-.24-.58-.68-.54-.72.84-.88 1.72-1.73 2.59-2.58.17.29.46.56.48.86 0 .52.13 1.18.63 1.11s.39-.84.5-1.34c0-.21.41-.36.63-.54.73 1.42 2.21.65 3.24 1.14.22.1.26.58.12 1.29l-.27.41a5.46 5.46 0 01.53-.82c-.11-.07-.21.06-.28.4 0 .16-.12.31 0 0 1.5-.32 1.85.89 2.69 1.49.28.2.68.17.72-.27C151 8.11 151 7 151 6c0-.14.25-.39.33-.37A1.73 1.73 0 01152 6c-.4 1.39 1.36 1.88 1.3 3.27 0 .75.67-.07 1-.25s.61-.25.92-.38l.43.28a6.74 6.74 0 01.14 1 2.19 2.19 0 00.46.83 2 2 0 00.5.72 2.76 2.76 0 00.64.43l.22.23c-.02-.02.23.19.2.16l-.27-.23-.3-.26a1.85 1.85 0 01-.69-.55c-.17-.28-.34-.55-.52-.82a1.85 1.85 0 01-.18-1.49l.44-.29c.66-.17.86.46 1.28.73.94.63 1.73.49 1.89-.53.21-1.27.37-1.4 1.42-.52A13.81 13.81 0 00164 9.68a2.88 2.88 0 012 2.14c-1-.09-1.23.71-1 1.36a3.51 3.51 0 001.32 1.57 9.12 9.12 0 012.82 4.19c.88 2 2.49 3.18 4 4.52.08.07.93-.8 1.06-.71a6.12 6.12 0 011.46 1.5c.28.39 2.63 2.49 2.94 2.88a2.56 2.56 0 002.38.77c.78 0 1.5-.8 1.11-1.31-.92-1.21-1.11-2.86-2.41-3.83a2.5 2.5 0 01-.84-1.25c-.38-1.09-.52-1-1-.54a15.06 15.06 0 00-1.13 1.13c-.64.74-.88.07-1-.34-.12-.7 0-1.45-1.1-1.37a7 7 0 00-.07-2.63c-.34-.74-1.2-1.24-1.05-2.24-1.09-.66-1.12-1.7-1-2.78a2.84 2.84 0 00-.82-2.36 2.42 2.42 0 01-.06-2.46c.08-.21.57-.27.88-.39h1.07c.65.13 1.39-.31 1.95.34s1.12 1.2 1.22-.12.72-1.35 1.68-1.31c.69 0 1.6-.1 1.53.85-.15 1.17 1.3 1.51 1.06 2.71-.08.46.48.7 1.08.77 2 .24 2 .29 2.09 1.87a11.25 11.25 0 00.21 2c0 .18.56.25 1 .61a1.73 1.73 0 01-.06 1.24 2.7 2.7 0 00-.14 2c-.5-1.07.36-2 .31-3l-.11-.24a16.81 16.81 0 01-.1-2.36c0-.77.75-1.41 1.32-1.07 1.15.69 2.22 1.92 3.4.07.79.88 1.55 1.05 2.25-.09.12.12.31.23.36.38.1.32.06.68.19 1a3.23 3.23 0 00.56.73c.17-.28.46-.57.47-.85 0-.84.25-1.72-.58-2.41s-.59-1.54.2-2.16c.41-.32.49-.51.07-.76-1-.56-.74-1.49-.74-2.34.65-.17.86.44 1.26.7a4.55 4.55 0 00.88.37c-.16-.66.5-.85.71-1.28s.47-1.26.32-1.36c-1.44-1-1-2.46-1-3.79a20.49 20.49 0 012.48 0 .83.83 0 01.74 1.05v.39l.39.12.43-.09.38-.24c.23-.26.46-.5.7-.75a2.14 2.14 0 011-.4 2.82 2.82 0 011.23.36c2.26 1.11 3.75 3.05 5.37 4.83a1 1 0 010 1.23 2.48 2.48 0 01-2.17 1.76l-.33.12-.19.07h.05a1.57 1.57 0 00.26-.1l.39-.13A2 2 0 00207.51 7c.29-.57.71-1.13.09-1.75a1.87 1.87 0 01-.34-1.87 2.08 2.08 0 011-.78h.69l.6.36a23.44 23.44 0 011.87 2l.51.32.58.12h.6a5.89 5.89 0 013.33 3.6c.5 1.65 2.44 1.94 3.88 2.61.72-1.13 1.27-.55 1.88.14.34.39.65.65.09 1.14-.93.81-.64 1.87-.37 2.85.06.19.57.25.87.37.14.66-.31 1.39.36 2A19.52 19.52 0 01225 20c.62.72.8-.05 1.14-.26 1.06-.63 2-.44 2 .44 0 1.74-.08 3.49-.19 5.24 0 .14-.57.25-.87.37-1-.62-1-1.87-1.63-2.67a1.8 1.8 0 00-.75-.65 2.3 2.3 0 01-.35-.1s-.28.19-.17.15 0-.08.07-.07.19 0 .27 0a1.32 1.32 0 01.36 0 6.29 6.29 0 01.67.72c.57.84.59 2 1.53 2.55a2.42 2.42 0 01-1 2.63 5.65 5.65 0 01-.69.43c-1.34-1.57-3.14-.68-4.72-.92a.84.84 0 00.84 1.06c1.21.1 1.68.38.51 1.35a.74.74 0 00-.17.36c2.4 1.45 2.06 3.81 2.06 6.07 0 .27.42.8.54.77 2.35-.56 1.13 2.21 2.54 2.68s.91 2.57 2.27 3.26c.23.12.5.21.75.31.1-.32.22-.62.3-.94s.1-1.19.79-.67a3.2 3.2 0 001.82.81c.62 0 .8 1.17 1.68 1a1 1 0 00.63.57l.32.13s.27.17.2.1-.07.08-.13 0-.13-.18-.18-.21a2.44 2.44 0 00-.32-.11 1 1 0 01-.52-.52c0-.18-.07-.46 0-.51 2.12-1.39 2.13-1.39 2.14-3.27v-2.56c.65-.16.93.36 1.23.73s.5.44.76 0-.16-1.85 1.22-1.76l.67.2a3.77 3.77 0 012 4.36v.44c0-.05.41.14.43.09a.7.7 0 01-.12-.94c1.78-1.46 0-3 .2-4.52v-.7c-.13-.88.67-1.14 1.1-1.62.56-.63.75-.62 1 .61.19 1 .72 1 1.42 1 .26 0 .48-.36.73-.55-1.66-1.09-.51-3-1.15-4.19-.47-.91-1.1-1.65-1-2.74h1.06c2.37 0 2.37 0 4.3 1.07h.12l-.09.08v-.12c-.07-1 .45-2.15-1.37-2.2-.95 0-.94-.3 0-1.28s.76-.72 1.54-.13c.94.7.53 2.1 1.49 2.59 1.35.69 1.12 2.75 2.35 3.07 1.4.36 1.84 1.57 2.87 2.15A1.31 1.31 0 00259 33c.28-.22.39-1.2 1.12-.42a19.86 19.86 0 002.67 2.6c.52.36.61-.36.73-.84.27-1.17.39-1.17 1.12-.45 1.2 1.18 1.18 1.18.49 2.59-.8 1.6-.68 1.64 0 3.28.79 2 2.33 3.64 2.67 5.83a2.75 2.75 0 011.09 2.76c0 1 1.49 1.49 1.17 2.72 0 .09.24.25.36.38.2-.24.54-.46.57-.71.09-.72 0-1.46 1.1-1.38a6.24 6.24 0 000-1.06c-.24-1.44.29-2.1 1.78-2.43.74-.16 1.26-1.35 1.46.38.14 1.15 1.42 1.5 1.9 2.4.39.72.44 1.54 1.11 2.21s1.08.41 1.54-.17c.23-.28.48-.17.76.23.62.9 1.57.55 2.4.56a1.11 1.11 0 00.81-.52 1.14 1.14 0 000-1 16.17 16.17 0 00-2.61-2.62c-.89-.63-.07-2.84-2.15-2.26-.09 0-.35-.2-.37-.34-.23-1.34-.5-2.66.32-3.95.38-.59-.06.39.55 0a2.64 2.64 0 012.15-3.25z" fill="#231f20" fill-rule="evenodd"/></svg>