<svg data-name="Layer 1" xmlns="http://www.w3.org/2000/svg" viewBox="0 0 136.93 135.47"><defs><clipPath id="a"><ellipse cx="96.4" cy="8.53" rx="5.08" ry="6.44" transform="rotate(-84.88 96.392 8.534)" fill="#231f20"/></clipPath><clipPath id="b"><ellipse cx="107.65" cy="15.39" rx="2.81" ry="3.56" transform="rotate(-84.88 107.644 15.389)" fill="#231f20"/></clipPath><clipPath id="c"><ellipse cx="114.02" cy="22.2" rx="1.85" ry="2.35" transform="rotate(-84.88 114.022 22.205)" fill="#231f20"/></clipPath></defs><path d="M15.13 46.2c4.16 9.87 12.68 26 6.66 39.28-18.25 40.18 5.56 50.2 31.6 46.31 43.86-6.56 118.33-76.29 50.94-111.21C63.87-.39-2.88 3.44 15.13 46.2z" fill="#231f20" fill-rule="evenodd"/><path d="M8.25 56.08c5 0 11.77 11.82 10.85 21s-9.18 12.3-14.2 12.3 1-7.59 2-16.78-3.66-16.52 1.35-16.52zM125.53 85.31c4.43-11.13 15.44-6 4.05 8-6.09 7.47-15.36 14.91-21.48 18.14-3 1.56-8.14 3.24-8 2.13.2-1.35 18.71-11.42 25.41-28.23z" fill="#231f20" fill-rule="evenodd"/><ellipse cx="96.4" cy="8.53" rx="5.08" ry="6.44" transform="rotate(-84.88 96.392 8.534)" fill="#231f20"/><ellipse cx="96.4" cy="8.53" rx="5.08" ry="6.44" transform="rotate(-84.88 96.392 8.534)" fill="#231f20"/><g clip-path="url(#a)" fill="#231f20" fill-rule="evenodd"><path d="M90.58 2.85l-.91 7.79.7-7.81.21.02z"/><path d="M90.58 2.85l-.91 7.79.91-7.79z"/><path d="M90.58 2.85l-.91 7.79.91-7.79z"/><path d="M90.58 2.85l-.91 7.79.91-7.79z"/><path d="M90.58 2.85l-.91 7.79.91-7.79z"/><path d="M90.58 2.85l-.91 7.79.91-7.79z"/><path d="M90.58 2.85l-.91 7.79.91-7.79z"/><path d="M90.58 2.85l-.91 7.79.91-7.79z"/><path d="M90.58 2.85l-.91 7.79.91-7.79z"/><path d="M90.58 2.85l-.91 7.79.91-7.79z"/><path d="M90.58 2.85l-.91 7.79.91-7.79z"/><path d="M90.58 2.85l-.91 7.79.91-7.79z"/><path d="M90.58 2.85l-.91 7.79.91-7.79z"/><path d="M90.58 2.85l-.91 7.79.91-7.79z"/><path d="M90.58 2.85l-.91 7.79.91-7.79z"/><path d="M90.58 2.85l-.91 7.79.91-7.79z"/><path d="M90.58 2.85l-.91 7.79.91-7.79z"/><path d="M90.58 2.85l-.91 7.79.91-7.79z"/><path d="M90.58 2.85l-.91 7.79.91-7.79z"/><path d="M90.58 2.85l-.91 7.79.91-7.79z"/><path d="M90.58 2.85l-.91 7.79.91-7.79z"/><path d="M90.58 2.85l-.91 7.79.91-7.79z"/><path d="M90.58 2.85l-.91 7.79.91-7.79z"/><path d="M90.58 2.85l-.91 7.79.91-7.79z"/><path d="M90.58 2.85l-.91 7.79.91-7.79z"/><path d="M90.58 2.85l-.91 7.79.91-7.79z"/><path d="M90.58 2.85l-.91 7.79.91-7.79z"/><path d="M90.58 2.85l-.91 7.79.91-7.79z"/><path d="M90.58 2.85l-.91 7.79.91-7.79z"/><path d="M90.58 2.85l-.91 7.79.91-7.79z"/><path d="M90.58 2.85l-.91 7.79.91-7.79z"/><path d="M90.58 2.85l-.91 7.79.91-7.79z"/><path d="M90.58 2.85l-.91 7.79.91-7.79z"/><path d="M90.58 2.85l-.91 7.79.91-7.79z"/><path d="M90.58 2.85l-.91 7.79.91-7.79z"/><path d="M90.58 2.85l-.91 7.79.91-7.79z"/><path d="M90.58 2.85l-.91 7.79.91-7.79z"/><path d="M90.58 2.85l-.91 7.79.91-7.79z"/><path d="M90.58 2.85l-.91 7.79.91-7.79z"/><path d="M90.58 2.85l-.91 7.79.91-7.79z"/><path d="M90.58 2.85l-.91 7.79.91-7.79z"/><path d="M90.58 2.85l-.91 7.79.91-7.79z"/><path d="M90.58 2.85l-.91 7.79.91-7.79z"/><path d="M90.58 2.85l-.91 7.79.91-7.79z"/><path d="M90.58 2.85l-.91 7.79.91-7.79z"/><path d="M90.58 2.85l-.91 7.79.91-7.79z"/><path d="M90.58 2.85l-.91 7.79.91-7.79z"/><path d="M90.58 2.85l-.91 7.79.91-7.79z"/><path d="M90.58 2.85l-.91 7.79.91-7.79z"/><path d="M90.58 2.85l-.91 7.79.91-7.79z"/><path d="M90.58 2.85l-.91 7.79.91-7.79z"/><path d="M90.58 2.85l-.91 7.79.91-7.79z"/><path d="M90.58 2.85l-.91 7.79.91-7.79z"/><path d="M90.58 2.85l-.91 7.79.91-7.79z"/><path d="M90.58 2.85l-.91 7.79.91-7.79z"/><path d="M90.58 2.85l-.91 7.79.91-7.79z"/><path d="M90.58 2.85l-.91 7.79.91-7.79z"/><path d="M90.58 2.85l-.91 7.79.91-7.79z"/><path d="M90.58 2.85l-.91 7.79.91-7.79z"/><path d="M90.58 2.85l-.91 7.79.91-7.79z"/><path d="M90.58 2.85l-.91 7.79.91-7.79z"/><path d="M90.58 2.85l-.91 7.79.91-7.79z"/><path d="M90.58 2.85l-.91 7.79.91-7.79z"/><path d="M90.58 2.85l-.91 7.79.91-7.79z"/><path d="M90.58 2.85l-.91 7.79.91-7.79z"/><path d="M90.58 2.85l-.91 7.79.91-7.79z"/><path d="M90.58 2.85l-.91 7.79.91-7.79z"/><path d="M90.58 2.85l-.91 7.79.91-7.79z"/><path d="M90.58 2.85l-.91 7.79.91-7.79z"/><path d="M90.58 2.85l-.91 7.79.91-7.79z"/><path d="M90.58 2.85l-.91 7.79.91-7.79z"/><path d="M90.58 2.85l-.91 7.79.91-7.79z"/><path d="M90.58 2.85l-.91 7.79.91-7.79z"/><path d="M90.58 2.85l-.91 7.79.91-7.79z"/><path d="M90.58 2.85l-.91 7.79.91-7.79z"/><path d="M90.58 2.85l-.91 7.79.91-7.79z"/><path d="M90.58 2.85l-.91 7.79.91-7.79z"/><path d="M90.58 2.85l-.91 7.79.91-7.79z"/><path d="M90.58 2.85l-.91 7.79.91-7.79z"/><path d="M90.58 2.85l-.91 7.79.91-7.79z"/><path d="M90.58 2.85l-.91 7.79.91-7.79z"/><path d="M90.58 2.85l-.91 7.79.91-7.79z"/><path d="M90.58 2.85l-.91 7.79.91-7.79z"/><path d="M90.58 2.85l-.91 7.79.91-7.79z"/><path d="M90.58 2.85l-.91 7.79.91-7.79z"/><path d="M90.58 2.85l-.91 7.79.91-7.79z"/><path d="M90.58 2.85l-.91 7.79.91-7.79z"/><path d="M90.58 2.85l-.91 7.79.91-7.79z"/><path d="M90.58 2.85l-.91 7.79.91-7.79z"/><path d="M90.58 2.85l-.91 7.79.91-7.79z"/><path d="M90.58 2.85l-.91 7.79.91-7.79z"/><path d="M90.58 2.85l-.91 7.79.91-7.79z"/><path d="M90.58 2.85l-.91 7.79.91-7.79z"/><path d="M90.58 2.85l-.91 7.79.91-7.79z"/><path d="M90.58 2.85l-.91 7.79.91-7.79z"/><path d="M90.58 2.85l-.91 7.79.91-7.79z"/><path d="M90.58 2.85l-.91 7.79.91-7.79z"/><path d="M90.58 2.85l-.91 7.79.91-7.79z"/><path d="M90.58 2.85l-.91 7.79.91-7.79z"/><path d="M90.58 2.85l-.91 7.79.91-7.79z"/><path d="M90.58 2.85l-.91 7.79.91-7.79z"/><path d="M90.58 2.85l-.91 7.79.91-7.79z"/><path d="M90.58 2.85l-.91 7.79.91-7.79z"/><path d="M90.58 2.85l-.91 7.79.91-7.79z"/><path d="M90.58 2.85l-.91 7.79.91-7.79z"/><path d="M90.58 2.85l-.91 7.79.91-7.79z"/><path d="M90.58 2.85l-.91 7.79.91-7.79z"/><path d="M90.58 2.85l-.91 7.79.91-7.79z"/><path d="M90.58 2.85l-.91 7.79.91-7.79z"/><path d="M90.58 2.85l-.91 7.79.91-7.79z"/><path d="M90.58 2.85l-.91 7.79.91-7.79z"/><path d="M90.58 2.85l-.91 7.79.91-7.79z"/><path d="M90.58 2.85l-.91 7.79.91-7.79z"/><path d="M90.58 2.85l-.91 7.79.91-7.79z"/><path d="M90.58 2.85l-.91 7.79.91-7.79z"/><path d="M90.58 2.85l-.91 7.79.91-7.79z"/><path d="M90.58 2.85l-.91 7.79.91-7.79z"/><path d="M90.58 2.85l-.91 7.79.91-7.79z"/><path d="M90.58 2.85l-.91 7.79.91-7.79z"/><path d="M90.58 2.85l-.91 7.79.91-7.79z"/><path d="M90.58 2.85l-.91 7.79.91-7.79z"/><path d="M90.58 2.85l-.91 7.79.91-7.79z"/><path d="M90.58 2.85l-.91 7.79.91-7.79z"/><path d="M90.58 2.85l-.91 7.79.91-7.79z"/><path d="M90.58 2.85l-.91 7.79.91-7.79z"/><path d="M90.58 2.85l-.91 7.79.91-7.79z"/><path d="M90.58 2.85l-.91 7.79.91-7.79z"/><path d="M90.58 2.85l-.91 7.79.91-7.79z"/><path d="M90.58 2.85l-.91 7.79.91-7.79z"/><path d="M90.58 2.85l-.91 7.79.91-7.79z"/><path d="M90.58 2.85l-.91 7.79.91-7.79z"/><path d="M90.58 2.85l-.91 7.79.91-7.79z"/><path d="M90.58 2.85l-.91 7.79.91-7.79z"/><path d="M90.58 2.85l-.91 7.79.91-7.79z"/><path d="M90.58 2.85l-.91 7.79.91-7.79z"/><path d="M90.58 2.85l-.91 7.79.91-7.79z"/><path d="M90.58 2.85l-.91 7.79.91-7.79z"/><path d="M90.58 2.85l-.91 7.79.91-7.79z"/><path d="M90.58 2.85l-.91 7.79.91-7.79z"/><path d="M90.58 2.85l-.91 7.79.91-7.79z"/><path d="M90.58 2.85l-.91 7.79.91-7.79z"/><path d="M90.58 2.85l-.91 7.79.91-7.79z"/><path d="M90.58 2.85l-.91 7.79.91-7.79z"/><path d="M90.58 2.85l-.91 7.79.91-7.79z"/><path d="M90.58 2.85l-.91 7.79.91-7.79z"/><path d="M90.58 2.85l-.91 7.79.91-7.79z"/><path d="M90.58 2.85l-.91 7.79.91-7.79z"/><path d="M90.58 2.85l-.91 7.79.91-7.79z"/><path d="M90.58 2.85l-.91 7.79.91-7.79z"/><path d="M90.58 2.85l-.91 7.79.91-7.79z"/><path d="M90.58 2.85l-.91 7.79.91-7.79z"/><path d="M90.58 2.85l-.91 7.79.91-7.79z"/><path d="M90.58 2.85l-.91 7.79.91-7.79z"/><path d="M90.58 2.85l-.91 7.79.91-7.79z"/><path d="M90.58 2.85l-.91 7.79.91-7.79z"/><path d="M90.58 2.85l-.91 7.79.91-7.79z"/><path d="M90.58 2.85l-.91 7.79.91-7.79z"/><path d="M90.58 2.85l-.91 7.79.91-7.79z"/><path d="M90.58 2.85l-.91 7.79.91-7.79z"/><path d="M90.58 2.85l-.91 7.79.91-7.79z"/><path d="M90.58 2.85l-.91 7.79.91-7.79z"/><path d="M90.58 2.85l-.91 7.79.91-7.79z"/><path d="M90.58 2.85l-.91 7.79.91-7.79z"/><path d="M90.58 2.85l-.91 7.79.91-7.79z"/><path d="M90.58 2.85l-.91 7.79.91-7.79z"/><path d="M90.58 2.85l-.91 7.79.91-7.79z"/><path d="M90.58 2.85l-.91 7.79.91-7.79z"/><path d="M90.58 2.85l-.91 7.79.91-7.79z"/><path d="M90.58 2.85l-.91 7.79.91-7.79z"/><path d="M90.58 2.85l-.91 7.79.91-7.79z"/><path d="M90.58 2.85l-.91 7.79.91-7.79z"/><path d="M90.58 2.85l-.91 7.79.91-7.79z"/><path d="M90.58 2.85l-.91 7.79.91-7.79z"/><path d="M90.58 2.85l-.91 7.79.91-7.79z"/><path d="M90.58 2.85l-.91 7.79.91-7.79z"/><path d="M90.58 2.85l-.91 7.79.91-7.79z"/><path d="M90.58 2.85l-.91 7.79.91-7.79z"/><path d="M90.58 2.85l-.91 7.79.91-7.79z"/><path d="M90.58 2.85l-.91 7.79.91-7.79z"/><path d="M90.58 2.85l-.91 7.79.91-7.79z"/><path d="M90.58 2.85l-.91 7.79.91-7.79z"/><path d="M90.58 2.85l-.91 7.79.91-7.79z"/><path d="M90.58 2.85l-.91 7.79.91-7.79z"/><path d="M90.58 2.85l-.91 7.79.91-7.79z"/><path d="M90.58 2.85l-.91 7.79.91-7.79z"/><path d="M90.58 2.85l-.91 7.79.91-7.79z"/><path d="M90.58 2.85l-.91 7.79.91-7.79z"/><path d="M90.58 2.85l-.91 7.79.91-7.79z"/><path d="M90.58 2.85l-.91 7.79.91-7.79z"/><path d="M90.58 2.85l-.91 7.79.91-7.79z"/><path d="M90.58 2.85l-.91 7.79.91-7.79z"/><path d="M90.58 2.85l-.91 7.79.91-7.79z"/><path d="M90.58 2.85l-.91 7.79.91-7.79z"/><path d="M90.58 2.85l-.91 7.79.91-7.79z"/><path d="M90.58 2.85l-.91 7.79.91-7.79z"/><path d="M90.58 2.85l-.91 7.79.91-7.79z"/><path d="M90.58 2.85l-.91 7.79.91-7.79z"/><path d="M90.58 2.85l-.91 7.79.91-7.79z"/><path d="M90.58 2.85l-.91 7.79.91-7.79z"/><path d="M90.58 2.85l-.91 7.79.91-7.79z"/><path d="M90.58 2.85l-.91 7.79.91-7.79z"/><path d="M90.58 2.85l-.91 7.79.91-7.79z"/><path d="M90.58 2.85l-.91 7.79.91-7.79z"/><path d="M90.58 2.85l-.91 7.79.91-7.79z"/><path d="M90.7 2.86l-1.19 10.21-.06-.01.22-2.42.91-7.79.12.01z"/><path d="M90.83 2.87l-1.19 10.21-.13-.01L90.7 2.86l.13.01z"/><path d="M90.96 2.88l-1.2 10.22-.12-.02 1.19-10.21.13.01zM91.09 2.9l-1.2 10.21-.13-.01 1.2-10.22.13.02z"/><path d="M91.21 2.91l-1.19 10.21-.13-.01 1.2-10.21.12.01z"/><path d="M91.34 2.92l-1.2 10.22-.12-.02 1.19-10.21.13.01z"/><path d="M91.47 2.93l-1.2 10.22-.06-.01h-.07l1.2-10.22.13.01zM91.59 2.94L90.4 13.16l-.13-.01 1.2-10.22.12.01z"/><path d="M91.72 2.95l-1.19 10.22-.13-.01 1.19-10.22.13.01z"/><path d="M91.85 2.96l-1.2 10.22-.12-.01 1.19-10.22.13.01zM91.97 2.98l-1.19 10.21-.13-.01 1.2-10.22.12.02z"/><path d="M92.1 2.99l-1.19 10.22-.13-.02 1.19-10.21.13.01z"/><path d="M92.23 3l-1.2 10.22-.12-.01L92.1 2.99l.13.01z"/><path d="M92.36 3.01l-1.2 10.22-.13-.01L92.23 3l.13.01zM92.48 3.02l-1.19 10.22-.13-.01 1.2-10.22.12.01z"/><path d="M92.61 3.03l-1.19 10.22-.13-.01 1.19-10.22.13.01z"/><path d="M92.74 3.04l-1.2 10.22-.12-.01 1.19-10.22.13.01zM92.86 3.06l-1.19 10.21-.13-.01 1.2-10.22.12.02z"/><path d="M92.99 3.07L91.8 13.29l-.13-.02 1.19-10.21.13.01z"/><path d="M93.12 3.08l-1.2 10.22-.12-.01 1.19-10.22.13.01z"/><path d="M93.25 3.09l-1.2 10.22-.13-.01 1.2-10.22.13.01zM93.37 3.1l-1.19 10.22-.13-.01 1.2-10.22.12.01z"/><path d="M93.5 3.11l-1.19 10.22-.13-.01L93.37 3.1l.13.01z"/><path d="M93.63 3.12l-1.2 10.22-.12-.01L93.5 3.11l.13.01zM93.75 3.13l-1.19 10.22-.13-.01 1.2-10.22.12.01z"/><path d="M93.88 3.15l-1.19 10.22-.13-.02 1.19-10.22.13.02z"/><path d="M94.01 3.16l-1.2 10.22-.12-.01 1.19-10.22.13.01z"/><path d="M94.14 3.17l-1.2 10.22-.13-.01 1.2-10.22.13.01z"/><path d="M94.26 3.18L93.07 13.4l-.13-.01 1.2-10.22.12.01z"/><path d="M94.39 3.19l-1.2 10.22-.12-.01 1.19-10.22.13.01zM94.52 3.2l-1.2 10.22-.13-.01 1.2-10.22.13.01zM94.64 3.21l-1.19 10.22-.13-.01 1.2-10.22.12.01z"/><path d="M94.77 3.23l-1.19 10.21-.13-.01 1.19-10.22.13.02z"/><path d="M94.9 3.24l-1.2 10.22-.12-.02 1.19-10.21.13.01z"/><path d="M95.03 3.25l-1.2 10.22-.13-.01 1.2-10.22.13.01zM95.15 3.26l-1.19 10.22-.13-.01 1.2-10.22.12.01z"/><path d="M95.28 3.27l-1.2 10.22-.12-.01 1.19-10.22.13.01z"/><path d="M95.41 3.28l-1.2 10.22-.13-.01 1.2-10.22.13.01zM95.53 3.29l-1.19 10.22-.13-.01 1.2-10.22.12.01z"/><path d="M95.66 3.31l-1.19 10.21-.13-.01 1.19-10.22.13.02z"/><path d="M95.79 3.32l-1.2 10.22-.12-.02 1.19-10.21.13.01z"/><path d="M95.92 3.33l-1.2 10.22-.13-.01 1.2-10.22.13.01zM96.04 3.34l-1.19 10.22-.13-.01 1.2-10.22.12.01z"/><path d="M96.17 3.35l-1.2 10.22-.12-.01 1.19-10.22.13.01z"/><path d="M96.3 3.36l-1.2 10.22-.13-.01 1.2-10.22.13.01zM96.42 3.37l-1.19 10.22-.13-.01 1.2-10.22.12.01z"/><path d="M96.55 3.38l-1.2 10.22-.12-.01 1.19-10.22.13.01zM96.68 3.4l-1.2 10.22-.13-.02 1.2-10.22.13.02z"/><path d="M96.8 3.41l-1.19 10.22-.13-.01 1.2-10.22.12.01z"/><path d="M96.93 3.42l-1.19 10.22-.13-.01L96.8 3.41l.13.01z"/><path d="M97.06 3.43l-1.2 10.22-.12-.01 1.19-10.22.13.01z"/><path d="M97.19 3.44l-1.2 10.22-.13-.01 1.2-10.22.13.01zM97.31 3.45l-1.19 10.22-.13-.01 1.2-10.22.12.01z"/><path d="M97.44 3.46l-1.2 10.22-.12-.01 1.19-10.22.13.01zM97.57 3.48l-1.2 10.22-.13-.02 1.2-10.22.13.02zM97.69 3.49L96.5 13.71l-.13-.01 1.2-10.22.12.01z"/><path d="M97.82 3.5l-1.19 10.22-.13-.01 1.19-10.22.13.01z"/><path d="M97.95 3.51l-1.2 10.22-.12-.01L97.82 3.5l.13.01z"/><path d="M98.08 3.52l-1.2 10.22-.13-.01 1.2-10.22.13.01zM98.2 3.53l-1.19 10.22-.13-.01 1.2-10.22.12.01z"/><path d="M98.33 3.54l-1.2 10.22-.12-.01L98.2 3.53l.13.01zM98.46 3.56l-1.2 10.22-.13-.02 1.2-10.22.13.02zM98.58 3.57l-1.19 10.22-.13-.01 1.2-10.22.12.01z"/><path d="M98.71 3.58L97.52 13.8l-.13-.01 1.19-10.22.13.01z"/><path d="M98.84 3.59l-1.2 10.22-.12-.01 1.19-10.22.13.01z"/><path d="M98.97 3.6l-1.2 10.22-.13-.01 1.2-10.22.13.01zM99.09 3.61L97.9 13.83l-.13-.01 1.2-10.22.12.01z"/><path d="M99.22 3.63l-1.2 10.21-.12-.01 1.19-10.22.13.02zM99.35 3.64l-1.2 10.21-.13-.01 1.2-10.21.13.01zM99.47 3.65l-1.19 10.22-.13-.02 1.2-10.21.12.01z"/><path d="M99.6 3.66l-1.2 10.22-.12-.01 1.19-10.22.13.01zM99.73 3.67l-1.2 10.22-.13-.01 1.2-10.22.13.01z"/><path d="M99.85 3.68L98.66 13.9l-.13-.01 1.2-10.22.12.01zM99.98 3.69l-1.19 10.22-.13-.01 1.19-10.22.13.01z"/><path d="M100.11 3.7l-1.2 10.22-.12-.01 1.19-10.22.13.01zM100.23 3.72l-1.19 10.21-.13-.01 1.2-10.22.12.02z"/><path d="M100.36 3.73l-1.19 10.22-.13-.02 1.19-10.21.13.01z"/><path d="M100.49 3.74l-1.2 10.22-.12-.01 1.19-10.22.13.01zM100.62 3.75l-1.2 10.22-.13-.01 1.2-10.22.13.01z"/><path d="M100.74 3.76l-1.19 10.22-.13-.01 1.2-10.22.12.01z"/><path d="M100.87 3.77l-1.2 10.22-.12-.01 1.19-10.22.13.01z"/><path d="M101 3.78L99.8 14l-.13-.01 1.2-10.22.13.01zM101.13 3.8l-1.2 10.21-.13-.01L101 3.78l.13.02zM101.25 3.81l-1.19 10.22-.13-.02 1.2-10.21.12.01z"/><path d="M101.38 3.82l-1.2 10.22-.12-.01 1.19-10.22.13.01zM101.51 3.83l-1.2 10.22-.13-.01 1.2-10.22.13.01z"/><path d="M101.63 3.84l-1.19 10.22-.13-.01 1.2-10.22.12.01z"/><path d="M101.76 3.85l-1.2 10.22-.12-.01 1.19-10.22.13.01z"/><path d="M101.89 3.86l-1.2 10.22-.13-.01 1.2-10.22.13.01zM102.01 3.88l-1.19 10.21-.13-.01 1.2-10.22.12.02z"/><path d="M102.14 3.89l-1.19 10.22-.13-.02 1.19-10.21.13.01z"/><path d="M102.27 3.9l-1.2 10.22-.12-.01 1.19-10.22.13.01zM102.4 3.91l-1.2 10.22-.13-.01 1.2-10.22.13.01z"/><path d="M102.52 3.92l-1.19 10.22-.13-.01 1.2-10.22.12.01z"/><path d="M102.59 3.93h.06l-1.2 10.22-.12-.01 1.19-10.22.07.01z"/><path d="M102.65 3.93l.13.02-1.2 10.21-.13-.01 1.2-10.22zM102.78 3.95l.12.01-1.19 10.21-.13-.01 1.2-10.21z"/><path d="M102.9 3.96l.13.01-1.19 10.22-.13-.02 1.19-10.21z"/><path d="M103.03 3.97l.13.02-1.2 10.21-.12-.01 1.19-10.22zM103.16 3.99l.12.01-1.19 10.21-.13-.01 1.2-10.21zM103.28 4l.06.01-.21 2.42-.91 7.79-.13-.01L103.28 4z"/><path d="M102.22 14.22l.91-7.79-.7 7.81-.21-.02z"/></g><ellipse cx="96.4" cy="8.53" rx="5.08" ry="6.44" transform="rotate(-84.88 96.392 8.534)" fill="#231f20"/><ellipse cx="107.65" cy="15.39" rx="2.81" ry="3.56" transform="rotate(-84.88 107.644 15.389)" fill="#231f20"/><ellipse cx="107.65" cy="15.39" rx="2.81" ry="3.56" transform="rotate(-84.88 107.644 15.389)" fill="#231f20"/><g clip-path="url(#b)" fill="#231f20" fill-rule="evenodd"><path d="M104.43 12.25l-.5 4.3.38-4.32.12.02zM104.43 12.25l-.5 4.3.5-4.3zM104.43 12.25l-.5 4.3.5-4.3zM104.43 12.25l-.5 4.3.5-4.3zM104.43 12.25l-.5 4.3.5-4.3zM104.43 12.25l-.5 4.3.5-4.3zM104.43 12.25l-.5 4.3.5-4.3zM104.43 12.25l-.5 4.3.5-4.3zM104.43 12.25l-.5 4.3.5-4.3zM104.43 12.25l-.5 4.3.5-4.3zM104.43 12.25l-.5 4.3.5-4.3zM104.43 12.25l-.5 4.3.5-4.3zM104.43 12.25l-.5 4.3.5-4.3zM104.43 12.25l-.5 4.3.5-4.3zM104.43 12.25l-.5 4.3.5-4.3zM104.43 12.25l-.5 4.3.5-4.3zM104.43 12.25l-.5 4.3.5-4.3zM104.43 12.25l-.5 4.3.5-4.3zM104.43 12.25l-.5 4.3.5-4.3zM104.43 12.25l-.5 4.3.5-4.3zM104.43 12.25l-.5 4.3.5-4.3zM104.43 12.25l-.5 4.3.5-4.3zM104.43 12.25l-.5 4.3.5-4.3zM104.43 12.25l-.5 4.3.5-4.3zM104.43 12.25l-.5 4.3.5-4.3zM104.43 12.25l-.5 4.3.5-4.3zM104.43 12.25l-.5 4.3.5-4.3zM104.43 12.25l-.5 4.3.5-4.3zM104.43 12.25l-.5 4.3.5-4.3zM104.43 12.25l-.5 4.3.5-4.3zM104.43 12.25l-.5 4.3.5-4.3zM104.43 12.25l-.5 4.3.5-4.3zM104.43 12.25l-.5 4.3.5-4.3zM104.43 12.25l-.5 4.3.5-4.3zM104.43 12.25l-.5 4.3.5-4.3zM104.43 12.25l-.5 4.3.5-4.3zM104.43 12.25l-.5 4.3.5-4.3zM104.43 12.25l-.5 4.3.5-4.3zM104.43 12.25l-.5 4.3.5-4.3zM104.43 12.25l-.5 4.3.5-4.3zM104.43 12.25l-.5 4.3.5-4.3zM104.43 12.25l-.5 4.3.5-4.3zM104.43 12.25l-.5 4.3.5-4.3zM104.43 12.25l-.5 4.3.5-4.3zM104.43 12.25l-.5 4.3.5-4.3zM104.43 12.25l-.5 4.3.5-4.3zM104.43 12.25l-.5 4.3.5-4.3zM104.43 12.25l-.5 4.3.5-4.3zM104.43 12.25l-.5 4.3.5-4.3zM104.43 12.25l-.5 4.3.5-4.3zM104.43 12.25l-.5 4.3.5-4.3zM104.43 12.25l-.5 4.3.5-4.3zM104.43 12.25l-.5 4.3.5-4.3zM104.43 12.25l-.5 4.3.5-4.3zM104.43 12.25l-.5 4.3.5-4.3zM104.43 12.25l-.5 4.3.5-4.3zM104.43 12.25l-.5 4.3.5-4.3zM104.43 12.25l-.5 4.3.5-4.3zM104.43 12.25l-.5 4.3.5-4.3zM104.43 12.25l-.5 4.3.5-4.3zM104.43 12.25l-.5 4.3.5-4.3zM104.43 12.25l-.5 4.3.5-4.3zM104.43 12.25l-.5 4.3.5-4.3zM104.43 12.25l-.5 4.3.5-4.3zM104.43 12.25l-.5 4.3.5-4.3zM104.43 12.25l-.5 4.3.5-4.3zM104.43 12.25l-.5 4.3.5-4.3zM104.43 12.25l-.5 4.3.5-4.3zM104.43 12.25l-.5 4.3.5-4.3zM104.43 12.25l-.5 4.3.5-4.3zM104.43 12.25l-.5 4.3.5-4.3zM104.43 12.25l-.5 4.3.5-4.3zM104.43 12.25l-.5 4.3.5-4.3zM104.43 12.25l-.5 4.3.5-4.3zM104.43 12.25l-.5 4.3.5-4.3zM104.43 12.25l-.5 4.3.5-4.3zM104.43 12.25l-.5 4.3.5-4.3zM104.43 12.25l-.5 4.3.5-4.3zM104.43 12.25l-.5 4.3.5-4.3zM104.43 12.25l-.5 4.3.5-4.3zM104.43 12.25l-.5 4.3.5-4.3zM104.43 12.25l-.5 4.3.5-4.3zM104.43 12.25l-.5 4.3.5-4.3zM104.43 12.25l-.5 4.3.5-4.3zM104.43 12.25l-.5 4.3.5-4.3zM104.43 12.25l-.5 4.3.5-4.3zM104.43 12.25l-.5 4.3.5-4.3zM104.43 12.25l-.5 4.3.5-4.3zM104.43 12.25l-.5 4.3.5-4.3zM104.43 12.25l-.5 4.3.5-4.3zM104.43 12.25l-.5 4.3.5-4.3zM104.43 12.25l-.5 4.3.5-4.3zM104.43 12.25l-.5 4.3.5-4.3zM104.43 12.25l-.5 4.3.5-4.3zM104.43 12.25l-.5 4.3.5-4.3zM104.43 12.25l-.5 4.3.5-4.3zM104.43 12.25l-.5 4.3.5-4.3zM104.43 12.25l-.5 4.3.5-4.3zM104.43 12.25l-.5 4.3.5-4.3zM104.43 12.25l-.5 4.3.5-4.3zM104.43 12.25l-.5 4.3.5-4.3zM104.43 12.25l-.5 4.3.5-4.3zM104.43 12.25l-.5 4.3.5-4.3zM104.43 12.25l-.5 4.3.5-4.3zM104.43 12.25l-.5 4.3.5-4.3zM104.43 12.25l-.5 4.3.5-4.3zM104.43 12.25l-.5 4.3.5-4.3zM104.43 12.25l-.5 4.3.5-4.3zM104.43 12.25l-.5 4.3.5-4.3zM104.43 12.25l-.5 4.3.5-4.3zM104.43 12.25l-.5 4.3.5-4.3zM104.43 12.25l-.5 4.3.5-4.3zM104.43 12.25l-.5 4.3.5-4.3zM104.43 12.25l-.5 4.3.5-4.3zM104.43 12.25l-.5 4.3.5-4.3zM104.43 12.25l-.5 4.3.5-4.3zM104.43 12.25l-.5 4.3.5-4.3zM104.43 12.25l-.5 4.3.5-4.3zM104.43 12.25l-.5 4.3.5-4.3zM104.43 12.25l-.5 4.3.5-4.3zM104.43 12.25l-.5 4.3.5-4.3zM104.43 12.25l-.5 4.3.5-4.3zM104.43 12.25l-.5 4.3.5-4.3zM104.43 12.25l-.5 4.3.5-4.3zM104.43 12.25l-.5 4.3.5-4.3zM104.43 12.25l-.5 4.3.5-4.3zM104.43 12.25l-.5 4.3.5-4.3zM104.43 12.25l-.5 4.3.5-4.3zM104.43 12.25l-.5 4.3.5-4.3zM104.43 12.25l-.5 4.3.5-4.3zM104.43 12.25l-.5 4.3.5-4.3zM104.43 12.25l-.5 4.3.5-4.3zM104.43 12.25l-.5 4.3.5-4.3zM104.43 12.25l-.5 4.3.5-4.3zM104.43 12.25l-.5 4.3.5-4.3zM104.43 12.25l-.5 4.3.5-4.3zM104.43 12.25l-.5 4.3.5-4.3zM104.43 12.25l-.5 4.3.5-4.3zM104.43 12.25l-.5 4.3.5-4.3zM104.43 12.25l-.5 4.3.5-4.3zM104.43 12.25l-.5 4.3.5-4.3zM104.43 12.25l-.5 4.3.5-4.3zM104.43 12.25l-.5 4.3.5-4.3zM104.43 12.25l-.5 4.3.5-4.3zM104.43 12.25l-.5 4.3.5-4.3zM104.43 12.25l-.5 4.3.5-4.3zM104.43 12.25l-.5 4.3.5-4.3zM104.43 12.25l-.5 4.3.5-4.3zM104.43 12.25l-.5 4.3.5-4.3zM104.43 12.25l-.5 4.3.5-4.3zM104.43 12.25l-.5 4.3.5-4.3zM104.43 12.25l-.5 4.3.5-4.3zM104.43 12.25l-.5 4.3.5-4.3zM104.43 12.25l-.5 4.3.5-4.3zM104.43 12.25l-.5 4.3.5-4.3zM104.43 12.25l-.5 4.3.5-4.3zM104.43 12.25l-.5 4.3.5-4.3zM104.43 12.25l-.5 4.3.5-4.3zM104.43 12.25l-.5 4.3.5-4.3zM104.43 12.25l-.5 4.3.5-4.3zM104.43 12.25l-.5 4.3.5-4.3zM104.43 12.25l-.5 4.3.5-4.3zM104.43 12.25l-.5 4.3.5-4.3zM104.43 12.25l-.5 4.3.5-4.3zM104.43 12.25l-.5 4.3.5-4.3zM104.43 12.25l-.5 4.3.5-4.3zM104.43 12.25l-.5 4.3.5-4.3zM104.43 12.25l-.5 4.3.5-4.3zM104.43 12.25l-.5 4.3.5-4.3zM104.43 12.25l-.5 4.3.5-4.3zM104.43 12.25l-.5 4.3.5-4.3zM104.43 12.25l-.5 4.3.5-4.3zM104.43 12.25l-.5 4.3.5-4.3zM104.43 12.25l-.5 4.3.5-4.3zM104.43 12.25l-.5 4.3.5-4.3zM104.43 12.25l-.5 4.3.5-4.3zM104.43 12.25l-.5 4.3.5-4.3zM104.43 12.25l-.5 4.3.5-4.3zM104.43 12.25l-.5 4.3.5-4.3zM104.43 12.25l-.5 4.3.5-4.3zM104.43 12.25l-.5 4.3.5-4.3zM104.43 12.25l-.5 4.3.5-4.3zM104.43 12.25l-.5 4.3.5-4.3zM104.43 12.25l-.5 4.3.5-4.3zM104.43 12.25l-.5 4.3.5-4.3zM104.43 12.25l-.5 4.3.5-4.3zM104.43 12.25l-.5 4.3.5-4.3zM104.43 12.25l-.5 4.3.5-4.3zM104.43 12.25l-.5 4.3.5-4.3zM104.43 12.25l-.5 4.3.5-4.3zM104.43 12.25l-.5 4.3.5-4.3zM104.43 12.25l-.5 4.3.5-4.3zM104.43 12.25l-.5 4.3.5-4.3zM104.43 12.25l-.5 4.3.5-4.3zM104.43 12.25l-.5 4.3.5-4.3zM104.43 12.25l-.5 4.3.5-4.3zM104.43 12.25l-.5 4.3.5-4.3zM104.43 12.25l-.5 4.3.5-4.3zM104.43 12.25l-.5 4.3.5-4.3zM104.43 12.25l-.5 4.3.5-4.3zM104.43 12.25l-.5 4.3.5-4.3zM104.43 12.25l-.5 4.3.5-4.3zM104.43 12.25l-.5 4.3.5-4.3zM104.43 12.25l-.5 4.3.5-4.3z"/><path d="M104.5 12.25l-.66 5.65h-.03l.12-1.35.5-4.3h.07z"/><path d="M104.57 12.26l-.66 5.65-.07-.01.66-5.65.07.01zM104.64 12.26l-.66 5.65h-.07l.66-5.65h.07z"/><path d="M104.71 12.27l-.66 5.65-.07-.01.66-5.65.07.01zM104.78 12.28l-.66 5.65-.07-.01.66-5.65.07.01z"/><path d="M104.85 12.28l-.66 5.65h-.07l.66-5.65h.07zM104.92 12.29l-.66 5.65-.07-.01.66-5.65.07.01zM104.99 12.3l-.66 5.65-.07-.01.66-5.65.07.01zM105.06 12.3l-.66 5.65h-.07l.66-5.65h.07z"/><path d="M105.13 12.31l-.66 5.65-.07-.01.66-5.65.07.01zM105.2 12.31l-.66 5.65h-.07l.66-5.65h.07z"/><path d="M105.28 12.32l-.67 5.65-.07-.01.66-5.65.08.01zM105.34 12.33l-.66 5.65-.07-.01.67-5.65.06.01z"/><path d="M105.42 12.33l-.67 5.65h-.07l.66-5.65h.08zM105.48 12.34l-.66 5.65-.07-.01.67-5.65.06.01z"/><path d="M105.56 12.35l-.67 5.65-.07-.01.66-5.65.08.01z"/><path d="M105.63 12.35l-.66 5.65h-.08l.67-5.65h.07z"/><path d="M105.7 12.36l-.67 5.65-.06-.01.66-5.65.07.01z"/><path d="M105.77 12.37l-.66 5.65-.08-.01.67-5.65.07.01zM105.84 12.37l-.66 5.65h-.07l.66-5.65h.07z"/><path d="M105.91 12.38l-.66 5.65-.07-.01.66-5.65.07.01zM105.98 12.38l-.66 5.65h-.07l.66-5.65h.07z"/><path d="M106.05 12.39l-.66 5.65-.07-.01.66-5.65.07.01zM106.12 12.4l-.66 5.65-.07-.01.66-5.65.07.01z"/><path d="M106.19 12.4l-.66 5.65h-.07l.66-5.65h.07zM106.26 12.41l-.66 5.65-.07-.01.66-5.65.07.01z"/><path d="M106.33 12.42l-.66 5.65-.07-.01.66-5.65.07.01zM106.4 12.42l-.66 5.65h-.07l.66-5.65h.07z"/><path d="M106.47 12.43l-.66 5.65-.07-.01.66-5.65.07.01zM106.54 12.44l-.66 5.65-.07-.01.66-5.65.07.01z"/><path d="M106.61 12.44l-.66 5.65h-.07l.66-5.65h.07zM106.68 12.45l-.66 5.65-.07-.01.66-5.65.07.01zM106.75 12.45l-.66 5.65h-.07l.66-5.65h.07z"/><path d="M106.82 12.46l-.66 5.65-.07-.01.66-5.65.07.01zM106.89 12.47l-.66 5.65-.07-.01.66-5.65.07.01z"/><path d="M106.96 12.47l-.66 5.65h-.07l.66-5.65h.07zM107.03 12.48l-.66 5.65-.07-.01.66-5.65.07.01z"/><path d="M107.1 12.48l-.66 5.66-.07-.01.66-5.65h.07zM107.17 12.49l-.66 5.65h-.07l.66-5.66.07.01z"/><path d="M107.24 12.5l-.66 5.65-.07-.01.66-5.65.07.01zM107.31 12.5l-.66 5.65h-.07l.66-5.65h.07z"/><path d="M107.38 12.51l-.66 5.65-.07-.01.66-5.65.07.01zM107.45 12.52l-.66 5.65-.07-.01.66-5.65.07.01zM107.52 12.52l-.66 5.65h-.07l.66-5.65h.07zM107.59 12.53l-.66 5.65-.07-.01.66-5.65.07.01z"/><path d="M107.66 12.54l-.66 5.65-.07-.01.66-5.65.07.01z"/><path d="M107.73 12.54l-.66 5.65H107l.66-5.65h.07zM107.8 12.55l-.66 5.65-.07-.01.66-5.65.07.01zM107.87 12.55l-.66 5.65h-.07l.66-5.65h.07z"/><path d="M107.94 12.56l-.66 5.65-.07-.01.66-5.65.07.01z"/><path d="M108.02 12.57l-.67 5.65-.07-.01.66-5.65.08.01zM108.08 12.57l-.66 5.65h-.07l.67-5.65h.06z"/><path d="M108.16 12.58l-.67 5.65-.07-.01.66-5.65.08.01zM108.23 12.59l-.67 5.65-.07-.01.67-5.65.07.01zM108.3 12.59l-.66 5.65h-.08l.67-5.65h.07z"/><path d="M108.37 12.6l-.67 5.65-.06-.01.66-5.65.07.01zM108.44 12.61l-.66 5.64h-.08l.67-5.65.07.01zM108.51 12.61l-.66 5.65-.07-.01.66-5.64h.07z"/><path d="M108.58 12.62l-.66 5.65-.07-.01.66-5.65.07.01zM108.65 12.62l-.66 5.65h-.07l.66-5.65h.07z"/><path d="M108.72 12.63l-.66 5.65-.07-.01.66-5.65.07.01zM108.79 12.64l-.66 5.65-.07-.01.66-5.65.07.01z"/><path d="M108.86 12.64l-.66 5.65h-.07l.66-5.65h.07zM108.93 12.65l-.66 5.65-.07-.01.66-5.65.07.01z"/><path d="M109 12.65l-.66 5.65h-.07l.66-5.65h.07z"/><path d="M109.07 12.66l-.66 5.65-.07-.01.66-5.65.07.01zM109.14 12.67l-.66 5.65-.07-.01.66-5.65.07.01z"/><path d="M109.21 12.67l-.66 5.65h-.07l.66-5.65h.07zM109.28 12.68l-.66 5.65-.07-.01.66-5.65.07.01z"/><path d="M109.35 12.69l-.66 5.65-.07-.01.66-5.65.07.01zM109.42 12.69l-.66 5.65h-.07l.66-5.65h.07z"/><path d="M109.49 12.7l-.66 5.65-.07-.01.66-5.65.07.01zM109.56 12.71l-.66 5.65-.07-.01.66-5.65.07.01z"/><path d="M109.63 12.71l-.66 5.65h-.07l.66-5.65h.07zM109.7 12.72l-.66 5.65-.07-.01.66-5.65.07.01z"/><path d="M109.77 12.72l-.66 5.66-.07-.01.66-5.65h.07zM109.84 12.73l-.66 5.65h-.07l.66-5.66.07.01z"/><path d="M109.91 12.74l-.66 5.65-.07-.01.66-5.65.07.01zM109.98 12.74l-.66 5.65h-.07l.66-5.65h.07z"/><path d="M110.05 12.75l-.66 5.65-.07-.01.66-5.65.07.01zM110.12 12.76l-.66 5.65-.07-.01.66-5.65.07.01z"/><path d="M110.19 12.76l-.66 5.65h-.07l.66-5.65h.07zM110.26 12.77l-.66 5.65-.07-.01.66-5.65.07.01z"/><path d="M110.33 12.78l-.66 5.65-.07-.01.66-5.65.07.01zM110.4 12.78l-.66 5.65h-.07l.66-5.65h.07z"/><path d="M110.47 12.79l-.66 5.65-.07-.01.66-5.65.07.01z"/><path d="M110.55 12.79l-.67 5.65h-.07l.66-5.65h.08zM110.61 12.8l-.66 5.65-.07-.01.67-5.65.06.01z"/><path d="M110.69 12.81l-.67 5.65-.07-.01.66-5.65.08.01zM110.75 12.81l-.66 5.65h-.07l.67-5.65h.06z"/><path d="M110.83 12.82l-.66 5.65-.08-.01.66-5.65.08.01z"/><path d="M110.9 12.82l-.67 5.66-.06-.01.66-5.65h.07zM110.97 12.83l-.66 5.65h-.08l.67-5.66.07.01zM111.04 12.84l-.66 5.65-.07-.01.66-5.65.07.01zM111.11 12.84l-.66 5.65h-.07l.66-5.65h.07zM111.18 12.85l-.66 5.65-.07-.01.66-5.65.07.01z"/><path d="M111.25 12.86l-.66 5.65-.07-.01.66-5.65.07.01z"/><path d="M111.32 12.86l-.66 5.65h-.07l.66-5.65h.07zM111.39 12.87l-.66 5.65-.07-.01.66-5.65.07.01zM111.46 12.88l-.66 5.65-.07-.01.66-5.65.07.01zM111.37 14.22l-.5 4.31h-.07l.66-5.65h.03l-.12 1.34zM110.87 18.53l.5-4.31-.39 4.32-.11-.01z"/></g><ellipse cx="107.65" cy="15.39" rx="2.81" ry="3.56" transform="rotate(-84.88 107.644 15.389)" fill="#231f20"/><ellipse cx="114.02" cy="22.2" rx="1.85" ry="2.35" transform="rotate(-84.88 114.022 22.205)" fill="#231f20"/><ellipse cx="114.02" cy="22.2" rx="1.85" ry="2.35" transform="rotate(-84.88 114.022 22.205)" fill="#231f20"/><g clip-path="url(#c)" fill="#231f20" fill-rule="evenodd"><path d="M111.9 20.13l-.33 2.84.25-2.85.08.01zM111.9 20.13l-.33 2.84.33-2.84zM111.9 20.13l-.33 2.84.33-2.84zM111.9 20.13l-.33 2.84.33-2.84zM111.9 20.13l-.33 2.84.33-2.84zM111.9 20.13l-.33 2.84.33-2.84zM111.9 20.13l-.33 2.84.33-2.84zM111.9 20.13l-.33 2.84.33-2.84zM111.9 20.13l-.33 2.84.33-2.84zM111.9 20.13l-.33 2.84.33-2.84zM111.9 20.13l-.33 2.84.33-2.84zM111.9 20.13l-.33 2.84.33-2.84zM111.9 20.13l-.33 2.84.33-2.84zM111.9 20.13l-.33 2.84.33-2.84zM111.9 20.13l-.33 2.84.33-2.84zM111.9 20.13l-.33 2.84.33-2.84zM111.9 20.13l-.33 2.84.33-2.84zM111.9 20.13l-.33 2.84.33-2.84zM111.9 20.13l-.33 2.84.33-2.84zM111.9 20.13l-.33 2.84.33-2.84zM111.9 20.13l-.33 2.84.33-2.84zM111.9 20.13l-.33 2.84.33-2.84zM111.9 20.13l-.33 2.84.33-2.84zM111.9 20.13l-.33 2.84.33-2.84zM111.9 20.13l-.33 2.84.33-2.84zM111.9 20.13l-.33 2.84.33-2.84zM111.9 20.13l-.33 2.84.33-2.84zM111.9 20.13l-.33 2.84.33-2.84zM111.9 20.13l-.33 2.84.33-2.84zM111.9 20.13l-.33 2.84.33-2.84zM111.9 20.13l-.33 2.84.33-2.84zM111.9 20.13l-.33 2.84.33-2.84zM111.9 20.13l-.33 2.84.33-2.84zM111.9 20.13l-.33 2.84.33-2.84zM111.9 20.13l-.33 2.84.33-2.84zM111.9 20.13l-.33 2.84.33-2.84zM111.9 20.13l-.33 2.84.33-2.84zM111.9 20.13l-.33 2.84.33-2.84zM111.9 20.13l-.33 2.84.33-2.84zM111.9 20.13l-.33 2.84.33-2.84zM111.9 20.13l-.33 2.84.33-2.84zM111.9 20.13l-.33 2.84.33-2.84zM111.9 20.13l-.33 2.84.33-2.84zM111.9 20.13l-.33 2.84.33-2.84zM111.9 20.13l-.33 2.84.33-2.84zM111.9 20.13l-.33 2.84.33-2.84zM111.9 20.13l-.33 2.84.33-2.84zM111.9 20.13l-.33 2.84.33-2.84zM111.9 20.13l-.33 2.84.33-2.84zM111.9 20.13l-.33 2.84.33-2.84zM111.9 20.13l-.33 2.84.33-2.84zM111.9 20.13l-.33 2.84.33-2.84zM111.9 20.13l-.33 2.84.33-2.84zM111.9 20.13l-.33 2.84.33-2.84zM111.9 20.13l-.33 2.84.33-2.84zM111.9 20.13l-.33 2.84.33-2.84zM111.9 20.13l-.33 2.84.33-2.84zM111.9 20.13l-.33 2.84.33-2.84zM111.9 20.13l-.33 2.84.33-2.84zM111.9 20.13l-.33 2.84.33-2.84zM111.9 20.13l-.33 2.84.33-2.84zM111.9 20.13l-.33 2.84.33-2.84zM111.9 20.13l-.33 2.84.33-2.84zM111.9 20.13l-.33 2.84.33-2.84zM111.9 20.13l-.33 2.84.33-2.84zM111.9 20.13l-.33 2.84.33-2.84zM111.9 20.13l-.33 2.84.33-2.84zM111.9 20.13l-.33 2.84.33-2.84zM111.9 20.13l-.33 2.84.33-2.84zM111.9 20.13l-.33 2.84.33-2.84zM111.9 20.13l-.33 2.84.33-2.84zM111.9 20.13l-.33 2.84.33-2.84zM111.9 20.13l-.33 2.84.33-2.84zM111.9 20.13l-.33 2.84.33-2.84zM111.9 20.13l-.33 2.84.33-2.84zM111.9 20.13l-.33 2.84.33-2.84zM111.9 20.13l-.33 2.84.33-2.84zM111.9 20.13l-.33 2.84.33-2.84zM111.9 20.13l-.33 2.84.33-2.84zM111.9 20.13l-.33 2.84.33-2.84zM111.9 20.13l-.33 2.84.33-2.84zM111.9 20.13l-.33 2.84.33-2.84zM111.9 20.13l-.33 2.84.33-2.84zM111.9 20.13l-.33 2.84.33-2.84zM111.9 20.13l-.33 2.84.33-2.84zM111.9 20.13l-.33 2.84.33-2.84zM111.9 20.13l-.33 2.84.33-2.84zM111.9 20.13l-.33 2.84.33-2.84zM111.9 20.13l-.33 2.84.33-2.84zM111.9 20.13l-.33 2.84.33-2.84zM111.9 20.13l-.33 2.84.33-2.84zM111.9 20.13l-.33 2.84.33-2.84zM111.9 20.13l-.33 2.84.33-2.84zM111.9 20.13l-.33 2.84.33-2.84zM111.9 20.13l-.33 2.84.33-2.84zM111.9 20.13l-.33 2.84.33-2.84zM111.9 20.13l-.33 2.84.33-2.84zM111.9 20.13l-.33 2.84.33-2.84zM111.9 20.13l-.33 2.84.33-2.84zM111.9 20.13l-.33 2.84.33-2.84zM111.9 20.13l-.33 2.84.33-2.84zM111.9 20.13l-.33 2.84.33-2.84zM111.9 20.13l-.33 2.84.33-2.84zM111.9 20.13l-.33 2.84.33-2.84zM111.9 20.13l-.33 2.84.33-2.84zM111.9 20.13l-.33 2.84.33-2.84zM111.9 20.13l-.33 2.84.33-2.84zM111.9 20.13l-.33 2.84.33-2.84zM111.9 20.13l-.33 2.84.33-2.84zM111.9 20.13l-.33 2.84.33-2.84zM111.9 20.13l-.33 2.84.33-2.84zM111.9 20.13l-.33 2.84.33-2.84zM111.9 20.13l-.33 2.84.33-2.84zM111.9 20.13l-.33 2.84.33-2.84zM111.9 20.13l-.33 2.84.33-2.84zM111.9 20.13l-.33 2.84.33-2.84zM111.9 20.13l-.33 2.84.33-2.84zM111.9 20.13l-.33 2.84.33-2.84zM111.9 20.13l-.33 2.84.33-2.84zM111.9 20.13l-.33 2.84.33-2.84zM111.9 20.13l-.33 2.84.33-2.84zM111.9 20.13l-.33 2.84.33-2.84zM111.9 20.13l-.33 2.84.33-2.84zM111.9 20.13l-.33 2.84.33-2.84zM111.9 20.13l-.33 2.84.33-2.84zM111.9 20.13l-.33 2.84.33-2.84zM111.9 20.13l-.33 2.84.33-2.84zM111.9 20.13l-.33 2.84.33-2.84zM111.9 20.13l-.33 2.84.33-2.84zM111.9 20.13l-.33 2.84.33-2.84zM111.9 20.13l-.33 2.84.33-2.84zM111.9 20.13l-.33 2.84.33-2.84zM111.9 20.13l-.33 2.84.33-2.84zM111.9 20.13l-.33 2.84.33-2.84zM111.9 20.13l-.33 2.84.33-2.84zM111.9 20.13l-.33 2.84.33-2.84zM111.9 20.13l-.33 2.84.33-2.84zM111.9 20.13l-.33 2.84.33-2.84zM111.9 20.13l-.33 2.84.33-2.84zM111.9 20.13l-.33 2.84.33-2.84zM111.9 20.13l-.33 2.84.33-2.84zM111.9 20.13l-.33 2.84.33-2.84zM111.9 20.13l-.33 2.84.33-2.84zM111.9 20.13l-.33 2.84.33-2.84zM111.9 20.13l-.33 2.84.33-2.84zM111.9 20.13l-.33 2.84.33-2.84zM111.9 20.13l-.33 2.84.33-2.84zM111.9 20.13l-.33 2.84.33-2.84zM111.9 20.13l-.33 2.84.33-2.84zM111.9 20.13l-.33 2.84.33-2.84zM111.9 20.13l-.33 2.84.33-2.84zM111.9 20.13l-.33 2.84.33-2.84zM111.9 20.13l-.33 2.84.33-2.84zM111.9 20.13l-.33 2.84.33-2.84zM111.9 20.13l-.33 2.84.33-2.84zM111.9 20.13l-.33 2.84.33-2.84zM111.9 20.13l-.33 2.84.33-2.84zM111.9 20.13l-.33 2.84.33-2.84zM111.9 20.13l-.33 2.84.33-2.84zM111.9 20.13l-.33 2.84.33-2.84zM111.9 20.13l-.33 2.84.33-2.84zM111.9 20.13l-.33 2.84.33-2.84zM111.9 20.13l-.33 2.84.33-2.84zM111.9 20.13l-.33 2.84.33-2.84zM111.9 20.13l-.33 2.84.33-2.84zM111.9 20.13l-.33 2.84.33-2.84zM111.9 20.13l-.33 2.84.33-2.84zM111.9 20.13l-.33 2.84.33-2.84zM111.9 20.13l-.33 2.84.33-2.84zM111.9 20.13l-.33 2.84.33-2.84zM111.9 20.13l-.33 2.84.33-2.84zM111.9 20.13l-.33 2.84.33-2.84zM111.9 20.13l-.33 2.84.33-2.84zM111.9 20.13l-.33 2.84.33-2.84zM111.9 20.13l-.33 2.84.33-2.84zM111.9 20.13l-.33 2.84.33-2.84zM111.9 20.13l-.33 2.84.33-2.84zM111.9 20.13l-.33 2.84.33-2.84zM111.9 20.13l-.33 2.84.33-2.84zM111.9 20.13l-.33 2.84.33-2.84zM111.9 20.13l-.33 2.84.33-2.84zM111.9 20.13l-.33 2.84.33-2.84zM111.9 20.13l-.33 2.84.33-2.84zM111.9 20.13l-.33 2.84.33-2.84zM111.9 20.13l-.33 2.84.33-2.84zM111.9 20.13l-.33 2.84.33-2.84zM111.9 20.13l-.33 2.84.33-2.84zM111.9 20.13l-.33 2.84.33-2.84zM111.9 20.13l-.33 2.84.33-2.84zM111.9 20.13l-.33 2.84.33-2.84zM111.9 20.13l-.33 2.84.33-2.84zM111.9 20.13l-.33 2.84.33-2.84zM111.9 20.13l-.33 2.84.33-2.84zM111.9 20.13l-.33 2.84.33-2.84zM111.9 20.13l-.33 2.84.33-2.84zM111.9 20.13l-.33 2.84.33-2.84zM111.9 20.13l-.33 2.84.33-2.84zM111.9 20.13l-.33 2.84.33-2.84zM111.9 20.13l-.33 2.84.33-2.84zM111.9 20.13l-.33 2.84.33-2.84zM111.9 20.13l-.33 2.84.33-2.84zM111.9 20.13l-.33 2.84.33-2.84zM111.9 20.13l-.33 2.84.33-2.84zM111.9 20.13l-.33 2.84.33-2.84z"/><path d="M111.95 20.14l-.44 3.72h-.02l.08-.89.33-2.84.05.01z"/><path d="M111.99 20.14l-.43 3.73-.05-.01.44-3.72h.04zM112.04 20.14l-.44 3.73h-.04l.43-3.73h.05z"/><path d="M112.09 20.15l-.44 3.72h-.05l.44-3.73.05.01z"/><path d="M112.13 20.15l-.43 3.73-.05-.01.44-3.72h.04zM112.18 20.16l-.44 3.72h-.04l.43-3.73.05.01z"/><path d="M112.22 20.16l-.43 3.73-.05-.01.44-3.72h.04z"/><path d="M112.27 20.16l-.43 3.73h-.05l.43-3.73h.05z"/><path d="M112.32 20.17l-.44 3.72h-.04l.43-3.73.05.01z"/><path d="M112.36 20.17l-.43 3.73-.05-.01.44-3.72h.04z"/><path d="M112.41 20.18l-.44 3.72h-.04l.43-3.73.05.01z"/><path d="M112.46 20.18l-.44 3.73-.05-.01.44-3.72h.05z"/><path d="M112.5 20.18l-.43 3.73h-.05l.44-3.73h.04z"/><path d="M112.55 20.19l-.44 3.73-.04-.01.43-3.73.05.01z"/><path d="M112.6 20.19l-.44 3.73h-.05l.44-3.73h.05z"/><path d="M112.64 20.2l-.43 3.72h-.05l.44-3.73.04.01z"/><path d="M112.69 20.2l-.44 3.73-.04-.01.43-3.72h.05zM112.73 20.21l-.43 3.72h-.05l.44-3.73.04.01z"/><path d="M112.78 20.21l-.44 3.73-.04-.01.43-3.72h.05z"/><path d="M112.83 20.21l-.44 3.73h-.05l.44-3.73h.05z"/><path d="M112.87 20.22l-.43 3.73-.05-.01.44-3.73.04.01z"/><path d="M112.92 20.22l-.44 3.73h-.04l.43-3.73h.05z"/><path d="M112.97 20.23l-.44 3.72h-.05l.44-3.73.05.01z"/><path d="M113.01 20.23l-.43 3.73-.05-.01.44-3.72h.04z"/><path d="M113.06 20.23l-.44 3.73h-.04l.43-3.73h.05z"/><path d="M113.11 20.24l-.44 3.73-.05-.01.44-3.73.05.01z"/><path d="M113.15 20.24l-.43 3.73h-.05l.44-3.73h.04z"/><path d="M113.2 20.25l-.44 3.72h-.04l.43-3.73.05.01z"/><path d="M113.25 20.25l-.44 3.73-.05-.01.44-3.72h.05z"/><path d="M113.29 20.25l-.43 3.73h-.05l.44-3.73h.04z"/><path d="M113.34 20.26l-.44 3.73-.04-.01.43-3.73.05.01z"/><path d="M113.38 20.26l-.43 3.73h-.05l.44-3.73h.04zM113.43 20.27l-.44 3.73-.04-.01.43-3.73.05.01z"/><path d="M113.48 20.27l-.44 3.73h-.05l.44-3.73h.05z"/><path d="M113.52 20.28l-.43 3.72h-.05l.44-3.73.04.01z"/><path d="M113.57 20.28l-.44 3.73-.04-.01.43-3.72h.05zM113.62 20.29l-.44 3.72h-.05l.44-3.73.05.01z"/><path d="M113.66 20.29l-.43 3.73-.05-.01.44-3.72h.04z"/><path d="M113.71 20.29l-.44 3.73h-.04l.43-3.73h.05z"/><path d="M113.75 20.3l-.43 3.72h-.05l.44-3.73.04.01z"/><path d="M113.8 20.3l-.44 3.73-.04-.01.43-3.72h.05z"/><path d="M113.85 20.3l-.44 3.73h-.05l.44-3.73h.05z"/><path d="M113.89 20.31l-.43 3.73-.05-.01.44-3.73.04.01z"/><path d="M113.94 20.31l-.44 3.73h-.04l.43-3.73h.05z"/><path d="M113.99 20.32l-.44 3.72h-.05l.44-3.73.05.01z"/><path d="M114.03 20.32l-.43 3.73-.05-.01.44-3.72h.04z"/><path d="M114.08 20.33l-.44 3.72h-.04l.43-3.73.05.01z"/><path d="M114.13 20.33l-.44 3.73-.05-.01.44-3.72h.05z"/><path d="M114.17 20.33l-.43 3.73h-.05l.44-3.73h.04z"/><path d="M114.22 20.34l-.44 3.73-.04-.01.43-3.73.05.01z"/><path d="M114.27 20.34l-.44 3.73h-.05l.44-3.73h.05z"/><path d="M114.31 20.35l-.43 3.72h-.05l.44-3.73.04.01z"/><path d="M114.36 20.35l-.44 3.73-.04-.01.43-3.72h.05z"/><path d="M114.4 20.36l-.43 3.72h-.05l.44-3.73.04.01z"/><path d="M114.45 20.36l-.44 3.73-.04-.01.43-3.72h.05z"/><path d="M114.5 20.36l-.44 3.73h-.05l.44-3.73h.05z"/><path d="M114.54 20.37l-.43 3.72h-.05l.44-3.73.04.01z"/><path d="M114.59 20.37l-.44 3.73-.04-.01.43-3.72h.05z"/><path d="M114.64 20.38l-.44 3.72h-.05l.44-3.73.05.01z"/><path d="M114.68 20.38l-.43 3.73-.05-.01.44-3.72h.04z"/><path d="M114.73 20.38l-.44 3.73h-.04l.43-3.73h.05z"/><path d="M114.77 20.39l-.43 3.72h-.05l.44-3.73.04.01z"/><path d="M114.82 20.39l-.43 3.73-.05-.01.43-3.72h.05zM114.87 20.4l-.44 3.72h-.04l.43-3.73.05.01z"/><path d="M114.91 20.4l-.43 3.73-.05-.01.44-3.72h.04zM114.96 20.41l-.44 3.72h-.04l.43-3.73.05.01zM115.01 20.41l-.44 3.73-.05-.01.44-3.72h.05z"/><path d="M115.05 20.41l-.43 3.73h-.05l.44-3.73h.04z"/><path d="M115.1 20.42l-.44 3.72h-.04l.43-3.73.05.01z"/><path d="M115.14 20.42l-.43 3.73-.05-.01.44-3.72h.04z"/><path d="M115.19 20.43l-.44 3.72h-.04l.43-3.73.05.01z"/><path d="M115.24 20.43l-.44 3.73-.05-.01.44-3.72h.05z"/><path d="M115.28 20.43l-.43 3.73h-.05l.44-3.73h.04z"/><path d="M115.33 20.44l-.44 3.72h-.04l.43-3.73.05.01z"/><path d="M115.38 20.44l-.44 3.73-.05-.01.44-3.72h.05z"/><path d="M115.42 20.45l-.43 3.72h-.05l.44-3.73.04.01z"/><path d="M115.47 20.45l-.44 3.73-.04-.01.43-3.72h.05z"/><path d="M115.52 20.45l-.44 3.73h-.05l.44-3.73h.05z"/><path d="M115.56 20.46l-.43 3.73-.05-.01.44-3.73.04.01z"/><path d="M115.61 20.46l-.44 3.73h-.04l.43-3.73h.05z"/><path d="M115.66 20.47l-.44 3.72h-.05l.44-3.73.05.01z"/><path d="M115.7 20.47l-.43 3.73-.05-.01.44-3.72h.04zM115.75 20.48l-.44 3.72h-.04l.43-3.73.05.01z"/><path d="M115.79 20.48l-.43 3.73-.05-.01.44-3.72h.04z"/><path d="M115.84 20.48l-.44 3.73h-.04l.43-3.73h.05z"/><path d="M115.89 20.49l-.44 3.72h-.05l.44-3.73.05.01z"/><path d="M115.93 20.49l-.43 3.73-.05-.01.44-3.72h.04zM115.98 20.5l-.44 3.72h-.04l.43-3.73.05.01z"/><path d="M116.03 20.5l-.44 3.73-.05-.01.44-3.72h.05z"/><path d="M116.07 20.5l-.43 3.73h-.05l.44-3.73h.04zM116.12 20.51l-.44 3.73-.04-.01.43-3.73.05.01z"/><path d="M116.17 20.51l-.44 3.73h-.05l.44-3.73h.05z"/><path d="M116.21 20.52l-.43 3.72h-.05l.44-3.73.04.01zM116.26 20.52l-.44 3.73-.04-.01.43-3.72h.05z"/><path d="M116.3 20.53l-.43 3.72h-.05l.44-3.73.04.01z"/><path d="M116.35 20.53l-.44 3.73-.04-.01.43-3.72h.05zM116.4 20.53l-.44 3.73h-.05l.44-3.73h.05z"/><path d="M116.44 20.54l-.43 3.73-.05-.01.44-3.73.04.01z"/><path d="M116.49 20.54l-.44 3.73h-.04l.43-3.73h.05zM116.54 20.55l-.44 3.72h-.05l.44-3.73.05.01z"/><path d="M116.48 21.44l-.33 2.84-.05-.01.44-3.72h.02l-.08.89z"/><path d="M116.15 24.28l.33-2.84-.26 2.84h-.07z"/></g><ellipse cx="114.02" cy="22.2" rx="1.85" ry="2.35" transform="rotate(-84.88 114.022 22.205)" fill="#231f20"/></svg>