<svg data-name="Layer 1" xmlns="http://www.w3.org/2000/svg" viewBox="0 0 233.94 213.98"><path d="M117.54 166.67a6.6 6.6 0 01-4.7-1.94L40.22 92.11a6.65 6.65 0 010-9.41l72.62-72.62a6.65 6.65 0 019.41 0l72.61 72.62a6.65 6.65 0 010 9.41h0l-72.61 72.62a6.64 6.64 0 01-4.71 1.94zm0-158.33a6.37 6.37 0 00-4.54 1.89L40.37 82.85a6.43 6.43 0 000 9.11L113 164.58a6.46 6.46 0 009.11 0L194.71 92a6.43 6.43 0 000-9.11L122.1 10.23a6.41 6.41 0 00-4.56-1.89z" fill="#010101" stroke="#000" stroke-miterlimit="10" stroke-width="2"/><rect x="59.64" y="23.81" width="115.79" height="115.79" rx="4.82" transform="rotate(-45 117.546 81.71)" fill="#010101"/><rect x="35.53" y="137.6" width="63.26" height="63.26" rx="7" transform="rotate(-45 67.162 169.24)" fill="#010101"/><rect x="7.86" y="96.54" width="44.32" height="44.32" rx="7" transform="rotate(-45 30.016 118.697)" fill="#010101"/><rect x="136.73" y="137.6" width="63.26" height="63.26" rx="7" transform="rotate(-135 168.36 169.235)" fill="#010101"/><rect x="183.34" y="96.54" width="44.32" height="44.32" rx="7" transform="rotate(-135 205.5 118.697)" fill="#010101"/></svg>