<svg data-name="Layer 1" xmlns="http://www.w3.org/2000/svg" viewBox="0 0 149.56 248.19"><path d="M144.7 58.17c-8.6-23.81 1.13-26.16-3-38.65-6.88-20.78-31-19.14-64.16-6.36-24.6 9.48-43.37-22.38-63.95 3.3C-.57 34.11 5.2 44.24 7.18 56c2.94 17.51-9.18 19.35-.33 45.8 2.24 6.68 6.41 46.91 5 67-.49 6.9 1.06 9 3 9.5 2.27.57 5-1.5 4.91-9.8-.29-19.05-4.23-60.74 9-60.61 10.5.1 13.15 23.34 12.79 45.7-.71 44.73-.34 22.6-1.23 45.48-.73 18.73-1.85 20.69-2 27.49-.39 22.44 13 25.26 12.23.53-.34-10.93-3-53.6-1.63-82.92 2-42.81 3-60.92 15.38-58.17 13.82 3 11.7 41.59 11.08 53.72s8.08 9.75 7.67.95-5.45-35.2 3.23-35.2c8.48 0 5.58 41.87 3.84 64.22-1.62 20.7 11 18 9.68.48-1.8-23.81-5.37-77.06 3.72-79.27 5.85-1.43 5.67 15.66 7.79 20.25 1 2.18 4.45 4 6.8.24 1.84-2.92.4-14.61 6.59-14.84 6.62-.25 6.59 21.29 5.58 31.52s6.72 9.51 6.72 1.42-3.6-24.86.89-42.36c2.3-8.95 11.48-16.05 6.81-28.96z" fill="#010101"/></svg>