<svg data-name="Layer 1" xmlns="http://www.w3.org/2000/svg" viewBox="0 0 144 131.49"><path d="M134.59 13.26c-3.49-5.06-8.73-9.37-16-9.46-8.46-.11-16 5.66-22.2 9.94A98.92 98.92 0 0078 30.45c-1.15 1.32-2.33 2.7-3.48 4.13A160.38 160.38 0 0062 17.75C57.24 12.2 52.06 6.42 44.46 3.62a22.66 22.66 0 00-21.55 3C16 12 13.5 19.92 13.18 28.18a12.58 12.58 0 00-9.5 5.25c-1.44 2 .1 5.11 2.31 5.84a5.31 5.31 0 001.16 2.46c1 1.28 2.64 1.62 4.15 2a11.72 11.72 0 003.4.62c.36 1.77.74 3.48 1.14 5.09 3.72 15.31 11.87 30.17 22.74 42.71a182.51 182.51 0 0019.63 19.27c7.15 6.11 15 13.21 23.84 17.52a4 4 0 001.15.37 5.51 5.51 0 005.44-.24 130 130 0 0032.27-33.66c8.5-12.58 15.69-26.32 18.85-40.66 2.94-13.36 3.15-29.39-5.17-41.49zm-65.95 96.56c.2.15.4.3.61.44a1.64 1.64 0 00.14.22z" fill="#231f20"/></svg>