<svg data-name="Layer 1" xmlns="http://www.w3.org/2000/svg" viewBox="0 0 160.67 162.69"><path d="M31.6 138.76c-2.85-.74-3.7-5.28-1.47-7.51 3.55-3.56 8-.87 6.7 4.06-.51 2-3 4.36-4 3.8a8.19 8.19 0 00-1.23-.35zM8 99.38a3.43 3.43 0 01-.76-2.08A3.58 3.58 0 018 95.17c1.93-1.88 4.92-.41 4.92 2.49-.05 2.34-3.25 3.45-4.92 1.72zm127.2 11.89c-1.31-.52-.91-3.85.56-4.67 2.69-1.47 5.13 1.07 4 4.11-.4.97-2.82 1.29-4.56.56zm-26.78-92.91c-2-2.07-1.26-5.07 1.32-5.07s4 3.55 2.14 5.33c-1.32 1.32-1.94 1.28-3.46-.26zM59 18.67c-4.12-2.32-1.93-7.15 2.38-5.38 2.69 1.17 3.1 2.84 1.07 4.87-1.38 1.48-1.69 1.48-3.45.51zm37.18 138.67c-4.09-3.82-.71-10.35 4.27-8.27 2.48 1 3.4 2.74 2.89 5.43-.71 3.76-4.56 5.27-7.16 2.84zm10.82 2.93c-1-1-.41-3.91.81-4.21a2.33 2.33 0 013 2.94c-.45 1.62-2.74 2.38-3.81 1.27zm44.73-129.86c-4.26-3.5 1.47-8.53 5.78-5.08 2.34 1.78 2.24 4.06-.2 5.33s-3.82 1.19-5.58-.25zm-112.47 84.3c-.16-3.92-.37-7.61-4.84-8.55-2.59-.54-5.58 0-7-2.62-1.58-2.88-1-7.28-2.23-10.51-3.3-8.39-11.25-14.21-18.4-19.19C5 72.61 3 71.07 2.92 68.91a4.86 4.86 0 013-4.36c5.08-2.46 10.84-1.41 14.62-6.65 2.06-2.87 4.21-7.44 3.31-11.06s-2.74-7.32-1-10.84a7 7 0 017.1-3.86c6.93 1.15 2.68 11 6.73 15 5.06 5 16.2-4 18.75-7.37s-3.94-7.51-2.7-11a3.92 3.92 0 014.24-2.47c3.31.59 4.14 5.86 5.84 8.21 2.12 3 4.43 4.42 8.19 3.41 3.93-1.06 10.38-2.57 12.3-6.57 2.91-6-.5-12.49.07-18.72.34-3.72 2-7.51 5.2-9.48C92.36.74 98 1.74 99 6.62c.5 2.48-.18 5-.65 7.5-.64 3.31-1.67 8.59.62 11.39 1.44 1.76 3.85 2.3 6 3 3.89 1.34 4.54 4.72 7.57 7.07 2.59 2 5.91 1.69 8.87.75 5.57-1.77 8.91-5.64 15.22-6.11 1.75-.13 3.81.09 4.73 1.58a3.65 3.65 0 01-.31 3.84c-2.48 3.71-9 4.42-9 9.62-.09 5.78 3.6 12.06 5.6 17.36 1.54 4 2.75 6.58 6.93 8.12 2.63 1 15.48 1.46 10.95 7.17-4.18 5.25-14.86-2.47-19 3.41-2.69 3.8-5 7.74-7.47 11.71-3.06 4.77-6.17 5.26-10.46 7.97-2.38 1.51-1.76 8.33-6.4 6.48-1-.41-2.33-1-3-1.22-9.36-3.33-9.55 12.11-7.7 17.95 1.63 5.14.93 14.23-6.21 14.28s-7.41-7.82-7.36-13c0-4.21-2.8-12.14-7.92-6.64-2.34 2.51-3.22 8.34-4.07 11.59-1.58 6-.65 15.55-6.88 19.19a6.23 6.23 0 01-6.9-.26c-4.55-3.71 1.54-12.09 2.63-16.24.93-3.54 3.11-8.05-2.15-9.22a10.3 10.3 0 00-5.7.71 33.94 33.94 0 01-5.51 1.84 11 11 0 01-10-3.55c-1.94-2.17-2.04-5.25-2.17-8.2zm77.72 6.9c-5.29-2.15-3.85-8.89 1.88-8.89 2.69 0 6.14 2.85 6.14 5.08 0 2.79-4.83 5.1-8 3.81zm-91.16-1.9c-1.36-.92.26-3.4 2-3.15s2 3.3.11 3.5a3.59 3.59 0 01-2.11-.35zM21.64 23.5a6 6 0 01-1.12-6.14c1.73-3.81 9.29-1.22 8.93 3.1-.25 3.4-5.53 5.48-7.81 3.04z" fill="#231f20"/></svg>