<svg data-name="Layer 1" xmlns="http://www.w3.org/2000/svg" viewBox="0 0 146.14 169.41"><path d="M34.88 136.38c-.15 2.49-.45 5.54 1.28 7.33 1.35 1.41 3.75 1 5.06.08 2.46-1.71 1.29-4 1.28-5.74 0-4.55 1.19-7.28 5.32-6.72 8.56 1.17 6.42 7.35 6.56 11.32.06 1.58-.37 3.51.81 4.67.88.87 2.38.28 3.35-.5 1.34-1.09 2-3 4-2.06 2.55 1.16 1.76 5.81 1.46 7.68a38.74 38.74 0 00-.83 5.84c0 4.19 4.36 7.68 8.48 7s7.18-3.84 6.65-8c-.3-2.35-1.2-9.21-1-11.58.55-5.45 3.39-7.06 6.19-7.29 5.8-.48 5.16 5.36 9.37 3.75 3.45-1.32 1.55-6.11 3.7-8.94 1-1.35 3-.79 3.71.6s.45 4 2 3.86c1.82-.15.79-2.72 1.68-4.72.7-1.58 3-2.77 6.17-2.4 4.25.48 3.35 6.58 2.8 8a4.58 4.58 0 01-1 1.36c-4.1 4.79-1.71 10 4.24 10.69 5 .58 9.91-4.61 7.17-9.34-5.85-10 2.39-19.41 8.07-27.81A70.71 70.71 0 102.57 73.29a69.57 69.57 0 0012.55 40.21c9 12.83 20.16 16.33 19.76 22.88z" fill="#010101" fill-rule="evenodd"/></svg>