<svg data-name="Layer 1" xmlns="http://www.w3.org/2000/svg" viewBox="0 0 140.04 160.83"><path d="M82.62 120.08l-17.55-30.4a5.31 5.31 0 00-4.6-2.68H25.38a5.31 5.31 0 00-4.6 2.65L3.23 120.08a5.35 5.35 0 000 5.31l17.55 30.39a5.31 5.31 0 004.6 2.65h35.09a5.31 5.31 0 004.6-2.65l17.55-30.39a5.3 5.3 0 000-5.31zM82.62 37.59L65.07 7.2a5.32 5.32 0 00-4.6-2.66H25.38a5.32 5.32 0 00-4.6 2.66L3.23 37.59a5.35 5.35 0 000 5.31l17.55 30.39a5.3 5.3 0 004.6 2.71h35.09a5.3 5.3 0 004.6-2.66L82.62 42.9a5.3 5.3 0 000-5.31zM135.7 79.54l-14.56-25.22a4.4 4.4 0 00-3.82-2.21H88.21a4.4 4.4 0 00-3.82 2.21L69.83 79.54a4.38 4.38 0 000 4.4l14.56 25.22a4.41 4.41 0 003.82 2.2h29.11a4.41 4.41 0 003.82-2.2l14.56-25.22a4.38 4.38 0 000-4.4zM99.79 25.59a8.46 8.46 0 108.45 8.46 8.45 8.45 0 00-8.45-8.46zm0 11.05a2.59 2.59 0 112.59-2.59 2.59 2.59 0 01-2.59 2.59zM99.67 129.31a1.47 1.47 0 01-1.14-.14l-1.68-.94-.94 1.68a1.51 1.51 0 01-.91.71 1.49 1.49 0 01-1.15-.14 1.51 1.51 0 01-.71-.91 1.47 1.47 0 01.14-1.14l.94-1.68-1.67-.94a1.52 1.52 0 01-.72-.91 1.54 1.54 0 01.14-1.15 1.51 1.51 0 012.06-.57l1.67.94.94-1.67a1.51 1.51 0 012.06-.58 1.51 1.51 0 01.71.91 1.49 1.49 0 01-.14 1.15l-.94 1.67 1.68 1a1.46 1.46 0 01.71.9 1.49 1.49 0 01-.14 1.15 1.51 1.51 0 01-.91.66z" fill="#231f20"/></svg>