<svg data-name="Layer 1" xmlns="http://www.w3.org/2000/svg" viewBox="0 0 166.91 153.66"><path d="M134.42 34.67c-.05-.05-.04-.03 0 0zM11.6 107.5c-.4-.16-.82-.27-1.23-.41-.08-.36.14-.88-.55-1a4.5 4.5 0 00-.64 2.24H8.02c-.42-.55-1.07-.27-1.6-.44a1.74 1.74 0 00-2.17 1.09c-.31.58.49 1.65 1.41 2a3.57 3.57 0 00.57.1c.82.22 1.71 0 2.48.66A.78.78 0 0010 111c.26-1 1.24-1.34 1.87-2 .59-.6.64-1.14-.27-1.5zM124.46 144.11c-.28-.41-.55-.45-.8 0a2.83 2.83 0 000 3.06.41.41 0 00.37.36h.39a.49.49 0 00.4-.37c.43-.27.55-.74.77-1.15v-.39a1.84 1.84 0 00-1.13-1.51zM62.75 5.29a.89.89 0 00.74-.77.85.85 0 00-.49-.94 2.25 2.25 0 00-2 0c-.6.31-.68.86-.41 1.57a3.77 3.77 0 002.16.14zM114.78 140.66c-.35.14-.38.44-.39.76-.35.15-.38.46-.37.78a.46.46 0 00.37.39 4.75 4.75 0 01.4.38c.24.51.68 1.1-.4 1.16-.3.1-.74-.25-.92.26.18.46.55.49.93.49h.39l1.92-1.16a1.19 1.19 0 010-1.53 1 1 0 00.05-1.59 1.36 1.36 0 00-1.98.06zm.28 1.37s-.01-.03 0-.03zm.13.17v-.06.07zM106.42 9.22c.69 0 1.27-.13 1.4-.9 0-1-.85-1-1.49-1.16s-1 .42-1.12 1c-.09.84.5 1.04 1.21 1.06zM58.73 7.46a2 2 0 00-.2 2.76c.74-.2 1.55-.1 1.87-1a.94.94 0 00.07-1.54c-.47-.68-1.2-.84-1.74-.22zM163.93 70.19c.14.67.35 1.25 1.08 1.07a1.92 1.92 0 001.59-2c-1.41-.84-1.97.23-2.67.93zM152.45 137.76a3.68 3.68 0 00-2.57 1.29 2.62 2.62 0 002.8 0c.49-.28.37-.89-.23-1.29zM117.46 21.15c-.64.07-.87.36-.55 1.09.35-.28.78-.26 1-.68.53 0 .78.24.77.77.16.57-.56.9-.53 1.5 1.85-.25 2.31-.79 2.09-2.28-.83-.39-.92-1.45-1.58-1.9-1.12.08-1.2.76-1.2 1.5zM166.41 58.86c-.59-.78-1.24-.91-1.89-.41s-.57 1-.09 1.67a2.32 2.32 0 001.98-1.26zM7.11 112.51a.77.77 0 000 1.18c.93.86 1.42.09 2-.6-.58-.7-1.11-1.38-2-.58zM155.24 65.13a1.45 1.45 0 000 .36.85.85 0 001.37.16c.22-.16 0-.41-.24-.53-.58-.73-.63-2.1-2.13-1.84-.46 1.1.25 1.49 1 1.85zM138.61 32.22c.1-.89.17-1.65-.91-1.76a.79.79 0 00-.89.79c0 1.09.72 1.16 1.8.97zM33.47 28.47h.37c.84.07 1.46-.17 1.61-1.1 1.44-.11.54-1.41 1-2.05.26-.36-.13-.91-.62-.95a.71.71 0 00-.76 1c.39.77-.06 1.12-.45 1.57a1.84 1.84 0 00-1.18.41c-.44.36-.58.76.03 1.12zM134.92 136.21c-.44.35-.9.7-.87 1.37a1.47 1.47 0 00-.36 0c-.57.35-.55.72 0 1.08H134c.4-.12.39-.46.41-.77.66 0 1.35 0 1.47-.83.12-.63-.42-.73-.96-.85zM143.53 42.24c.66-.49.76-1.07.35-1.56a.77.77 0 00-1.26.11c-.12.73.3 1.08.91 1.45zM115.56 13.07a.5.5 0 00.39.39h.38a.9.9 0 001.54 0v-.76a.62.62 0 00.25-.94c-.39 0-.53.26-.65.55H116a.92.92 0 00-.39.39zM41.22 18.07c.62-.41 1.13-.78 1.1-1.52.31-.87-.43-1.32-.78-1.92a1 1 0 00-.38 0c-1 .64.22 1.29 0 1.92-.97.57-.89 1.06.06 1.52zM65.11 16.77c.42 1.52.45 1.53 1.74.73-.42-.66-.85-1.23-1.74-.73zM142.91 29.25c.7-.8-.08-1.31-.38-1.91-.25-.44-.51-.44-.76 0a.48.48 0 00-.4.37c-.67.05-.93.42-.61 1 .49.92 1.24 1.29 2.15.54zM32.7 34.25c.5.46 1 0 1.5 0s.8-.32.7-.87c-.27-.15-.45.09-.67.12-.5-.2-.85-1-1.54-.38a1.85 1.85 0 00-1.91.9c.6.84 1.32.04 1.92.23zM21 101.83a.64.64 0 00-.56.66.77.77 0 00.88.75c.35 0 .55-.24.51-.7s-.28-.77-.83-.71zM136.25 139c.89.09 1.06 1 1.89.78-.14-1.56-.21-1.59-1.89-.78zM119.78 144.17c-.48 0-.71.16-.72.52s.21.86.75.87a.65.65 0 00.65-.56.73.73 0 00-.68-.83zM162.5 88.19c.65-.14 1-.54.64-1.55-.54.36-1.26.25-1.29 1a.49.49 0 00.65.55zM161.55 131.2c-.3 1.14-1 2.18-.12 3.28h.38c1.31-.47 1.41-.71.77-1.94a4.08 4.08 0 01-1.03-1.34zM70.33 135.6c.14-.84-.06-1.08-.42-1.09-.58 0-.7.48-.79.89a.49.49 0 00.45.53.71.71 0 00.76-.33zM133.1 136.94c-.16-.39-.23-.89-.8-.87a.5.5 0 00-.52.62.79.79 0 00.68.77c.37.07.54-.19.64-.52zM159.58 104c1.08 0 1.57-.3 1.29-1.46-.77.21-1.24.53-1.29 1.46zM67.31 10.31a.5.5 0 00-.14-.48c-.63-.4-1-.09-1.35.67.65.32 1.18.5 1.49-.19z" fill="#010101"/><path d="M133.94 39.39c.48.27.85-.19 1.27-.1l.38.42c0 .8.53 1 1.24 1.12a3.85 3.85 0 004.1-2.89c.21-.83.46-1.93-.67-2.52a2.16 2.16 0 01-.42-.38c-.15-.33-.45-.37-.77-.36a1.59 1.59 0 00-.38 0 4.62 4.62 0 00-3.9 0 1 1 0 00-.35 0c-.56.11-1-.25-1.62-.26a4.68 4.68 0 001.18 3.34c.71.55-.34 1.06-.06 1.63zM46.6 17c.21-.12.39-.32.18-.53s-.4.06-.61.11h-.74c-.66-.55-.77-.15-.79.44.53 1.19.73 1.19 1.96-.02zM75.6 138.74c-.66 0-1.46-.16-1.21.94.46.3.74-.09 1.07-.17.13.3.26.31.41 0 .55-.51.33-.73-.27-.77zM30.88 36.75c-.92-.41-.92-.41-1.7.38 1.08.11 1.08.11 1.7-.38zM16 61.43c-.33-.49-.72-.77-1.24-.29a.44.44 0 000 .68c.52.38.92.18 1.24-.39zM121.5 138.62a1.11 1.11 0 000-1.35c-.91.73-.91.73 0 1.35z" fill="#010101"/><path d="M156.82 131.8a1.58 1.58 0 01.37-.36v-.35c.52-.56.48-1.5 1.56-1.74.84-.19 1-1 .33-1.81l-.35-.42a2.63 2.63 0 00-.47-1.1.92.92 0 000-.37c-.08-.61.73-1.12.17-1.83-.51 0-.69.75-1.26.63l-.42-.36c0-.43.15-.9-.33-1.19l-.37-.39c0-.12 0-.23-.06-.35a.93.93 0 000-.33l.37-.41c.13-.13.25-.27.38-.41h.33a.51.51 0 00.43-.38h.5v.38c.06.29 0 .66.53.64.34-.24.15-.87.64-1h.37v-.1h.07l-.09.09c.68.69-.41 1.07-.31 1.6a1.09 1.09 0 001.07.72v.35c.07.3-.2.67.21.9.26-.26.12-.57.16-.85 1.61-.39 2.08-1.35 1.2-2.67a1.82 1.82 0 01-.4-1.19.71.71 0 00.42-.75c.83-1.1 0-1.13-.79-1.21a1.58 1.58 0 00-.74-.75.58.58 0 00-.42-.38c0-.62.28-1.43-.78-1.53v-.74c.45 0 .76-.28 1.13-.44.74-.09 1.64.37 2.19-.51-.43-.85-1-.07-1.39-.24a1.6 1.6 0 01.85-1.86c-1.11-.05-.64-1-1.23-1.23a1.45 1.45 0 000-.36c.69-1.22-.38-.64-.77-.75h-.71l-.11.1v-.09h.12l-.4-.43-.51-1.45a5.34 5.34 0 00-.69-.81 2.86 2.86 0 01-.4-.38c-.69-.4-.71-.39-.79.72v.09a.39.39 0 00-.4.34l-.41.38a1.21 1.21 0 00-1.1.74h-.77c-.38-.47-1.37-.78-.43-1.6a.42.42 0 00.43-.28c.94-.2 1.12-1 1.54-1.68a2.31 2.31 0 00-1.86-.92c0 .66-.09 1.21-.13 1.76l-.73.06-.4-.38a12.74 12.74 0 01.45-2.75c2.12-1.48 2.28-2 1.36-4.11l-.21-.52c.45-.29.28-.72.22-1.11l.14-.38a.52.52 0 00.37-.41c.75-.68.36-1.11-.32-1.48l-.84-.31A.85.85 0 01153 93a2.13 2.13 0 001.59-1.65l.68-.85a3.37 3.37 0 003.83-3c.15-2.12.56-3.34-2.57-3.9l-.19-.38c-.71-1.59-1.24 0-1.85.11a.51.51 0 00-.33-.11l.33-1.53.78-.42a1.61 1.61 0 001.57-1.44 1.13 1.13 0 00.24-1.21 5.36 5.36 0 01.47-1.89l.45-.41c.41-.78 1.29-1.56 0-2.32a3.74 3.74 0 01-.7-1.48c.49-.46.32-1 .25-1.57s.65-1 .83-1.58a2.13 2.13 0 00.19-2.25 3 3 0 00-2.83 1.16l-.43.3c-.65-.14-1.41.34-2-.37.09-.57.07-1.09-.66-1.22l-.36-.37a5.44 5.44 0 01-.05-1.8c.42-.33.6-.64-.07-.88h-.4c-.8-.37-1.17-.93-.74-1.79.28-.57 0-1.09-.1-1.62.31-.13.72.16 1-.36l-1-.83v-.38-.37a.77.77 0 00-.34-.83l-.44-.33a2.54 2.54 0 00-.39 0c-.42 0-.89-.14-1.16.36-.45.26-.52.77-.78 1.16a1.37 1.37 0 01-.35 0c-1.18-.06-.51-.76-.44-1.25.14-.33.65-.27.71-.69a.35.35 0 00.12-.32l.38-.48 1.53-1.87c.76 0 1.8 1 2.21-.51-.81-.7-1.48.16-2.19.07-.16-.25-.31-.5-.46-.76 0-.9.44-1.87-.34-2.67a.63.63 0 00-.72-.42c-.15-.21-.31-.28-.47 0-1-.54.28-1 .16-1.39l-2-1.27A.53.53 0 00146 47v-.39c.11-.79-.37-.82-.95-.74s-.83.57-1.31.74a2.69 2.69 0 00-2.3.4v-.8c.05-.33 0-.62-.32-.78a2.76 2.76 0 00-2.33-.79c0-.29-.06-.61-.4-.74-.14-.32-.26-.26-.39 0a.52.52 0 00-.4.37.79.79 0 00-.42.76c-.55.39-.23 1-.39 1.49l-.7-.33a.78.78 0 00-.42-.76c0-.79-.49-1.1-1.19-1.18-.12-.25-.24-.49-.35-.74.09-.57.18-1.14.28-1.72-.85.06-1.25.71-1.86 1h-1.87a.38.38 0 00-.27 0 .56.56 0 00-.51-.29.46.46 0 00-.31-.07 1.39 1.39 0 00-.42-.8.54.54 0 00-.07-.33v-.71l.07-1.58c.48-.27.35-.75.39-1.16h.37c.14.3.27.3.39 0 .44-.25.43-.51 0-.76V34.8c.31-.2.8-.37.44-.82a.69.69 0 00-1.24 0c-.76-.82-.21-1.83-.4-2.73v-1.89c.35-.53 1.12-.89.66-2.07-.56 1.07-1.69 1.31-1.83 2.42h-1.51a5.32 5.32 0 00-3.56-.23c-.26 0-.28.37-.32.61-.47.28-.38.75-.4 1.18-.5 1-1.4.8-2.25.75v-.74c.52-.21 1.57-.06.76-1.15-.12-.27-.24-.6-.62-.51-.08 0-.1.32-.15.5l-1.13.79c-.51-.46-1 0-1.53 0v-.78a2.54 2.54 0 00.71-1.16c.62-.72.42-1.59.42-2.4 0-1.68-.06-1.71-1.91-1.82a1.53 1.53 0 00-.36-.07c-.18-.77.42-1.83-.82-2.21-.63-.33-1.25-.8-2-.12h-.68c-.07-.49 0-1.05-.56-1.33-.88.73-.88.73-.63 2.51-.53.09-1.17-.33-1.55.36l-.78.81h-1.53c0-.41.12-.9-.41-1.13l-.39-1.15c-.12-.38-.44-.7-.35-1.14h-.06.71l.09-.13v.13H107a1.5 1.5 0 010 .37c0 .33 0 .64.36.79 1.43.52 1.56.46 2.37-1.14a1 1 0 000-1.57l-.41-.39-.38-.38 1.52-1.92c.56-.24.37-.73.4-1.15-.26-.45-.51-.46-.76 0h-1.15c-.5-1.28-.73-1.37-2-.77-.31 0-.61 0-.76.39h-1.15c.14-.38.43-.71.39-1.15.53-1 1.47-.76 2.32-.78h.36c.52 0 1-.45 1.57 0h.36c.32 0 .63 0 .78-.39a.49.49 0 00.38-.39v-.75a.52.52 0 00-.38-.39.53.53 0 00-.4-.39H109c0 .54-.26.79-.79.78l-.39-.38a1.92 1.92 0 00-.41.07 1.67 1.67 0 01.41-.07c-.36-.67-1-.32-1.5-.39-.59.4-1.38-.19-1.94.38v-.39c0-.31 0-.61-.37-.76-.49.12-.89-.51-1.49-.12 0 .42-.28.92.31 1.27.85.88-.11 2.21.77 3.08l.4.26c.27.51.75.35 1.17.38v.37c-1.09.1-.66 1-.77 1.54h-.38c0-.32 0-.63-.38-.78l-1.17-1.91h-.38V13.44h-.06v-.04l.06.06c.43-.27.41-.53 0-.77l-.38-.39c-.1-.52.23-1.15-.39-1.54a.51.51 0 00-.38-.38v-.39h.37a.5.5 0 00.4-.4c.15-1.13-.61-1.64-1.36-2.14-.76.47-.47 1.18-.59 1.75-.43.28-.4.55 0 .8 0 .32 0 .62-.37.77a.49.49 0 00-.39.38c-1.47 0-1.65.06-1.31.81a1 1 0 00.16.34v.76l-.7.41c-.59-.19-.25-1.29-1.15-1.17h-.4l-.13-1.3c-.46 0-.6.22-.73.51h-.39c-.37-.52-.76-.53-1.16 0-.51.26-.37.74-.39 1.16l-.36.44a.47.47 0 00-.4.35c-1.82-1-1.82-1-2.34.75a.83.83 0 00-.76.38.8.8 0 00-.76.4H87v-1.14c1.78-1 1.8-1 1.16-2.69-1 .45-1 1.79-1.93 2.3h-.75v-.35a2.15 2.15 0 00-.77-2.71c-.33-.47-.86-.56-1 0-.32.92.5.79 1 .85l-.39.74c-.7.66-.43 1 .37 1.2v.35a2.72 2.72 0 01-.34 1.46c0 .21-.34.39-.09.65.46 0 .43-.35.46-.65h.41c.35.18.68.45 1.12.34a.6.6 0 00.4.46v.77a1.3 1.3 0 01-1.93.38c-.26-.49-.7-.37-1.11-.32a.74.74 0 00-.36-.09c0-.13-.06-.25-.1-.37 0-.75.17-1.54-.74-1.92-.26-.47-.74-.32-1.14-.39-.06-.41.07-.89-.4-1.15-.26-.45-.52-.42-.77 0-.63.42-.32 1-.32 1.59a.87.87 0 01-.82.34c-.6 0-.58-.9-1.68-1 1.06.86 0 1.89.93 2.54l.3.09a.49.49 0 00.07.31c.09.65-.49.77-.83 1.08 0 .06.09.08.13.13h-.09v-.14a.93.93 0 00-.72.49h.06a.46.46 0 00-.4.37h.05l-.05-.05c-.33.16-.37.46-.39.77a1.82 1.82 0 00-.82.71l.08.09-.07-.1c-1.16.13-1.16.14-.75.85l.38.39a2 2 0 00.09.35c-.44.7-1.88.56-1.55 1.89-.09.43.09 1-.46 1.23l-.37-.05c0-.83-.57-.74-1.1-.77a.89.89 0 00-.74-.59 1.12 1.12 0 00-.11 1.79 2.2 2.2 0 000 .36 2 2 0 000 .34 1.15 1.15 0 01-.38.41 2.17 2.17 0 00-.36 0l-.39-.37c-.31-.46-.34-1.12-1-1.35-.45.56.1.94.23 1.39a2.17 2.17 0 01-.43 1.09 2.38 2.38 0 00-.37.06 1.22 1.22 0 00-.37 0c-.55-.61-.23-1.94-1.56-1.91v1.18l-.76.34c-.39-.49-.77-.52-1.14 0h-.74c-.59-.18-.25-1-.81-1.19-.17-.33-.35-.21-.51 0s0 .52.14.77c.39 1.12.39 1.12-1.16 1.15l-.36-.4c0-.31 0-.62-.4-.76l-.06.06.06-.05-.41-.36v.05-.05c-.56-.53 0-1.47-.73-1.94.09-1 .87-1.62 1.5-2.3s.22-2 1.47-2.33a.61.61 0 00.08-.37.72.72 0 00.37-.77c0-.45.1-.89-.36-1.18v-.75c-.06-1.34-1.39-1.46-2.06-2.42-.31.53-.88.61-.77 1.26.65.68 1.81.42 2.47 1.16 0 .24 0 .49-.05.73-.29.05-.6.07-.76.38-.74.25-1.63-.25-2.29.42a2.41 2.41 0 00-.38 0h-1.94a.92.92 0 00-.37 0c-.81 0-.8-.59-.74-1.17l.37-.38h.76a1.21 1.21 0 001.09-1.49c-.1-1.09-.94-.4-1.47-.46-.09-.71.22-1.65-1-1.8a2.11 2.11 0 00.19 2.2c-.27.54-.74.37-1.18.34-.74-1.3-.74-1.3-1.67-.86.35.26.78.44.91.91v.74l-.35.42c-.58.36-.34.95-.42 1.45-1.14.56-1-.91-1.6-1.08a1.18 1.18 0 00-1.08.72c-1.05-.27-2.13-.63-2.63.83 0 .38 0 .76-.07 1.14a2.3 2.3 0 00-1.56.77c-.61.25-.66.67-.34 1.18s.48.72.71 1.08l-.41.4h-.69c-.89-1-1.79 0-2.68 0a1.23 1.23 0 01-.11-1.39c.32-.67-.12-1.09-.77-1.2s-1.34.39-1.92.7c-.82.43-1.06-1.23-1.85-.39a.7.7 0 000 .38c.3.41.23 1.08 1.11 1 1.13-.06.67.72.47 1.29l-.11.71c-.4.42-.5.83 0 1.21 0 .55-.07 1.17.78 1.17.44 0 .89.11 1.17-.36.6-.2.14-1.28 1.12-1.24.82 0 .72.7 1 1.11a.55.55 0 00.14.12c.08.62.52 1.14.45 1.8s0 1.38 0 2.07a1.84 1.84 0 010 .33h-1.23a.65.65 0 01-.77-.76v-.39c-.4-.63-.8-.45-1.21 0a.78.78 0 00-.34 0 .4.4 0 00-.41.35c-.35.15-.37.46-.36.79-.29.12-.33.25 0 .4l.18.5c.9-.38 1.67.32 2.53.27v.34c.31.65 1.39.33 1.53 1.2 0 .42-.13.89.36 1.16a1.8 1.8 0 01.06.32c0 .26-.06.52-.08.78h.06a.81.81 0 01-.31 0v.07l-.39-.35-2.06-1.06a4.33 4.33 0 010 1.42.87.87 0 00-.4.73.85.85 0 00-.77.78l.07.08-.05-.11c-.49.17-1.11-.1-1.48.46-.54 0-1.13 0-1.14.76a.58.58 0 00.56.24h.08a.61.61 0 00-.11.23v.07a1.09 1.09 0 00-.35-.07.67.67 0 000-.31l-.15-.15c-.54.09-1.16-.21-1.61.33-.39.28-.38.57 0 .85-.11.57-.78.85-.75 1.49a1.51 1.51 0 01-1.86.76c-.41-1.76-.72-2-2.34-1.89-.88.24-.57-1-1.32-1-.26.55-.88.87-.92 1.51a1 1 0 001.08.68v.77a.42.42 0 00-.37.37V42a.38.38 0 00.37.36.68.68 0 00.34.06v.71a.85.85 0 00-.71.42.41.41 0 00-.38.38c-.44.26-.4.68-.42 1.1l-.72.86c-.58.35-.58.74-.08 1.17v1a2.3 2.3 0 00-1.1.49 11.9 11.9 0 01-.83 3.45c-.18.94.94.61 1.15 1.17v.75a.49.49 0 00.36.41c-.14.38-.44.71-.38 1.16a.68.68 0 01-.78-.78c.75-.71.08-.68-.39-.75-1.29.51-1.29.51-.33 2 0 .49.22.72.7.7h.42v.7l.11.09h-.11v-.1l-1.53.07c0-.52-.22-.8-.76-.78-.78-.28-.68.35-.8.77-.51 0-1 .13-1 .74 0 .4.37.37.65.44.08.44-.24.75-.39 1.12a.51.51 0 00-.37.4l-.41.35h-.34a1.52 1.52 0 00-.77-.79c-.15-.24-.38-.39-.61-.16s-.07.45.17.61a1 1 0 01-.75 1.1c-.67-.64-1-.46-1.14.41V62c-.3.7-1.24.1-1.55.76-.48.25-.51.77-.76 1.16-.43.25-.45.51 0 .79.81.74 0 2 .8 2.69.07.38.71.34.62.89-.7.81-2.05.26-3 1.29a10.88 10.88 0 012.1-.23c.81.07 1.25-.52 1.85-.81h.37c.13.52-.29 1.16.36 1.55.4.58 1.05 1.05.77 1.89-.48.2-.25.85-.68 1.08-.7.36-2.16-.47-2 1.26v1.14c-.67.79-.32 1.17.55 1.17.69 0 1-.47 1-1.14.42-.22.33-.63.4-1 .19-1 .78-1 1.52-.55l.37.4v.75c-.54.28-.34 1.18-1.22 1.3-.46 0-.42.69.09 1h.33a1 1 0 000 1.1c-.53.47-.94.25-1.51 0s-.73.19-.52.84h2.06a1.22 1.22 0 00.38 0c.39.24.92.27 1.17.74.09.32.22.37.38 0a2.19 2.19 0 01.36 0c.33 0 .63 0 .79-.36h.38a.49.49 0 00.43.36 2.24 2.24 0 01.37.1l.32.34.06-.06h-.09a1.14 1.14 0 01-.73.75c0-.35 0-.69-.48-.73h-.65a.47.47 0 00-.42.34v.07c-.51.38-.52 1.48-1.56 1.13a2.43 2.43 0 00-1.17 1.11c-.59.67-1.4 1.22-1.17 2.31h-.69c-.05-.31-.11-.61-.43-.76a.74.74 0 00-.4-.76c-.26-.53-.75-.36-1.18-.37h-.69l-.43-.4.38-.4a.44.44 0 00.39-.36c.62-.54 1.28.17 1.91 0 .4-.1.76.52 1.17 0a.5.5 0 00.4-.38c.94-.18.8-.78.5-1.66-.54.88-1.65-.32-2.08.85a1.76 1.76 0 01-.39.38c-.51-.25-.34-.7-.34-1.11 1.11-.48.13-1.32.35-2 0-.49 0-1-.77-.8a.9.9 0 00-.8.41.84.84 0 00-.35 0 .42.42 0 00-.39.34c-1.55.16-2.3.92-2.69 2.72-.61.51-.26 1.37-.72 1.93a1.17 1.17 0 00-.07 1.53l-.41.36c-.55.08-1 .23-.39.83s1 .28 1.57.38c.36.38.34 1.2 1.12 1.09.62-.1.41-.68.49-1.09a1.43 1.43 0 00.74-.79c.7.53.26 1.27.37 1.91l-.33.62c-.41.21-.91.27-1.14.74-.66.5-.51 1 0 1.53a1 1 0 000 .3 2.38 2.38 0 01-.37.06c-.32 0-.63 0-.77.39h-.38c-.39-.51-.77-.54-1.14 0-.37.12-.4.42-.41.74v.39c-.31.14-.31.27 0 .4l.39.38h.39v-.38a.48.48 0 00.38-.4v-.37h2.7l.4.47L15 92a.61.61 0 00.12 0l-.1.13c0 .31 0 .58.4.67s.41.39.32.61a1.25 1.25 0 00.78 1.73l.41.39.4.77-.06.69-.67.41c-.42-.44-.44-1.22-1.19-1.41-1 .21-.74.8-.44 1.42-.37.28-.38.55 0 .81.39.53.79.49 1.22 0 1-.36 2-.83 3 0v.33c-.29.15-.3.3 0 .45v.32c-.37.54-1.53.11-1.48 1.19a.83.83 0 01-.79.41l-.75-.44c-.28-.43-.55-.41-.81 0-.76.48.24 1 0 1.52-.44 1.11-.44 1.11 1.22 1.16a.92.92 0 001.54.08c.14-.13.27-.26.4-.4.42-.28.4-.56 0-.85a1.32 1.32 0 000-.34l.05-.74a2.12 2.12 0 011.52-.44c.67 0 1.38.27 2-.31 0 0-.06 0-.08-.07l.06.07a1.28 1.28 0 00.34-.07c.58-.33 1-1.61 1.88-.35a.54.54 0 00.42.39c.22.53 1 .2 1.18.75.15.36.47.38.79.37h.36a.49.49 0 01-.39.38h-.37c-.45.25-.45.51 0 .77v.36h-1.89c-.47-.17-.63-1.31-1.44-.51-.07.8.84.73 1 1.25a.45.45 0 01-.36.37c-.61-.69-.93 0-1.4.19a1.74 1.74 0 001 1 .51.51 0 00.4-.37.47.47 0 01.38.38 1.26 1.26 0 00.31 1.83l1.23-.29c-.17 1.5-.17 1.5 1.17 1.16a7 7 0 00-1.31-1.77c-.12-.9.81-1 1.16-1.52h.37a.43.43 0 00.39.34h.38c.37-.12.39-.42.38-.74-.1-1 1.19-.58 1.36-1.29-.19-.8-1.35.62-1.36-.61l-.76-.8.75-.4h3.11l.75.42a.5.5 0 00.39.39c.29.48.75.35 1.17.33 0 .43-.66.59-.46 1.16 1.18.11.72-1.11 1.23-1.51h.74a.5.5 0 00.42.34l.37 1.56-1.53.75c-.33 0-.63 0-.78.38a.47.47 0 00-.37.38v.39a.44.44 0 00.38.38c.13.34.44.38.75.43a1.33 1.33 0 002 0l.74-.41.8-.39h.38a.42.42 0 00.35.35l.39.08c.28.37.55.39.81 0a.51.51 0 00.38-.39l.39-.41a.93.93 0 011.1 0c.05.46-1 .74-.24 1.36.78-.23.6-.87.67-1.38.48-.3 1.18-.37 1.16-1.16v-.75l.35-.4a2.29 2.29 0 011.54-.4c.11.15.21.31.31.46a.82.82 0 00.82.74 1.4 1.4 0 00.75.76 1 1 0 01-.72.74 2.58 2.58 0 00-2.32.77.44.44 0 00-.37.39v.78c-.12.48-.79.69-.64 1.29.31.38.69.23 1.06.19 1 .14.61.68.32 1.19l-.9.31c-2 .69-2 .69-1.85 2.79.05.55.26 1.15-.26 1.65-.46.25-1.35-.38-1.48.68.19.44.67.52 1 .78 1.37.69 3 .52 4.31 1.52a.88.88 0 001.16-.36l.37-.4a.94.94 0 00.7-.8c0-.32 0-.61-.31-.77v-1.53a.55.55 0 00.39-.39c.54-.16.25-.83.67-1.06s.57.21.85.32c-.68 1 .06 1.46.79 1.9-.23.73-1.47.86-1.16 1.91h.05-.05a.75.75 0 00-.35.73.47.47 0 00.33.45 1.2 1.2 0 010 .38.51.51 0 00-.38.39c-.43.69-.52 1.26.49 1.46.54-.35 1-.7 1-1.43v-.79h1.19v.76c-.32 0-.63 0-.76.39v.75c-.43.26-.44.52 0 .78h.38c0 .66.42 1.41-.41 1.88-.51.39-.43.81-.06 1.22s.6.4.87 0l.77-.46c.35-.09.37-.38.41-.67a3 3 0 011.9.32l.1.07a.26.26 0 00.22.32l.06.81h.07a.18.18 0 010 .07c-1.13-.11-2 .07-1.93 1.53h-1.15a.7.7 0 00-.38 0l-.77-.05c-.35-.59-.74-1-1.42-.23a2.39 2.39 0 001 1v.39c-.58.65-.38 1.49-.6 2 .39.91 1.31.37 1.68.94.24 1-.35 1.75-.58 2.57.23.11.33.2.45.21a3.57 3.57 0 00.56 0c.66.18-.34 1.09.52 1.17h.64c.62.14.25 1 .88 1.16h.69c.62-.36.47-1.1.78-1.61a.92.92 0 01-.29 0h.29a7.49 7.49 0 001.21-2.57c.67-.63.23-1.56.66-2.33s-.26-1.15-1-1.16c-.42.11-.43.43-.41.76a1 1 0 01-.07.34c-.43.1-.73-.22-1.08-.36v-.81h.39a3.09 3.09 0 00.39-.33l-.39.33a.38.38 0 00.39-.33c.31-.13.31-.26 0-.39v-.76c.37-.13.4-.45.41-.76a.51.51 0 00.35-.41.45.45 0 00.4-.37l.4-.39h.37c.69.61 0 1.69.77 2.28.51.56.09 1.47.76 2a1 1 0 001.58 0h.3c.88.72 0 1.94.8 2.69a.86.86 0 000 .32c-.28.16-.3.3 0 .4a.45.45 0 00.35.41.55.55 0 00.35.45.89.89 0 00.72.37l.11 1.09c.44 0 .73.33 1.13.41.27.41.53.43.79 0l.36-.35c.12-.54-.23-1.2.42-1.59h.32a.82.82 0 00.81.37c.51.79 1.23.5 1.92.37.53-.07 1.16.24 1.56-.36a2.31 2.31 0 01.37 0 1.14 1.14 0 00.78-.77 2 2 0 000-.34c1.22-.17 1.21-1.05 1.15-2 .09-.52-.25-1.15.38-1.54v.37a.53.53 0 00.37.41c.27 0 .51.48.8 0 .51.24.33.69.32 1.08a1.47 1.47 0 00-.77 1.15c-.4.6-1.1 1.18 0 2a2.17 2.17 0 012.36-.68 1 1 0 00.07.29.46.46 0 00.32.43v.68l.07.08h-.07v-.09l-.38.05c-.78-.89-1 .41-1.53.4l-1.13.34a1 1 0 001.15.75c.81.27 1.28-.41 1.88-.69.14.25.27.5.41.74l-.4.77c-.15.05-.24.21-.14.27.28.18.45 0 .56-.26a12.63 12.63 0 013.34.86c.68-.89.44-1.87.45-2.82 0-.11 0-.23.07-.34h.73a1.08 1.08 0 001.19.73h1.11l.42.42a1.81 1.81 0 000 .31l-.38.42c-.53.12-1.1-.11-1.62.16.19.38.56.48.88.64-.22 1-1.29 1.53-1.19 2.64-.52.26-1-.74-1.56 0h-1.07c-.46-.36 0-.92-.22-1.3-1.28.4-.73 1.75-1.37 2.47-.5.27-.38.55 0 .85a.44.44 0 00.36.34c.17.27.32.28.48 0a3.72 3.72 0 002-1.54l.33-.4h.74c0 .49-.13 1.12.65 1.12a.94.94 0 00.9-.84 2.78 2.78 0 000-.76c0-1.31.65-1.84 1.87-1.83l.07-.1a.15.15 0 000 .07h-.08c.28.44.82.47 1.18.77v-.15h.1a.44.44 0 01-.08.11c.15.38.44.7.39 1.15-1.57 0-2.78.4-2.86 2.26-.63 0-1.13 0-1.63.09a1 1 0 00-.9 1c0 .57-.11 1.2.76 1.22.81.18 1.46-.51 2.25-.41l1.59-1.57a1.46 1.46 0 01.77-.72c.33.15.25.35.06.54-.56.58-.11.79.36 1h.35c.89-.37-.09-1.16.51-1.81.2-.23.84 0 1.18-.47a.87.87 0 000-1.2c-.29-.34-.61-.45-.89 0-.32 0-.63 0-.77-.39s0-.62.39-.75c.26.44.52.42.76 0v-1.24a.5.5 0 010-.3c.44-.28.42-.53 0-.77V133.5c.44-.25.46-.51 0-.77a1.51 1.51 0 010-.37c.14-.58-.36-1.47.78-1.55l.06-.09h.27L89 131h1.12c.32 0 .66 0 .8.39a.52.52 0 00-.38.39 2.24 2.24 0 000 2.71c.4.51.79.53 1.17 0 .52-.09 1.15.24 1.54-.38s1.13-.76 1.16-1.54c.93.51.48 1.68 1.13 2.33v.71c-1.23-.09-1.15.76-1.12 1.57-.52.1-1.15-.24-1.54.39a.69.69 0 01-.32 0 .49.49 0 00-.43.4v.74c-.29.11-.33.24 0 .38v.39c-.32.16-.26.28 0 .38 0 .57-.08 1.19.8 1.15h.73c.52.13.68-.46 1.09-.55.74.48 1.34 1.56 2.4.57.79-.07.54.35.36.75q-1.22.58 0 1.17c.4.51.78.52 1.17 0 .45-.26.43-.52 0-.78l-.38-.39c.16-.5 1-.85.38-1.53.05-.35 0-.82.59-.64s.77-.1 1-.52h1.13l.45-.33v.05l.37-.39c.35.12.35.4.33.69a1.58 1.58 0 01-.35.38 1.12 1.12 0 000 .32 1.16 1.16 0 01-.35.47.52.52 0 000 .3c-.23.17-.34.34 0 .46a.5.5 0 00.3.05c.42.41.84.48 1.23 0l.47-.36c.32-.15.32-.45.33-.74l.74-.1a1.91 1.91 0 001.49.4c.63-.12.27-1 .83-1.13.58 0 .81-.27.73-.83a3.37 3.37 0 001.24-2.2c.52-.43.23-1 .34-1.56l.71-.78a2.87 2.87 0 001.21 1.13 1.69 1.69 0 01-.41.81c-.63.9-.46 1.15.75 1.19.23 0 .46.24.78-.06-.1-.42.27-.72.5-1.1s-.17-.64-.46-.85v-.38l.43-.74c.39-.25.86-.37 1.14-.77h.37a1.54 1.54 0 00.77.78c.18.34.46.35.78.24 1-.18 1.14-1 1.18-1.79.38-.65 1.18.37 1.53-.37a1.14 1.14 0 001.14-.78c-.13-.38-.45-.4-.78-.4h-.37c.17-.57 1-.21 1.16-.77a2.22 2.22 0 010-.37l.38-.39h1.14a.64.64 0 00.75-.38v-.07a.27.27 0 00.34-.31.44.44 0 00.1-.35l.35-.42h-.05H123.45l.74.1h-.06c0 .41-.1.88.39 1.13a2.62 2.62 0 01.42 1.51v.4l-.34.78a.32.32 0 000 .35.31.31 0 00.32.37l.17.07h.19v.11c.07.28.15.54.47.63.4.28.8.56 1.21 0l.7-.08c.55.09 1.12.31 1.52-.32 1.14-.15 1.94-1.26 3.19-1.1.39.58.1 1.39.65 1.92v.41c-.08.31-.6.67-.15.9s.45-.29.52-.59a1 1 0 00.81-.32 2.42 2.42 0 001.1.38.91.91 0 001.52 0c.48-.24.39-.53.06-.84v-1.44h.72c.16.32.46.36.78.36h.39l.38.39c.41.44.21 1.18.78 1.53.15.33.44.37.74.38h.81c.21.43.46 0 .69 0 .06.3.1.6.42.75.06.84-.11 1.76.79 2.3v.39a.48.48 0 00.38.38c.12.31.25.3.38 0 1.15.05.63.94.77 1.5-2.16.1-4.38-.2-6.51 1 .86.92 1.79.56 2.65.57h.4c1.51.11 2.76 1.16 4.26 1.35.61-.91.14-1.52-.35-2.12l-.09-.72h.82c1.62-.21 1.79-.5 1.13-1.92-.38-.5-.77-.49-1.17 0h-.37l-.37-.06-.37-.35v-.86h.38c.43.09.87.22 1.17-.27l.75-.07c.47-.23.44-.48 0-.73V134.67l.37-.4c.56.18.2 1 .75 1.16l.79.39c.27 1.36.45 1.43 1.93.77l.78-.4c.56.56 1.08 1.26 1.93.41h.75a.46.46 0 00.41-.34c.49-.29.48-1 1.12-1.19h.4l-.23-.22a1.19 1.19 0 00.23.22c.75 0 1.3-.54 2-.74 1.47-.25 1.12-1.22.95-2.27-.68 0-1.31-.38-1.8.34h-.32l-.43-.05v-.36zm-70.41 9.93a1 1 0 000-.17.94.94 0 010 .16zm-25.17-10.59zM24.61 77.87l-.05-.05h.05zM76.26 22zm66.66 27.39zm12 73.2l.12.06a.45.45 0 01-.12.06v-.12zm-26.57 3.89h.07zM40.4 99zm33.16 21.59zM54.75 22.84a.13.13 0 00-.09 0v-.06a.16.16 0 01.09.06zm37.45-3.45zM151 96.33zM52.39 31.14zm8.83 2.72zM26.53 72.38a.16.16 0 00.07 0l-.06.07s0-.04-.01-.07zm107.9 47.85zM131 121.4a.41.41 0 010 .12l-.06-.09h.05zm-29-91.79v.1h-.1zm-18.89 92.2zm60.74-15.14a.42.42 0 00-.12 0h.07zm-19.09 8.56zm18.33-23.91a.24.24 0 01-.2 0 .24.24 0 00.24 0zm-95-.79zM62 41.6zm71.5 17.13zm-12.36 54.09a1.21 1.21 0 010-.19v.19zM59.66 42zm48 70.53h-.17a.34.34 0 01.08-.09.47.47 0 01.06.1zm-41.41-6.49v-.08zm57.84 3l-.03.06zM51.18 83.63zm7.71-34.32zm49.37 4.24s.02.02 0 0zm-54.35.31v.06h-.06V54zm1.91 1.61zm33 48.68zm9.87-52.42s-.06-.06-.06-.11h.1a.56.56 0 00-.07.11zm-38.25 6.41zm5.39 3.12zm-10 8.61s0 .07-.06.13a.5.5 0 01.06-.13zm60.48 14.88zm-21.68 4.82l.07-.11-.06.11zm26.71-12.09zm-20.82-7.74zm-29.3 2.68zm-11.55-4.63zm.06-2.23zm30 3zm5 7.7zm-5-4.22zm-5 1.62h-.08.1s-.04-.02-.05.01zm-1.96 12.26zm18.47-7a.22.22 0 010 .08zm.82-1.51a.35.35 0 000-.08zm0-.43c-.06.02-.06.02.01.02zM83.56 74zm-22-1.58h-.06.06zm16.58 9.25h-.65a.76.76 0 01.68.01zm33.15-5.39zm8.09-4.55v-.07zm-15 14.59zm.77.36zm.78.79zM91.27 71.28zm-33.92-5.37zm1.14 2.61h-.06zm8.88 14.71h.15l-.15.08zm55.13-3.48zm1.15 1.16zM100.17 68.2h.05zM69.68 85.13zm25 4.28zm-6.54-24.3zM58.9 61.65zM74.39 89s-.02 0 0 0zm12.23 3.52zM82 67.81zm-6.55.38v-.07a.18.18 0 000 .07zm-13.11-6.95zM56.2 72.43zm70.9 17zm-.37-7.69zM75.27 67h-.09a.19.19 0 000-.08h.07zM56.2 61.29zm-.79 3.48h-.07.09zm24.3 27.32zm20 .27l-.13-.36a3.24 3.24 0 01.17.36zm17-4.53zM131 89.39s0 .01 0 0zM102.86 64zm-.41-.42zm-21.59.35zm-.77-.74zm-11.57-.37a.77.77 0 000 .15.19.19 0 010-.13zm64.37 14.64zm-10.4-8.1zM100.91 62v-.07zm-22.65-3.37zM51.57 74zm83.26 11.56zm-7.71-9.25zM85.88 60.48zm-35.46 7.28h-.08zM46.56 74zm1.15 0zm.76-.06zM87.8 97.1v.07h-.06zm47.85-16.57h-.05s.03-.02.05 0zm-17.4-18.17zm-14.64 0v.06zm4.71 34.73h.12zM98.6 54.7s0-.01 0 0zm-12.74 2.67zm-33.53 1.55h-.07.07zm13.5 33.94zm7.82 8.14s0 .09.07.14a.5.5 0 01-.08-.12l.01-.02zm18.78.37zm41.24-6.29a.36.36 0 000 .09zm3.47-10.31zM85.5 54.3zM77 55.91zm-5 .41zm-12.34-1.56h.05a.1.1 0 00-.05 0zM52 64zm-5.45 3.45l.1-.07v.08h-.18zm-.68.77zm56.24 39.34zm8.05-8.56h.12-.12zM52.39 58.18l-.06-.05zM46.15 79v-.06h.07V79zm15 6.11h.09a.86.86 0 00-.07.1.3.3 0 00-.05-.06zm58.29-27zm-11.52 1.51v-.05zM65.05 52zM43.49 78.61zm12.71 1.53zm8.09 15.08zm56.25 4.18zm10.82 2.71zm8.1-28.52h.07s-.07.06-.09.1 0-.06 0-.09zM83.56 53.9zm-25.08-8.82s.01 0 0 0zM131 104zm-3.08-37.72h.08c0 .1.07.19.1.27a1.05 1.05 0 01-.21-.28zm.39-.77zm-1.93-2.7a.15.15 0 010-.07v.07zM87.42 40.48zm-11.18 10v-.11h.16zm-2.62 2h-.08a1.29 1.29 0 00.17-.15c-.02-.03-.06.03-.09.1zM56.19 48.1h-.07v-.08a.27.27 0 00.07.08zm12.3 51.33zm12 2.68zm.77 5zm20.82-61.67h.05s-.04.01-.06.01zm-28.53 5.79zm-18.12-2.69zM40.39 72zm10.75 13.88zm85.23 18.93zM92 39.05V38.9zM40.38 72zm17 25.45zM77 104.81zm30.45 9.25zM142.15 82a.35.35 0 01.18 0 .83.83 0 00-.18.07zm-1.66-12s.01 0 0 0zm-20.31-14.91zm-51.27-4.62zM39.23 61.65h-.06.07zm2.7 18.86h-.07zm9.38 7.42l.16.11a.17.17 0 01-.18-.06s.01.02.02-.05zm36.49 22.66a.34.34 0 01.06.06s0 .07-.06.09a.75.75 0 000-.15zm8.87-2.7zm13.87 3.86zm27-2.34h.07-.07zm1.95-.71h.06zM97.88 37.46zM56 41.56a.46.46 0 01.17.33 1.73 1.73 0 01-.17-.33zm-17 20.1h-.1zm-.88 11.55zm16.15 17.34zm17 18.28h.16a.52.52 0 01-.12 0zm62.77-4.75s.04-.01.04 0zm9.63-32.82zm-1.18 1.93zM124 55.09zm-7.71-5zm-9.25-2.31v-.08h.06zm-1.54-3.86zM84.08 38zm-27.86 1.24zm-5 10.36zM54.27 89zm69 25.44zm4.64-1.86v-.08h.09zm14.63-2.39v-.11a.42.42 0 000 .1zm.37-39.28zM124 53.93zm-17-7.71zm-36.23.39v.06zm-10.05-6.09zM52 45.47zM36.15 75.41a.3.3 0 000 .08v.05-.05-.08zm51.27 41.37zm10-6.19zm20 3.47zm14.64-3.39v-.08zm10.42-.85zm.38-18.5zM87 35.05zm-7.72 7.32zm-10 2.76v-.06h.07zm-17-1.21zM50 49.35zm-8.47 8.44zm-4.62 23.9h-.06.05zm29.68 33.53zm83.25 5zM129 54zM85.88 34.28zM79 37.79s0-.01 0 0zM44.54 93.46h-.17.17zM74 111.73zm5.35 5.42h.06-.06zm6.94 3.09zM142.75 105a.5.5 0 010-.12v.12zm.56-4.84v-.12.12zm-11.95-44.3zm-13.11-7.71zM92.83 29.72v-.06zM69.69 44.3zM40.36 57.46zM35 73.58zm12.7 18.94h-.05zm102.54 28.86h.06l-.05.06v-.06zM143 104.47h-.09l.12-.07zm3.34-13.85zm2.75-10.86h.05zm-36.62-35.08zm0-.37zm-27.37-15zM82 31.57zm-1.11 2.36zm-29.71 2.31zm-17.74 20zm3 21.75l-.34-.15a.82.82 0 01.38.16zM52 99.79zm45.1 21.63zm13.85-1.17v.1a.58.58 0 01-.18 0zm41.27-3.11zM146 93.64s0-.01 0 0zm.38-3.86zM134.44 57.4zm-31.22-24.27zm-10-3.89zm-15 6.87v.09a.22.22 0 00-.06-.09zM45 90.56zm108 32.08v-.1a.21.21 0 000 .1zm-14.32-62.15zm-35.86-30.81zm-72 58.55a1.83 1.83 0 00.45-.14.89.89 0 01-.45.14zm3.79 0zM40 94.38zm3.07.42v.07l-.07-.08zm.39.38v-.06zm8.13 1.16h-.06zm25.79 22.74zm4.23 5s0-.02.01-.02zm44.74-4.59zm.37 0zm26.28 3.43h-.08zm.35 0zm-42.8-88.26zm-18.5-8.52zm-15.12 8.58zM52.72 31.2zm-2.61 8.28h.19-.19zm-5.86 6.36v-.07.07zm-9.64 36.1v.13h-.13zM32.28 89h.06zm10.81 6.15zm105.22 4.66zm2.37-3.5zm-2.34-1.94zm-.41-.77v-.07a.46.46 0 00.07.07zM114 40.87zm-8.88-9.69zm-23.87-4.27h-.08zm-45.47 27v-.06h.08zm19.63 60.9s0-.07.06-.1a.28.28 0 000 .13h-.07s.01 0 .01-.01zm7-1.92zm36.24 15.78zm13.11-2.28zm2.29.74h.08-.06zm21.54-6.94zm12.38-27zm-24.31-52.02s0 .02 0 0zm-14.29-6.48zm-64 10zM27.29 90.55zm23.92 15.77a2 2 0 00-.24 0l.13-.09.11.1zm.7 5.78v.06a.43.43 0 000-.06zm13.91 11.6zm43.21 3zm33.15-1.92zm5.37 4.3zm3.86-56.7zM145.58 62v-.11h-.06s.07.11.06.16zM129 46.22zm-10.41-4.29zm-4.62-8zM102 25.73zm-40 7zm-7-3.86zm-7.72 68.2zM74 120.19zm55.74 7.4c0-.16.06-.06.1 0a.17.17 0 00-.15 0zm7.06-6.59h.07l-.07.11zm7.3 7.35zm0 1.08zm7.74-1.9zm.4-15zm-35.91-77.86zm-1.54-4.25zm-38.15-6.55h.13l-.14.08s0-.05.01-.08zm-11.55 6.94zm-35.49 47zm-10.44 14v-.07h.05a.43.43 0 00-.05.07zm16.61 2.59c-.05.07-.09.14-.14.2v-.2zm32.83 34.32zm54.55-4.09v.07-.07zm24 5.22h.06-.06zm1.15.36zm8.86-12.65zm-5.77-18.93zm-20.82-53.56zm-13.87-10.4zM86.28 20.8zm-33.52 1.12zM29.19 50.13zM18 94.4zm12 3.11s0-.01 0 0zm.4-1.13zm37.39 32.73zm6.17-6.57zm31 14.93a.34.34 0 01.12-.06zm39.81-79.64v-.08h.05a.3.3 0 00-.05.08zM86.27 20zm-38.16 0h-.05.05zm-4.24 17.74l-.07-.11h.07v.1zM25.72 58.22zm-8.08 36.17zm30.83 14.25h.06zm12.7 18.91zm8.15-.73h.08zm7-.38zm2.67 6.09zm42.42-4.61zm34.28 2.72zm-3.85-24.28zm2.31-16.58zm2.41-17.06s-.05-.01-.05 0zm-.5-3.72zm-4.66-.38zm-43.94-47.45zm-.33-5.75h-.08zm-86.78 81.3a1.63 1.63 0 00-.2.17v-.17zm28.14 7.7zm0 .78h-.06l.06-.07zm21.21 21.66v-.08h.06zm6.52 1.82zm22 7.32v.07a.17.17 0 000 .05v-.05zm39.31-6.19zm16.23-19.61zM149 52.36c0 .15-.09.27-.24.28.08-.09.24-.18.24-.28zm-42.71-36.64zm-10.76-3.43a.22.22 0 01-.12-.11zM78.91 15zm-7.11 9.4a.75.75 0 00.32.21l-.35.14-.07-.06a1.09 1.09 0 00.1-.32zM30.34 43.84zm-4.6 36.71zm17.81 35.81h.38l-.09.16c-.1-.1-.19-.12-.29-.16zm10 9.68c.13 0 .14.13.13.24a.92.92 0 00-.1-.28zm-.45 0zm45.7 12.19c-.21-.22-.41-.33-.6-.27a.32.32 0 000-.38h-.09v-1.08a.09.09 0 000 .05 1.89 1.89 0 01.72 1.65zm40.51-6.09a.51.51 0 00-.66.07l.19-.23c.07-.46.15-.93-.5-.92a.64.64 0 00-.25-.11 1.24 1.24 0 000-.16 1.12 1.12 0 00.11-1.07.62.62 0 00-.3-.3 1 1 0 00-.06-.33h.12a2.64 2.64 0 01.36-.39h.36l.4.36c.67.73 1.54.23 2.31.39l.4.76c-.45.25-.45.51 0 .77v.38c-.49.07-1.08.1-.39.77a2.81 2.81 0 01.38-.39.48.48 0 00.39-.38 1.34 1.34 0 01.35 0v.79a1.17 1.17 0 01-.08.36l-.31.39a.48.48 0 00-.62.25.56.56 0 00-.29-.33h-.09l-.12-.16c0-.15-.1-.21-.27-.21l-.12-.07v-.16c-.27-.49-.69-.47-1.15-.34a.79.79 0 00-.13.23zm7.84 1.6h.09l-.09.05zM88.2 11.14z" fill="#010101"/><path d="M89.21 9.84c-.88.08-1.11.57-1 1.3 1.01.09 1.33-.33 1-1.3zM71.1 138.38c-.5 0-.62.31-.66.72-.32.22-.78.35-.62.93a1.06 1.06 0 001-.52c.41 0 .76-.14.73-.65a.47.47 0 00-.45-.48zM117.87 138.34c-.06-.35.09-.77-.41-1.09-.81.47-1.14 1-.36 1.86a.23.23 0 01.11-.11l-.11.11c.85-.22.77 1.28 1.88.93-.73-.43-.57-1.26-1.11-1.7zM65.09 1.91c.35-.24.91-.42.53-1-.16-.25-.44-.05-.56.21-1 .11-1.41.46-.71 1.39a.94.94 0 00.74-.6zM95.11 144.91a.49.49 0 00-.42-.4 1 1 0 01-.34 0v-.36c1.19-.3 1.57-1.32.81-2.19 0 0-.28.15-.43.24h-.38c-.54.38-.53.76 0 1.15v.76H94c-.52-.7-1.28-.25-1.92-.39-.16-.93 1-.59 1.15-1.14.4-.22.51-.65.24-.9a.86.86 0 00-1.4.12c-.63.15-1.4-.34-1.91.4-.66.38-.31 1-.39 1.54a2.42 2.42 0 010 .38l-.54.15c-.07-.73-.91-1.23-.61-2.07a1.4 1.4 0 01.35 0c.49-.24.5-.49 0-.76-.65-.66-1-.47-1.14.4v.36c-.49.26-.58.77-.78 1.2v1.3c-.06.89.48 1 1.18 1H89c.32 0 .63 0 .77-.39 1.15.13 1 1.33 1.57 1.92h.36c.13.35.44.39.75.44a4 4 0 002.69.72 3.23 3.23 0 00-.03-3.48zM132.91 147.58l-.39-.4v-.74c.49 0 1 .08 1.33-.57-.51-.09-1.05-.11-1.39-.57-.44-.07-.76.2-1.12.36-.32 0-.63 0-.76.39a2.9 2.9 0 000 3.08v.37c0 .62.25.89.91.68-.06-.37-.11-.72-.16-1.06a.53.53 0 00.4-.38.5.5 0 00.39-.36.22.22 0 01.11-.12l-.11.12c.56-.19 1.25.85 1.75-.2-.12-.48-.5-.6-.96-.6zM121.06 148.25c-.07.46-.49.87 0 1.55.66-.87.66-.87 0-1.55zM164.52 77.05c1-.62.41-1-.09-1.58-.43.66-.43 1.1.29 1.58zM139.06 28.49a2.41 2.41 0 000-.38c-.27-.36-.23-1-1-1-.19.61.19 1.1.39 1.58.14.22.48.06.61-.2zM4.6 105.57c-.78.41-1 .8-.3 1.44.64-.39.82-.79.3-1.44zM41.25 117.36c-.42.28-.59.64-.22 1.28.8-.64.8-.64.22-1.28zM18.87 46.47a.41.41 0 00.29-.57c-.19-.6-.57-.5-1-.22-.03.52.15.86.71.79zM105.91 146.83l-.38-.39c-.31-1.71-1.76-2.09-3.06-2.64l-.77-.09c-.47-.72-.94-1.44-2-.74-.84.23-.7 1.08-.87 1.75l-.68-.59c-.13-.32-.25-.32-.38 0h-.4a.75.75 0 00-.79.39c-.32.18-.77.34-.45.8s.59.44.87 0c1.31 1-.74 1.57-.2 2.55 1.3.12 2.71.91 3.9-.35.22-.6-.42-.82-.39-1.28.26-.27.8-.08.91-.57l.38-.39a1.73 1.73 0 00.38.05c.15.77-.3 1.64.39 2.31a.5.5 0 00.37.38c0 .32.06.62.42.74.24.46.5.44.76 0a1.85 1.85 0 01.41-.38 1.41 1.41 0 00.35 0 .46.46 0 00.41-.33 2 2 0 00.35-.05c.48 0 1 .26 1.48-.35a1 1 0 00-1.01-.82zM37.32 111.75c-.51-.65-1-.45-1.61.06l1.22.69c.48.24 1 .66 1.36-.13-.12-.54-.53-.6-.97-.62zM8.33 82.58c.87.37 1.3.19 1.7-.89-.64.39-1.15.24-1.7.89zM114.05 20.63a.37.37 0 00.31.41.59.59 0 00.69-.51c.07-.27-.12-.47-.43-.49a.52.52 0 00-.57.59zM163.58 123.14c.43-.25.68-.57.42-1.09-.92.39-.92.39-.42 1.09zM131.58 150.83c0 .83 0 .83.89.73-.18-.44-.27-.86-.89-.73zM147 42.51c-.49.71-.55 1.15.37 1.39.2-.69-.16-.9-.37-1.39zM157.25 63.09a.54.54 0 00.51-.48.51.51 0 00-.5-.48c-.29 0-.42.2-.45.47s.19.51.44.49zM43.5 13.77a.54.54 0 00.55-.43.52.52 0 00-.43-.53.39.39 0 00-.5.41c0 .26.04.53.38.55zM43.48 18.86a.47.47 0 00.38-.38c-.06-.86-.45-.89-1-.56a.9.9 0 00.62.94zM71.24 133c-.54.38-.55.75 0 1.13.4 0 .87-.05.92-.48.06-.65-.47-.65-.92-.65zM5.59 98.68c-.45.75-.15 1.18.49 1.49-.08-.5.3-1.17-.49-1.49zM6.08 100.17zM52 15.2c-.24-.6-.42-1-1.06-.76.06.56.2.9 1.06.76zM45 121.8c-.8-.2-.67-1.4-1.65-1.5-1.22.66-1.23 1.69-.92 2.81 1 .56 1.35-.7 2.14-.56.62.66 1 .34 1.42-.17a.92.92 0 00-.99-.58zM163.71 92.62a.38.38 0 00-.49-.41.47.47 0 00-.43.52c0 .27.27.39.54.43s.39-.28.38-.54zM40.89 119.81c.08.49.28.8.83.63a.45.45 0 00-.08-.69c-.26-.25-.52-.35-.75.06zM34.23 23.47a.42.42 0 00.35-.36v-.4c-.37-.53-.74-.5-1.1 0-.39.73-.35.77.75.76zM145.54 143.46c-.38.3-.3.69-.3 1s-.15.85.3 1 .4-.33.45-.61c-.07-.46.29-1.09-.45-1.39zM72.71 17.67c.2 0 .34-.14.34-.32-.06-.39-.31-.41-.57-.37s-.36.14-.33.36.29.37.56.33zM139.83 137.57c.33-.13.33-.25 0-.38-.47.13-.88-.53-1.45-.09.31.77.98.34 1.45.47zM50.63 13.7a.91.91 0 00-.1-1.23c-.53.47-.53.84.1 1.23zM162.14 74.28c-.33-.43-.4-.89-1-.82-.14.59-.06.97 1 .82zM30.58 103.41c-.22.56.08.79.74 1-.07-.59-.11-1-.74-1zM112.09 20a.48.48 0 00.38.38c.6-.32.33-.93.65-1.46-.78.16-.78.73-1.03 1.08zM89.76 136.11a.65.65 0 01-.05.31q-.64.42 0 .75c.13.37.44.4.76.4.14.32.26.31.38 0 .33 0 .64 0 .77-.4.83-.69 0-.83-.4-1.12-1.03-.94-1.22-.93-1.46.06zM112.87 12.31a.66.66 0 00-.78.78l.38.37q.19.48.39 0h.35c.58-.37.57-.75 0-1.14zM16.69 49.54a.91.91 0 00-1-.63.47.47 0 00-.41.41c.46.54.9.45 1.41.22zM47.07 15.64c.42-.42-.09-.69-.13-1s-.23-.6-.61-.51c-.08 0-.1.32-.14.5.25.37.23.97.88 1.01zM50.85 1.41c.3 0 .34-.29.31-.54s-.22-.44-.48-.36-.23.29-.24.44.08.5.41.46zM31.64 25.69c.3-.35.39-.66-.18-1-.39.49-.46.82.18 1zM161.06 125.76c-.48.07-.49.47-.68 1.1.77-.56.77-.56.68-1.1zM103.58 4.85c.33 0 .37-.25.38-.51a.36.36 0 00-.33-.38c-.34 0-.37.27-.37.52a.32.32 0 00.32.37zM8.35 77.19c-.44.27-.35.57-.08.9.38-.41.38-.41.08-.9zM65.63 23.5a1.37 1.37 0 00.58 1.5c-.09-.48.31-1.13-.58-1.5zM66.21 25zM15.23 104.57c-.25.08-.26.38-.29.62a.62.62 0 00-.25.94c.38 0 .53-.25.66-.53.29 0 .67 0 .49-.5-.11-.27-.21-.64-.61-.53zM143.36 45.32c.44-.26.35-.57.08-.89-.37.4-.37.4-.08.89zM142.16 144.12v-.36c.49-.4.51-.79 0-1.17-1.42-.45-1.73-.23-1.8 1.28a1.76 1.76 0 011.41.26c0 .22-.25.41-.07.73l1.42-.52c-.35-.34-.67-.18-.96-.22zM161.42 80.53c-.13-.33-.41-.38-.72-.41a1.49 1.49 0 00-.05-.36.78.78 0 00-.36-.8 1.1 1.1 0 000-.36.52.52 0 00-.35-.43 2 2 0 000-.34 1.6 1.6 0 000-.38c.29-.13.32-.26 0-.39-.12-.34-.25-.34-.38 0-.35.15-.37.45-.37.77a1.62 1.62 0 000 .38c-.34.16-.38.45-.37.78a2 2 0 00-.14 2.3c.5.69 1.11.3 1.68 0a4.15 4.15 0 001.06 0c.37-.17.44-.46 0-.76zM17.38 58.94c0 .41.4.34.68.36a.69.69 0 00.78-.34h.35c.15.25.34.34.73.08a2.49 2.49 0 00-.74-1.41c-.63-.47-1.05-.23-1.18.54-.33.17-.65.37-.62.77zM39.13 114.6a.34.34 0 00-.22-.42.31.31 0 00-.39.27c0 .16 0 .45.1.48.26.12.44-.09.51-.33zM112.08 15.78h.4c.24-.14.4-.36.21-.58a.53.53 0 00-.82 0c-.19.22-.04.44.21.58zM160.47 75.32c-.42.17-.59.38-.36 1 .52-.32.64-.57.36-1zM62.88 14.9a.33.33 0 00.09.31c.34.19.55 0 .75-.4-.38-.26-.65-.21-.84.09zM163.17 74.17c-.43.16-.59.37-.36 1 .53-.31.64-.58.36-1zM98.21 8.84zM98.16 7.75c-.5.47 0 .75 0 1.09.54-.4.58-.75 0-1.09zM159.85 63.63a.58.58 0 000 .32.77.77 0 00.38.79.48.48 0 00.38.39.47.47 0 00.4.35h.34l.79.74c-.32.16-.36.46-.36.78a.65.65 0 000 .31c-.29.18-.29.35 0 .53a.59.59 0 00.05.32.39.39 0 00.36.36h1.16c.31 0 .59 0 .72-.39a.46.46 0 00.08-.3c.43-.43.48-.84 0-1.24a.51.51 0 00-.37-.4.4.4 0 00-.39-.33.92.92 0 00-.37 0v-.73a4.87 4.87 0 00.8-1.89c.27-.14.71.16.91-.41l-.92-.09c-.23-1.54-1.43-1-2.34-1.12-.34-.27-.47-1.21-1.16-.37a.48.48 0 00-.39.38 1.42 1.42 0 00-.07 2zM37.69 37.73zM73.18 146.06a.62.62 0 000 .38c.11.28.35.43.58.25a.54.54 0 000-.84c-.23-.2-.46-.07-.58.21zM20.21 115.43c.31-.14.53-.32.26-1.2-.18.64-.7.77-.26 1.2zM120.68 24.88c.07 0 .11-.18.16-.27s-.19-.3-.37-.24a.34.34 0 00-.15.27.25.25 0 00.36.24zM18.69 56.14c0-.08-.19-.11-.27-.16a.27.27 0 00-.26.37.37.37 0 00.28.16.27.27 0 00.25-.37zM115.17 13.85c-.26-.45-.52-.45-.77 0 0 .53.24.78.77.77.45-.26.45-.51 0-.77zM46.74 128.15a.54.54 0 00.83-.08c-.33-.41-.57-.51-.83.08zM30.65 109.19c-.07 0-.11.18-.16.27a.27.27 0 00.37.24c.07 0 .15-.18.15-.27a.26.26 0 00-.36-.24zM44.49 104.32c0-.08-.18-.11-.27-.17s-.3.19-.24.37a.3.3 0 00.27.15.25.25 0 00.24-.35zM121.75 153.12c-.09 0-.26.08-.28.15a.29.29 0 00.23.39c.1-.06.26-.09.28-.16a.26.26 0 00-.23-.38zM21.18 43.42c.19-.39 0-.63-.33-.8-.16.38-.18.69.33.8zM28.3 42.65c0-.08-.18-.11-.27-.17s-.3.19-.24.37a.3.3 0 00.27.15.25.25 0 00.24-.35zM4.94 111.76c-.65.3-1 .72-.55 1.45a1.56 1.56 0 001.29-.71c.04-.5-.21-.77-.74-.74zM40.29 35.07c0-.1-.08-.26-.16-.28a.25.25 0 00-.36.23.35.35 0 00.14.28.28.28 0 00.38-.23zM20.21 107.8c0-.08-.18-.12-.27-.17s-.3.19-.24.37a.3.3 0 00.27.15.25.25 0 00.24-.35zM49.54 131.1c0-.1-.06-.25-.13-.29a.25.25 0 00-.41.19.32.32 0 00.11.29.28.28 0 00.43-.19zM147.14 46.89c.09 0 .25-.08.28-.16a.26.26 0 00-.23-.36.35.35 0 00-.28.14.28.28 0 00.23.38zM9.84 89.73a1 1 0 00.88-.72l.38-.39c.38-.07.93.19 1-.46-.27-.42-.68-.26-1-.31-.26-.43-.51-.46-.76 0a1.15 1.15 0 000 .37v.77c-.29.16-.63.27-.5.74zM49.7 134c-.48-.3-.38.19-.46.43-.27.19-.46.43-.12.68s.43 0 .55-.25c.42-.24.4-.6.03-.86zM55.55 134a.38.38 0 00.12.31.29.29 0 00.43-.16c0-.11-.05-.27-.13-.31a.27.27 0 00-.42.16zM28.72 108a.34.34 0 00-.16.28.25.25 0 00.36.24c.08 0 .11-.18.17-.27s-.19-.25-.37-.25zM153.33 60.49a.59.59 0 00.93.27c0-.4-.23-.55-.54-.65-.36.11-.68-.32-1.09 0 .09.33.37.36.7.38zM17.87 50.3c-.37 0-.53.2-.55 1 .41-.44.85-.48.55-1zM127.9 137.18c0-.85-.19-1.49-1.23-1.57s-1.38.48-1.71 1.23c-.51 1.17.12 2.09.63 3-.11.6.19 1.26-.27 1.8-1.21 1.43-1.21 1.43.64 2.06a1.81 1.81 0 00.67 1.73c.89-.61 0-1.18.09-1.73a10.06 10.06 0 00.78-2.32c-.1-.77.32-1.62-.35-2.31l.74-1.15c.47-.21.44-.48.01-.74zm-1.17 1.93l-.11-.08a.27.27 0 00.1.28zM38.62 115.93a.32.32 0 00.11.29.27.27 0 00.4-.15c0-.1-.05-.25-.12-.3a.25.25 0 00-.39.16zM11.5 93.64V94c-.31.63-1.06 1.06-.81 1.92-.37.28-.9.34-1.18.76a.46.46 0 00-.37.36c-.74.92-1.64 1.8-.76 3.11a3.55 3.55 0 01-.38.4c-.82.83-1.24-.43-1.91-.37 0 1-.13 2 .76 2.69.32 1.62.7 1.92 2.21 1.6a1.93 1.93 0 011.86.48 1.68 1.68 0 002.52-.11.45.45 0 00.35-.4 2 2 0 000-2.31v-.38c-.23-1.32-1.51-2.35-1.07-3.85h-.05a1 1 0 000-1.6 1 1 0 00-.06-.35.85.85 0 01.39-.79h.76l.06-.75c.77-.11 1-.56.85-1.33l-1.67.19a2.2 2.2 0 01-.36 0c-.26-.5-.74-.33-1.15-.37v.4a1.63 1.63 0 00.01.34zm-1.58 6.62a.84.84 0 00.14.06.71.71 0 00.2 0 1.25 1.25 0 01-.4.24.76.76 0 00.06-.3zM39.24 108.28c-.31-.46-.75-.61-1-.07s.33.39.61.44.54.55 1 .23c-.08-.35-.33-.49-.61-.6zM119.94 10.53c-.45-.14-.66 0-.68.47.45.14.66 0 .68-.47zM144.12 32.5c.33.16.44-.07.52-.34a.43.43 0 00-.65-.09c-.19.15.01.35.13.43zM146.51 142.8a.6.6 0 00.27.93.45.45 0 00.38-.37c-.16-.3-.26-.56-.65-.56zM112.26 145.11a.54.54 0 00.84-.08c-.33-.42-.59-.51-.84.08zM115.87 145a.27.27 0 00-.17.4.34.34 0 00.29.12.26.26 0 00.16-.39c-.03-.05-.15-.07-.28-.13zM37.19 109.17a.25.25 0 00-.23-.36c-.09 0-.26.07-.28.14s0 .33.23.38.25-.08.28-.16zM90.15 147.74a.35.35 0 00-.28.14.28.28 0 00.23.38c.09 0 .25-.08.28-.16a.26.26 0 00-.23-.36zM160.82 88.06a.34.34 0 00-.27-.37c-.05 0-.14.12-.2.18a.31.31 0 00.34.3c.05-.01.13-.07.13-.11zM9 92.71a.47.47 0 00.68 0c-.2-.29-.41-.32-.68 0z" fill="#010101"/><path d="M14.49 99.08a.37.37 0 00-.13-.3c-.15-.09-.33-.08-.34.15 0 .08.13.17.2.25s.25.05.27-.1zM5.88 103.48a.34.34 0 00-.28-.37l-.2.17a.29.29 0 00.34.3.19.19 0 00.14-.1zM30.84 105.82c-.09 0-.18.12-.24.21s0 .2.13.25.24-.07.28-.15.08-.34-.17-.31zM18.32 106.72v.27a.26.26 0 00.38-.18l-.13-.27c-.07.06-.2.1-.25.18zM32 107v.29c0 .02.3 0 .39-.19s0-.24-.14-.25a.41.41 0 00-.25.15zM2.85 107.41c0 .09.13.17.19.25s.26 0 .28-.1a.34.34 0 00-.14-.29c-.18-.09-.33-.09-.33.14zM163.61 108.06c.08-.15.07-.34-.18-.32-.09 0-.18.13-.24.22s0 .2.13.25.25-.07.29-.15zM114.79 12.31h.76v.39l.39-.39h-.39a2.54 2.54 0 010-.39v-.39a2.41 2.41 0 000-.38c.24-.11.43-.25.23-.56-.38 0-.49.29-.61.56h-.38c-.54.38-.53.77 0 1.16zM74.32 16.16a.42.42 0 00.37-.38c-.1-.23-.31-.42-.52-.27s-.17.49.15.65zM66.73 18.72c-.15.22 0 .42.27.51l.53-.09-.14-.3c-.18-.28-.39-.46-.66-.12zM4.61 118.48l-.24.41c.1 0 .22.1.3.07a.34.34 0 00.16-.26l-.22-.22zM122.65 130.52s-.13-.12-.2-.18a.29.29 0 00-.26.35c0 .16.14.2.26.09a.56.56 0 00.2-.26zM31.69 31c.19.06.31-.08.39-.24s-.11-.21-.16-.21a.36.36 0 00-.29.15.33.33 0 00.06.3zM56.46 132.18c-.11.11-.08.23 0 .27a.27.27 0 00.37-.21l-.15-.25a1.31 1.31 0 00-.22.19zM132.11 38.8s.12-.12.19-.18-.19-.3-.38-.27c0 0-.1.21-.07.28a.35.35 0 00.26.17zM131.64 133c0-.07-.1-.14-.18-.26a4.41 4.41 0 00-.29.4s.07.1.12.1a.26.26 0 00.35-.24zM132.05 41.65a.38.38 0 00-.13-.29c-.15-.09-.33-.09-.33.14s.12.17.19.25.22.05.27-.1zM121.73 134.09v.01-.01zM122.24 133.39c-.49.1-.49.41-.51.7.27-.09.59-.26.51-.7zM27 47.15c-.23-.19-.44-.22-.77.11.36.05.58.26.77-.11zM22.67 53.54a.44.44 0 00.38-.38c-.16-.3-.4-.46-.64-.14s.02.42.26.52zM23.58 54.41c0-.09-.14-.17-.21-.25s-.24 0-.25.14.06.26.14.29.34.06.32-.18zM162.49 137c-.07 0-.21.11-.21.16a.39.39 0 00.15.28.33.33 0 00.3-.06c.06-.16-.08-.28-.24-.38zM164.11 138.35a.6.6 0 00-.92-.27c0 .38.25.53.54.65.09.2.21.32.41.15s.37-.37-.03-.53zM40.05 123.53c-.08.07-.2.19-.19.27 0 .23.21.23.35.13s.08-.2.12-.3-.15-.21-.28-.1zM160.12 140.66c-.11.11-.08.24.06.28a.28.28 0 00.38-.22l-.15-.25a1.12 1.12 0 00-.29.19zM113.5 142.83c-.24-.33-.48-.16-.65.14-.15 0-.24.21-.15.27a1.57 1.57 0 00.54.11c.23-.1.42-.35.26-.52zM166.29 71.89c.25.17.48.33.62-.11-.24-.14-.45-.17-.62.11zM78 144.5c-.1.11-.08.24 0 .28a.29.29 0 00.37-.22c0-.08-.1-.16-.14-.24a1.12 1.12 0 00-.23.18zM35 114.14a.39.39 0 00-.28.15c0 .08 0 .29.06.3s.3-.07.38-.23-.1-.22-.16-.22zM163.64 73c0-.11 0-.21-.08-.32-.1 0-.23.06-.29.13s-.14.31.1.34c.08-.02.18-.15.27-.15zM130.21 144.14a.51.51 0 00.37-.4 1.37 1.37 0 000-.35c.4-.27.45-.55 0-.82v-.75c0-.32 0-.63-.32-.8-.28-.4-.55-.42-.81 0a.49.49 0 00-.39.38c-.34.15-.38.45-.39.78-.52.39-.49.78 0 1.19a2.06 2.06 0 000 .35.52.52 0 00.38.39c.38.54.77.54 1.16.03zM159.36 74.14q.33.42.66 0a.44.44 0 00-.66 0zM76 144.76c0 .08.05.22.09.33a1.65 1.65 0 00.31-.2c.12-.13.08-.27-.09-.29a.4.4 0 00-.31.16zM10.22 78.3a.29.29 0 00-.22-.38l-.24.15a1.67 1.67 0 00.18.28c.11.1.24.08.28-.05zM162.07 125c.16-.21 0-.42-.26-.52a3.59 3.59 0 01-.39.39c.16.29.41.45.65.13zM89 147l-.24.41c.1 0 .22.11.3.08a.38.38 0 00.16-.27c.03-.05-.09-.12-.22-.22zM126.19 149.81c0 .08.13.17.19.25s.25 0 .27-.11a.36.36 0 00-.13-.29c-.14-.09-.33-.09-.33.15zM126.1 151.65c-.09.15-.09.33.15.34.08 0 .17-.13.25-.19s0-.26-.11-.28a.39.39 0 00-.29.13zM29.3 107c0 .1.07.19.1.29l.13-.11c0-.09-.07-.18-.11-.28s-.13.1-.12.1zM19.65 118.38s.08.08.11.12l.15-.27-.12-.12a1.74 1.74 0 00-.14.27zM75.76 14.55a1.72 1.72 0 00.29-.11s-.08-.13-.11-.13a1.72 1.72 0 00-.29.11s.08.13.11.13zM33.54 108.19a2.31 2.31 0 00.1.28l.13-.1c0-.1-.07-.19-.11-.28s-.13.07-.12.1zM41.36 108.1s-.07-.13-.1-.12a1.31 1.31 0 00-.28.09c0 .05.07.13.1.13a1.57 1.57 0 00.28-.1zM112.86 11.54v-.39c.32-.13.31-.26 0-.39v-.38c-.32 0-.63 0-.77.39v.76c.25.47.51.47.77.01zM81.17 11.46a1.39 1.39 0 00.28-.12l-.11-.12-.28.13s.09.12.11.11zM53.1 11.93c.14.32.27.31.38 0s0-.6-.35-.73c-.48.2-.46.46-.03.73zM109 11.15zM108.77 10.63c-.18.3 0 .41.23.52 0-.15.09-.46-.23-.52zM111.62 10.46a1.28 1.28 0 00-.11-.27s-.12.08-.11.1a1.28 1.28 0 00.11.27s.12-.08.11-.1zM109.68 9.91a1.33 1.33 0 00.28-.1s-.07-.13-.1-.12a1.57 1.57 0 00-.28.1s.08.13.1.12zM98.21 8.84c-.22.11-.41.22-.24.52.33-.06.19-.36.24-.52zM152.08 51.93a1.36 1.36 0 00.28-.11s-.08-.12-.1-.12a2.31 2.31 0 00-.28.1c.02.05.07.13.1.13zM41 110a1.05 1.05 0 00-.26-.13s-.08.06-.12.1l.26.14zM20.65 56.93a.94.94 0 00.28-.1s-.07-.12-.1-.12a2.31 2.31 0 00-.28.1s.07.13.1.12zM47.53 122s-.07-.12-.1-.12a1.66 1.66 0 00-.29.1s.08.13.1.12a1.42 1.42 0 00.29-.1zM0 112c0 .1.07.2.1.3s.14-.08.13-.11a1.18 1.18 0 00-.1-.3L0 112zM27.21 45.15a1.28 1.28 0 00-.11-.27L27 45a1.69 1.69 0 00.12.27s.1-.1.09-.12zM25.66 45a1.36 1.36 0 00.28-.11s-.07-.12-.1-.12a1.36 1.36 0 00-.28.11s.07.12.1.12zM26.06 42.47a1.63 1.63 0 00-.11-.31s-.13.08-.13.11a1.92 1.92 0 00.11.31c.07-.04.14-.08.13-.11zM136.44 41.89a1.82 1.82 0 00.11.3l.14-.11-.12-.3s-.13.09-.13.11zM14.66 99.88a1.57 1.57 0 00-.28.1s.07.13.1.12a.94.94 0 00.28-.1s-.07-.12-.1-.12zM130.28 38.81a1.39 1.39 0 00.12.28s.12-.09.11-.11a.93.93 0 00-.12-.27s-.11.08-.11.1zM122.19 131.71a1.39 1.39 0 00.12.28s.12-.08.11-.11a1.13 1.13 0 00-.12-.28s-.12.09-.11.11zM47.8 131.87a1.28 1.28 0 00-.27.11s.08.12.1.12a2.36 2.36 0 00.28-.12s-.09-.12-.11-.11zM62.36 133.34zM62.22 134c.07-.32.1-.51.14-.7-.22.14-.36.27-.14.7zM36.14 30.39c-1 .53-.9 1.07 0 1.61a1.13 1.13 0 01.05 1.52 1.3 1.3 0 000 1.95c.17.82.59.91 1.2.4 1.06-.1.22-.82.4-1.2.37-.26.38-.53 0-.81a1.34 1.34 0 00-.05-.35l.41-1.14c.4-.07.88.08 1.14-.4.32-.13.32-.27 0-.41a.48.48 0 00-.4-.36l-.36-.41c-.27-.45-.54-.43-.81 0-.37-.13-.69-.43-1.12-.39-.18-.27-.32-.28-.46-.01zM122.5 135.26a.49.49 0 00-.38-.39l-.39-.39v-.38c-.86.14-1.08.5-.4 1.17.26.51.74.34 1.16.37 0 .15.2.26.26.18.19-.29 0-.45-.25-.56zM156.48 104c0 .09.08.18.12.27l.12-.11-.12-.27s-.12.04-.12.11zM77.21 136.61s-.12.08-.12.1a1.45 1.45 0 00.11.29l.13-.11zM158 104.42c-.29.17-.46.41-.13.65s.42 0 .52-.25a1.57 1.57 0 00-.11-.54c-.12-.1-.28 0-.28.14zM30.3 26.88c.09 0 .18-.08.27-.12l-.11-.12-.27.12s.08.12.11.12zM65.55 137.64a1.31 1.31 0 00-.33.12c0 .05.09.14.12.14a3 3 0 00.32-.12c-.04-.05-.09-.15-.11-.14zM109.4 139.1c-.27-.42-.53-.43-.78 0a1.7 1.7 0 000 .39v.38a.48.48 0 00-.37.37 2.34 2.34 0 00-.38 0 2.08 2.08 0 00-1.09.75c.19.51.3 1.08.87 1.39a3.49 3.49 0 002.13-1.76v-.39a2.41 2.41 0 000-.38c0-.28-.02-.6-.38-.75zM137 141.24s.09.12.11.11a1.13 1.13 0 00.28-.12l-.11-.12zM150.65 141.41c-.06-.61 0-1.35-1-1a7.15 7.15 0 00.2 2.17c-.25.08-.51.2-.54.45s.31.28.51.34c.27.39.54.42.8 0 1.06-.14 1.38-.62.74-1.57-.1-.33-.36-.36-.71-.39zM74.38 143.65a1.85 1.85 0 00.13.29l.12-.12c0-.09-.08-.19-.13-.28s-.12.09-.12.11zM76.32 143.65a1.36 1.36 0 00.11.28l.12-.1c0-.09-.07-.19-.11-.28s-.12.08-.12.1zM83.64 144.81a1.62 1.62 0 00.11.28l.13-.1c0-.1-.08-.19-.11-.29s-.13.08-.13.11zM147.24 144.81a1.72 1.72 0 00.11.29l.12-.11c0-.09-.07-.19-.11-.28s-.12.08-.12.1zM72.08 147.49a1.66 1.66 0 00.1.29s.13-.08.12-.1a1.4 1.4 0 00-.09-.29s-.13.07-.13.1zM143 147.67a1.36 1.36 0 00-.28.11s.08.12.1.12a1.72 1.72 0 00.29-.11l-.11-.12zM142.23 148.44a1.39 1.39 0 00-.28.12s.09.12.11.11a1.31 1.31 0 00.27-.12s-.08-.12-.1-.11zM95.59 150.2a1.72 1.72 0 00.11.29l.13-.11-.12-.29s-.13.08-.12.11zM75 19l-.12-.29s-.13.08-.12.1a2.47 2.47 0 00.1.29zM94.05 152.52a1.28 1.28 0 00.11.27l.12-.11-.12-.27s-.16.09-.11.11zM157.57 60.49c.12.3.25.31.39 0h.38c.33.1.7.43 1 0s-.08-.89-.58-1.09a.54.54 0 00-.41.36H158c-.25-.39-.51-.49-.75 0a2.41 2.41 0 000 .38.42.42 0 00.32.35zM13.81 95.19zM14 95.36l-.18-.17a.34.34 0 000 .14l.18.03zM113.24 15.78c0 .57 0 1.15.72 1.48.63-.29 1.51-.36 1.58-1.44a1.26 1.26 0 00-1.91-.43.55.55 0 00-.39.39zM161.42 124.86l.39-.39a.45.45 0 00-.39.39z" fill="#010101"/><path d="M113.24 10c.32-.13.32-.25 0-.38a.49.49 0 00-.38.38v.39a.49.49 0 00.38-.39zM54.64 8.05c-.46.39-.57.77 0 1.15s1.27.73 1.93.05a.53.53 0 00.4-.39c.36-.16.38-.47.38-.8v-.38a.45.45 0 00-.35-.41v-.73a.63.63 0 00.33-.06.65.65 0 00.74-.35.41.41 0 00.37-.37.72.72 0 00.47-.76.78.78 0 00.38-.77c.44-.29.37-.73.36-1.16a.54.54 0 000-.33.73.73 0 000-1.22.82.82 0 000-.38A1.76 1.76 0 0058.24 0C58 .66 58 1.6 57 1.5a.81.81 0 00-.8.4A6 6 0 0055 7.61a.46.46 0 00-.36.44zM88.64 131l-.07.08q.2.47.39 0l-.06-.08zM120.57 132.18c-.37.27-1 .24-1 .94.63.29.79-.18 1-.56.31-.12.34-.25 0-.38zM146.39 28.88c.05.44-.1.92.16 1.33a.85.85 0 00.61-1v-.38c.42-.68 1.5-.32 1.84-1.2-.21-.46-.24-1.16-1-1.07-.61.07-.8.55-.81 1.11a.53.53 0 00-.39.39.49.49 0 00-.38.38q-.51.25-.03.44zM90.5 138.73c-.13-.32-.25-.32-.38 0a.49.49 0 00-.39.38c-.45.26-.44.52 0 .77a.53.53 0 00.39.39c.13.32.25.32.37 0a.52.52 0 00.39-.4v-.75a.55.55 0 00-.38-.39zM55.44 114.84h-.01.01zM130.97 121.39z" fill="#010101"/></svg>