<svg data-name="Layer 1" xmlns="http://www.w3.org/2000/svg" viewBox="0 0 135.59 181.89"><ellipse cx="67.79" cy="90.83" rx="57.17" ry="80.04" fill="none"/><path d="M67.79 171.21c-15.38 0-29.84-8.37-40.7-23.58s-16.81-35.35-16.81-56.8 6-41.62 16.81-56.8 25.32-23.58 40.7-23.58S97.63 18.82 108.5 34s16.81 35.35 16.81 56.8-6 41.62-16.81 56.8-25.32 23.61-40.71 23.61z" fill="#231f20"/><path d="M67.79 176.38c-16.37 0-31.76-8.91-43.32-25.1S6.58 113.66 6.58 90.83s6.35-44.3 17.89-60.45 27-25.11 43.32-25.11 31.76 8.92 43.33 25.11S129 68 129 90.83s-6.36 44.3-17.89 60.45-26.94 25.1-43.32 25.1zM67.79 6c-16.13 0-31.3 8.81-42.73 24.8S7.31 68.15 7.31 90.83s6.3 44 17.75 60 26.6 24.8 42.73 24.8 31.31-8.8 42.73-24.8 17.76-37.34 17.76-60-6.31-44-17.76-60S83.93 6 67.79 6z" fill="#231f20" stroke="#000" stroke-miterlimit="10" stroke-width="2"/></svg>