<svg data-name="Layer 1" xmlns="http://www.w3.org/2000/svg" viewBox="0 0 339.76 209.82"><path d="M205.38 180h4.3c.07.83-.59 1.07-1.11 1.31a12.63 12.63 0 01-10.84.31 10.33 10.33 0 01-2.39-1.15 6.91 6.91 0 00-5.4-1.19 7.75 7.75 0 01-1.18 0c-2.17-.05-2.42-.31-3-3.21l-1 .82-3.33-3.06c0 3.09 1.66 3.92 3.31 4.84a3.4 3.4 0 01-3.85-1.31 8.38 8.38 0 00-7-4c-1.62-.07-3.22-.94-4.85-1.09a18.48 18.48 0 00-4.8.31c-.47.08-1 .85-1.25 1.44-.93 2-1.78 4-2.72 6.11 3.22-.92 5-4.13 7.61-6.18-.18.39-.33.79-.53 1.15a5.84 5.84 0 01-.71 1.09c-2.73 3-5.37 6.2-8.26 9-1.34 1.29-3.19 1.85-4.79 2.79a16 16 0 00-5.57 4.51 9.69 9.69 0 01-1.56 1.34c-.05-.8-.08-1.32-.13-2a8.5 8.5 0 00-5.41 2.34c-2.52 2.3-5.46 3.61-8.16 5.47a14 14 0 00-1.67 1c-1.08 1-2 1.48-3.38.38-.56-.45-1.78.1-2.67.34a8.79 8.79 0 00-1.7.92v.07l-.32-1.42-3 .16c-.11-.83.54-1.94-.58-2.53a7.08 7.08 0 01-1.55-1.43 11.64 11.64 0 01-2.6 1.74 2.08 2.08 0 01-2.54-1.47c-.07-.15-.23-.38-.32-.37-.77.14-1.44.25-2-.7a13.43 13.43 0 00-2-2.07l-2.36 1.37a19.5 19.5 0 00-1.87-3.38 15.5 15.5 0 00-3-2.24l1.29 3.7c-2.29.15-4.36.43-6.31-.76-1.25-.77-2.4-1.82-3.95-1.08a.31.31 0 01-.23 0 37.56 37.56 0 01-5.93-2.84c-1.83-1.25-2.61-3.68-3.13-6a23.58 23.58 0 01-.06-4.87c-.31.4-.49.53-.47.64.27 2.86-1.47 4-3.24 5-1.17.7-2.35 1.36-3.72 2.15l1.32.82A20.09 20.09 0 0170 190.8c-3.5 1.24-6.61 3.34-9.81 5.27-2.79 1.69-5.57 3.42-8.42 5a22.94 22.94 0 01-4.06 1.41 8.68 8.68 0 00-2.27.7c-2.84 1.89-6 1.36-9.15 1.67-.75-2.07-1.46-4.06-2.25-6.25-1.42 1.38-3 1.62-4.56.23l2-1.17c-1.09-.8-1.87-1.36-2.81-2.06 0 2 0 2 .88 3.21-.95.69-1.64 0-1.9-.84a8.37 8.37 0 00-3.85-5.18c-.17-.1-.23-.45-.25-.49-.41.48-.79 1.28-1.27 1.38-.81.18-.83-.61-.9-1.45-.19-2.26-.92-2.85-2.82-2.48-3.13.61-3.26 1.21-4.93-3.1-.16-.41-.37-.8-.59-1.29h-2.1c-.7 0-1.37-.19-2.34-.34l.92-1.69c-.53-2.22-2.14-4-2-6.56 0-.39-1.28-.86-2.43-1.6-.35-.52-.06-1.55.28-2.61 1.35-4.29 2.68-8.59 4.06-12.88a37.73 37.73 0 011.42-3.76 74.06 74.06 0 004.06-11.6 35.57 35.57 0 011.58-3.65c.57-1.49 1-3.05 1.54-4.54s1.13-3 1.77-4.42c.43-1 1.24-1.77 1.46-2.78.74-3.29 2.83-5.37 4.7-7.69 1.1-1.36 2.48-2.59 2.4-4.76.27 1 .73.42 1 .08q4.72-6.14 9.38-12.34c.18-.24.13-.71.19-1.08l-.46-.3-10 13.38A62.58 62.58 0 0137 103.51c4-4.62 7.54-9.62 11.32-14.41 1.76-2.22 3.62-4.33 5.45-6.48 1.1-1.28 2.47-2.22 3.11-4.05a4.75 4.75 0 011.71-1.83c2.66-2.13 5.4-4.13 8-6.33a32.68 32.68 0 004.91-5.21c-3.34 1.46-6.76 2.75-10 4.45s-6.61 3.87-9.85 5.95a68.3 68.3 0 00-5.61 4.07c-1.13.89-1 1.38.52 2.18a14.84 14.84 0 01-1.77 1.66 147.32 147.32 0 00-18.37 14c-3.31 3-3.76 3-6.71-.27a4.34 4.34 0 01-.71-2.7c.11-2.43.57-4.85.64-7.29a43.3 43.3 0 00-.56-5.59l6.16-9.91c-1-.57-1.52.15-2.07.75s-1 .93-1.63 1.47c-.26-.73-.4-1.12-.55-1.52l-1.7.55.42-1.39c-.12 0-.31-.17-.36-.12-2 1.87-4.06 3.76-6.1 5.63-.42.39-.86.74-1.63 1.38 1.09-3.73 2.71-6.25 5.36-8a43.22 43.22 0 004.63-4.17c-.22-1.34-.4-2.92 1.25-3.63 2 1.29 2 1.29 3.1-1l-.06.07a2.59 2.59 0 001.58-2.11c.13-1 1.05-2 1.64-2.93a5.6 5.6 0 001-2.35l-4.34 3c.48-1.64.95-3.21 1.41-4.79-1.48-1.12-3.41.06-4.28-2.17a3.13 3.13 0 01.2-.83C24 47.88 26 47 25.89 44.55c1.55-1.69 3-3.54 4.66-5 2.86-2.58 5.79-5.1 8.82-7.4q7.31-5.55 14.81-10.75c3.71-2.59 7.52-5 11.31-7.39a10.62 10.62 0 015.14-1.76c1.62-.1 3.44-.44 4.41-2.63.21-.47 1.49-.65 2.15-.45 1.78.56 3.09.43 4.31-1.52.47-.75 2-.94 3-.79a9.24 9.24 0 003.7-.22A67.3 67.3 0 0195 5.6a47.3 47.3 0 015.13-.6 15.24 15.24 0 0110.93 4.47 9.16 9.16 0 00.84.64c.18-.17.35-.31.51-.47s.21-.26.51-.62c2.28 2.15 4.71 4.14 6.83 6.53s3.83 5.06 5.82 7.76c.89-.95 1.62-.89 2.27 0 1.69 2.4 3.5 4.7 5 7.22.76 1.25 1.47 2 2.81 2 2.18 0 4.35.27 6.72.43-.53-3-2.88-4.21-3.7-6.83a2.42 2.42 0 012.07 1.09 15.32 15.32 0 012.68 3.45c1 2.25 2.79 3 4.58 3.9 2.17 1.07 4.33 2.19 6.42 3.44 3.37 2 5.85 5.2 8.09 8.66 1.21 1.87 1.23 1.88 3.13 1.25 1.21-.4 2.39-.92 3.61-1.29a8.4 8.4 0 014.62-.35c1.46.35 3.09-.3 4.65-.46 1.35-.14 2.69-1 4 .56.37.43 1.63-.08 2.46-.29a4.28 4.28 0 013.84.35l-1.54.59c.13.09.24.25.33.23 1.09-.15 2.16-.38 3.24-.48A15.28 15.28 0 01198 48c.37.14.8.65 1 .53 2-1 3.12.74 4.33 1.88s2.47 2.82 3.71 4.23c.6.7 1.23 1.37 1.93 2.15 2.57-1.62 5-3.15 7.48-4.72 3.69-2.38 7.69-2.45 11.7-2a6.87 6.87 0 015.22 3.34c.77 1.19 2.19 1.8 3.05 2.94 1.91 2.55 3.65 5.26 5.46 7.9.24.35.5.66.86 1.14a6.31 6.31 0 011.06-1.07c.45-.27 1.07-.64 1.45-.47a37 37 0 0011.73 3 2.62 2.62 0 01.91.21c2.81 1.49 2.8 1.49 5.09 1.36l-1.5 1.49 2 2c3.34-2.67 7.19-3.89 11.29-5l-1.86-.87c1.51-.9 2.71-.48 3.92-.18a27.76 27.76 0 003.23.7 17.21 17.21 0 019.09 4.17c1.91 1.6 3.78 3.26 5.66 4.92 1.68 1.49 3.32 3 5 4.52 1.18 1.05 2.48 1.94 3.59 3.09a56.12 56.12 0 019 12.27 59.3 59.3 0 003.6 5.26 1.86 1.86 0 00.25-2.67c-1-1.43-1.93-2.9-2.89-4.35-.53-.79-1.07-1.56-1.6-2.35.1-.15.19-.3.28-.45a19.33 19.33 0 012.12 1.71c3.32 3.5 6.93 6.72 9.78 10.69 2.36 3.28 5.22 6.41 6 11 .24 1.4 1.08 2.65 1.47 4 .69 2.42 1.26 4.88 1.86 7.33a18.17 18.17 0 00.4 2.15c1.36 3.64.79 7.33.39 11.06a23.89 23.89 0 00.24 4.61c.11 1.27.39 2.53.48 3.8.23 3.08-.71 5.61-3 7.19-1.76 1.2-2.37 3.33-3.18 5.17-.91 2.1-1.2 2.71-3.31 2.78a6.56 6.56 0 00-1.15.25c-1.12.23-2.2.27-2.85-1.38-.42.76-.69 1.27-1.05 1.94l-1.5-1.29a2.26 2.26 0 00-.28.4c-.6 1.49-1.41 1.76-2.4.62a17.86 17.86 0 01-1.7-2.62c-.38-.64-.71-1.33-1.11-2.08-.77.4-1.32.73-1.89 1a4.85 4.85 0 01-4.36.19 10.39 10.39 0 00-2.29-.5 9.83 9.83 0 01-6.41-3.59c-1.49-2-2.85-4.16-4.18-6.31a72.51 72.51 0 00-11.53-14.47 14.75 14.75 0 01-1.73-2.5l1.11.54c.79 1.74 2.26 1.85 4 2.18l-3.48-2.77-1.49-1.49c-.46-.61-.92-1.21-1.39-1.81l-.5.49 1.59 2.22.2.8c-1.12-.81-2.27-1.55-3.34-2.44-1.5-1.25-1.57-1.39-2.83-.08-3.45 3.6-6.91 7.2-10.2 11a13.8 13.8 0 00-2.18 4.49 47.8 47.8 0 01-5.53 12.09c-.53.77-1.12 1.48-1.83 2.42-.36-.89-.6-1.51-.8-2l3.87-3.39-1.63-2.08c-1.27.45-2.08 2.3-3.56.61-.62 1.17-1.14 2.18-1.67 3.18a53.83 53.83 0 01-2.6 4.87c-1.27 1.94-3 2-5.17 1.18.25-1.57.49-3 .82-5.12-1.5 2.79-3.67 4.15-4.42 7.07-.5 1.92-1.82 3.56-2.82 5.3-.14.25-.5.33-1 .64-.9-3.75 1.27-6.75 1.4-10.32-2.61.7-3.13 3.32-4.31 5.35h-2.26c.07-1.11.13-2.13.23-3.64a57.09 57.09 0 00-4.58 5.09 9.06 9.06 0 01-3.81 3.48c.33-.48.66-1 1.07-1.54l-1.7-2.88-7.37 4a6.06 6.06 0 005.11 1c1-.25 2-.44 3-.66a21.22 21.22 0 01-2.55 2c-1.26.71-2.61 1.21-4 1.82l-.78-1.69c-3.78 2-6.79 5.24-10 8.08a2 2 0 00-2.32 1.1c1.43 1.08 1.8-.15 2.24-1.21zM40.82 203.85c.63-3.85-.55-4.74-5.31-4.14-1 1.89 1 1.93 1.51 2.89.69 1.4 2.39 1.4 3.8 1.25zm-21.18-19.59L15 185.55c0 1.1.26 1.82 1.2 2 .76.18 1.52.42 2.29.55 1.06.17 1.64-.39 1.6-1.65a13.13 13.13 0 00-.45-2.19zm182.1-127.18l-4.22-3.58c-.79 1.94.22 2.85 1.15 3.82s1.7.68 3.07-.24zM22.93 68A20 20 0 0021 69.69c-.52.59-.18 1.69.5 1.59a3.63 3.63 0 002.05-1c.62-.71.35-1.55-.62-2.28zm178.73 114.18c-.75-2.65-.75-2.65-3.34-1.4zM182.1 48.8c1.24-.13 2.56.86 3.89-.31-1.52-1.99-2.67.11-3.89.31zm47.1 3.43c.44 1.93.44 1.93 2.73 1.12zm1.8 4.16c0-.2.05-.39.08-.58a3.07 3.07 0 00-3.45-.05zm-44.29-8.53c0 .29-.05.59-.08.88h3.47zM18.93 174.05c1.07-1.3 1.07-1.3.67-2.8-.23.99-.4 1.67-.67 2.8zM193.65 48.24l-.19.56 1 .3.09-.33zm125.18 59.47l-.24.09.42 1.46.27-.11z"/></svg>