<svg data-name="Layer 1" xmlns="http://www.w3.org/2000/svg" viewBox="0 0 194.02 190.99"><path d="M182.87 69.45c-.55.55-1.31.31-2.05.07s-1.35-.42-1.77 0-.23 1.08 0 1.77.47 1.5-.08 2-1.31.31-2.05.08-1.34-.42-1.77 0-.22 1.07 0 1.76.47 1.51-.08 2.06-1.32.31-2.06.07-1.34-.42-1.76 0-.23 1.08 0 1.77.47 1.5-.08 2-1.31.31-2.05.08-1.34-.42-1.77 0-.22 1.07 0 1.76.47 1.51-.08 2.06-1.31.31-2.05.07-1.35-.42-1.77 0-.23 1.08 0 1.77.47 1.5-.07 2-1.32.31-2.06.08-1.34-.42-1.77 0l-.2-.2c.55-.55 1.32-.31 2.06-.07s1.34.42 1.76 0 .23-1.08 0-1.77-.47-1.5.08-2 1.31-.31 2.05-.08 1.34.42 1.77 0 .22-1.08 0-1.77-.47-1.51.08-2.06 1.31-.3 2.05-.07 1.35.42 1.77 0 .23-1.08 0-1.77-.47-1.5.07-2 1.32-.31 2.06-.08 1.34.43 1.77 0 .22-1.08 0-1.77-.47-1.51.08-2.06 1.31-.3 2.05-.07 1.35.42 1.77 0 .23-1.08 0-1.77-.47-1.5.08-2 1.31-.31 2.05-.08 1.34.42 1.77 0 .22-1.08 0-1.77-.48-1.51.07-2.06l.2.2c-.43.43-.22 1.08 0 1.77s.48 1.53-.07 2.08zM29.71 181.56c.55-.55 1.31-.31 2.05-.08s1.34.43 1.77 0 .22-1.08 0-1.77-.48-1.51.07-2.06 1.32-.3 2.06-.07 1.34.42 1.77 0 .22-1.08 0-1.77-.47-1.5.08-2.05 1.31-.31 2-.08 1.34.42 1.77 0 .22-1.08 0-1.77-.48-1.51.07-2.06 1.32-.3 2.06-.07 1.34.42 1.77 0 .22-1.08 0-1.77-.47-1.5.08-2.05 1.31-.31 2.05-.08 1.34.43 1.77 0 .22-1.08 0-1.77-.48-1.51.07-2.05 1.32-.31 2.06-.08 1.34.42 1.76 0l.2.2c-.54.55-1.31.31-2 .08s-1.34-.42-1.77 0-.22 1.07 0 1.76.47 1.51-.08 2.06-1.31.31-2.05.07-1.35-.42-1.77 0-.23 1.08 0 1.77.47 1.5-.07 2.05-1.32.31-2.06.08-1.34-.42-1.77 0-.22 1.08 0 1.77.47 1.51-.08 2.06-1.31.31-2 .07-1.34-.42-1.77 0-.22 1.08 0 1.77.48 1.5-.07 2.05-1.32.31-2.06.08-1.34-.42-1.77 0-.22 1.08 0 1.77.47 1.51-.08 2.06-1.31.31-2 .07-1.35-.42-1.77 0-.23 1.08 0 1.77.47 1.51-.08 2.05l-.2-.2c.43-.42.23-1.08 0-1.77s-.56-1.49-.01-2.04z" fill="#231f20"/><path d="M121.43 80.75c-2.54 2.35-4.77 1.89-5.85 1.4a8 8 0 01-2.68-1.9l-.06-.07a6.49 6.49 0 00-9.17 0l-8 8A6.48 6.48 0 1186.49 79l26.35-26.35a6.47 6.47 0 00.31-8.82 9.64 9.64 0 01-2.3-3.1c-.48-1.08-.94-3.31 1.41-5.85l9.74-9.69a6.48 6.48 0 00-9.16-9.19l-6.33 6.32c-2.53 2.36-4.76 1.9-5.85 1.41a7.15 7.15 0 01-2.37-1.63l-.35-.37a6.48 6.48 0 00-9.16 0L4 106.53a6.48 6.48 0 009.17 9.16l7.45-7.45a6.48 6.48 0 119.16 9.17l-15.47 15.47a6.48 6.48 0 009.17 9.12l13.75-13.75a6.48 6.48 0 119.16 9.17l-32.08 32.12a6.48 6.48 0 109.17 9.16l26.35-26.35a6.48 6.48 0 019.17 9.17l1-1a6.48 6.48 0 009.17 9.16l1.83-1.87a6.48 6.48 0 119.19 9.19l.57-.57a6.48 6.48 0 009.16 9.17l84.78-84.8a6.48 6.48 0 10-9.16-9.17l-2.3 2.3a6.48 6.48 0 01-9.16-9.17l15-15a6.48 6.48 0 00-9.17-9.16l-.73.73a5 5 0 01-5.2.86 7.54 7.54 0 01-2.56-1.8l-.23-.24a6.48 6.48 0 00-9.16 0z" fill="#231f20"/><path d="M167 15.78a6.48 6.48 0 010 9.16l-40.45 40.48a6.49 6.49 0 01-9.17 0 6.48 6.48 0 010-9.16l40.48-40.48a6.49 6.49 0 019.17 0zM189 23.26a6.48 6.48 0 010 9.16L170.44 51a6.49 6.49 0 01-9.17 0 6.49 6.49 0 010-9.17l18.59-18.58a6.48 6.48 0 019.16 0zM68.19 25.17a6.49 6.49 0 010 9.17l-32 32a6.49 6.49 0 01-9.17 0 6.49 6.49 0 010-9.17l32-32a6.49 6.49 0 019.17 0zM170.74 122.55a6.48 6.48 0 010 9.16l-32 32a6.47 6.47 0 01-9.17 0 6.48 6.48 0 010-9.16l32-32a6.49 6.49 0 019.17 0zM134.32 4.13a6.73 6.73 0 11-9.52 0 6.73 6.73 0 019.52 0zM178.7 3.69a6.74 6.74 0 11-9.53 0 6.74 6.74 0 019.53 0zM126.14 166.56a6.74 6.74 0 11-9.53 0 6.74 6.74 0 019.53 0z" fill="#231f20"/></svg>