<svg data-name="Layer 1" xmlns="http://www.w3.org/2000/svg" viewBox="0 0 160.67 173.18"><path d="M15.19 115c3.63-.08 3.08.13-3.67 1.74s-6.65 1.58-6.58.84 6.99-2.5 10.25-2.58zm12-18c0-.25-.54-.53-1.24-.64s-1.24 0-1.25.25.53.53 1.2.67 1.27-.08 1.32-.28zm2.33-.4a1.53 1.53 0 00-1-.1c-.5.12-.51.26 0 .43.79.18 1.36 0 1.03-.37zm5.48-12c2.47-.39 3.18-4.25 1.07-5.86a3.14 3.14 0 00-4.82 2c-.18 1.89 1.99 4.18 3.75 3.85zm-7.65 15.13c1.82-.32 2.11-.94.52-1.07-.81 0-1.54.24-1.56.59s.47.58 1.04.48zm-7.51 14.65a4.56 4.56 0 002.5-1c1.15-1-.24-.86-2.61.32-1.39.74-1.39.74.11.68zM10.74 102a13.47 13.47 0 013.75-.54c4-.24 6.47-1.63 3.29-1.8-4.73-.27-9.12.84-8 2 .28.34.74.51.96.34zm11.49-1.88c.14-.14.05-.39-.18-.65a.66.66 0 00-.92 0c-.3.26-.17.56.21.68a1.17 1.17 0 00.89-.06zm3.13-.26c.41-.36-.14-.61-1-.48-.53.08-.51.26-.05.39s.94.16 1.05.06zm50.32-68.7c-.22-2.28-.93-4.79-1.58-5.52s-1.12.63-.95 2.91.92 4.8 1.57 5.52 1.18-.55.96-2.94zM44.43 9.52c-1.7-4.53-4.72-8.86-4-5.63a25.42 25.42 0 003 5.83c2.47 3.92 2.47 3.92 1-.2zm-2 26.16c2 .11 4.16-2.92 3.6-4.9s-3.43-3.91-5-3.33c-3.46 1.33-2.31 8.03 1.44 8.23zm8.72-11.84a32.51 32.51 0 00-3.31-7.16c-2-3.06-1.92-3.1-.76.68a35.48 35.48 0 003.19 7.15c2.2 3.38 2.2 3.38.92-.67zm3.67 10.31a8.72 8.72 0 001.58 3.28c.8.76.88.44.38-1.09-1.08-3.34-2.24-4.62-1.92-2.19zm2.89 6.67c.61.69 1.07.65 1.17.07a1.27 1.27 0 00-1.05-1.17c-.61-.03-.64.49-.08 1.1zM14.89 152.94A37.46 37.46 0 0119.6 150c.86-.17 8.93-6.46 12.49-9.77 16.23-15.13 20.68-18 26.05-17.13 1.23.24 3.34.57 4.71.83 4.6.78 5.19 3.54 2 9.5a8.22 8.22 0 00-1.18 3.27c0 1.53.64.71 2.12-3 1.39-3.4 3.25-3.65 3.36-.45s2.06 5 4.3 4.21a17.26 17.26 0 012.17-.73c.07.07.57 1.24 1.13 2.62S77.87 142 77.9 142c.58.49 1.26 3.61 1.11 5a4.25 4.25 0 00.16 2.21c.54.59 1.22-.29 1.3-1.7.17-2.3 1.3-2.38 4.74-.34 2.13 1.25 7.1-.18 10.16-2.91s4.29-2 5.79 3.68a8.11 8.11 0 001.26 2.84c1.36 1.53 5.51 9.91 5.19 10.46a1.93 1.93 0 00.62 1.67 10.4 10.4 0 011.56 3.24c.71 2.52 3.31 4.9 5.67 5.14 6.56.72 4.78-8.78-3-16.19-4.11-3.92-8.19-18.31-5.77-20.57.22-.21.52.06.74.61s.57.7.79.5.11-.77-.35-1.29a3.71 3.71 0 01-.73-2.31c.07-1.2-.93-3.75-2.13-5.69-.4-.65.58-4.68 1.56-6.36s4.89 0 9.07 3.9c3.24 3 3.87 3.27 4 1.89 0-.85-5.32-5-7.1-5.61-2.1-.61 1.38-3.86 5.57-5.11 2.45-.72 3-.62 4.84.91 4.17 3.31 7.43 2.22 5.53-1.93a5.5 5.5 0 01-.28-4.59 6.49 6.49 0 00-1.37-6.5c-3-3.32-.8-9.37 3.23-9.14 1.91.1 3.41-1.3 2.47-2.35a5.16 5.16 0 00-3.25-.78c-3.3 0-3.62-.52-3.2-5 .28-3.07.09-4.18-1-5.45-2.61-2.91-2.33-3.42 4.28-7.45 4.95-3 1.44-5-5.65-3.08-3.63 1-5 1.07-5.55.33-3.65-5.06-4-6-2.91-6.94 1.27-1.13.32-1.89-3.2-2.44-4-.62-4.61-7.63-1-12.68a3.43 3.43 0 00.84-2.51c-.43-1.16-1.4-.29-1.75 1.64-.59 2.95-5.83 5.28-7.53 3.38-.54-.6-5.74-1.38-10.58-1.62a5.12 5.12 0 00-2.91.66c-1.66 1.48-4.49.1-5.12-2.42a15.15 15.15 0 00-1.18-2.9c-.4-.59-.54-1.2-.32-1.4a4 4 0 00.28-3.14c-.16-.19-.39.08-.56.57S82 40 82 38.59c.12-6.63 0-9.2-.63-9.86s-.67-.6-.46 8.27c.15 6.32-.24 13.32-.8 13.82-1.21 1.11-4.58 1.18-6.41.18a3 3 0 00-4.6 2.44c-.13 1.23-1.22 2.77-3.18 4.32-.71.57-1.09.44-1.56-.61-4.58-9.55-6.08-12-7-11.14-.33.3 4 8.59 6.61 12.57 2 3.09 2 4.15.17 5.15-3.11 1.7-8.22 0-10.44-3.56a14 14 0 00-4-3.7c-2.3-1.44-3.1-2.33-5.84-6.6-4.54-7.09-7.33-9.16-9.57-7.16-2.54 2.27.27 8.56 4.88 11 2.83 1.5 7 6.74 7.73 9.61a11.52 11.52 0 001.47 3.59c3.2 3.58.38 8.53-3.77 6.67-2.29-1-2.36-1-1.62.37s.61 1.81-1.72 2.89c-1 .47-2.53.25-4.75-.66-6.9-2.83-10.66-4-10.35-3.3a2 2 0 001.3.92c12.43 2.18 19.58 9.35 13.4 13.4-2.87 1.9-2.41 3.84 1.1 4.53 2.21.44 3.74 1.63 3 2.26-.23.2-.16.88.16 1.54.87 1.64-.76 2.75-3.72 2.52-1.45-.12-2.67.1-2.75.38-.35 1.18.69 1.53 3.13 1 1.36-.28 2.67-.24 2.94.06s.15.47-.63.43c-1.62-.09-2.91 1.46-3.49 4.2a6.76 6.76 0 01-6 5.27c-1.5.2-1.85.46-1.88 1.35 0 .64.1.78.23.4.67-1.88 2.22-1.12 4 2a15.86 15.86 0 003.11 4c5.81 3.94.42 12.93-10.58 17.46-4.93 2-8 3.85-16.5 9.79a45.52 45.52 0 01-5.68 3.48c-5.76 2.2-7.13 9.61-1.82 9.76 2.09.11 2.82-.27 9.41-4.69zm119.63-38.57c.72.81 1.85 1.1 2.33.67s.39-1.66-.32-2.46-1.84-1.09-2.41-.59-.31 1.58.4 2.38zm22.57 5.12c1.27.74 2.5.38 1.7-.51-.5-.56-12.51-3.92-12.89-3.59s4.78 2 8.07 2.86a13.9 13.9 0 013.12 1.24zm-18.78-13c.65.72 1.26.75 1.22.07a1.13 1.13 0 00-1.15-1.29c-.68-.09-.71.52-.07 1.24zm-77.53 57.93c-2.7 1.41-2 4.87 1 5.23a3.6 3.6 0 002.22-.3c2.1-1.83-.78-6.18-3.22-4.93z" fill="#231f20"/></svg>