<svg data-name="Layer 1" xmlns="http://www.w3.org/2000/svg" viewBox="0 0 314.91 292.78"><path d="M145.81 10.59s-.02 0 0 0zM154.11 10.59s-.02 0 0 0zM162.41 10.59s-.02 0 0 0zM170.71 10.59s-.02 0 0 0zM179 10.59zM187.31 10.59s-.02 0 0 0zM112.61 18.89v-.04zM120.91 18.89zM129.21 18.89zM137.51 18.89z" fill="#231f20"/><circle cx="145.81" cy="18.87" r=".05" fill="#231f20"/><path d="M154.11 18.92a.05.05 0 000-.1.05.05 0 100 .1zM162.41 18.92a.05.05 0 000-.1v.1z" fill="#231f20"/><circle cx="170.71" cy="18.87" r=".05" fill="#231f20"/><path d="M179 18.92a.05.05 0 000-.1.05.05 0 100 .1zM187.31 18.92a.05.05 0 000-.1.05.05 0 000 .1zM195.61 18.89s-.02 0 0 0zM203.91 18.89s-.02 0 0 0zM212.2 18.89zM96 27.19zM104.31 27.19zM112.61 27.22a.05.05 0 000-.1.05.05 0 000 .1zM120.91 27.22a.05.05 0 000-.1.05.05 0 100 .1zM129.21 27.24a.07.07 0 10-.07-.07.07.07 0 00.07.07zM137.51 27.26a.09.09 0 10-.09-.09.09.09 0 00.09.09zM145.81 27.29a.12.12 0 000-.24.12.12 0 000 .24zM154.11 27.29a.12.12 0 000-.24.12.12 0 000 .24zM162.41 27.29a.12.12 0 000-.24.12.12 0 000 .24zM170.71 27.29a.12.12 0 000-.24.12.12 0 000 .24zM179 27.29a.12.12 0 000-.24.12.12 0 000 .24zM187.31 27.26a.09.09 0 100-.18.09.09 0 100 .18zM195.61 27.24a.07.07 0 000-.14.07.07 0 000 .14zM203.91 27.24a.07.07 0 000-.14.07.07 0 000 .14zM212.2 27.22a.05.05 0 000-.1.05.05 0 000 .1zM220.5 27.19zM228.8 27.19v-.04zM79.41 35.49zM87.71 35.49z" fill="#231f20"/><circle cx="96.01" cy="35.47" r=".05" fill="#231f20"/><path d="M104.31 35.54a.07.07 0 10-.07-.07.07.07 0 00.07.07zM112.61 35.56a.09.09 0 10-.09-.09.09.09 0 00.09.09zM120.91 35.58a.11.11 0 00.11-.11.12.12 0 00-.11-.12.12.12 0 00-.12.12.11.11 0 00.12.11z" fill="#231f20"/><circle cx="129.21" cy="35.47" r=".16" fill="#231f20"/><path d="M137.51 35.65a.18.18 0 100-.36.18.18 0 100 .36z" fill="#231f20"/><circle cx="145.81" cy="35.47" r=".21" fill="#231f20"/><path d="M154.11 35.7a.23.23 0 000-.46.23.23 0 100 .46zM162.41 35.7a.23.23 0 000-.46.23.23 0 100 .46zM170.71 35.7a.23.23 0 000-.46.23.23 0 000 .46zM179 35.68a.21.21 0 10-.21-.21.21.21 0 00.21.21zM187.31 35.65a.18.18 0 100-.36.18.18 0 100 .36z" fill="#231f20"/><circle cx="195.61" cy="35.47" r=".16" fill="#231f20"/><path d="M203.91 35.61a.14.14 0 000-.28.14.14 0 000 .28zM212.2 35.56a.09.09 0 100-.18.09.09 0 100 .18zM220.5 35.54a.07.07 0 100-.14.07.07 0 000 .14z" fill="#231f20"/><circle cx="228.8" cy="35.47" r=".05" fill="#231f20"/><path d="M237.1 35.49zM245.4 35.49v-.04zM71.11 43.79v-.04zM79.41 43.79zM87.71 43.82a.05.05 0 00.05 0h-.1a.05.05 0 00.05 0z" fill="#231f20"/><circle cx="96.01" cy="43.77" r=".09" fill="#231f20"/><path d="M104.31 43.91a.14.14 0 10-.14-.14.14.14 0 00.14.14zM112.61 44a.18.18 0 100-.36.18.18 0 100 .36zM120.91 44a.25.25 0 10-.25-.25.25.25 0 00.25.25z" fill="#231f20"/><circle cx="129.21" cy="43.77" r=".3" fill="#231f20"/><path d="M137.51 44.11a.34.34 0 00.34-.34.35.35 0 00-.34-.35.35.35 0 00-.35.35.35.35 0 00.35.34zM145.81 44.16a.39.39 0 000-.78.39.39 0 100 .78zM154.11 44.18a.41.41 0 100-.82.41.41 0 100 .82zM162.41 44.18a.41.41 0 100-.82.41.41 0 100 .82z" fill="#231f20"/><circle cx="170.71" cy="43.77" r=".41" fill="#231f20"/><path d="M179 44.16a.39.39 0 10-.4-.39.39.39 0 00.4.39zM187.31 44.11a.34.34 0 00.34-.34.35.35 0 00-.34-.35.35.35 0 00-.35.35.35.35 0 00.35.34z" fill="#231f20"/><circle cx="195.61" cy="43.77" r=".3" fill="#231f20"/><circle cx="203.91" cy="43.77" r=".25" fill="#231f20"/><path d="M212.2 44a.18.18 0 100-.36.18.18 0 100 .36zM220.5 43.91a.14.14 0 100-.28.14.14 0 000 .28z" fill="#231f20"/><circle cx="228.8" cy="43.77" r=".09" fill="#231f20"/><circle cx="237.1" cy="43.77" r=".07" fill="#231f20"/><path d="M245.4 43.79v-.04zM253.7 43.79zM62.81 52.09v-.04zM71.11 52.09v-.04zM79.41 52.14a.07.07 0 10-.07-.07.07.07 0 00.07.07zM87.71 52.18a.11.11 0 00.11-.11.12.12 0 00-.11-.12.13.13 0 00-.12.12.12.12 0 00.12.11zM96 52.25a.18.18 0 00.18-.18.18.18 0 10-.36 0 .18.18 0 00.18.18z" fill="#231f20"/><circle cx="104.31" cy="52.07" r=".25" fill="#231f20"/><path d="M112.61 52.39a.32.32 0 10-.32-.32.32.32 0 00.32.32zM120.91 52.48a.41.41 0 00.41-.41.41.41 0 00-.41-.42.42.42 0 00-.42.42.41.41 0 00.42.41zM129.21 52.58a.51.51 0 000-1 .51.51 0 000 1z" fill="#231f20"/><circle cx="137.51" cy="52.07" r=".58" fill="#231f20"/><path d="M145.81 52.69a.62.62 0 100-1.24.62.62 0 000 1.24zM154.11 52.74a.67.67 0 000-1.34.67.67 0 100 1.34zM162.41 52.76a.69.69 0 10-.69-.69.69.69 0 00.69.69zM170.71 52.74a.67.67 0 000-1.34.67.67 0 000 1.34zM179 52.71a.65.65 0 10-.65-.64.64.64 0 00.65.64z" fill="#231f20"/><circle cx="187.31" cy="52.07" r=".58" fill="#231f20"/><path d="M195.61 52.58a.51.51 0 000-1 .51.51 0 000 1zM203.91 52.48a.41.41 0 00.41-.41.42.42 0 10-.83 0 .41.41 0 00.42.41zM212.2 52.41a.34.34 0 00.35-.34.35.35 0 10-.69 0 .34.34 0 00.34.34zM220.5 52.32a.25.25 0 100-.5.25.25 0 000 .5zM228.8 52.25a.18.18 0 00.19-.18.19.19 0 10-.37 0 .18.18 0 00.18.18z" fill="#231f20"/><circle cx="237.1" cy="52.07" r=".12" fill="#231f20"/><path d="M245.4 52.14a.07.07 0 100-.14.07.07 0 000 .14zM253.7 52.12a.05.05 0 00.05 0h-.05s-.02 0 0 0zM262 52.09v-.04zM54.51 60.39zM62.81 60.39zM71.11 60.44a.07.07 0 10-.07-.07.07.07 0 00.07.07zM79.41 60.48a.12.12 0 00.12-.11.12.12 0 00-.24 0 .12.12 0 00.12.11zM87.71 60.58a.22.22 0 00.21-.21.21.21 0 00-.42 0 .22.22 0 00.21.21zM96 60.67a.31.31 0 00.3-.3.3.3 0 00-.3-.3.29.29 0 00-.3.3.3.3 0 00.3.3zM104.31 60.76a.39.39 0 00.39-.39.39.39 0 00-.78 0 .39.39 0 00.39.39zM112.61 60.9a.53.53 0 10-.53-.53.53.53 0 00.53.53zM120.91 61a.65.65 0 10-.65-.64.64.64 0 00.65.64zM129.21 61.15a.78.78 0 10-.78-.78.78.78 0 00.78.78zM137.51 61.24a.88.88 0 000-1.75.88.88 0 100 1.75zM145.81 61.34a1 1 0 10-1-1 1 1 0 001 1zM154.11 61.38a1 1 0 10-1-1 1 1 0 001 1zM162.41 61.4a1 1 0 000-2.07 1 1 0 100 2.07zM170.71 61.38a1 1 0 10-1-1 1 1 0 001 1zM179 61.34a1 1 0 10-1-1 1 1 0 001 1zM187.31 61.27a.9.9 0 10-.9-.9.9.9 0 00.9.9zM195.61 61.15a.78.78 0 10-.79-.78.78.78 0 00.79.78zM203.91 61a.67.67 0 10-.67-.67.67.67 0 00.67.67zM212.2 60.9a.53.53 0 10-.52-.53.53.53 0 00.52.53zM220.5 60.78a.41.41 0 00.42-.41.42.42 0 10-.83 0 .41.41 0 00.41.41zM228.8 60.67a.3.3 0 00.3-.3.29.29 0 00-.3-.3.3.3 0 00-.3.3.31.31 0 00.3.3zM237.1 60.58a.21.21 0 00.21-.21.21.21 0 00-.21-.21.2.2 0 00-.2.21.21.21 0 00.2.21zM245.4 60.51a.14.14 0 100-.28.14.14 0 000 .28zM253.7 60.44a.07.07 0 10-.07-.07.07.07 0 00.07.07zM262 60.41h0zM270.3 60.39zM46.21 68.69v-.04zM54.51 68.69v-.04zM62.81 68.74a.07.07 0 10-.07-.07.07.07 0 00.07.07zM71.11 68.78a.12.12 0 00.12-.11.12.12 0 00-.12-.12.11.11 0 00-.11.12.11.11 0 00.11.11z" fill="#231f20"/><circle cx="79.41" cy="68.67" r=".21" fill="#231f20"/><circle cx="87.71" cy="68.67" r=".32" fill="#231f20"/><path d="M96 69.13a.47.47 0 00.46-.46.46.46 0 10-.92 0 .47.47 0 00.46.46zM104.31 69.29a.62.62 0 10-.62-.62.62.62 0 00.62.62zM112.61 69.45a.78.78 0 10-.78-.78.78.78 0 00.78.78zM120.91 69.64a1 1 0 10-1-1 1 1 0 001 1zM129.21 69.8a1.13 1.13 0 10-1.13-1.13 1.14 1.14 0 001.13 1.13zM137.51 70a1.29 1.29 0 10-1.29-1.29 1.29 1.29 0 001.29 1.29zM145.81 70.07a1.41 1.41 0 10-1.41-1.4 1.4 1.4 0 001.41 1.4zM154.11 70.16a1.5 1.5 0 10-1.5-1.49 1.49 1.49 0 001.5 1.49zM162.41 70.19a1.52 1.52 0 10-1.52-1.52 1.52 1.52 0 001.52 1.52zM170.71 70.16a1.5 1.5 0 10-1.5-1.49 1.49 1.49 0 001.5 1.49zM179 70.07a1.41 1.41 0 10-1.41-1.4 1.4 1.4 0 001.41 1.4zM187.31 70a1.29 1.29 0 10-1.31-1.33 1.28 1.28 0 001.31 1.33z" fill="#231f20"/><circle cx="195.61" cy="68.67" r="1.15" fill="#231f20"/><path d="M203.91 69.64a1 1 0 10-1-1 1 1 0 001 1zM212.2 69.47a.81.81 0 10-.8-.8.8.8 0 00.8.8zM220.5 69.29a.62.62 0 10-.62-.62.63.63 0 00.62.62zM228.8 69.13a.46.46 0 00.46-.46.45.45 0 00-.46-.46.46.46 0 00-.46.46.47.47 0 00.46.46z" fill="#231f20"/><circle cx="237.1" cy="68.67" r=".32" fill="#231f20"/><path d="M245.4 68.9a.23.23 0 000-.46.23.23 0 000 .46zM253.7 68.81a.14.14 0 00.14-.14.14.14 0 00-.14-.14.13.13 0 00-.13.14.14.14 0 00.13.14zM262 68.74a.07.07 0 10-.07-.07.07.07 0 00.07.07zM270.3 68.69v-.04zM278.6 68.69v-.04zM46.21 77z" fill="#231f20"/><circle cx="54.51" cy="76.97" r=".05" fill="#231f20"/><circle cx="62.81" cy="76.97" r=".12" fill="#231f20"/><path d="M71.11 77.18a.22.22 0 00.21-.21.21.21 0 00-.42 0 .22.22 0 00.21.21zM79.41 77.29a.32.32 0 10-.32-.32.32.32 0 00.32.32zM87.71 77.45a.49.49 0 10-.48-.48.48.48 0 00.48.48z" fill="#231f20"/><circle cx="96.01" cy="76.97" r=".67" fill="#231f20"/><path d="M104.31 77.84a.88.88 0 000-1.75.88.88 0 100 1.75z" fill="#231f20"/><circle cx="112.61" cy="76.97" r="1.1" fill="#231f20"/><path d="M120.91 78.33a1.36 1.36 0 10-1.36-1.33 1.36 1.36 0 001.36 1.33z" fill="#231f20"/><circle cx="129.21" cy="76.97" r="1.59" fill="#231f20"/><circle cx="137.51" cy="76.97" r="1.8" fill="#231f20"/><path d="M145.81 78.92a2 2 0 10-2-2 1.95 1.95 0 002 2zM154.11 79a2.07 2.07 0 10-2.11-2 2.07 2.07 0 002.11 2z" fill="#231f20"/><circle cx="162.41" cy="76.97" r="2.12" transform="rotate(-22.36 162.455 76.979)" fill="#231f20"/><circle cx="170.71" cy="76.97" r="2.07" fill="#231f20"/><path d="M179 79a2 2 0 10-2-2 2 2 0 002 2zM187.31 78.79a1.82 1.82 0 10-1.82-1.79 1.82 1.82 0 001.82 1.79zM195.61 78.58A1.61 1.61 0 10194 77a1.61 1.61 0 001.61 1.58z" fill="#231f20"/><circle cx="203.91" cy="76.97" r="1.38" fill="#231f20"/><path d="M212.2 78.1a1.13 1.13 0 10-1.12-1.1 1.13 1.13 0 001.12 1.1zM220.5 77.87a.9.9 0 10-.89-.9.9.9 0 00.89.9z" fill="#231f20"/><circle cx="228.8" cy="76.97" r=".69" fill="#231f20"/><circle cx="237.1" cy="76.97" r=".48" fill="#231f20"/><circle cx="245.4" cy="76.97" r=".32" fill="#231f20"/><path d="M253.7 77.18a.21.21 0 00.21-.21.21.21 0 00-.21-.21.2.2 0 00-.2.21.21.21 0 00.2.21z" fill="#231f20"/><circle cx="262" cy="76.97" r=".12" fill="#231f20"/><circle cx="270.3" cy="76.97" r=".07" fill="#231f20"/><path d="M278.6 77zM37.91 85.29zM46.21 85.31zM54.51 85.36a.09.09 0 10-.09-.09.09.09 0 00.09.09zM62.81 85.45a.18.18 0 00.18-.18.18.18 0 10-.36 0 .18.18 0 00.18.18z" fill="#231f20"/><circle cx="71.11" cy="85.27" r=".3" fill="#231f20"/><path d="M79.41 85.73a.47.47 0 00.46-.46.46.46 0 00-.92 0 .47.47 0 00.46.46zM87.71 85.94a.67.67 0 10-.67-.67.67.67 0 00.67.67z" fill="#231f20"/><circle cx="96.01" cy="85.27" r=".9" fill="#231f20"/><circle cx="104.31" cy="85.27" r="1.2" fill="#231f20"/><path d="M112.61 86.76a1.5 1.5 0 10-1.5-1.49 1.49 1.49 0 001.5 1.49zM120.91 87.09a1.82 1.82 0 10-1.82-1.82 1.83 1.83 0 001.82 1.82z" fill="#231f20"/><circle cx="129.21" cy="85.27" r="2.14" fill="#231f20"/><circle cx="137.51" cy="85.27" r="2.42" transform="rotate(-9.28 137.567 85.27)" fill="#231f20"/><path d="M145.81 87.91a2.65 2.65 0 10-2.65-2.64 2.64 2.64 0 002.65 2.64zM154.11 88.08a2.81 2.81 0 10-2.81-2.81 2.8 2.8 0 002.81 2.81z" fill="#231f20"/><circle cx="162.41" cy="85.27" r="2.85" transform="rotate(-22.32 162.391 85.252)" fill="#231f20"/><path d="M170.71 88.08a2.81 2.81 0 10-2.81-2.81 2.8 2.8 0 002.81 2.81zM179 87.94a2.67 2.67 0 10-2.67-2.67 2.68 2.68 0 002.67 2.67zM187.31 87.71a2.44 2.44 0 10-2.44-2.44 2.44 2.44 0 002.44 2.44z" fill="#231f20"/><circle cx="195.61" cy="85.27" r="2.16" fill="#231f20"/><path d="M203.91 87.13a1.87 1.87 0 10-1.91-1.86 1.86 1.86 0 001.91 1.86zM212.2 86.81a1.54 1.54 0 10-1.54-1.54 1.54 1.54 0 001.54 1.54zM220.5 86.49a1.22 1.22 0 10-1.22-1.22 1.22 1.22 0 001.22 1.22zM228.8 86.19a.92.92 0 10-.92-.92.92.92 0 00.92.92zM237.1 86a.69.69 0 10-.69-.69.69.69 0 00.69.69z" fill="#231f20"/><circle cx="245.4" cy="85.27" r=".48" fill="#231f20"/><path d="M253.7 85.57a.3.3 0 00.3-.3.29.29 0 00-.3-.3.3.3 0 00-.3.3.31.31 0 00.3.3zM262 85.45a.19.19 0 00.19-.18.2.2 0 00-.19-.19.19.19 0 00-.18.19.18.18 0 00.18.18z" fill="#231f20"/><circle cx="270.3" cy="85.27" r=".09" fill="#231f20"/><path d="M278.6 85.31zM286.9 85.29zM37.91 93.59zM46.21 93.64a.07.07 0 10-.07-.07.07.07 0 00.07.07zM54.51 93.71a.14.14 0 00.14-.14.14.14 0 10-.28 0 .14.14 0 00.14.14zM62.81 93.82a.25.25 0 00.25-.25.25.25 0 10-.5 0 .25.25 0 00.25.25zM71.11 94a.39.39 0 00.39-.39.39.39 0 00-.78 0 .39.39 0 00.39.39zM79.41 94.19a.62.62 0 00.62-.62.62.62 0 10-1.24 0 .62.62 0 00.62.62zM87.71 94.44a.88.88 0 10-.87-.87.87.87 0 00.87.87zM96 94.76a1.2 1.2 0 10-1.2-1.19 1.19 1.19 0 001.2 1.19zM104.31 95.13a1.57 1.57 0 10-1.57-1.56 1.56 1.56 0 001.57 1.56zM112.61 95.52a2 2 0 10-2-2 1.95 1.95 0 002 2z" fill="#231f20"/><circle cx="120.91" cy="93.57" r="2.37" fill="#231f20"/><circle cx="129.21" cy="93.57" r="2.78" fill="#231f20"/><path d="M137.51 96.74a3.18 3.18 0 10-3.18-3.17 3.17 3.17 0 003.18 3.17z" fill="#231f20"/><circle cx="145.81" cy="93.57" r="3.48" fill="#231f20"/><path d="M154.11 97.23a3.66 3.66 0 10-3.66-3.66 3.66 3.66 0 003.66 3.66zM162.41 97.3a3.73 3.73 0 10-3.73-3.73 3.73 3.73 0 003.73 3.73z" fill="#231f20"/><circle cx="170.71" cy="93.57" r="3.68" fill="#231f20"/><path d="M179 97.07a3.5 3.5 0 10-3.5-3.5 3.5 3.5 0 003.5 3.5zM187.31 96.77a3.2 3.2 0 10-3.2-3.2 3.2 3.2 0 003.2 3.2zM195.61 96.4a2.83 2.83 0 10-2.84-2.83 2.83 2.83 0 002.84 2.83z" fill="#231f20"/><circle cx="203.91" cy="93.57" r="2.42" fill="#231f20"/><circle cx="212.2" cy="93.57" r="2" fill="#231f20"/><path d="M220.5 95.16a1.59 1.59 0 10-1.58-1.59 1.59 1.59 0 001.58 1.59zM228.8 94.79a1.22 1.22 0 10-1.22-1.22 1.22 1.22 0 001.22 1.22z" fill="#231f20"/><circle cx="237.1" cy="93.57" r=".9" fill="#231f20"/><path d="M245.4 94.21a.65.65 0 10-.64-.64.65.65 0 00.64.64zM253.7 94a.41.41 0 00.42-.41.42.42 0 00-.42-.42.41.41 0 00-.41.42.41.41 0 00.41.41zM262 93.82a.26.26 0 00.26-.25.26.26 0 00-.26-.26.26.26 0 00-.25.26.25.25 0 00.25.25zM270.3 93.71a.14.14 0 00.14-.14.14.14 0 00-.14-.14.14.14 0 00-.14.14.15.15 0 00.14.14zM278.6 93.64a.07.07 0 10-.07-.07.07.07 0 00.07.07zM286.9 93.59zM29.61 101.89z" fill="#231f20"/><circle cx="37.91" cy="101.87" r=".05" fill="#231f20"/><path d="M46.21 102a.09.09 0 10-.09-.09.09.09 0 00.09.09zM54.51 102.05a.19.19 0 00.19-.18.2.2 0 00-.19-.19.19.19 0 00-.18.19.18.18 0 00.18.18z" fill="#231f20"/><circle cx="62.81" cy="101.87" r=".32" fill="#231f20"/><path d="M71.11 102.4a.53.53 0 00.53-.53.53.53 0 00-1.06 0 .53.53 0 00.53.53zM79.41 102.65a.79.79 0 10-.78-.78.78.78 0 00.78.78z" fill="#231f20"/><circle cx="87.71" cy="101.87" r="1.1" fill="#231f20"/><path d="M96 103.36a1.5 1.5 0 10-1.5-1.49 1.5 1.5 0 001.5 1.49zM104.31 103.82a2 2 0 10-2-1.95 2 2 0 002 1.95zM112.61 104.33a2.47 2.47 0 10-2.46-2.46 2.46 2.46 0 002.46 2.46z" fill="#231f20"/><circle cx="120.91" cy="101.87" r="2.99" fill="#231f20"/><path d="M129.21 105.41a3.55 3.55 0 10-3.55-3.54 3.54 3.54 0 003.55 3.54z" fill="#231f20"/><circle cx="137.51" cy="101.87" r="3.89" fill="#231f20"/><path d="M145.81 105.87a4 4 0 10-4-4 4 4 0 004 4zM154.11 105.87a4 4 0 10-4-4 4 4 0 004 4zM162.41 105.87a4 4 0 10-4-4 4 4 0 004 4zM170.71 105.87a4 4 0 10-4-4 4 4 0 004 4zM179 105.87a4 4 0 10-4-4 4 4 0 004 4zM187.31 105.78a3.92 3.92 0 10-3.92-3.91 3.91 3.91 0 003.92 3.91zM195.61 105.43a3.57 3.57 0 10-3.57-3.56 3.56 3.56 0 003.57 3.56zM203.91 104.9a3 3 0 10-3-3 3 3 0 003 3zM212.2 104.38a2.51 2.51 0 10-2.5-2.51 2.51 2.51 0 002.5 2.51zM220.5 103.87a2 2 0 10-2-2 2 2 0 002 2zM228.8 103.41a1.54 1.54 0 10-1.54-1.54 1.54 1.54 0 001.54 1.54z" fill="#231f20"/><circle cx="237.1" cy="101.87" r="1.15" fill="#231f20"/><path d="M245.4 102.67a.81.81 0 10-.8-.8.8.8 0 00.8.8zM253.7 102.42a.56.56 0 10-.55-.55.56.56 0 00.55.55zM262 102.21a.35.35 0 00.35-.34.35.35 0 00-.35-.35.35.35 0 00-.34.35.34.34 0 00.34.34zM270.3 102.07a.2.2 0 00.21-.2.21.21 0 00-.21-.21.2.2 0 00-.2.21.2.2 0 00.2.2zM278.6 102a.09.09 0 10-.09-.09.09.09 0 00.09.09zM286.9 101.91h.05l-.05-.05v.05zM295.2 101.89zM29.61 110.19z" fill="#231f20"/><circle cx="37.91" cy="110.17" r=".05" fill="#231f20"/><path d="M46.21 110.28a.12.12 0 00.12-.11.12.12 0 00-.12-.12.11.11 0 00-.11.12.11.11 0 00.11.11z" fill="#231f20"/><circle cx="54.51" cy="110.17" r=".25" fill="#231f20"/><circle cx="62.81" cy="110.17" r=".41" fill="#231f20"/><circle cx="71.11" cy="110.17" r=".64" fill="#231f20"/><path d="M79.41 111.13a1 1 0 10-1-1 1 1 0 001 1zM87.71 111.52a1.36 1.36 0 10-1.36-1.35 1.35 1.35 0 001.36 1.35zM96 112a1.82 1.82 0 10-1.82-1.81A1.82 1.82 0 0096 112z" fill="#231f20"/><circle cx="104.31" cy="110.17" r="2.37" fill="#231f20"/><path d="M112.61 113.16a3 3 0 10-3-3 3 3 0 003 3zM120.91 113.83a3.66 3.66 0 10-3.66-3.66 3.66 3.66 0 003.66 3.66z" fill="#231f20"/><circle cx="129.21" cy="110.17" r="3.98" fill="#231f20"/><circle cx="137.51" cy="110.17" r="4" fill="#231f20"/><path d="M145.81 114.17a4 4 0 10-4-4 4 4 0 004 4zM154.11 114.17a4 4 0 10-4-4 4 4 0 004 4z" fill="#231f20"/><circle cx="162.41" cy="110.17" r="4" fill="#231f20"/><circle cx="170.71" cy="110.17" r="4" fill="#231f20"/><circle cx="179.01" cy="110.17" r="4" fill="#231f20"/><path d="M187.31 114.17a4 4 0 10-4-4 4 4 0 004 4z" fill="#231f20"/><circle cx="195.61" cy="110.17" r="4" fill="#231f20"/><path d="M203.91 113.87a3.71 3.71 0 10-3.71-3.7 3.7 3.7 0 003.71 3.7zM212.2 113.23a3.06 3.06 0 10-3.06-3.06 3.06 3.06 0 003.06 3.06zM220.5 112.58a2.42 2.42 0 10-2.41-2.41 2.41 2.41 0 002.41 2.41zM228.8 112a1.87 1.87 0 10-1.86-1.86 1.87 1.87 0 001.86 1.86z" fill="#231f20"/><circle cx="237.1" cy="110.17" r="1.38" fill="#231f20"/><circle cx="245.4" cy="110.17" r=".99" fill="#231f20"/><path d="M253.7 110.83a.66.66 0 00.67-.66.67.67 0 00-.67-.67.66.66 0 00-.66.67.65.65 0 00.66.66zM262 110.6a.44.44 0 00.44-.43.44.44 0 00-.44-.44.44.44 0 00-.43.44.43.43 0 00.43.43z" fill="#231f20"/><circle cx="270.3" cy="110.17" r=".25" fill="#231f20"/><path d="M278.6 110.3a.13.13 0 00.14-.13.14.14 0 00-.14-.14.14.14 0 00-.14.14.14.14 0 00.14.13zM286.9 110.24a.08.08 0 00.07-.07.07.07 0 10-.14 0 .08.08 0 00.07.07zM295.2 110.19zM29.61 118.49zM37.91 118.54a.08.08 0 00.07-.07.07.07 0 10-.14 0 .08.08 0 00.07.07zM46.21 118.63a.16.16 0 10-.16-.16.16.16 0 00.16.16zM54.51 118.77a.3.3 0 00.3-.3.29.29 0 00-.3-.3.3.3 0 00-.3.3.31.31 0 00.3.3zM62.81 119a.5.5 0 00.51-.5.51.51 0 10-1 0 .5.5 0 00.49.5z" fill="#231f20"/><circle cx="71.11" cy="118.47" r=".78" fill="#231f20"/><path d="M79.41 119.59a1.13 1.13 0 10-1.13-1.12 1.13 1.13 0 001.13 1.12zM87.71 120.05a1.59 1.59 0 10-1.59-1.58 1.59 1.59 0 001.59 1.58z" fill="#231f20"/><circle cx="96.01" cy="118.47" r="2.14" fill="#231f20"/><circle cx="104.31" cy="118.47" r="2.78" fill="#231f20"/><path d="M112.61 122a3.55 3.55 0 10-3.55-3.54 3.54 3.54 0 003.55 3.54zM120.91 122.45a4 4 0 10-4-4 4 4 0 004 4z" fill="#231f20"/><circle cx="129.21" cy="118.47" r="4" fill="#231f20"/><circle cx="137.51" cy="118.47" r="4" fill="#231f20"/><path d="M145.81 122.47a4 4 0 10-4-4 4 4 0 004 4zM154.11 122.47a4 4 0 10-4-4 4 4 0 004 4z" fill="#231f20"/><circle cx="162.41" cy="118.47" r="4" fill="#231f20"/><circle cx="170.71" cy="118.47" r="4" fill="#231f20"/><circle cx="179.01" cy="118.47" r="4" fill="#231f20"/><path d="M187.31 122.47a4 4 0 10-4-4 4 4 0 004 4z" fill="#231f20"/><circle cx="195.61" cy="118.47" r="4" fill="#231f20"/><circle cx="203.91" cy="118.47" r="4" fill="#231f20"/><path d="M212.2 122.06a3.59 3.59 0 10-3.59-3.59 3.6 3.6 0 003.59 3.59zM220.5 121.32a2.86 2.86 0 10-2.85-2.85 2.86 2.86 0 002.85 2.85zM228.8 120.65a2.19 2.19 0 10-2.18-2.18 2.19 2.19 0 002.18 2.18z" fill="#231f20"/><circle cx="237.1" cy="118.47" r="1.63" fill="#231f20"/><path d="M245.4 119.64a1.18 1.18 0 10-1.17-1.17 1.18 1.18 0 001.17 1.17zM253.7 119.27a.81.81 0 10-.8-.8.8.8 0 00.8.8zM262 119a.5.5 0 00.51-.5.51.51 0 00-.51-.5.5.5 0 00-.5.51.5.5 0 00.5.49z" fill="#231f20"/><circle cx="270.3" cy="118.47" r=".3" fill="#231f20"/><circle cx="278.6" cy="118.47" r=".16" fill="#231f20"/><path d="M286.9 118.54a.08.08 0 00.07-.07.07.07 0 00-.14 0 .08.08 0 00.07.07zM295.2 118.49zM29.61 126.79zM37.91 126.86a.09.09 0 00.09-.09.09.09 0 10-.18 0 .09.09 0 00.09.09zM46.21 127a.19.19 0 100-.37.18.18 0 00-.18.19.18.18 0 00.18.18zM54.51 127.11a.35.35 0 00.35-.34.35.35 0 00-.35-.35.35.35 0 00-.34.35.34.34 0 00.34.34z" fill="#231f20"/><circle cx="62.81" cy="126.77" r=".58" fill="#231f20"/><path d="M71.11 127.64a.88.88 0 10-.87-.87.87.87 0 00.87.87zM79.41 128.05a1.29 1.29 0 10-1.29-1.28 1.28 1.28 0 001.29 1.28zM87.71 128.56a1.8 1.8 0 10-1.8-1.79 1.79 1.79 0 001.8 1.79z" fill="#231f20"/><circle cx="96.01" cy="126.77" r="2.42" fill="#231f20"/><path d="M104.31 129.94a3.18 3.18 0 10-3.18-3.17 3.18 3.18 0 003.18 3.17z" fill="#231f20"/><circle cx="112.61" cy="126.77" r="3.89" fill="#231f20"/><path d="M120.91 130.77a4 4 0 10-4-4 4 4 0 004 4zM129.21 130.77a4 4 0 10-4-4 4 4 0 004 4zM137.51 130.77a4 4 0 10-4-4 4 4 0 004 4zM145.81 130.77a4 4 0 10-4-4 4 4 0 004 4zM154.11 130.77a4 4 0 10-4-4 4 4 0 004 4zM162.41 130.77a4 4 0 10-4-4 4 4 0 004 4zM170.71 130.77a4 4 0 10-4-4 4 4 0 004 4zM179 130.77a4 4 0 10-4-4 4 4 0 004 4zM187.31 130.77a4 4 0 10-4-4 4 4 0 004 4zM195.61 130.77a4 4 0 10-4-4 4 4 0 004 4zM203.91 130.77a4 4 0 10-4-4 4 4 0 004 4zM212.2 130.7a3.94 3.94 0 10-3.93-3.93 3.93 3.93 0 003.93 3.93zM220.5 130a3.25 3.25 0 10-3.24-3.24 3.24 3.24 0 003.24 3.24zM228.8 129.25a2.49 2.49 0 10-2.48-2.48 2.48 2.48 0 002.48 2.48z" fill="#231f20"/><circle cx="237.1" cy="126.77" r="1.84" fill="#231f20"/><path d="M245.4 128.1a1.34 1.34 0 10-1.33-1.33 1.34 1.34 0 001.33 1.33zM253.7 127.69a.92.92 0 10-.92-.92.92.92 0 00.92.92zM262 127.36a.59.59 0 00.6-.59.6.6 0 00-1.2 0 .59.59 0 00.6.59z" fill="#231f20"/><circle cx="270.3" cy="126.77" r=".37" fill="#231f20"/><circle cx="278.6" cy="126.77" r=".21" fill="#231f20"/><path d="M286.9 126.86a.09.09 0 00.09-.09.09.09 0 10-.18 0 .09.09 0 00.09.09z" fill="#231f20"/><circle cx="295.2" cy="126.77" r=".05" fill="#231f20"/><path d="M303.5 126.79zM21.31 135.09zM29.61 135.11h0zM37.91 135.18a.11.11 0 00.12-.11.12.12 0 00-.12-.12.11.11 0 00-.11.12.11.11 0 00.11.11zM46.21 135.27a.2.2 0 00.21-.2.21.21 0 00-.21-.21.21.21 0 100 .41zM54.51 135.46a.4.4 0 10-.39-.39.39.39 0 00.39.39zM62.81 135.69a.63.63 0 10-.62-.62.62.62 0 00.62.62zM71.11 136a1 1 0 10-1-1 1 1 0 001 1zM79.41 136.47a1.41 1.41 0 10-1.4-1.4 1.4 1.4 0 001.4 1.4zM87.71 137a2 2 0 10-2-2 2 2 0 002 2zM96 137.71a2.65 2.65 0 10-2.65-2.64 2.65 2.65 0 002.65 2.64z" fill="#231f20"/><circle cx="104.31" cy="135.07" r="3.48" fill="#231f20"/><path d="M112.61 139.07a4 4 0 10-4-4 4 4 0 004 4zM120.91 139.07a4 4 0 10-4-4 4 4 0 004 4zM129.21 139.07a4 4 0 10-4-4 4 4 0 004 4zM137.51 139.07a4 4 0 10-4-4 4 4 0 004 4zM145.81 139.07a4 4 0 10-4-4 4 4 0 004 4zM154.11 139.07a4 4 0 10-4-4 4 4 0 004 4zM162.41 139.07a4 4 0 10-4-4 4 4 0 004 4zM170.71 139.07a4 4 0 10-4-4 4 4 0 004 4zM179 139.07a4 4 0 10-4-4 4 4 0 004 4zM187.31 139.07a4 4 0 10-4-4 4 4 0 004 4zM195.61 139.07a4 4 0 10-4-4 4 4 0 004 4zM203.91 139.07a4 4 0 10-4-4 4 4 0 004 4zM212.2 139.07a4 4 0 10-4-4 4 4 0 004 4zM220.5 138.61a3.55 3.55 0 10-3.54-3.54 3.55 3.55 0 003.54 3.54zM228.8 137.78a2.72 2.72 0 10-2.71-2.71 2.71 2.71 0 002.71 2.71z" fill="#231f20"/><circle cx="237.1" cy="135.07" r="2" fill="#231f20"/><path d="M245.4 136.52a1.45 1.45 0 10-1.45-1.45 1.45 1.45 0 001.45 1.45zM253.7 136.06a1 1 0 10-1-1 1 1 0 001 1zM262 135.71a.65.65 0 10-.64-.64.65.65 0 00.64.64zM270.3 135.46a.4.4 0 000-.79.4.4 0 000 .79zM278.6 135.3a.23.23 0 00.23-.23.23.23 0 10-.46 0 .23.23 0 00.23.23zM286.9 135.18a.11.11 0 00.12-.11.12.12 0 00-.12-.12.11.11 0 00-.11.12.11.11 0 00.11.11zM295.2 135.11h0zM303.5 135.09zM21.31 143.39z" fill="#231f20"/><circle cx="29.61" cy="143.37" r=".05" fill="#231f20"/><circle cx="37.91" cy="143.37" r=".12" fill="#231f20"/><path d="M46.21 143.6a.23.23 0 00.23-.23.23.23 0 10-.46 0 .23.23 0 00.23.23z" fill="#231f20"/><circle cx="54.51" cy="143.37" r=".41" fill="#231f20"/><circle cx="62.81" cy="143.37" r=".67" fill="#231f20"/><circle cx="71.11" cy="143.37" r="1.01" fill="#231f20"/><path d="M79.41 144.86a1.5 1.5 0 10-1.5-1.49 1.5 1.5 0 001.5 1.49zM87.71 145.44a2.08 2.08 0 10-2.07-2.07 2.07 2.07 0 002.07 2.07zM96 146.17a2.81 2.81 0 10-2.81-2.8 2.8 2.8 0 002.81 2.8zM104.31 147a3.66 3.66 0 10-3.66-3.65 3.65 3.65 0 003.66 3.65zM112.61 147.37a4 4 0 10-4-4 4 4 0 004 4zM120.91 147.37a4 4 0 10-4-4 4 4 0 004 4z" fill="#231f20"/><circle cx="129.21" cy="143.37" r="4" fill="#231f20"/><circle cx="137.51" cy="143.37" r="4" fill="#231f20"/><path d="M145.81 147.37a4 4 0 10-4-4 4 4 0 004 4zM154.11 147.37a4 4 0 10-4-4 4 4 0 004 4z" fill="#231f20"/><circle cx="162.41" cy="143.37" r="4" fill="#231f20"/><circle cx="170.71" cy="143.37" r="4" fill="#231f20"/><circle cx="179.01" cy="143.37" r="4" fill="#231f20"/><path d="M187.31 147.37a4 4 0 10-4-4 4 4 0 004 4z" fill="#231f20"/><circle cx="195.61" cy="143.37" r="4" fill="#231f20"/><circle cx="203.91" cy="143.37" r="4" fill="#231f20"/><circle cx="212.2" cy="143.37" r="4" fill="#231f20"/><path d="M220.5 147.09a3.73 3.73 0 10-3.72-3.72 3.73 3.73 0 003.72 3.72zM228.8 146.24a2.88 2.88 0 10-2.87-2.87 2.88 2.88 0 002.87 2.87z" fill="#231f20"/><circle cx="237.1" cy="143.37" r="2.12" fill="#231f20"/><circle cx="245.4" cy="143.37" r="1.52" fill="#231f20"/><path d="M253.7 144.42a1.06 1.06 0 10-1.06-1 1.05 1.05 0 001.06 1zM262 144.06a.69.69 0 10-.69-.69.69.69 0 00.69.69z" fill="#231f20"/><circle cx="270.3" cy="143.37" r=".41" fill="#231f20"/><circle cx="278.6" cy="143.37" r=".25" fill="#231f20"/><path d="M286.9 143.48a.11.11 0 00.12-.11.12.12 0 00-.12-.12.11.11 0 00-.11.12.11.11 0 00.11.11z" fill="#231f20"/><circle cx="295.2" cy="143.37" r=".05" fill="#231f20"/><path d="M303.5 143.39zM21.31 151.69z" fill="#231f20"/><circle cx="29.61" cy="151.67" r=".05" fill="#231f20"/><circle cx="37.91" cy="151.67" r=".12" fill="#231f20"/><path d="M46.21 151.9a.23.23 0 00.23-.23.23.23 0 10-.46 0 .23.23 0 00.23.23z" fill="#231f20"/><circle cx="54.51" cy="151.67" r=".41" fill="#231f20"/><circle cx="62.81" cy="151.67" r=".69" fill="#231f20"/><circle cx="71.11" cy="151.67" r="1.04" fill="#231f20"/><path d="M79.41 153.18a1.52 1.52 0 10-1.52-1.51 1.52 1.52 0 001.52 1.51zM87.71 153.78a2.12 2.12 0 10-2.12-2.11 2.12 2.12 0 002.12 2.11z" fill="#231f20"/><circle cx="96.01" cy="151.67" r="2.85" fill="#231f20"/><circle cx="104.31" cy="151.67" r="3.73" fill="#231f20"/><path d="M112.61 155.67a4 4 0 10-4-4 4 4 0 004 4zM120.91 155.67a4 4 0 10-4-4 4 4 0 004 4z" fill="#231f20"/><circle cx="129.21" cy="151.67" r="4" fill="#231f20"/><circle cx="137.51" cy="151.67" r="4" fill="#231f20"/><path d="M145.81 155.67a4 4 0 10-4-4 4 4 0 004 4zM154.11 155.67a4 4 0 10-4-4 4 4 0 004 4z" fill="#231f20"/><circle cx="162.41" cy="151.67" r="4" fill="#231f20"/><circle cx="170.71" cy="151.67" r="4" fill="#231f20"/><circle cx="179.01" cy="151.67" r="4" fill="#231f20"/><path d="M187.31 155.67a4 4 0 10-4-4 4 4 0 004 4z" fill="#231f20"/><circle cx="195.61" cy="151.67" r="4" fill="#231f20"/><circle cx="203.91" cy="151.67" r="4" fill="#231f20"/><circle cx="212.2" cy="151.67" r="4" fill="#231f20"/><path d="M220.5 155.44a3.78 3.78 0 10-3.77-3.77 3.77 3.77 0 003.77 3.77zM228.8 154.59a2.93 2.93 0 10-2.92-2.92 2.93 2.93 0 002.92 2.92z" fill="#231f20"/><circle cx="237.1" cy="151.67" r="2.16" fill="#231f20"/><path d="M245.4 153.23a1.57 1.57 0 10-1.56-1.56 1.56 1.56 0 001.56 1.56zM253.7 152.75a1.09 1.09 0 10-1.08-1.08 1.08 1.08 0 001.08 1.08zM262 152.38a.72.72 0 10-.71-.71.71.71 0 00.71.71zM270.3 152.1a.44.44 0 100-.87.44.44 0 000 .87z" fill="#231f20"/><circle cx="278.6" cy="151.67" r=".25" fill="#231f20"/><path d="M286.9 151.8a.13.13 0 00.14-.13.14.14 0 00-.14-.14.14.14 0 00-.14.14.14.14 0 00.14.13z" fill="#231f20"/><circle cx="295.2" cy="151.67" r=".05" fill="#231f20"/><path d="M303.5 151.69zM21.31 160s-.01 0 0 0z" fill="#231f20"/><circle cx="29.61" cy="159.96" r=".05" fill="#231f20"/><path d="M37.91 160.08A.12.12 0 0038 160a.11.11 0 00-.12-.11.11.11 0 00-.11.11.11.11 0 00.14.08zM46.21 160.19a.23.23 0 00.23-.23.23.23 0 10-.46 0 .23.23 0 00.23.23z" fill="#231f20"/><circle cx="54.51" cy="159.96" r=".41" fill="#231f20"/><path d="M62.81 160.63a.67.67 0 10-.67-.67.67.67 0 00.67.67zM71.11 161a1 1 0 10-1-1 1 1 0 001 1zM79.41 161.46a1.5 1.5 0 10-1.5-1.5 1.5 1.5 0 001.5 1.5zM87.71 162a2.08 2.08 0 10-2.07-2 2.08 2.08 0 002.07 2zM96 162.77a2.81 2.81 0 10-2.8-2.77 2.81 2.81 0 002.8 2.77z" fill="#231f20"/><circle cx="104.31" cy="159.96" r="3.68" fill="#231f20"/><path d="M112.61 164a4 4 0 10-4-4 4 4 0 004 4zM120.91 164a4 4 0 10-4-4 4 4 0 004 4z" fill="#231f20"/><circle cx="129.21" cy="159.96" r="4" fill="#231f20"/><circle cx="137.51" cy="159.96" r="4" fill="#231f20"/><path d="M145.81 164a4 4 0 10-4-4 4 4 0 004 4zM154.11 164a4 4 0 10-4-4 4 4 0 004 4z" fill="#231f20"/><circle cx="162.41" cy="159.96" r="4" fill="#231f20"/><circle cx="170.71" cy="159.96" r="4" fill="#231f20"/><circle cx="179.01" cy="159.96" r="4" fill="#231f20"/><path d="M187.31 164a4 4 0 10-4-4 4 4 0 004 4z" fill="#231f20"/><circle cx="195.61" cy="159.96" r="4" fill="#231f20"/><circle cx="203.91" cy="159.96" r="4" fill="#231f20"/><circle cx="212.2" cy="159.96" r="4" fill="#231f20"/><path d="M220.5 163.69a3.73 3.73 0 10-3.72-3.73 3.73 3.73 0 003.72 3.73zM228.8 162.84a2.88 2.88 0 10-2.87-2.88 2.88 2.88 0 002.87 2.88zM237.1 162.11A2.15 2.15 0 10235 160a2.14 2.14 0 002.1 2.11zM245.4 161.51a1.55 1.55 0 10-1.54-1.55 1.54 1.54 0 001.54 1.55zM253.7 161a1.06 1.06 0 10-1.06-1.06 1.05 1.05 0 001.06 1.06zM262 160.66a.7.7 0 10-.69-.7.69.69 0 00.69.7z" fill="#231f20"/><circle cx="270.3" cy="159.96" r=".41" fill="#231f20"/><path d="M278.6 160.22a.26.26 0 00.26-.26.26.26 0 00-.26-.25.25.25 0 00-.25.25.26.26 0 00.25.26zM286.9 160.08a.12.12 0 00.1-.08.11.11 0 00-.12-.11.11.11 0 00-.11.11.11.11 0 00.13.08z" fill="#231f20"/><circle cx="295.2" cy="159.96" r=".05" fill="#231f20"/><path d="M303.5 160s-.01 0 0 0zM21.31 168.29s-.01 0 0 0zM29.61 168.31l.05-.05h-.05v.05zM37.91 168.38a.12.12 0 00.12-.12.11.11 0 00-.12-.11.11.11 0 00-.11.11.11.11 0 00.11.12zM46.21 168.47a.21.21 0 00.21-.21.2.2 0 00-.21-.2.21.21 0 100 .41zM54.51 168.66a.4.4 0 10-.39-.4.39.39 0 00.39.4zM62.81 168.91a.65.65 0 100-1.29.65.65 0 000 1.29zM71.11 169.23a1 1 0 10-1-1 1 1 0 001 1zM79.41 169.67a1.41 1.41 0 10-1.4-1.41 1.4 1.4 0 001.4 1.41zM87.71 170.24a2 2 0 10-2-2 2 2 0 002 2zM96 170.93a2.67 2.67 0 10-2.67-2.67 2.67 2.67 0 002.67 2.67zM104.31 171.76a3.5 3.5 0 10-3.5-3.5 3.5 3.5 0 003.5 3.5zM112.61 172.27a4 4 0 10-4-4 4 4 0 004 4zM120.91 172.27a4 4 0 10-4-4 4 4 0 004 4zM129.21 172.27a4 4 0 10-4-4 4 4 0 004 4zM137.51 172.27a4 4 0 10-4-4 4 4 0 004 4zM145.81 172.27a4 4 0 10-4-4 4 4 0 004 4zM154.11 172.27a4 4 0 10-4-4 4 4 0 004 4zM162.41 172.27a4 4 0 10-4-4 4 4 0 004 4zM170.71 172.27a4 4 0 10-4-4 4 4 0 004 4zM179 172.27a4 4 0 10-4-4 4 4 0 004 4zM187.31 172.27a4 4 0 10-4-4 4 4 0 004 4zM195.61 172.27a4 4 0 10-4-4 4 4 0 004 4zM203.91 172.27a4 4 0 10-4-4 4 4 0 004 4zM212.2 172.27a4 4 0 10-4-4 4 4 0 004 4zM220.5 171.83a3.57 3.57 0 10-3.56-3.57 3.57 3.57 0 003.56 3.57z" fill="#231f20"/><circle cx="228.8" cy="168.26" r="2.74" fill="#231f20"/><path d="M237.1 170.29a2 2 0 10-2-2 2 2 0 002 2zM245.4 169.71a1.45 1.45 0 10-1.45-1.45 1.44 1.44 0 001.45 1.45zM253.7 169.28a1 1 0 100-2 1 1 0 000 2zM262 168.91a.65.65 0 10-.64-.65.65.65 0 00.64.65zM270.3 168.66a.4.4 0 000-.79.4.4 0 000 .79zM278.6 168.49a.23.23 0 00.23-.23.23.23 0 10-.46 0 .23.23 0 00.23.23zM286.9 168.38a.12.12 0 00.12-.12.11.11 0 00-.12-.11.11.11 0 00-.11.11.11.11 0 00.11.12zM295.2 168.31l.05-.05h-.05v.05zM303.5 168.29s-.01 0 0 0zM21.31 176.59s-.01 0 0 0z" fill="#231f20"/><circle cx="29.61" cy="176.56" r=".05" fill="#231f20"/><circle cx="37.91" cy="176.56" r=".09" fill="#231f20"/><path d="M46.21 176.75a.19.19 0 100-.37.18.18 0 00-.18.18.18.18 0 00.18.19zM54.51 176.91a.35.35 0 00.35-.35.35.35 0 00-.35-.34.34.34 0 00-.34.34.35.35 0 00.34.35z" fill="#231f20"/><circle cx="62.81" cy="176.56" r=".58" fill="#231f20"/><circle cx="71.11" cy="176.56" r=".9" fill="#231f20"/><path d="M79.41 177.85a1.29 1.29 0 10-1.29-1.29 1.29 1.29 0 001.29 1.29zM87.71 178.38a1.82 1.82 0 10-1.82-1.82 1.82 1.82 0 001.82 1.82zM96 179a2.44 2.44 0 10-2.44-2.44A2.44 2.44 0 0096 179z" fill="#231f20"/><circle cx="104.31" cy="176.56" r="3.2" fill="#231f20"/><path d="M112.61 180.48a3.92 3.92 0 10-3.91-3.92 3.91 3.91 0 003.91 3.92zM120.91 180.57a4 4 0 10-4-4 4 4 0 004 4z" fill="#231f20"/><circle cx="129.21" cy="176.56" r="4" fill="#231f20"/><circle cx="137.51" cy="176.56" r="4" fill="#231f20"/><path d="M145.81 180.57a4 4 0 10-4-4 4 4 0 004 4zM154.11 180.57a4 4 0 10-4-4 4 4 0 004 4z" fill="#231f20"/><circle cx="162.41" cy="176.56" r="4" fill="#231f20"/><circle cx="170.71" cy="176.56" r="4" fill="#231f20"/><circle cx="179.01" cy="176.56" r="4" fill="#231f20"/><path d="M187.31 180.57a4 4 0 10-4-4 4 4 0 004 4z" fill="#231f20"/><circle cx="195.61" cy="176.56" r="4" fill="#231f20"/><circle cx="203.91" cy="176.56" r="4" fill="#231f20"/><circle cx="212.2" cy="176.56" r="3.94" fill="#231f20"/><path d="M220.5 179.83a3.27 3.27 0 10-3.26-3.27 3.26 3.26 0 003.26 3.27zM228.8 179.07a2.51 2.51 0 10-2.5-2.51 2.51 2.51 0 002.5 2.51zM237.1 178.43a1.87 1.87 0 10-1.86-1.87 1.87 1.87 0 001.86 1.87zM245.4 177.9a1.34 1.34 0 10-1.33-1.34 1.34 1.34 0 001.33 1.34zM253.7 177.48a.92.92 0 10-.92-.92.92.92 0 00.92.92zM262 177.16a.6.6 0 00.6-.6.6.6 0 00-1.2 0 .6.6 0 00.6.6z" fill="#231f20"/><circle cx="270.3" cy="176.56" r=".37" fill="#231f20"/><circle cx="278.6" cy="176.56" r=".21" fill="#231f20"/><path d="M286.9 176.66a.1.1 0 00.09-.1.09.09 0 10-.18 0 .1.1 0 00.09.1z" fill="#231f20"/><circle cx="295.2" cy="176.56" r=".05" fill="#231f20"/><path d="M303.5 176.59s-.01 0 0 0zM29.61 184.89s-.01 0 0 0zM37.91 184.93a.07.07 0 00.07-.07.07.07 0 00-.14 0 .07.07 0 00.07.07zM46.21 185a.16.16 0 10-.16-.16.16.16 0 00.16.16zM54.51 185.16a.29.29 0 00.3-.3.3.3 0 00-.3-.3.31.31 0 00-.3.3.3.3 0 00.3.3z" fill="#231f20"/><circle cx="62.81" cy="184.86" r=".51" fill="#231f20"/><circle cx="71.11" cy="184.86" r=".78" fill="#231f20"/><path d="M79.41 186a1.15 1.15 0 10-1.15-1.15 1.14 1.14 0 001.15 1.15zM87.71 186.47a1.61 1.61 0 10-1.61-1.61 1.61 1.61 0 001.61 1.61z" fill="#231f20"/><circle cx="96.01" cy="184.86" r="2.16" fill="#231f20"/><circle cx="104.31" cy="184.86" r="2.83" fill="#231f20"/><path d="M112.61 188.43a3.57 3.57 0 10-3.57-3.57 3.57 3.57 0 003.57 3.57zM120.91 188.87a4 4 0 10-4-4 4 4 0 004 4z" fill="#231f20"/><circle cx="129.21" cy="184.86" r="4" fill="#231f20"/><circle cx="137.51" cy="184.86" r="4" fill="#231f20"/><path d="M145.81 188.87a4 4 0 10-4-4 4 4 0 004 4zM154.11 188.87a4 4 0 10-4-4 4 4 0 004 4z" fill="#231f20"/><circle cx="162.41" cy="184.86" r="4" fill="#231f20"/><circle cx="170.71" cy="184.86" r="4" fill="#231f20"/><circle cx="179.01" cy="184.86" r="4" fill="#231f20"/><path d="M187.31 188.87a4 4 0 10-4-4 4 4 0 004 4z" fill="#231f20"/><circle cx="195.61" cy="184.86" r="4" fill="#231f20"/><circle cx="203.91" cy="184.86" r="4" fill="#231f20"/><circle cx="212.2" cy="184.86" r="3.64" fill="#231f20"/><path d="M220.5 187.74a2.88 2.88 0 10-2.87-2.88 2.88 2.88 0 002.87 2.88z" fill="#231f20"/><circle cx="228.8" cy="184.86" r="2.21" transform="rotate(-9.27 228.738 184.79)" fill="#231f20"/><path d="M237.1 186.52a1.66 1.66 0 10-1.65-1.66 1.66 1.66 0 001.65 1.66zM245.4 186a1.18 1.18 0 10-1.17-1.18 1.18 1.18 0 001.17 1.18zM253.7 185.67a.81.81 0 10-.8-.81.81.81 0 00.8.81z" fill="#231f20"/><circle cx="262" cy="184.86" r=".53" fill="#231f20"/><circle cx="270.3" cy="184.86" r=".32" fill="#231f20"/><circle cx="278.6" cy="184.86" r=".16" fill="#231f20"/><path d="M286.9 184.93a.07.07 0 00.07-.07.07.07 0 00-.14 0 .07.07 0 00.07.07zM295.2 184.89s-.01 0 0 0zM29.61 193.19s-.01 0 0 0zM37.91 193.23a.07.07 0 00.07-.07.07.07 0 10-.14 0 .07.07 0 00.07.07zM46.21 193.3a.14.14 0 00.14-.14.13.13 0 00-.14-.13.14.14 0 00-.14.13.14.14 0 00.14.14z" fill="#231f20"/><circle cx="54.51" cy="193.16" r=".25" fill="#231f20"/><circle cx="62.81" cy="193.16" r=".41" fill="#231f20"/><path d="M71.11 193.83a.67.67 0 00.67-.67.67.67 0 00-1.34 0 .67.67 0 00.67.67zM79.41 194.13a1 1 0 10-1-1 1 1 0 001 1zM87.71 194.54a1.38 1.38 0 10-1.38-1.38 1.38 1.38 0 001.38 1.38zM96 195a1.87 1.87 0 10-1.86-1.87A1.87 1.87 0 0096 195z" fill="#231f20"/><circle cx="104.31" cy="193.16" r="2.42" fill="#231f20"/><path d="M112.61 196.2a3 3 0 10-3-3 3 3 0 003 3zM120.91 196.87a3.71 3.71 0 10-3.71-3.71 3.71 3.71 0 003.71 3.71z" fill="#231f20"/><circle cx="129.21" cy="193.16" r="4" fill="#231f20"/><circle cx="137.51" cy="193.16" r="4" fill="#231f20"/><path d="M145.81 197.17a4 4 0 10-4-4 4 4 0 004 4zM154.11 197.17a4 4 0 10-4-4 4 4 0 004 4z" fill="#231f20"/><circle cx="162.41" cy="193.16" r="4" fill="#231f20"/><circle cx="170.71" cy="193.16" r="4" fill="#231f20"/><circle cx="179.01" cy="193.16" r="4" fill="#231f20"/><path d="M187.31 197.17a4 4 0 10-4-4 4 4 0 004 4z" fill="#231f20"/><circle cx="195.61" cy="193.16" r="4" fill="#231f20"/><circle cx="203.91" cy="193.16" r="3.73" fill="#231f20"/><circle cx="212.2" cy="193.16" r="3.11" transform="rotate(-9.29 212.204 193.167)" fill="#231f20"/><path d="M220.5 195.63a2.47 2.47 0 10-2.46-2.47 2.48 2.48 0 002.46 2.47z" fill="#231f20"/><circle cx="228.8" cy="193.16" r="1.89" transform="rotate(-9.26 228.772 193.154)" fill="#231f20"/><path d="M237.1 194.57a1.41 1.41 0 10-1.4-1.41 1.41 1.41 0 001.4 1.41zM245.4 194.18a1 1 0 100-2 1 1 0 000 2zM253.7 193.85a.69.69 0 10-.69-.69.69.69 0 00.69.69zM262 193.6a.44.44 0 00.44-.44.44.44 0 00-.44-.43.43.43 0 00-.43.43.44.44 0 00.43.44z" fill="#231f20"/><circle cx="270.3" cy="193.16" r=".25" fill="#231f20"/><path d="M278.6 193.3a.14.14 0 00.14-.14.13.13 0 00-.14-.13.14.14 0 00-.14.13.14.14 0 00.14.14zM286.9 193.23a.07.07 0 00.07-.07.07.07 0 00-.14 0 .07.07 0 00.07.07zM295.2 193.19s-.01 0 0 0zM29.61 201.49s-.01 0 0 0zM37.91 201.51h0zM46.21 201.56a.1.1 0 00.09-.1.09.09 0 00-.18 0 .1.1 0 00.09.1zM54.51 201.65a.2.2 0 00.19-.19.19.19 0 00-.19-.18.18.18 0 00-.18.18.19.19 0 00.18.19zM62.81 201.81a.35.35 0 00.35-.35.35.35 0 00-.35-.34.34.34 0 00-.34.34.35.35 0 00.34.35zM71.11 202a.53.53 0 00.53-.53.53.53 0 10-1.06 0 .53.53 0 00.53.53zM79.41 202.27a.81.81 0 10-.81-.81.81.81 0 00.81.81zM87.71 202.59a1.13 1.13 0 10-1.13-1.13 1.13 1.13 0 001.13 1.13zM96 203a1.55 1.55 0 10-1.54-1.55A1.55 1.55 0 0096 203zM104.31 203.47a2 2 0 10-2-2 2 2 0 002 2zM112.61 204a2.51 2.51 0 10-2.51-2.51 2.51 2.51 0 002.51 2.51zM120.91 204.52a3.06 3.06 0 10-3.06-3.06 3.06 3.06 0 003.06 3.06zM129.21 205.05a3.59 3.59 0 10-3.59-3.59 3.59 3.59 0 003.59 3.59zM137.51 205.4a3.94 3.94 0 10-3.94-3.94 3.93 3.93 0 003.94 3.94zM145.81 205.47a4 4 0 10-4-4 4 4 0 004 4zM154.11 205.47a4 4 0 10-4-4 4 4 0 004 4zM162.41 205.47a4 4 0 10-4-4 4 4 0 004 4zM170.71 205.47a4 4 0 10-4-4 4 4 0 004 4zM179 205.47a4 4 0 10-4-4 4 4 0 004 4zM187.31 205.4a3.94 3.94 0 10-3.94-3.94 3.93 3.93 0 003.94 3.94zM195.61 205.1a3.64 3.64 0 10-3.64-3.64 3.64 3.64 0 003.64 3.64zM203.91 204.57a3.11 3.11 0 10-3.11-3.11 3.1 3.1 0 003.11 3.11zM212.2 204a2.56 2.56 0 10-2.55-2.56 2.56 2.56 0 002.55 2.56zM220.5 203.49a2 2 0 10-2-2 2 2 0 002 2zM228.8 203a1.57 1.57 0 10-1.56-1.57 1.57 1.57 0 001.56 1.57zM237.1 202.61a1.15 1.15 0 000-2.3 1.15 1.15 0 000 2.3zM245.4 202.29a.83.83 0 100-1.66.83.83 0 100 1.66zM253.7 202a.56.56 0 10-.55-.56.56.56 0 00.55.56zM262 201.81a.35.35 0 00.35-.35.35.35 0 00-.35-.34.34.34 0 00-.34.34.35.35 0 00.34.35zM270.3 201.67a.21.21 0 00.21-.21.2.2 0 00-.21-.2.2.2 0 00-.2.2.2.2 0 00.2.21zM278.6 201.58a.12.12 0 00.12-.12.11.11 0 00-.12-.11.11.11 0 00-.11.11.11.11 0 00.11.12zM286.9 201.51h0zM295.2 201.49s-.01 0 0 0zM37.91 209.79s-.01 0 0 0zM46.21 209.83a.07.07 0 10-.07-.07.07.07 0 00.07.07zM54.51 209.9a.14.14 0 00.14-.14.14.14 0 00-.28 0 .14.14 0 00.14.14z" fill="#231f20"/><circle cx="62.81" cy="209.76" r=".25" fill="#231f20"/><circle cx="71.11" cy="209.76" r=".41" fill="#231f20"/><path d="M79.41 210.38a.62.62 0 00.62-.62.62.62 0 10-1.24 0 .62.62 0 00.62.62z" fill="#231f20"/><circle cx="87.71" cy="209.76" r=".9" fill="#231f20"/><circle cx="96.01" cy="209.76" r="1.22" fill="#231f20"/><circle cx="104.31" cy="209.76" r="1.59" fill="#231f20"/><circle cx="112.61" cy="209.76" r="2" fill="#231f20"/><circle cx="120.91" cy="209.76" r="2.42" transform="rotate(-9.29 120.857 209.656)" fill="#231f20"/><circle cx="129.21" cy="209.76" r="2.85" fill="#231f20"/><path d="M137.51 213a3.25 3.25 0 10-3.25-3.25 3.24 3.24 0 003.25 3.25zM145.81 213.31a3.55 3.55 0 10-3.55-3.55 3.55 3.55 0 003.55 3.55z" fill="#231f20"/><circle cx="154.11" cy="209.76" r="3.73" fill="#231f20"/><circle cx="162.41" cy="209.76" r="3.77" transform="rotate(-22.26 162.395 209.769)" fill="#231f20"/><circle cx="170.71" cy="209.76" r="3.73" fill="#231f20"/><circle cx="179.01" cy="209.76" r="3.57" transform="rotate(-22.28 179.01 209.78)" fill="#231f20"/><path d="M187.31 213a3.27 3.27 0 10-3.27-3.27 3.26 3.26 0 003.27 3.27zM195.61 212.64a2.88 2.88 0 10-2.88-2.88 2.88 2.88 0 002.88 2.88z" fill="#231f20"/><circle cx="203.91" cy="209.76" r="2.46" fill="#231f20"/><path d="M212.2 211.79a2 2 0 10-2-2 2 2 0 002 2zM220.5 211.37a1.61 1.61 0 10-1.61-1.61 1.62 1.62 0 001.61 1.61zM228.8 211a1.25 1.25 0 10-1.24-1.25 1.25 1.25 0 001.24 1.25zM237.1 210.68a.92.92 0 10-.92-.92.92.92 0 00.92.92zM245.4 210.41a.65.65 0 10-.64-.65.65.65 0 00.64.65zM253.7 210.2a.44.44 0 00.44-.44.44.44 0 00-.44-.43.43.43 0 00-.43.43.44.44 0 00.43.44z" fill="#231f20"/><circle cx="262" cy="209.76" r=".25" fill="#231f20"/><path d="M270.3 209.9a.14.14 0 00.14-.14.14.14 0 00-.14-.14.15.15 0 00-.14.14.14.14 0 00.14.14zM278.6 209.83a.07.07 0 10-.07-.07.07.07 0 00.07.07zM286.9 209.79s-.01 0 0 0zM37.91 218.09s-.01 0 0 0zM46.21 218.11v-.05.05zM54.51 218.15a.09.09 0 10-.09-.09.09.09 0 00.09.09zM62.81 218.25a.19.19 0 00.18-.19.18.18 0 00-.36 0 .19.19 0 00.18.19z" fill="#231f20"/><circle cx="71.11" cy="218.06" r=".3" fill="#231f20"/><path d="M79.41 218.52a.46.46 0 00.46-.46.46.46 0 00-.92 0 .46.46 0 00.46.46z" fill="#231f20"/><circle cx="87.71" cy="218.06" r=".69" fill="#231f20"/><path d="M96 219a.92.92 0 10-.92-.92.92.92 0 00.92.92z" fill="#231f20"/><circle cx="104.31" cy="218.06" r="1.22" fill="#231f20"/><path d="M112.61 219.6a1.54 1.54 0 10-1.54-1.54 1.54 1.54 0 001.54 1.54zM120.91 219.93a1.87 1.87 0 10-1.87-1.87 1.87 1.87 0 001.87 1.87zM129.21 220.25a2.19 2.19 0 10-2.19-2.19 2.18 2.18 0 002.19 2.19z" fill="#231f20"/><circle cx="137.51" cy="218.06" r="2.49" fill="#231f20"/><path d="M145.81 220.78a2.72 2.72 0 10-2.72-2.72 2.71 2.71 0 002.72 2.72zM154.11 220.94a2.88 2.88 0 10-2.88-2.88 2.87 2.87 0 002.88 2.88zM162.41 221a2.93 2.93 0 10-2.93-2.93 2.93 2.93 0 002.93 2.93z" fill="#231f20"/><circle cx="170.71" cy="218.06" r="2.88" transform="rotate(-22.5 170.72 218.053)" fill="#231f20"/><circle cx="179.01" cy="218.06" r="2.74" transform="rotate(-22.33 179.02 218.072)" fill="#231f20"/><path d="M187.31 220.57a2.51 2.51 0 10-2.51-2.51 2.5 2.5 0 002.51 2.51z" fill="#231f20"/><circle cx="195.61" cy="218.06" r="2.21" fill="#231f20"/><circle cx="203.91" cy="218.06" r="1.89" fill="#231f20"/><path d="M212.2 219.63a1.57 1.57 0 10-1.56-1.57 1.57 1.57 0 001.56 1.57zM220.5 219.31a1.25 1.25 0 10-1.24-1.25 1.25 1.25 0 001.24 1.25z" fill="#231f20"/><circle cx="228.8" cy="218.06" r=".94" fill="#231f20"/><path d="M237.1 218.75a.69.69 0 10-.69-.69.69.69 0 00.69.69z" fill="#231f20"/><circle cx="245.4" cy="218.06" r=".48" fill="#231f20"/><path d="M253.7 218.38a.32.32 0 10-.32-.32.32.32 0 00.32.32zM262 218.25a.2.2 0 00.19-.19.19.19 0 00-.19-.18.18.18 0 00-.18.18.19.19 0 00.18.19z" fill="#231f20"/><circle cx="270.3" cy="218.06" r=".09" fill="#231f20"/><path d="M278.6 218.11v-.05.05zM286.9 218.09s-.01 0 0 0zM46.21 226.39s-.01 0 0 0zM54.51 226.43a.07.07 0 10-.07-.07.07.07 0 00.07.07z" fill="#231f20"/><circle cx="62.81" cy="226.36" r=".12" fill="#231f20"/><path d="M71.11 226.57a.21.21 0 00.21-.21.21.21 0 00-.42 0 .21.21 0 00.21.21zM79.41 226.68a.32.32 0 10-.32-.32.32.32 0 00.32.32zM87.71 226.85a.49.49 0 10-.48-.49.48.48 0 00.48.49z" fill="#231f20"/><circle cx="96.01" cy="226.36" r=".69" fill="#231f20"/><circle cx="104.31" cy="226.36" r=".9" fill="#231f20"/><path d="M112.61 227.51a1.15 1.15 0 10-1.15-1.15 1.15 1.15 0 001.15 1.15zM120.91 227.74a1.38 1.38 0 10-1.38-1.38 1.38 1.38 0 001.38 1.38z" fill="#231f20"/><circle cx="129.21" cy="226.36" r="1.63" fill="#231f20"/><circle cx="137.51" cy="226.36" r="1.84" fill="#231f20"/><circle cx="145.81" cy="226.36" r="2" fill="#231f20"/><path d="M154.11 228.48a2.12 2.12 0 10-2.12-2.12 2.11 2.11 0 002.12 2.12z" fill="#231f20"/><circle cx="162.41" cy="226.36" r="2.16" transform="rotate(-22.36 162.42 226.384)" fill="#231f20"/><path d="M170.71 228.5a2.14 2.14 0 10-2.14-2.14 2.14 2.14 0 002.14 2.14zM179 228.39a2 2 0 10-2-2 2 2 0 002 2zM187.31 228.23a1.87 1.87 0 10-1.87-1.87 1.87 1.87 0 001.87 1.87zM195.61 228a1.66 1.66 0 10-1.66-1.66 1.65 1.65 0 001.66 1.66zM203.91 227.77a1.41 1.41 0 10-1.41-1.41 1.41 1.41 0 001.41 1.41z" fill="#231f20"/><circle cx="212.2" cy="226.36" r="1.15" fill="#231f20"/><path d="M220.5 227.28a.92.92 0 10-.92-.92.92.92 0 00.92.92z" fill="#231f20"/><circle cx="228.8" cy="226.36" r=".69" fill="#231f20"/><path d="M237.1 226.87a.51.51 0 00.51-.51.5.5 0 00-.51-.5.5.5 0 00-.5.5.5.5 0 00.5.51zM245.4 226.71a.35.35 0 00.35-.35.35.35 0 00-.35-.34.34.34 0 00-.34.34.35.35 0 00.34.35zM253.7 226.57a.21.21 0 00.21-.21.21.21 0 10-.41 0 .2.2 0 00.2.21zM262 226.5a.14.14 0 00.14-.14.14.14 0 00-.14-.14.15.15 0 00-.14.14.14.14 0 00.14.14zM270.3 226.43a.07.07 0 10-.07-.07.07.07 0 00.07.07zM278.6 226.39s-.01 0 0 0zM46.21 234.68zM54.51 234.68zM62.81 234.73a.07.07 0 10-.07-.07.07.07 0 00.07.07zM71.11 234.8a.14.14 0 00.14-.14.14.14 0 00-.28 0 .14.14 0 00.14.14zM79.41 234.89a.23.23 0 10-.23-.23.23.23 0 00.23.23zM87.71 235a.32.32 0 10-.32-.32.32.32 0 00.32.32zM96 235.15a.48.48 0 00.48-.49.48.48 0 10-1 0 .48.48 0 00.52.49zM104.31 235.31a.65.65 0 10-.65-.65.65.65 0 00.65.65zM112.61 235.47a.81.81 0 10-.81-.81.8.8 0 00.81.81zM120.91 235.65a1 1 0 10-1-1 1 1 0 001 1zM129.21 235.84a1.18 1.18 0 10-1.18-1.18 1.17 1.17 0 001.18 1.18zM137.51 236a1.34 1.34 0 10-1.34-1.34 1.34 1.34 0 001.34 1.34zM145.81 236.11a1.45 1.45 0 10-1.45-1.45 1.45 1.45 0 001.45 1.45zM154.11 236.18a1.52 1.52 0 10-1.52-1.52 1.52 1.52 0 001.52 1.52zM162.41 236.23a1.57 1.57 0 10-1.57-1.57 1.56 1.56 0 001.57 1.57zM170.71 236.2a1.54 1.54 0 10-1.55-1.54 1.54 1.54 0 001.55 1.54zM179 236.11a1.45 1.45 0 10-1.45-1.45 1.45 1.45 0 001.45 1.45zM187.31 236a1.34 1.34 0 10-1.34-1.34 1.34 1.34 0 001.34 1.34zM195.61 235.84a1.18 1.18 0 10-1.18-1.18 1.18 1.18 0 001.18 1.18zM203.91 235.67a1 1 0 10-1-1 1 1 0 001 1zM212.2 235.49a.83.83 0 10-.82-.83.83.83 0 00.82.83zM220.5 235.31a.65.65 0 10-.64-.65.65.65 0 00.64.65zM228.8 235.15a.49.49 0 00.49-.49.49.49 0 00-1 0 .49.49 0 00.51.49zM237.1 235a.35.35 0 00.35-.35.35.35 0 00-.35-.34.34.34 0 00-.34.34.35.35 0 00.34.35zM245.4 234.89a.23.23 0 000-.46.23.23 0 000 .46zM253.7 234.8a.14.14 0 00.14-.14.14.14 0 00-.14-.14.14.14 0 00-.13.14.13.13 0 00.13.14zM262 234.73a.07.07 0 10-.07-.07.07.07 0 00.07.07zM270.3 234.68zM278.6 234.68v-.04zM54.51 243zM62.81 243h-.05a.05.05 0 00.05 0zM71.11 243a.07.07 0 10-.11 0 .07.07 0 00.11 0zM79.41 243.1a.14.14 0 00.14-.14.14.14 0 10-.28 0 .14.14 0 00.14.14z" fill="#231f20"/><circle cx="87.71" cy="242.96" r=".21" fill="#231f20"/><path d="M96 243.26a.3.3 0 00.3-.3.31.31 0 00-.3-.3.3.3 0 00-.3.3.29.29 0 00.3.3z" fill="#231f20"/><circle cx="104.31" cy="242.96" r=".41" fill="#231f20"/><path d="M112.61 243.51a.55.55 0 00.55-.55.55.55 0 00-.55-.55.55.55 0 00-.55.55.54.54 0 00.55.55zM120.91 243.63a.67.67 0 10-.67-.67.67.67 0 00.67.67zM129.21 243.77a.81.81 0 10-.81-.81.8.8 0 00.81.81zM137.51 243.88a.92.92 0 10-.92-.92.92.92 0 00.92.92zM145.81 244a1 1 0 10-1-1 1 1 0 001 1zM154.11 244a1.06 1.06 0 10-1.06-1.06 1.06 1.06 0 001.06 1.06zM162.41 244a1.08 1.08 0 10-1.09-1.08 1.08 1.08 0 001.09 1.08z" fill="#231f20"/><circle cx="170.71" cy="242.96" r="1.06" fill="#231f20"/><path d="M179 244a1 1 0 10-1-1 1 1 0 001 1zM187.31 243.88a.92.92 0 10-.92-.92.92.92 0 00.92.92zM195.61 243.77a.81.81 0 10-.81-.81.8.8 0 00.81.81z" fill="#231f20"/><circle cx="203.91" cy="242.96" r=".69" fill="#231f20"/><path d="M212.2 243.51a.55.55 0 00.56-.55.56.56 0 00-1.11 0 .55.55 0 00.55.55zM220.5 243.4a.44.44 0 10-.43-.44.44.44 0 00.43.44z" fill="#231f20"/><circle cx="228.8" cy="242.96" r=".32" fill="#231f20"/><circle cx="237.1" cy="242.96" r=".21" fill="#231f20"/><path d="M245.4 243.1a.14.14 0 00.14-.14.14.14 0 00-.14-.14.14.14 0 00-.13.14.13.13 0 00.13.14zM253.7 243a.07.07 0 10-.07-.07.07.07 0 00.07.07zM262 243h0zM270.3 243z" fill="#231f20"/><circle cx="62.81" cy="251.26" r=".02" fill="#231f20"/><circle cx="71.11" cy="251.26" r=".05" fill="#231f20"/><path d="M79.41 251.33a.07.07 0 10-.07-.07.07.07 0 00.07.07zM87.71 251.38a.12.12 0 00.11-.12.11.11 0 00-.11-.11.12.12 0 00-.12.11.13.13 0 00.12.12zM96 251.45a.19.19 0 00.18-.19.18.18 0 00-.36 0 .19.19 0 00.18.19z" fill="#231f20"/><circle cx="104.31" cy="251.26" r=".25" fill="#231f20"/><path d="M112.61 251.61a.35.35 0 00.34-.35.34.34 0 00-.34-.34.35.35 0 00-.35.34.35.35 0 00.35.35zM120.91 251.7a.44.44 0 10-.44-.44.44.44 0 00.44.44z" fill="#231f20"/><circle cx="129.21" cy="251.26" r=".51" fill="#231f20"/><path d="M137.51 251.86a.6.6 0 10-.6-.6.6.6 0 00.6.6zM145.81 251.91a.65.65 0 10-.65-.65.65.65 0 00.65.65zM154.11 252a.69.69 0 10-.69-.69.69.69 0 00.69.69zM162.41 252a.71.71 0 000-1.42.71.71 0 100 1.42z" fill="#231f20"/><circle cx="170.71" cy="251.26" r=".69" fill="#231f20"/><path d="M179 251.91a.65.65 0 10-.65-.65.65.65 0 00.65.65zM187.31 251.86a.6.6 0 000-1.2.6.6 0 000 1.2z" fill="#231f20"/><circle cx="195.61" cy="251.26" r=".53" fill="#231f20"/><circle cx="203.91" cy="251.26" r=".44" fill="#231f20"/><path d="M212.2 251.61a.35.35 0 00.35-.35.35.35 0 00-.69 0 .35.35 0 00.34.35zM220.5 251.51a.25.25 0 100-.5.25.25 0 000 .5zM228.8 251.45a.19.19 0 00.19-.19.18.18 0 00-.19-.18.18.18 0 00-.18.18.19.19 0 00.18.19z" fill="#231f20"/><circle cx="237.1" cy="251.26" r=".14" fill="#231f20"/><path d="M245.4 251.33a.07.07 0 000-.14.07.07 0 100 .14zM253.7 251.31l.05-.05h-.05v.05zM262 251.28zM71.11 259.58zM79.41 259.58zM87.71 259.63a.07.07 0 10-.07-.07.07.07 0 00.07.07z" fill="#231f20"/><circle cx="96.01" cy="259.56" r=".09" fill="#231f20"/><path d="M104.31 259.7a.14.14 0 10-.14-.14.14.14 0 00.14.14zM112.61 259.77a.21.21 0 00.21-.21.22.22 0 00-.21-.21.21.21 0 00-.21.21.21.21 0 00.21.21zM120.91 259.81a.25.25 0 10-.25-.25.25.25 0 00.25.25zM129.21 259.86a.3.3 0 00.3-.3.31.31 0 00-.3-.3.3.3 0 00-.3.3.29.29 0 00.3.3z" fill="#231f20"/><circle cx="137.51" cy="259.56" r=".37" fill="#231f20"/><path d="M145.81 260a.39.39 0 000-.78.39.39 0 000 .78zM154.11 260a.41.41 0 00.41-.42.41.41 0 00-.41-.41.41.41 0 00-.42.41.42.42 0 00.42.42zM162.41 260a.44.44 0 000-.88.44.44 0 100 .88z" fill="#231f20"/><circle cx="170.71" cy="259.56" r=".41" fill="#231f20"/><path d="M179 260a.39.39 0 10-.4-.39.39.39 0 00.4.39z" fill="#231f20"/><circle cx="187.31" cy="259.56" r=".37" fill="#231f20"/><circle cx="195.61" cy="259.56" r=".32" fill="#231f20"/><circle cx="203.91" cy="259.56" r=".25" fill="#231f20"/><circle cx="212.2" cy="259.56" r=".21" fill="#231f20"/><path d="M220.5 259.7a.14.14 0 000-.28.14.14 0 000 .28z" fill="#231f20"/><circle cx="228.8" cy="259.56" r=".09" fill="#231f20"/><path d="M237.1 259.63a.07.07 0 000-.14.07.07 0 000 .14zM245.4 259.58zM253.7 259.58zM79.41 267.88zM87.71 267.88zM96 267.91a.05.05 0 000-.05.06.06 0 000-.05.05.05 0 00-.05.05l.05.05zM104.31 267.93a.07.07 0 10-.07-.07.07.07 0 00.07.07zM112.61 268a.09.09 0 10-.09-.09.09.09 0 00.09.09zM120.91 268a.14.14 0 000-.28.14.14 0 100 .28zM129.21 268a.16.16 0 10-.16-.16.16.16 0 00.16.16zM137.51 268.07a.21.21 0 10-.21-.21.21.21 0 00.21.21zM145.81 268.09a.23.23 0 000-.46.23.23 0 000 .46zM154.11 268.11a.25.25 0 000-.5.25.25 0 100 .5zM162.41 268.11a.25.25 0 000-.5.25.25 0 100 .5zM170.71 268.11a.25.25 0 100-.5.25.25 0 100 .5zM179 268.09a.23.23 0 100-.46.23.23 0 000 .46zM187.31 268.07a.21.21 0 10-.21-.21.21.21 0 00.21.21zM195.61 268a.16.16 0 000-.32.16.16 0 100 .32zM203.91 268a.14.14 0 000-.28.14.14 0 100 .28zM212.2 268a.12.12 0 00.12-.12.11.11 0 00-.12-.11.11.11 0 00-.11.11.12.12 0 00.11.12zM220.5 267.93a.07.07 0 000-.14.07.07 0 000 .14zM228.8 267.91v-.05a.05.05 0 000-.05v.1zM237.1 267.88zM245.4 267.88zM96 276.18zM104.31 276.18zM112.61 276.21a.05.05 0 000-.1v.1zM120.91 276.23a.07.07 0 10-.07-.07.07.07 0 00.07.07zM129.21 276.23a.07.07 0 10-.07-.07.07.07 0 00.07.07zM137.51 276.25a.09.09 0 10-.09-.09.09.09 0 00.09.09zM145.81 276.28a.12.12 0 00.11-.12.11.11 0 00-.11-.11.11.11 0 00-.12.11.12.12 0 00.12.12zM154.11 276.28a.12.12 0 00.11-.12.11.11 0 00-.11-.11.11.11 0 00-.12.11.12.12 0 00.12.12zM162.41 276.3a.14.14 0 000-.28.14.14 0 000 .28z" fill="#231f20"/><circle cx="170.71" cy="276.16" r=".12" fill="#231f20"/><path d="M179 276.28a.12.12 0 00.11-.12.11.11 0 00-.11-.11.11.11 0 00-.12.11.12.12 0 00.12.12zM187.31 276.25a.09.09 0 100-.18.09.09 0 100 .18zM195.61 276.23a.07.07 0 000-.14.07.07 0 000 .14zM203.91 276.23a.07.07 0 000-.14.07.07 0 100 .14z" fill="#231f20"/><circle cx="212.2" cy="276.16" r=".05" fill="#231f20"/><path d="M220.5 276.18zM228.8 276.18zM112.61 284.48zM120.91 284.48zM129.21 284.48s-.01 0 0 0z" fill="#231f20"/><circle cx="137.51" cy="284.46" r=".05" fill="#231f20"/><circle cx="145.81" cy="284.46" r=".05" fill="#231f20"/><path d="M154.11 284.51a.05.05 0 000-.1v.1zM162.41 284.51a.05.05 0 000-.1.05.05 0 000 .1z" fill="#231f20"/><circle cx="170.71" cy="284.46" r=".05" fill="#231f20"/><path d="M179 284.51a.05.05 0 000-.1.05.05 0 000 .1zM187.31 284.51a.05.05 0 000-.1v.1zM195.61 284.48s-.02 0 0 0zM203.91 284.48s-.02 0 0 0zM212.2 284.48zM137.51 292.78zM145.81 292.78s-.02 0 0 0zM154.11 292.78s-.02 0 0 0zM162.41 292.78s-.02 0 0 0zM170.71 292.78s-.02 0 0 0zM179 292.78zM187.31 292.78s-.02 0 0 0z" fill="#231f20"/><path d="M251.84 85.1a.82.82 0 01-.44-1.52L297 55.05a.83.83 0 01.88 1.4L252.28 85a.88.88 0 01-.44.1zM292.07 206.52a.85.85 0 01-.35-.08l-24.25-11.32a.82.82 0 11.7-1.49l24.25 11.31a.83.83 0 01-.35 1.58zM2 233.75a.8.8 0 01-.73-.45.82.82 0 01.36-1.11l31-15.8a.83.83 0 011.11.37.81.81 0 01-.36 1.1l-31 15.8a.85.85 0 01-.38.09zM60 110.63a.44.44 0 01-.16 0L9.36 101a.83.83 0 01-.65-1 .82.82 0 011-.65L60.15 109a.83.83 0 01-.15 1.64zM65.91 70.55a.88.88 0 01-.44-.12L24.85 45a.83.83 0 01.88-1.4L66.35 69a.82.82 0 01-.44 1.52zM313 145.9h0l-19.74-1.12a.83.83 0 01-.78-.88.8.8 0 01.87-.77l19.75 1.13a.83.83 0 01-.05 1.65zM75.33 251.44a.75.75 0 01-.26 0 .83.83 0 01-.52-1.05l6.26-18.75a.83.83 0 111.57.52l-6.27 18.76a.82.82 0 01-.78.52zM201.3 48a.85.85 0 01-.48-.15.83.83 0 01-.2-1.15l26.51-37.8a.83.83 0 011.15-.2.82.82 0 01.21 1.15L202 47.64a.81.81 0 01-.7.36zM149.69 271.84a.82.82 0 01-.82-.74l-4.4-42.6a.82.82 0 111.64-.17l4.4 42.6a.84.84 0 01-.74.91zM121.87 20.35a.81.81 0 01-.77-.53l-6.77-17.48a.83.83 0 111.54-.6l6.77 17.49a.84.84 0 01-.48 1.07 1 1 0 01-.29.05zM29.37 154.55a.83.83 0 01-.06-1.65L44 151.77a.83.83 0 11.13 1.65l-14.67 1.13zM218.85 248.59a.84.84 0 01-.74-.46l-11.91-24a.83.83 0 111.48-.73l11.91 24a.82.82 0 01-.37 1.1.81.81 0 01-.37.09z" fill="#231f20" stroke="#010101" stroke-miterlimit="10"/><path d="M241.85 95.83c-38.06-3.58-15.22-48.11-51.39-72.73-26.2-17.83-66.76 4.72-79.26 43.68-9.72 30.29-17.92 46.33-34.95 57.42-22.13 14.42-36.25 28.68-39.94 48.05-3.44 17.94 6.9 46 33.35 48.27 55.7 4.81 71.83-37.73 138-30.15C257 196 283 179.94 290.93 159.49c10.18-26.36-9.8-59.96-49.08-63.66z" fill="#231f20"/><path d="M74.08 227.77c-3 0-6.11-.13-9.34-.41a37.7 37.7 0 01-27.47-15.25c-7.9-10.44-11.48-25.16-9.11-37.51 3.65-19 16.42-34.47 42.71-51.59 18.11-11.8 26.33-29.26 36-59.38 7.69-24 25.68-43.4 46.94-50.71 14.2-4.89 28-3.49 38.93 3.93C211.3 29.49 215.45 46.74 219.11 62c3.91 16.27 7 29.13 26.79 31 20.93 2 38.56 12.19 48.37 28.05 8 13 9.71 28 4.62 41.15-10.14 26.25-43.53 38.79-89.32 33.54-36.14-4.15-57.9 6.17-78.94 16.16-17.2 8.1-33.55 15.87-56.55 15.87zm96.07-214.25a46.68 46.68 0 00-15.22 2.68c-20.25 7-37.4 25.55-44.76 48.49-9.92 30.9-18.42 48.85-37.41 61.23-25.42 16.55-37.76 31.31-41.19 49.34-2.16 11.25 1.24 25.22 8.43 34.74a34.3 34.3 0 0025 13.9c27.16 2.34 45.11-6.17 64.1-15.18 21.48-10.2 43.7-20.74 80.82-16.48 44.12 5.06 76.16-6.65 85.7-31.34 4.7-12.16 3.12-26-4.33-38.07-9.24-14.93-25.92-24.56-45.76-26.43-22.21-2.09-25.89-17.4-29.79-33.63-3.52-14.61-7.5-31.17-25-43.05a36.23 36.23 0 00-20.59-6.2z" fill="#231f20"/></svg>