<svg xmlns="http://www.w3.org/2000/svg" viewBox="0 0 186.44 168.1"><g data-name="Layer 1"><circle cx="95.27" cy="90.5" r="70.88" transform="rotate(-1.94 95.357 90.529)" fill="none" stroke="#231f20" stroke-miterlimit="10" stroke-width="7.281"/><path d="M7.65 95.41a87.76 87.76 0 11150.7 56.11" fill="none" stroke="#231f20" stroke-miterlimit="10"/><path d="M99.74 37.3A53.39 53.39 0 10148.47 95a53.39 53.39 0 00-48.73-57.7zm6.33 91.77a40.05 40.05 0 1127.77-49.37 40.05 40.05 0 01-27.77 49.37z" fill="#010101"/><path d="M73.32 69.27a30.54 30.54 0 1043.18-.72 30.54 30.54 0 00-43.18.72zm44 25a22.34 22.34 0 11-18.23-25.8 22.35 22.35 0 0118.2 25.82z" fill="#010101"/><path d="M14.74 102.22a6.52 6.52 0 11-6.51-6.52 6.5 6.5 0 016.51 6.52zM107.75 90.48A11.75 11.75 0 1196 78.74a11.75 11.75 0 0111.75 11.74zM160.69 155a6.52 6.52 0 11-6.52-6.51 6.52 6.52 0 016.52 6.51z" style="mix-blend-mode:multiply" fill="#231f20"/></g></svg>