<svg data-name="Layer 1" xmlns="http://www.w3.org/2000/svg" viewBox="0 0 254.47 170.17"><path fill="#231f20" d="M217.53 46.57l24.87-38H133.39l54.51 83.27 8.62-13.17-21.01-32.1h42.02zM196.52 78.67l11.65 17.8 32.67-49.9h-23.31l-21.01 32.1zM231.36 92.83l-23.11 35.31h46.22l-23.11-35.31zM201.96 133.72l-14.16 21.63h28.31l-14.15-21.63zM28.46 18.17L1.98 58.63h52.97L28.46 18.17zM79.75 1.47l-6.8 10.4h13.61l-6.81-10.4zM183.8 131.36l9.08-13.87h-18.16l9.08 13.87zM120.208.513l.767-.508 73.109 110.288-.767.509zM58.84 71.88L4.25 155.27h109.18zm6.75 23.4l.77-.51 28.26 43.32-.77.5zM185.686 143.279l31.367-48.822.775.497-31.368 48.822zM99.94 18.17h-7.98L64.2 60.98l3.86 5.89 31.88-48.7zM36.18 18.17l27.47 41.97 27.21-41.97H36.18z"/><path fill="#231f20" d="M99.73 6.19l-.77-.5-8.1 12.48h1.1l7.77-11.98zM58.71 67.74l.78.5 4.71-7.26-.55-.84-4.94 7.6zM131 170.17L69.83 74.65l47.85-69.28 62.38 96.64L131 170.17z"/></svg>