<svg data-name="Layer 1" xmlns="http://www.w3.org/2000/svg" viewBox="0 0 194.79 173.8"><path d="M106.42 21.05a8.69 8.69 0 001.22 7.63c5.9 8.45 24-4.64 29.19-8.8a21 21 0 005.64-6.14c5.74-10.56-8.47-13-15.67-10.88-6.05 1.78-18.09 9.93-20.38 18.19zM83.21 39.52c14.06 2.72 17-18.45 4.07-22-13.68-3.65-18.13 19.28-4.07 22z" fill="#231f20"/><path d="M188.84 33.45c-4.05-8.37-11.73-15.39-20.93-16.71-11.12-1.61-21.68 5.08-30.22 12.38S121 44.92 110.23 48.17C91 54 71.1 41.27 51 41.14a48.18 48.18 0 00-35.11 15.17c-33.28 35.79-.08 93.24 38.05 109 30.79 12.73 67.68 5.54 94.62-14.06 25.7-18.7 41.53-51.51 44.47-83.17q.34-3.74.45-7.43c.27-9.28-.6-18.84-4.64-27.2z" fill="#231f20"/></svg>