<svg data-name="Layer 1" xmlns="http://www.w3.org/2000/svg" viewBox="0 0 422.31 288.91"><path d="M336.21 234.15c-2.19-1-4.37-2-6.57-2.93-9-3.94-17.41-8.37-26.69-11.7-6-2.16-11.33-5-18.23-3.81-12.35 2-19.53 11.46-25.67 21.67H152.2a63.3 63.3 0 00-7.83-4c-10.91-4.61-22.26-5.13-33.93-5.32a133.52 133.52 0 00-29.3 2.75 27.85 27.85 0 01-10-21.34V78.73a27.94 27.94 0 0127.9-27.91h108.19c0 .39 0 .77.06 1.16a30.72 30.72 0 003.52 12.68 27.45 27.45 0 009.77 10.42c34.92 19.57 72.2-5.69 107.61-11.43q5.37-.63 10.76-.87c2.35-.11 4.69-.16 7-.15a27.75 27.75 0 015.13 16.1v130.74a27.91 27.91 0 01-14.87 24.68zm72-147.92c-15.72-16.44-36.55-22.68-57.88-23.5a31.28 31.28 0 014.38 16v130.74a31.52 31.52 0 01-14.38 26.43 44.5 44.5 0 0016 3.69c9.73.15 19.27-3.7 23.28-13.3 3.58-8.56.46-17.5-4-25.34s-11.07-14.23-15.93-22c-2.35-3.75-4.93-7.85-4.49-12.73.84-9.39 9.09-15.14 16.61-19.24 9.15-5 18.82-7.83 26.87-13.95a51.55 51.55 0 0010.57-10.32 26.77 26.77 0 005.25-13.47 31.7 31.7 0 00-6.26-23.01zM67.58 209.47V78.73a31.55 31.55 0 0131.51-31.51h108c-.05-2.6-.06-5.18-.23-7.75-.21-3.67.22-7.49 0-11.16s-1.15-7.16-4-10.17c-7.64-8-18.61-5.94-28.19-.94s-16.45 13.53-27.33 18C110.78 50 78.54 23.23 45.69 37.18c-5.5 2.33-9.47 6.06-10.33 11.93C33.81 59.63 43 66.44 50.48 72.56S66 87 61.79 97c-2 4.8-6.79 6.36-11 8.46-11 5.43-22.49 10.07-33.54 15.44-2.77 1.35-5.77 2.35-7.58 5.13-4.11 6.33-1.57 13.6 3.63 18.58s12.3 6.78 18.36 10.24 12.54 7.44 13.29 15c1.2 12.09-9.83 19.11-14.66 29.33a26.21 26.21 0 001 25A26.51 26.51 0 0052.84 237c8.25.52 15.51-3.17 23.3-5.08l.71-.16a31.39 31.39 0 01-9.27-22.29zM157.74 241c9.56 6.76 17.91 15.18 27.76 22.06 14.15 9.87 31 16.9 47.57 8.81 12.68-6.2 17.2-19.36 23.85-30.87z" fill="#231f20"/><path d="M231.81 70.08a23.62 23.62 0 007.48 1.86c12.57 1.47 25.17-.29 37.55-3.3 3.09-.75 6.17-1.58 9.23-2.46 2.19-.7 4.68-1.42 7.28-2.21 6.84-2 12.88-4 18.92-8a12.43 12.43 0 004.14-5.12h-98.09a32.28 32.28 0 003.22 8.43 28.19 28.19 0 003 4.35 20.3 20.3 0 007.27 6.45zM217.68 47.22h99.75c.59-4.48-1.12-9.1-5.16-11.41-10.07-4-21.14 8-29.19 3l-1.18-.78q-1.87-1.29-3.67-2.7c-1.23-1-2.44-2-3.63-3l-3.6-3c-1.21-1-2.42-2-3.64-3s-2.45-2-3.71-2.91-2.5-1.8-3.81-2.62a40.06 40.06 0 00-3.94-2.21c-19.31-10-43.36 4.41-38.38 27.29.04.44.1.89.16 1.34zM85.53 234c10.77-2.1 21.77-3.54 32.71-2.66a79.36 79.36 0 0159.33 35.37c2.25 3.47 4.26 7.91 2.33 11.57-1.76 3.35-6 4.4-9.69 5-9.21 1.6-19.4 2.61-27.26-2.44-6.08-3.91-9.55-10.69-13.49-16.75s-9.4-12.08-16.59-12.78c-5.81-.56-11.26 2.48-16.46 5.13C89.51 260 82.09 263 74.35 263s-15.88-3.74-19.28-10.7-1-10.32 5.37-12.11c8.3-2.37 16.61-4.53 25.09-6.19zM126.44 30.91a44.79 44.79 0 0032.08-16.09c1.76-2.14 3.33-5.29 1.66-7.5-1.27-1.69-3.89-1.78-5.78-.83s-3.26 2.66-4.67 4.24c-3.49 3.9-8.61 7.47-13.61 5.92a17.55 17.55 0 01-5-2.89c-6.94-5-14.95-8.91-23.49-9.44s-21.48 3.56-24.1 13c-2.53 9.25 16.76 10.1 22.14 11.19 6.83 1.38 13.76 2.73 20.77 2.4zM309.81 19.69c-2.27.88-4 3.59-3 5.79.75 1.58 2.62 2.32 4.37 2.5s3.53 0 5.25.3c2.92.58 5.32 2.72 7 5.18a68.92 68.92 0 014.14 7.9 10.9 10.9 0 001.63 2.54 8.24 8.24 0 005.57 2.4 20 20 0 006.13-.78c3.39-.83 7-2.12 8.8-5.13a7.45 7.45 0 00-2.7-9.91c-1.19-.67-2.59-1-3.62-1.91A5.82 5.82 0 01342 23a27.25 27.25 0 012.32-5.56 10 10 0 001.22-5.82c-.54-3.35-4.08-5.62-7.46-5.53s-6.45 2.23-8.5 4.92c-1.88 2.47-3.16 5.54-5.76 7.23-4.7 3.05-9.28-.39-14.01 1.45zM259.63 248.75c3.29-5.88 6.23-12 10.47-17.27s10.08-9.58 16.78-10.35c5.69-.64 11.31 1.32 16.7 3.25 8.11 2.92 16.29 5.86 23.64 10.35s13.94 10.68 17.41 18.57a4.09 4.09 0 01.49 2.28A3.74 3.74 0 01343 258c-6.87 3.91-15.36.34-22.73-2.52-6.3-2.46-13-4.4-19.73-4s-13.63 3.48-17.22 9.21c-1.14 1.82-1.92 3.85-2.94 5.74-3.19 5.92-8.67 10.23-14.8 12.83-5 2.12-15.22 5.33-20.32 2.2-8.55-5.28 11.23-27.09 14.37-32.71z" fill="#231f20"/></svg>