<svg data-name="Layer 1" xmlns="http://www.w3.org/2000/svg" viewBox="0 0 277.56 277.56"><path d="M0 0v277.56h277.56V0zm237 237H40.59V40.59H237z" fill="#231f20"/><path d="M177.85 159.31A43.21 43.21 0 00167.39 179a38.89 38.89 0 00-.94 11.43c0 .58.09 1.21.15 1.86h25.69v-42.7a38.73 38.73 0 00-5.72 2.7 39.13 39.13 0 00-8.72 7.02zM107 122.6a72.57 72.57 0 015.33 14.82c7.26-.2 14.73-2.55 19.76-7.93a34.38 34.38 0 01-4.4-3.76 45.81 45.81 0 01-11.42-21.26 54 54 0 01-1.38-19.19H85.28v15.52a28.57 28.57 0 017 3.77A49.3 49.3 0 01107 122.6z" fill="#231f20"/><path d="M133.42 127.84c5-6.52 6.33-15.12 7.36-23.07.82-6.35 1.31-13.32-.62-19.49H118c-2.11 15.16 2.6 33.43 15.42 42.56zM171.25 120.91c1.14-.75 2.28-1.52 3.45-2.23 5.37-3.26 11.27-5.84 17.59-5.86V85.28h-15.35c-2.58 6.24-3.57 13.38-4.33 19.81-.61 5.26-.97 10.54-1.36 15.82z" fill="#231f20"/><path d="M143.49 107.49a76.26 76.26 0 01-2.5 12.36 30.88 30.88 0 01-4.92 9.67c6.33 3.46 13.43 3.34 20.06.49a73.46 73.46 0 0012-7c.49-6.26.86-12.54 1.58-18.78s1.66-12.89 3.89-19h-30.72a31.09 31.09 0 011.49 7.55 72 72 0 01-.88 14.71zM86.8 157.26c6.08 6.78 14.34 10.19 23.19 11.68 1.3.21 2.63.35 4 .51-.51-4.92-.9-9.84-1.46-14.62a150 150 0 00-2.4-14.89 46.85 46.85 0 01-24.8-9.52v25c.44.63.94 1.25 1.47 1.84z" fill="#231f20"/><path d="M136.11 170.28c4.77-.15 9.68-.74 14-2.94a24.21 24.21 0 009-8.46c4.88-7.46 6.74-16.57 7.9-25.27.29-2.24.52-4.47.73-6.71l-1.82 1.18c-5.75 3.63-12.15 6.83-19.12 6.68a25.49 25.49 0 01-12.14-3.58 24.5 24.5 0 01-8.17 5.94 34 34 0 01-13.6 2.9c2.15 9.74 2.92 19.83 4 29.8a156.22 156.22 0 0019.22.46z" fill="#231f20"/><path d="M181 152.3a41.49 41.49 0 019.77-5.26l1.52-.56v-31a24.36 24.36 0 00-7.67 1.55c-4.92 1.85-9.31 4.8-13.67 7.75-.25 3.12-.53 6.23-.93 9.33-1.09 8.56-2.86 17.44-7.24 25a26 26 0 01-19.07 13.15 79.78 79.78 0 01-13.38.56c-4.16-.07-8.32-.17-12.47-.51l-.69-.07c.2 1.7.4 3.4.63 5.09a91.26 91.26 0 003.25 15h42.73c-.11-.84-.19-1.67-.25-2.48A43.76 43.76 0 01181 152.3zM94.19 165.93a36.91 36.91 0 01-8.91-7.16v33.52h33a99.4 99.4 0 01-4.07-20.4c-6.98-.84-13.86-2.49-20.02-5.96zM109.49 137.4c-2.85-11.56-7.79-22.58-17.22-30.18a26.68 26.68 0 00-7-4v24.51a41.58 41.58 0 0024.22 9.67z" fill="#231f20"/><path d="M123.84 204a28.81 28.81 0 0015.25 12.1c2 .64 2.07-1.65.4-2.18-10-3.13-15.36-12-18.44-21.66h-2.78a50.27 50.27 0 005.57 11.74zM73.9 132.62a75.3 75.3 0 01-2.67-14c-.16-1.64-.37-3.49-.41-5.34a50.79 50.79 0 0013.61 16.52c.27.22.57.41.85.62v-2.71A46.4 46.4 0 0174 114.18a44.62 44.62 0 01-2.66-5.8 9.27 9.27 0 011.36-3c3-4.2 8-3.94 12.61-2.2v-2.4c-3.8-1.38-7.91-1.81-11.57-.18a8.59 8.59 0 00-3.85 3.29 40.61 40.61 0 01-1.34-10.7c0-1.36-2.9-2.69-2.92-1.22a44.8 44.8 0 002.74 15.65c-1 4.49-.18 10 .39 13.94a77.24 77.24 0 008.73 26.17 55.68 55.68 0 007.82 11v-3.34c-5.31-6.56-9.06-14.71-11.41-22.77zM118.53 82.31c.75-3.65 2.41-8.17 6.44-9.22 4.26-1.1 8.76 1.81 11.37 5a20.72 20.72 0 013.82 7.24h2.72A22.38 22.38 0 00133.81 73c-3.2-2-7.55-3.42-11.27-2.09-3.3 1.19-5.15 4.32-6.2 7.49a35.58 35.58 0 00-1.5 6.9H118q.23-1.54.53-2.99zM216.44 125.74a55.7 55.7 0 002.35-18.15 49.18 49.18 0 00-5.55-21.25c-3.46-6.45-8.93-13.09-15.87-15.92-7.74-3.17-15.79.88-20.19 7.49a34.13 34.13 0 00-3.63 7.37h3.39a29.39 29.39 0 013.91-7c2.63-3.39 6.58-6.14 11-6.51 4.67-.39 8.61 2.39 11.83 5.48 11.24 10.78 14.21 27.92 11.11 42.71-.21 1-.44 2-.7 3-5.22-5.29-12.05-9.37-19.55-10.07-.74-.07-1.48-.08-2.21-.08v2.63a24.16 24.16 0 0114.4 4.17 35.58 35.58 0 016.65 5.75c-1.93 6.18-5.08 12.23-10.25 16-3.24 2.4-7.06 3.68-10.8 5.06v3.11c2.08-.83 4.21-1.57 6.3-2.41a27.19 27.19 0 0010.06-6.55A33.89 33.89 0 00215 130c.24-.61.4-1.24.62-1.85 7.67 10.15 10.58 24.08 8.71 36.42a46.31 46.31 0 01-29.65 36.29 44.07 44.07 0 01-11.94 2.67c-3.79.28-8.61.52-12-1.59-3-1.9-3.85-6.06-4.2-9.62h-2.82a18.5 18.5 0 002.85 8.58c2.18 3 5.76 4.49 9.36 5a44 44 0 0022.69-3.48 47.77 47.77 0 0028.26-34.74c2.83-14.59-.88-30.51-10.44-41.94z" fill="#231f20"/></svg>