<svg data-name="Layer 1" xmlns="http://www.w3.org/2000/svg" viewBox="0 0 129.06 117.27"><path d="M94.37 88.53c19-3.33 29.33-16.53 30.68-30.08a29.29 29.29 0 00-14.59-28.57C106 27.26 101 26 95.63 25c-17.37-3.54-16.41-2.58-29-14.31C47.32-7.42 12.29 6.24 5.19 31.55 1 46.65 4.82 65.47 27.89 80.16c14.43 9.19 9 30.9 28.92 32.68 5.5.49 11.29-1.11 15.16-5 6.32-6.34 8.11-16.82 22.4-19.32z" fill="#231f20" fill-rule="evenodd"/><path d="M115.27 21.53c-.06 1.69-2.87 2-7.08.5-10.89-4-12-3-21.77-3.49a9.55 9.55 0 01-9-7.36 11 11 0 01-.26-4.5c2.11-11.87 38.35 9.3 38.15 14.85zM26.62 105.19c-2.44 2-2.39-2.93-4.3-8-1.7-4.55-8.3-9.71-11.44-13.23-11.77-13.2 34.73 5.28 15.74 21.28zM88.22 95.33c2.21.21 2.2 6 1.91 9.1s-2.32 5.45-4.53 5.23-3.78-2.91-3.49-6 3.9-8.54 6.11-8.32zM103.66 95.74c.56 2.22-2.35 3-5.29 3.77s-5.83.88-6.39-1.33 1.38-4.64 4.33-5.41 6.8.76 7.35 3z" fill="#231f20" fill-rule="evenodd"/></svg>