<svg data-name="Layer 1" xmlns="http://www.w3.org/2000/svg" viewBox="0 0 149.5 159.16"><path d="M135.49 52a8.38 8.38 0 00-13.59 2.53c1.17-5 2.37-10 3.54-15 1.88-8.1-6.93-12-12.22-8.23a8.43 8.43 0 00-8.76 1.86 9.73 9.73 0 00-3.64-1.74 179.85 179.85 0 003.06-19.66c.72-7.69-11.4-10.9-14.7-4l-2.85 6A8.1 8.1 0 0079 19.15c-2 5.23-3.91 10.48-5.78 15.74.58-2.82 1.16-5.63 1.72-8.46.86-4.3-1-7.35-3.81-8.76.32-1.26.66-2.52 1-3.79a7.28 7.28 0 00-.4-4.8C70.05 3 61.13 0 57.4 6.84c-.85 1.57-1.71 3.13-2.57 4.7.3-7-11.64-11.29-14.9-3.87l-1.66 3.79a6.68 6.68 0 00-6.39 4 241.15 241.15 0 00-21.29 59.2 7.7 7.7 0 001.22 6c-3.1 8.7-6.08 17.5-8.88 26.34-2.69 8.5 10.12 13.92 14.41 6.07l7.27-13.3a25.11 25.11 0 00.28 3.64 6.28 6.28 0 003.65 4.76q-3.78 12.09-7.28 24.27c-2.09 7.33 5.77 11.45 11.12 9 .58 7.63 12.43 9.67 15.51 1.25.62-1.7 1.26-3.39 1.9-5.08a9.48 9.48 0 006.08 1.57c0 .19-.11.38-.16.57-1.61 5.75 2.57 9.37 7 9.6 1.77 6.87 12.23 8.48 15.13.27q3.94-11.19 8-22.35a8.61 8.61 0 002.26 1c-1.54 6.34-3 12.69-4.6 19-2.48 10.14 11.43 13.33 15.21 4.2l5.25-12.7c1.2 7.67 13 10.21 15.25 1.28 1.91-7.41 3.83-14.83 5.82-22.22a9.56 9.56 0 002.65 3.32c4.53 3.67 11.39 2.64 13.18-3.48A147.42 147.42 0 00146 59.79c-.5-4.79-5.94-9.43-10.51-7.79z" fill="#010101"/></svg>