<svg data-name="Layer 1" xmlns="http://www.w3.org/2000/svg" viewBox="0 0 167.24 165.49"><path d="M42.24 53.7C57.72 45 56 34.6 61.48 34.87c8.41.4 6 11.22 11.41 11.82S84.31 22.85 94 27.19c11 4.94 0 12.89 8.76 16.89 13.23 6 27.48-21.42 36.87-7.61 6.81 10-23.64 22.44-19.64 33.25 5.87 15.85 41.87-7.41 43.07 10s-30.72 7.63-34.65 16.43c-6.81 15.22 22.43 15.22 18 26.51-5.66 14.49-17.66-6-29.68-.74-3.39 1.47-8.89 8.05.73 16.39 7 6.09-2.64 14.68-10.32 11.61-20-8-32.08 2.6-54.49-6.09C13.4 128.62 3.78 75.33 42.24 53.7zM141.08 23.45c-9.58-2.27-2.72-25 8.86-15.7 7.72 6.25.73 17.97-8.86 15.7zM106 14.42C96 16.42 95.58 3 106 3.2c7.26.11 10 9.21 0 11.22zM138.37 150.58c7.27.11 10 9.22 0 11.22s-10.37-11.38 0-11.22zM34 143c5.55.09 7.65 7 0 8.57s-8-8.66 0-8.57z" fill="#010101"/><path d="M7.24 82.75c3.15 0 1.52 5.54 2.95 21.43 2 22.24 17.29 31.65 10 34.46C2.45 145.52-.38 82.75 7.24 82.75z" fill="#010101"/></svg>