<svg data-name="Layer 1" xmlns="http://www.w3.org/2000/svg" viewBox="0 0 252.16 226.86"><path d="M111.74 48.74l-1.22.23c.53-2.15-1.57-4.78-4-4.24l-2 .46c.81-2.16-.64-5-3.61-4.45q-2.22.43-4.44.9c0-2.35-1.77-4.58-4.79-3.86-2.22.53-4.42 1.09-6.62 1.66 1.42-1.94 0-5.12-2.7-4.5-1.94.44-3.88.9-5.82 1.36a1.64 1.64 0 00-1.76-1.48 28.73 28.73 0 00-4.92.47 2 2 0 00-2.14-2.78 104.61 104.61 0 00-15.22 4.34c-1 .3-2.49.6-3.94 1a2.18 2.18 0 00-1.78-1.21c-2-.16-3.52.51-5.34 1.22A44.67 44.67 0 0036.29 40a2.15 2.15 0 00-.29 3.62c-3.84 1.17-7.75 3.69-10.79 5.38-1.38.76-.43 3.24 1.1 2.62 1.72-.7 3.45-1.28 5.21-1.82a2.65 2.65 0 00.64 2.2A15.22 15.22 0 0025 58.17a1.94 1.94 0 00.67 2.61 5.7 5.7 0 00-2.13 2.88c-3.15 1.46-6.27 3-9.41 4.47a2.21 2.21 0 00-.71 3.56 28.7 28.7 0 00-2.71 2.18 1.79 1.79 0 00-.54 1.57 61.89 61.89 0 00-6.77 4.2c-.82.61-.38 2.11.75 1.77 5.88-1.8 11.53-4.66 17.21-7.13a2.75 2.75 0 002.27.07c6.91-2.87 15-4.08 22.22-5.84q11.2-2.72 22.46-5.2 22.22-4.87 44.61-8.78c3.76-.66 2.57-6.53-1.18-5.79zM30.36 60.13l-1 .67-.14.08a4 4 0 00-.59-.34zM51.62 33.25c3.68-1 7.63-1.64 11.07-3.3a1.25 1.25 0 00-.63-2.32c-3.81.3-7.56 1.71-11.23 2.73a1.5 1.5 0 00.79 2.89zM156 12.91c2-.05 3.94-1.52 5.68-2.42.94-.48 1.95-.93 2.92-1.43h.05a43.92 43.92 0 006.2-2.3c1.75-.84.94-3.88-1-3.72-4.2.35-9.44 2-12.74 4.71a1.55 1.55 0 00-.21 2.23 6 6 0 00-1.62 1.68.84.84 0 00.72 1.25zM224.56 13.65c-8.29-1.26-17.49 1.92-25.56 3.66l-2.69.56a3.75 3.75 0 00-2 .26l-.56.25-1.23.25a1.48 1.48 0 00-1.12-.91l-.72-.12a2.19 2.19 0 00-.64-4.26 17.68 17.68 0 00-3.53.18 2.19 2.19 0 00-1.51-.32c-2.15.3-4.29.65-6.42 1a2.93 2.93 0 00-2.78-4.44c-1.63.17-3.28.4-4.92.66a1.8 1.8 0 00-2.18-2.25 70.67 70.67 0 00-8.7 3.72c-3.06 1.39-6.47 2.55-9.23 4.46a1.59 1.59 0 00-.51.6q-.84.3-1.68.54a1.47 1.47 0 00.59 2.87l.3-.06a.85.85 0 00.6 1c-2.11.64-4.21 1.31-6.31 2a1.47 1.47 0 00-.72.52 20.08 20.08 0 00-4.37 1.72 1.6 1.6 0 00-.4 2.43c-1.07.48-2.13 1-3.19 1.47-2.32 1.11-.94 4.23 1.24 4.08a2 2 0 00.54.51c-1.07.32-2.15.66-3.21 1a1.21 1.21 0 00-.52.37 16.66 16.66 0 00-1.72.77l-2.2.71c-2.68.88-2 5.06.62 4.6l-3.49 1.2a1.79 1.79 0 00-1.19 1.41c-1.53.36-3 .77-4.49 1.26-2.67.9-3 5.57.38 5.49a65.2 65.2 0 008.06-.78c5.62.32 11.91-1.7 17.33-2.83q6.28-1.3 12.57-2.65l11-1.95 24.07-4.28c6.22-1.11 15-1.12 19.35-6.43 1.72-2.12-.78-4.47-2.91-4.29q-3.7.32-7.38.8a2 2 0 00.87-1.93 3.7 3.7 0 00-.1-3.46c7.29-.92 15.18-1.84 21.17-5.34 1.52-.88 1.45-3.7-.51-4.05zm-73.73 7.4a5.82 5.82 0 013.32-1.05.47.47 0 00.06.09z" fill="#010101"/><path d="M226.23 57c-1.42 0-2.84.08-4.25.19 1.08-1.56-.29-4.12-2.22-4.22a16.6 16.6 0 00-5.33.78c.61-1.22.12-2.94-1.62-2.84a56.87 56.87 0 00-5.65.67c4.26-1.09 8.5-2.31 12.69-3.73 2.61-.89 2.37-4.59.19-5.06a1.61 1.61 0 00-1.72-2.09c-6 1.06-11.86 2.38-17.73 3.79a31.39 31.39 0 003.24-2.09c4.08-1.39 8.12-2.91 12.11-4.62 2.81-1.21 1.15-5.63-1.76-5-6.72 1.4-13.38 3-20 4.68-2.45.26-4.89.56-7.33.94-5.77.92-11.51 2-17.25 3.12-11.91 2.22-23.81 4.51-35.67 7-23.33 4.88-46.5 10.29-69.64 15.9-7.56 1.84-15.09 3.74-22.57 5.8-7.51 1.64-15 3.47-22.39 5.54a2 2 0 00-.12 3.93 2.67 2.67 0 001.26 4.82q.62.06 1.23.09l-1.53.4c-3.7.9-2.57 6.48 1.19 5.79 4.95-.72 9.88-1.52 14.82-2.36l-9.28 2.26a2.7 2.7 0 00-1.52 0c-1.77.51-3.49 1.13-5.23 1.76-3.47 1.25-1.38 7 2.15 6.1l1.44-.36c3.34.29 7.23-1 10.44-1.61l2.18-.38q-6.9 2-13.77 4.19c-2.53.8-1.87 4.67.85 4.12 26.46-5.38 52.69-11.82 79.07-17.58q39.28-8.57 78.87-15.58 11.18-2 22.36-3.88c7.63-1.29 15.54-2 22.91-4.38 3.03-.98 3.35-6.09-.42-6.09zM23.38 79.32h-1.13l3.16-.57zm170.49-18a1.92 1.92 0 00-.41.5l-7.17 1.27h-.19c2.63-.61 5.26-1.25 7.89-1.9a.58.58 0 00-.12.09z" fill="#010101"/><path d="M237.43 44c-2-.22-4 .39-6 .74l-6.2 1.11c-2.88.52-1.6 4.71 1.19 4.33 3.85-.53 8.53-.51 12.08-2.12 2.23-1 .81-3.87-1.07-4.06zM230 52.28c-1.51.75-.58 2.9.8 2.9a1.38 1.38 0 001.67.17 1.93 1.93 0 00.55-2.73c-.79-1.02-2.02-.84-3.02-.34zM12.85 98.55a2.81 2.81 0 00-1.27 3.13 3.35 3.35 0 001.92 2.14 2.82 2.82 0 003.15-.59 2.91 2.91 0 00.74-2.8 3.1 3.1 0 00-4.54-1.88zM246.74 79.78c-6.87-.53-14.39.32-21.81 1.63a2.56 2.56 0 00-1.6-3.29c.75-.2 1.49-.39 2.23-.6a2.23 2.23 0 00-.89-4.36c-24.32 2.52-48.42 7.78-72.43 12.44a813.64 813.64 0 0116.74-4l11.65-2.28q11.12-2.18 22.24-4.31c7.07-1.35 15-1.94 21.66-4.63 2.71-1.1 1.68-5.56-1.15-5.59-6.39-.07-13.06 2-19.32 3.16S191.34 70.4 185 71.63l-8.73 1.7c-2.86-.35-5.69.26-8.57.71q-6 .93-12 2-11.61 2.1-23.11 4.77-11.3 2.63-22.43 5.79-20.65 4.32-41.27 8.75C54.1 98.55 39.42 102.1 25 106.73a1.31 1.31 0 00-.89 1.74 38.53 38.53 0 00-7 3.18 1.62 1.62 0 00.92 3 2.22 2.22 0 002.48 3.35c4.64-1.25 9.49-2.35 14.29-3.61 18.92-3 37.74-6.52 56.55-10.1a336.76 336.76 0 00-15.86 3.94l-4.82 1.32C57 112.47 43.24 115.16 29.53 118c-1.74.37-1.68 3.37.23 3.26l2.33-.17a3.66 3.66 0 00-.31 3.35c-3.47 1.2-6.87 2.52-10.1 3.81a2 2 0 001.07 3.9 163.51 163.51 0 0018.19-4.43 4.58 4.58 0 00.23 1.56l-2.23.51c-2.44.57-1.65 4 .78 3.77 47.94-5.64 94.8-17.67 141.87-28l20.2-4.44 9.5-2.09 5.07-1.11c1.64-.36 4.39-1.54 6-1.15 3.23.75 6.6-1.6 5.86-5.19a4.37 4.37 0 00-1.18-2.24 2.69 2.69 0 00.62-1.67l.76-.08c6.24-.64 13-.93 18.94-2.93a2.51 2.51 0 00-.62-4.88zM34.54 108.1h.07zM206.1 88.51l.06.08-.92.18z" fill="#010101"/><path d="M43.42 171.45c2.87 0 2.87-4.46 0-4.46s-2.87 4.46 0 4.46z" fill="#44c2c9"/><path d="M233 120.94c-4-.2-7.85.83-11.75 1.56-2.69.51-5.4.94-8.09 1.41a2.88 2.88 0 00-.31-2c2.48-.6 5-1.22 7.42-1.91a4.06 4.06 0 001.67-7.15l4.13-.49c4.21-.5 2.8-6.78-1.31-6.4l-3.24.33a2.42 2.42 0 00-2.16-.45q-2.22.57-4.44 1.11-5.56.6-11.13 1.27l1.54-.44c3-.86 5.92-1.76 8.84-2.79 3.38-1.19 6.21-2.62 9.83-1.94 2.33.43 4.09-3.13 2.29-4.7-3.44-3-7.66-2.81-11.91-2-6.06 1.19-12.09 2.54-18.13 3.81l-36.62 7.7q-36.63 7.79-73.28 15.5c-6.75 1.43-13.49 2.88-20.19 4.56-7.2 1.8-14.07 4.11-21.07 6.56-1.54.54-1.18 2.89.53 2.57l6.94-1.29-.58.31a2.09 2.09 0 00-.74 2.93q-3.19.69-6.4 1.31c-1.89.36-1.76 3.42.23 3.44a95.8 95.8 0 0014.44-1 3.86 3.86 0 00-.43 1l-3.41.63c-5.24 1-4.42 8.22-.11 9.23a3.06 3.06 0 00.23 1.75c-3.18 1-6.33 2-9.41 3.14-1.7.65-1.67 3.78.47 3.49s4.36-.67 6.56-1.11a2.13 2.13 0 002.48 2.85l.45-.1a1.78 1.78 0 001.94.38c3.95-.87 7.84-2.2 11.74-3.4a4.23 4.23 0 002.28.08q12.77-2.9 25.56-5.76c14.16-2.57 28.28-5.49 42.44-7.85q18.45-3.07 37-5.68c12-1.69 24.41-2.64 35.84-7 2-.77 2.2-3.12 1.31-4.79 6.7-.76 14-1.9 19.59-4.73 1.96-1 .89-3.88-1.04-3.94zM199.38 131a53.14 53.14 0 007.46-2l.08.15q-4.09 1.14-8.25 2zM246.07 117.36a2.49 2.49 0 00-2.59-.88l-1 .27a2.83 2.83 0 00-2 2v.17a2.66 2.66 0 00.48 2.34 2.81 2.81 0 002.1 1h.19a2.85 2.85 0 002.44-1.41c.21-.26.41-.53.62-.8a2.45 2.45 0 00-.24-2.69z" fill="#010101"/><path d="M203.1 162.23a.47.47 0 000-.94.47.47 0 000 .94z" fill="#6591cc"/><path d="M208.36 151.73q-5.73 1.34-11.44 2.8a3.6 3.6 0 00-2.61-.61c-1.08.13-2.16.28-3.24.43a3.43 3.43 0 00-.07-.56 26.39 26.39 0 006.84-2.06 2.19 2.19 0 00.93-.8c2.1-.76.82-4.19-1.31-3.7l-.69.16a17.43 17.43 0 00-1.91-.21 59.4 59.4 0 009-2.9c3-1.26 1.32-5.15-1.39-5.25a2.8 2.8 0 00-3.25-2.66q-32.81 5.19-65.4 11.64c-21.71 4.31-43.53 8.52-64.78 14.75a1.61 1.61 0 00.65 3.16l2.48-.4c-.17 2.06 1.31 4.49 3.74 3.69a80.83 80.83 0 0111.84-2.54q-5 1.35-9.92 2.87a1.58 1.58 0 00.64 3.1l1.55-.22a3.26 3.26 0 003.72 4c4.22-.49 8.43-.9 12.65-1.34-2.7.79-5.37 1.61-8 2.49a1.77 1.77 0 00.71 3.47c2.66-.29 5.32-.63 8-1l-2 .65c-3.54 1.2-2.65 6.22 1.18 5.75 7.87-1 15.74-1.77 23.55-3.23s15.53-3.06 23.29-4.66c15.52-3.2 31.07-5.92 46.66-8.72a3.55 3.55 0 001.85-.81 4.11 4.11 0 003.29.83 2.75 2.75 0 00.22.26 4.72 4.72 0 001.72 1 4.18 4.18 0 003-.39l.47-.21a3.84 3.84 0 001.87-2.41 3.92 3.92 0 002.34-4.27c-.36-2.73-2.76-3.9-5.28-3.52a26.8 26.8 0 00-6.18 1.62l-.22.1a27 27 0 00-3.21.59 3.84 3.84 0 00-.91-.14l7-1.63a3.42 3.42 0 002.32-1.65q5.83-1.3 11.69-2.48c3.25-.65 1.87-5.72-1.39-4.99zM217.65 157.55a3.84 3.84 0 103.83 3.83 3.88 3.88 0 00-3.83-3.83z" fill="#010101"/><path d="M184 170.13c-24.17 4.74-48.13 10.23-72.11 15.83a1.65 1.65 0 00-1.24 1l-1.29.2c-3 .44-2.74 5.62.37 5.43 7.62-.45 15.22-1 22.8-1.82q-5.62 1.52-11.24 3.12c-2.58.73-1.84 4.6.85 4.12l6.35-1.11a2.18 2.18 0 000 .57c-4.79 1-9.58 1.95-14.28 3.25-1.69.48-1.44 3.41.43 3.19 7.67-.9 15.23-2.73 22.79-4.41 4.34 0 8.69-.23 13-.59 3.36-.28 6.69-.69 10-1.3s6.19-.86 8.33-3.47c1.18-1.45.07-3.52-1.42-4.11l-.22-.08a16.55 16.55 0 004.88-2c1.63-1 2-3.87 0-4.57a3 3 0 00-.55-4.65c4.49-1.31 9-2.63 13.5-3.9 2.93-.83 2.05-5.29-.95-4.7zM157.58 201.52c-.65.06-1.3.15-1.94.26A2.71 2.71 0 00153 199a38.88 38.88 0 00-7.09 1.18c-2.14.49-4.85.58-6.36 2.32a2.39 2.39 0 00.81 4 4.85 4.85 0 001 .33 2.25 2.25 0 002 2.49c2.44.29 5-.5 7.4-.93a62.86 62.86 0 007.81-1.72 2.62 2.62 0 00-.99-5.15zM113 206.85a2.85 2.85 0 00-1.34 2.34c-.11.06-.22.1-.33.17a1.38 1.38 0 001.06 2.51l.23-.06a3.18 3.18 0 003.18.85 2.4 2.4 0 001.66-2.74c.38-2.24-2.31-4.39-4.46-3.07zM149.36 219.25a3.53 3.53 0 00-2.55-2.55l-.39-.06a2.72 2.72 0 00-2-.14l-.66.22a3.35 3.35 0 00-2.4 3.17 3.39 3.39 0 002 3l.1.06a3.6 3.6 0 003.37.8h.14a3.59 3.59 0 002.43-4.29zM167.05 214a4.36 4.36 0 00-3.47 0 4.59 4.59 0 00-2.82 4.35 4 4 0 002.41 3.59 4 4 0 003.9-.46 4.17 4.17 0 00.67-.33 4 4 0 001.79-2.33 4.52 4.52 0 00-.39-3 3.84 3.84 0 00-2.09-1.82zM77.33 165.53a3.82 3.82 0 00-3-3.7 4.2 4.2 0 00-1.61-.05 2 2 0 00-2.39 1 5.41 5.41 0 00-.27.77 4.28 4.28 0 00.27 5.32 3.38 3.38 0 005.11 0v-.05a4 4 0 001.89-3.29zM222.1 110.58a3.81 3.81 0 00-3-3.7 4.05 4.05 0 00-1.62 0 2 2 0 00-2.39 1 7 7 0 00-.27.77 4.28 4.28 0 00.27 5.32 3.38 3.38 0 005.11 0l.05-.06a4 4 0 001.85-3.33z" fill="#010101"/></svg>