<svg data-name="Layer 1" xmlns="http://www.w3.org/2000/svg" viewBox="0 0 268.45 162.06"><path d="M237.36 146.8a.89.89 0 000-1.78.89.89 0 000 1.78zM162.17 146.8a.89.89 0 000-1.78.89.89 0 000 1.78z" fill="#6f4fa0"/><path d="M245.65 29.05c-2.09-.22-4.18-.4-6.28-.57.85-1.41.48-3.72-1.45-4.15-.53-.12-1.07-.22-1.6-.32a3 3 0 00.25-2 46.62 46.62 0 0010.43-.94c1.82-.41 1.94-3.49 0-3.81-6.44-1.08-13.68 0-20.19.32-2.3.1-4.59.22-6.89.33h-.37q5.86-.63 11.71-1.32c2.72-.33 2.86-4.19 0-4.35-17.34-.92-34.73-1.19-52.11-.95a366.1 366.1 0 00-13.26-.28l3.78-.46c5.71-.7 12.33-.67 17.75-2.69a1.61 1.61 0 00-.42-3.19c-6.12-.65-13 1.16-19.06 2S156.06 8.15 150.12 9q-8.22 1.15-16.43 2.39-14.84-.39-29.69-.14c-4.41-.18-8.83-.26-13.25-.28l3.77-.46c5.72-.7 12.34-.67 17.76-2.69a1.61 1.61 0 00-.43-3.15c-6.13-.65-13 1.16-19.06 2S80.88 8.15 74.93 9s-12 1.72-18 2.62q-5.46.21-10.9.51c-1.63.09-3.33.13-5.07.16s-3.61 0-5.42 0a3.7 3.7 0 00-1.38.23 40 40 0 00-11.1 1.88c-1 .35-1.26 2.09 0 2.29a40.2 40.2 0 009.33.2 3.54 3.54 0 003.15 2.39l2.05.16h-.07a1.54 1.54 0 00-1.08.89A138.94 138.94 0 0020.89 23a2.83 2.83 0 00-2.15 1.79c-3.5 0-7-.09-10.5-.06-1.94-.11-1.95 3 0 3 3.64.1 7.29.05 10.93-.05a3.37 3.37 0 00.95 1l-1.91.18a1.63 1.63 0 000 3.25c2.1.17 4.22.25 6.34.3a2.28 2.28 0 001.34 1.49c5 2.15 10.14 2.23 15.53 2.47 5.9.25 11.83.53 17.75.6 12.72.15 25.45 0 38.17 0 10.78 0 21.55-.06 32.33-.12q2.34.06 4.68.09c12.72.15 25.45 0 38.17 0 12.43 0 24.86-.1 37.29-.15 12 0 23.86-1.55 35.84-1.4 4.2.12 4.02-5.93 0-6.34z" fill="#231f20"/><path d="M256.35 22.39c-2-.26-4.28.68-6.36.79-1.71.08-3.67-.17-5 1-1.52.21-1.33 2.53 0 2.89a8.37 8.37 0 001 .21 10.76 10.76 0 004.4 1.11c2.36.24 5.31.46 7.38-.83 2.51-1.56 1.23-4.84-1.42-5.17zM254.06 53.92c-5.3-1.29-11.05-1.36-16.54-1.61a2.47 2.47 0 00-1.16-2.09 2.78 2.78 0 00-2.31-3.78c-.77-.13-1.54-.24-2.32-.35 3.41-.38 6.82-.87 10.21-1.44.73-.11 1.47-.24 2.2-.38 2-.37 1.63-3.14 0-3.69C233.29 36.89 221.4 37.39 210 37c-12.09-.45-24.18-.65-36.28-.73-17.84-.12-36-.79-54 .3q-10.61-.24-21.2-.3c-23.3-.19-47.28-1.27-70.46 1.83a2.06 2.06 0 00-.76.25h-.06a12 12 0 00-4.24-.77c-2-.62-4.07-.12-6.18.11s-4.92.06-6.86 1.27a1.59 1.59 0 00.37 2.86c2.09.82 4.76.14 7 0 1.06-.08 2.2-.06 3.31-.18a17.37 17.37 0 006.27-.56 2.48 2.48 0 001.8 1.3l3.25.33-.54.48c-3 0-6.09 0-8.83 1.19l-5.27.15a2 2 0 00-1.16.37c-3.61-.07-7.16-.2-10.66-.39-2.7-.14-2.64 4 0 4.17l1 .07a2.64 2.64 0 00-1.22 4.08 2.6 2.6 0 001.4.92A22.25 22.25 0 0012 54a10.57 10.57 0 003-.43 1.51 1.51 0 001.53 1.63q4.83.1 9.66 0c24.73 3.53 49.56 3.52 74.5 3.37 12.77-.08 25.54-.16 38.31.08 6.37.12 12.75.26 19.12.55 6.57.3 13.39 1.46 19.94 1.13a3.26 3.26 0 002.76-1.79c11.12-.06 22.24-.1 33.36.11 6.38.12 12.75.26 19.12.55 6.57.3 13.39 1.46 19.95 1.13 3.47-.2 4.51-5.51.81-6.41z" fill="#231f20"/><path d="M258.72 44.79c-2.34-.77-5.07 0-7.44.38-2.2.37-4.86.48-6.52 2.06a1.69 1.69 0 00.34 2.62c1.93 1.21 4.7.75 6.9.66 2.45-.09 5.15.05 7.31-1.19a2.5 2.5 0 00-.59-4.53zM256.73 66.17c-1.6.14-3.18.27-4.77.46a2.69 2.69 0 00-1.82-3.48 32.52 32.52 0 00-4.94-1 3.28 3.28 0 00-2.15-3.15c-4.88-1.84-10.66-1.5-15.82-1.71s-10.6-.3-15.89-.41q-16.78-.33-33.57-.36-15.77 0-31.5.59l-10.12-.23q-16.77-.33-33.56-.36-27.39 0-54.71 1.75c-3.89.13-7.78.45-11.66.73l-3.72.11a1.93 1.93 0 00-.75.18c-7.6.41-15.19.87-22.78 1.33a1.81 1.81 0 000 3.62q3.4.2 6.89.36a.51.51 0 00.45.52 41.62 41.62 0 0010-.15h5.31a3.42 3.42 0 00.17.77c-3.1.32-6.42 1-7.94 3.31-2.06.11-4.12.17-6.18.14s-2 3 0 3.12c1.75.07 3.54.14 5.35.19a3.12 3.12 0 00.13.69c-3.53.17-7 .64-9.62 2.29a1.35 1.35 0 000 2.3c4.78 3 13 1.67 18.33 1.35 4.48-.26 9.55-.36 14.14-1.46l.37.05c6.05.65 12.14 1.18 18.22 1.52q17.85 1 35.75 1.2c12 .16 23.91.34 35.87.4h17.49c5.19 0 10.49.25 15.64-.49l6.18.11c12 .16 23.91.34 35.87.4h17.5c6.18 0 12.53.39 18.59-1 3-.7 3.7-4.38 2.15-6.52.71-.06 1.41-.15 2.08-.23a25.32 25.32 0 005.83-1.28c2.75-1.07 2.67-5.95-.81-5.66z" fill="#231f20"/><path d="M259.63 86.62a52.71 52.71 0 00-13.33.67h-.23a3.77 3.77 0 00-1-2.56c2.34-.27 4.67-.55 7-.88 2.73-.37 2.1-5-.65-4.82-2.28.16-4.55.29-6.82.41a1.78 1.78 0 00-1.46-1.62c-11.19-2.93-23.32-2.13-34.79-1.76-12 .39-24 1.19-36 1.93l-3.64.19a2.1 2.1 0 00-.75-.36c-11.18-2.93-23.32-2.13-34.78-1.76-12 .39-24 1.19-36 1.93-24 1.48-47.85 1.09-71.85 1.42-1.92 0-2.44 3-.46 3.43a122.11 122.11 0 0014.08 2.27c-2.36.19-4.72.39-7.08.64a2.09 2.09 0 00-2 2.51c-3.67.27-7.34.56-11 .89a2.4 2.4 0 00-2.24 2.43l-4.63.2c-3.47-.2-3.36 5 0 5.35a113.43 113.43 0 0013.67.49h-.55c-3.22.24-3.31 5.09 0 5.08 24.39 0 48.76-.61 73.14-1a2.31 2.31 0 002 1c26.3 0 52.57-.71 78.87-1.12q19.5-.3 39-.41h29.25a15.25 15.25 0 008-2 1.8 1.8 0 000-3.09c-.81-.41-1.52-.74-2.18-1 2.65-.41 5.19-1 7.34-1.55 4.02-1.05 2.89-6.62-.91-6.91zM11.35 88.14c.16-.12.31-.25.46-.38s.23-.17.34-.27A3.22 3.22 0 0013 86.4l-.06.13a.41.41 0 010-.09 4.12 4.12 0 00-.62-4.81 4.21 4.21 0 00-3.13-1.3 4.49 4.49 0 00-3 1.23 4.77 4.77 0 00-1.14 2 4.6 4.6 0 00-.19 1.33 4.13 4.13 0 001.32 3A3.91 3.91 0 008.82 89a4 4 0 002.18-.68 2.71 2.71 0 00.35-.18zm-2-5.34h.44z" fill="#231f20"/><path d="M257.62 113.23a32.55 32.55 0 00-5.92-.16 2.28 2.28 0 00-1.07-2.6 7.22 7.22 0 00-3.5-.84 1.8 1.8 0 00-.44-.43h1.06a3.29 3.29 0 000-6.58c-3.38-.25-6.77-.44-10.16-.6-20.06-1.27-40.12-3.07-60.2-3.85a262.58 262.58 0 00-40.67 2.06c-11.5-.83-23-1.61-34.51-2.06-23.24-.91-46.58 2.7-69.53 5.94A3.29 3.29 0 0030 106a42.11 42.11 0 00-8.72 1.42h-.05c-1.77.06-3.53.13-5.3.21a1.85 1.85 0 00-.34 3.65 2.2 2.2 0 002.07 2.15c2.51.17 5.11.4 7.73.61a2.1 2.1 0 00.31.54c-1.91.07-3.82.11-5.74.09a1.76 1.76 0 00-1.21.48l-3.29.13c-4 .2-3.92 6.57 0 6.19a119.06 119.06 0 0015.61.1c4.52 2.58 13.9 1.83 17.3 1.8 3 0 6.09-.09 9.13-.15h2.17c12.06.2 24.12.37 36.18.44l73.24.4a5.1 5.1 0 002-.4l73.15.4a4.52 4.52 0 004.66-4.68 3.25 3.25 0 00.81-.7l1.26.12a16.73 16.73 0 006.65-.39c2.31-.72 2.83-4.71 0-5.18z" fill="#231f20"/><path d="M254.7 130.38c-2.12-1.55-5.1-1.84-8.07-1.42-.08-.12-.17-.23-.26-.34 1.53-1.94.73-5.46-2.5-5.5q-14.06-.2-28.09-.31c-4.68 0-9.36-.11-14.05-.14a73.39 73.39 0 00-10.8.22c-3.79 0-7.59 0-11.39.07-2-.09-3.94-.17-5.91-.27-8.65-.4-17.29-.65-25.95-.61-1.91-.18-3.83-.38-5.76-.63-10.57-1.34-21.69-.29-32.27.49a2.14 2.14 0 00-1.74 1h-3.55l-5.92-.27c-8.64-.4-17.29-.65-25.94-.61-1.92-.18-3.84-.38-5.76-.63-10.57-1.34-21.7-.29-32.28.49a2.17 2.17 0 00-1.83 3.2c-1 .22-2 .46-2.92.72-2.14.58-2.94 4.07-.71 5.11l-7.78.22c-3.88.1-4.26 5.16-1.24 6.44a1.9 1.9 0 001.71.8l5.26-.17c2.67.15 5.37.3 8.09.41a2.31 2.31 0 00-.53 1c-3.24.21-6.47.41-9.7.63-4.18.29-4.26 6.77 0 6.58q10.8-.48 21.6-.84c-1.58 1.75-.23 5.24 2.53 5.49 9.1.83 18.82-.55 28-.83q13.13-.39 26.24-.59 9.18-.14 18.36-.24a3.46 3.46 0 002.61 1.66h.12c-2.37.2-4.73.41-7.07.54-6.89.39-13.79.63-20.69.76-13.78.25-27.59-.05-41.34-1-2-.13-1.89 2.81 0 3a346.28 346.28 0 0042.2 2.7c6.91 0 13.8-.27 20.69-.74a128.62 128.62 0 0015.6-1.58 341.67 341.67 0 0038.9 2.32c6.9 0 13.79-.27 20.68-.74 6.68-.45 13.73-.71 20.16-2.68a1.53 1.53 0 00-.4-3c-6.82-.5-13.8.54-20.62.92s-13.79.63-20.68.76c-10.82.19-21.66 0-32.47-.49a1.58 1.58 0 00-.55-.85c4.53-.27 9-.65 13.45-.79q13.11-.39 26.24-.59c8.75-.13 17.5-.27 26.25-.32h14c4.08 0 8.47.6 12.06-1.6a3.07 3.07 0 001.41-3.3c5.59-.11 11.18-.3 16.76-.63a4.11 4.11 0 002.56-7.22 2.84 2.84 0 00.58-1.18 10.6 10.6 0 002.74-.87c1.94-.93 1.42-3.49-.03-4.55zM262.1 128.63h-.43a3 3 0 00-2 .82 2.8 2.8 0 000 4 3.18 3.18 0 002 .83h.43a2.86 2.86 0 002-.83 2.85 2.85 0 00-2-4.87z" fill="#231f20"/></svg>