<svg data-name="Layer 1" xmlns="http://www.w3.org/2000/svg" viewBox="0 0 187.82 157.14"><path d="M15.72 27.75a1 1 0 01.35.33c2.06-1.76 4.12-3.16 4.08-6 0-.16.3-.32.45-.49.47.18.86.54 1.41.48V24a.55.55 0 00-.45.47c-.17.3-.33.61-.49.91-.36.18-.39.34 0 .49a.54.54 0 00.46.45c2-.71 2.15-1.08 1-2.33.23-.51 1.06-.63.91-1.4h.5c.47.21.9.64 1.48.4a1.07 1.07 0 00.71-1.46c-.29-.71-.84-1.1-1.6-.5a4.77 4.77 0 00-.62.65l-.94.47h-.46c-.34-.89-1.07-1-1.88-.93-.49-.84-.24-2.22-1.9-2.33A2.77 2.77 0 0116 20.36a4.35 4.35 0 01-1.19 3c-1.93 2.14-1.62 3.01.91 4.39zM13.91 77.5c-.88.4-1 1.1-.61 1.94 1.59.6 3.13 1.07 4.33-1a3.62 3.62 0 00-3.72-.94zM12.58 65.59a3.47 3.47 0 00-1.34-.86c-.16-.33-.6-.5-.7-.23-.35.9-1.52 1-1.94 2.09a3 3 0 012.72.91c.76-.5 1.43-.95 1.26-1.91zM15 84.41c-.94 1.08 0 2.71-1.23 4a4.87 4.87 0 013.11-.18c.87-1 1.31-3 .69-3.67a1.62 1.62 0 00-2.57-.15zM22.15 15c.1-1.31.56-2.63-1.06-3.2v-.45a.58.58 0 00-.45-.47 2.48 2.48 0 00-.47 0c-1.15.76.22 1.55 0 2.32-.76.29-.83.79-.44 1.43.71.82 1.59.37 2.42.37zM117.74 10.25c.74-.32 1-.94.28-2.08-.77.47-2 .06-2.24 1.38a1.36 1.36 0 001.96.7zM171.9 39.42h-.49c-1 .52-1.27 1.19-.46 2.1 2.15-.76 2.15-.76.95-2.1zM24.35 89.07c-.51-.54-1.05-1.13-1.87-.59s-.21 1 0 1.56c.71.57 2 .35 2 2.07.62-.83 1.3-1 1.2-1.89a3.37 3.37 0 00-1.33-1.15zM4.2 56.66c-1.68-.88-2 .34-2.59 1.34 1.39.43 2.03-.21 2.59-1.34zM54.64 132.84l.61-.68c-.16-.45-.53-.46-.92-.45h-1.4l-.93.47a1.33 1.33 0 001.38 1c.55.74 1 1.69 2.17 1.18.23-1.03-.79-.96-.91-1.52zm-1.46-.57a.93.93 0 000 .22.83.83 0 010-.22zM71.63 144.68c-.46.64 0 1.08.54 1.49.84-.34 1-1 1.2-1.77-1-.8-1.37-.19-1.74.28zM109.6 146.7c-.22.21-.52.64-.63.6-1.31-.53-1.64.55-2.18 1.27-1 .38-2.11-1.28-3.05.19.48.51 1.33 0 1.64.73v1.41c2.7 1.18 2.69 1.17 4.19-.89a9.46 9.46 0 011-.95l.47-.49c.6-1.42.39-1.7-1.44-1.87zM159.16 111.14c.59.59.5 1.53 1.67 1.73.24-1.67.24-1.67-1.67-1.73zM144 40.07c0-.61-1.48-.61-.66-1.57.51-.24.63-1.08 1.4-.93l.56.45a.41.41 0 00.4.41l.4.51c.06.53-.12 1.08.17 1.58.74-.09.76-.62.74-1.17.41-.56.91-.42 1.43-.21s1 .43 1.38-.24c.42-.14.48-.49.52-.85h1.35c.4.51.77.29 1.17 0 1.25-1 1.81-2.43 2.59-3.87-1.26-1.08-1.2-3.06-2.62-4s-3.06-.76-4.68-.27c-3.9 1.17-4.8 2.93-4.38 5.74.21 1-.52 1.61-1 2.34-.81.77-.38 1.67-.41 3.12.64-.98 1.32-.38 1.64-1.04zM163.47 117.18l-.48.47-.47.47c-.38.16-.38.32 0 .47.39 0 .76 0 .94-.47.77-.79 2.07 0 2.8-.94l.29-1.07c-1.17.37-2.45-.39-3.08 1.07zM60.49 9.42c.44-.56 1-1 .32-1.61-.33-.29-.7-.16-1 .18-.54.7-.12 1.06.68 1.43zM179.73 100.37a.65.65 0 001 .19c.71-.59.12-1-.37-1.71-.63.5-1.21.79-.63 1.52zM19.44 33.25a.6.6 0 00-.08-.84c-.64-.65-1.09-.35-1.54.5.56.45.98 1.09 1.62.34zM63.21 142.91c-.76.63-.26 1.53-.75 2.26 1.33.22 2.1 0 2.18-1.29.03-1.06-.1-1.88-1.43-.97zM186.05 69.41a.56.56 0 00.24.8c.7.27 1.2 0 1.48-1.08-.7-.13-1.3-.5-1.72.28zM166.44 99.25a2.43 2.43 0 00.44-1.62 2.11 2.11 0 00-1.43.68.84.84 0 00.99.94zM120.19 152.45a2 2 0 00-2.17.79c-.91.08-1.46.47-1.31 1.56l2.27 1.07c-.35-.87-.53-1.53 0-2.15.73-.04 1.3-.26 1.21-1.27zM84.13 136.51a1.24 1.24 0 00-1.33 1.34c.86.05 1.65.03 1.33-1.34zM4.7 60.52c.34-.21.55-.5.15-.79s-.5 0-.63.32c-.47.68-1.29.88-1.88 1.4-.78.17-1.7-.4-2.34.47a.61.61 0 00.47.47l1.87-.47a2.21 2.21 0 002.36-1.4zM184.78 66.34c-.47.22-.92.47-.93 1.19.81.67 1.32.4 1.52-.57.05-.27-.27-.51-.59-.62zM63 13c.39-.55.18-.89-.23-1.19l-.05-.9c-.16-.3-.56-.53-.67-.24-.42 1-.48 1.98.95 2.33zM4.23 69.88c.71 1.21 1.22.5 2 0-.99-1.07-1.45-.56-2 0zM181.36 66c1.22.23 1.5-.36 1.48-1.24 0-.09-.23-.18-.38-.29a1.6 1.6 0 00-1.1 1.53zM125.07 155.1c-.07-.37-.06-.91-.6-.77a1 1 0 00-.72 1.44c.27.77.79.53 1.3.28.58.16 1.14.92 1.77 0-.19-.99-1.01-.9-1.75-.95zM128.78 150a1.19 1.19 0 00-.42 0c-.63.35-.68.87-.13 1.23a.88.88 0 001.3-.52c.28-.71-.29-.71-.75-.71zM164.84 113.07c-.46-1.15-1-.82-1.59-.32-.08.07 0 .28 0 .43a1.26 1.26 0 001.59-.11zM23.75 13.15c.69-.93.88-1.55-.05-2.3a2.5 2.5 0 00.05 2.3zM12.85 92.19c.64-.34.84-.77.46-1.68-1.03.43-1.5.84-.46 1.68zM44.27 119.7c1 .33 1.52-.25 2.09-.2 1.15.74 1.51.26 1.41-.91-.53 0-.94.29-1.4.46-1.04-.98-1.37-.19-2.1.65zM16.4 74.58zM16.47 76.42c1-.66 1.13-1.23-.07-1.84-.17.56-.91 1.11.07 1.84zM106.94 154.9c.87.38 1.26.17 1.18-1-.88-.07-1.2.24-1.18 1zM40.07 9.76c-.21-.62-.56-.89-1.18-.49a.45.45 0 00-.09.76c.53.52.94.29 1.27-.27zM169.93 110.79c-.09 0-.12.24-.2.41a1.07 1.07 0 001.55.07c-.2-.91-.81-.64-1.35-.48zM121.4 155.4c.76-.32 1.24-.67 1.17-1.61-1.07.15-1.32.65-1.17 1.61zM179.44 94.1c.39.66.78 1 1.78.55-.54-.84-.99-1.09-1.78-.55zM167.89 102.94c.75-.47.9-.93.36-1.61-.81.4-.64.93-.36 1.61zM120.11 156.24c.3.55.5 1.13 1.63.8-.44-.85-.85-1.14-1.63-.8zM83 147.74c-.36 0-.54.26-.54.59s.17.62.54.59a.77.77 0 00.63-.59.75.75 0 00-.63-.59zM47.77 118.59zM150.38 122.93c.68.07 1.12-.05 1.25-.82-.88-.41-1.26-.19-1.25.82zM27.75 13.61a.6.6 0 00.76-.78c-.15-.65-.53-.58-.89-.11-.48.38-.52.75.13.89zM23.15 15.61a1 1 0 00.73.89l.47.92v.93c-.33.23-.57.53-.12.81a.72.72 0 001.08-.33 1.41 1.41 0 00.93-.94c.55-.43.46-.78-.19-.92a1.56 1.56 0 01-1.24-.97c-.28-1.45-.94-1-1.66-.39z" fill="#010101"/><path d="M181.77 84.85c-.34-.49-.67-.53-1 0a6.32 6.32 0 00-3.41-.77c-.6-1.33-.2-2.64-.32-3.9a2.07 2.07 0 000-.43c.5-.21.54-1.24 1.43-.76s1.29-.29 1.62-.83c.61-1 .2-1.64-1.64-2.68L178 75a.63.63 0 00-.46-.47 1.46 1.46 0 00-.9-1.45.61.61 0 00-.49-.44l-.49-.45c-.36-.76-1.72-.27-1.77-1.38.06-.86 1-.81 1.33-1.41 1.28-.56 1-1.83 1.33-2.84a.85.85 0 00.08-.42l.11.11-.1-.11c.6-.35.43-.91.4-1.44a.51.51 0 00-.4-.49c-.94-.58-1.37-1.24-.41-2.2.35-.36 0-.71-.14-1a.55.55 0 00-.4-.48v-.44l.41-.49c.8-.43 1.75-.66 2.14-1.72l-1.19-.6c-.7.53-.45 1.63-1.38 1.83a.74.74 0 00-.55-.52v-.33c.1-1.07-.87-1.28-1.32-1.86a.87.87 0 00-.52.83l-1.83.47a1 1 0 01-.06-.41.54.54 0 00-.34-.51 1 1 0 01.08-1c.47-.07 1 .65 1.4 0 .26-.39-.17-.68-.23-1v-.39l.71-1a18.82 18.82 0 011.28-4c-1.23-.33-2 .27-2.79.6-.43.61-.89.25-1.34 0a.45.45 0 00-.17-.39l.09-2.34a.2.2 0 000-.32 3.08 3.08 0 00.41-2c.07 0 .16-.07.19-.12s0-.27-.18-.32a.47.47 0 00-.36-.53 2.48 2.48 0 00-.52-1.43.3.3 0 00-.13-.39c0-.29-.13-.4-.37-.46a2.87 2.87 0 00-1.35-1.44 2.31 2.31 0 00-.92-1.41 1.9 1.9 0 01.48-1.83c.45-.43.74-1-.07-1.44-.93-.73-1.4 0-1.88.61l-.62.32h-1.58c-2.19-.16-2.19-.17-2.57 2.21a3.52 3.52 0 01-3.34 1.08 10.1 10.1 0 00-7.83 1.53.45.45 0 00-.53.34l-.41.21a1.07 1.07 0 00-.9.78h-.06c-.73.09-1.34.58-2.16.53-.61 0-.62.51-.18.92a.84.84 0 01-1.1.43.65.65 0 00-.86.43 2.87 2.87 0 01-2.12.95c-1-.76-2.71.17-3.46-1.33 0-.29-.12-.44-.42-.43a.46.46 0 00-.37-.11c-.48-.16-.65-1.44-1.45-.4-.48.16-1.11.59-.94-.49.69-.45.46-1.16.68-1.79-.89-.09-1.59-.28-2.17.3-1.1.26-.62-1.18-1.38-1.3 0-.28.08-.56-.31-.74a1.16 1.16 0 00-.62 1.08 1.07 1.07 0 01-1.4-.32c-.2-.84.61-1.36.88-2.08l-1.77.15a.94.94 0 00-.37 0 .63.63 0 00-.58-.4l-.39-.89a.63.63 0 00.44-.5c1.07-.61 1.26-1.69 1.46-2.77l.44-.48c.46-.07 1.05.15 1.27-.5a1.33 1.33 0 00-.78-1 .91.91 0 00-1-1c-.82-.53-.91-1.53-1.45-2.24l.17-1.38.78-.58a.49.49 0 00.5-.37.53.53 0 00.49-.43.86.86 0 00.39-.09c.4-.07.87.2 1.28-.44-1-.25-.44-1.45-1.26-1.89l-.51-.38v-.05c-.27-.56-.89-.64-1.31-1a.66.66 0 00-.41-.6 1.89 1.89 0 00-1.85-1.27c-.58-.49-1.29-.37-2-.44a1.06 1.06 0 00-.9-.53c-.5-.66-1-.48-1.41.08a.53.53 0 00-.51.4l-.77.12-2-.08v-.93a.66.66 0 00.19-.09v-.14l-.23.23-.61.08c-.56-.07-.76-.42-.86-.94a19.39 19.39 0 01-.85-4.08c.07-3.42-2.2-5.1-4.59-6.68a4.14 4.14 0 00-4.63-.38c-.79.47-1.68.25-2.51.43a8.86 8.86 0 01-3.22-2.07c.12-1.82-.22-3.36-2.36-3.78-.19-.46-.59-.43-1-.41a5.36 5.36 0 00-2.83-.89c-2.75-.45-4.87.94-7 2.4l-1.47-1c-.87 1.31.17 1.51 1.06 1.8 1 1.14-.31 2.2-.13 3.31l-1 1.76-1.27.06c-.35-.29-.73-.57-1.06-.89-2.09-2.08-3.35-1.86-4.51.9-1.59-.07-2.3.9-2.5 2.39l-.4.51c-.93.3-2-.29-2.84.45a.61.61 0 00-.53.44 2.79 2.79 0 00-1.4 1.33 1.83 1.83 0 01-1.8-.42c.11-1.54.62-3.25-1.66-3.74-.1 0-.15-.26-.25-.37-1.4-1.58-2.36-1.44-3.5.33-.13 1.68 2.08 1 2.13 2.45-.25.66.24 1.38-.18 2-.86.41-.95.51-1.27 1.26 0 1.23-1 1.43-1.82 1.82l-.5-.42-.12.11.12-.11-.07-.46c.17-1.32-.7-1.44-1.67-1.44-1-1.7-1.93-3.49-4.25-3.7-.51.13-.52.53-.5.94a.57.57 0 00-.47.46h-.48s-.07.05-.11.14 0 0 0 .07a.46.46 0 00-.07-.07l.18-.14V11.33c.61-.48.63-.95 0-1.41a1 1 0 00-.93-.75c-.12 1-1.82 2 0 3.1v1c-.2 1.22-1.18.75-1.89.88-.39 0-.78 0-1-.48s-.39-1.09-.94-1.4c-.31-.55-.62-.53-.94 0h-.91L46 10.45c-.89.36-1.21.89-.81 1.66a.86.86 0 001.35.33c.5-.28.85.18 1.27.3l.45.49c.19.45.55.84.52 1.37a.69.69 0 00-.5.48c0 .65.3 1 .94.94-.05.59.18 1.24-.39 1.73a2.19 2.19 0 01-2.15-.3 3 3 0 00-2.16-.53l-1.35-.5c-.64-1-1.57.67-2.44-.58-.39-.56.6-1.83-.45-2.63s-2.09-.4-3.08-.8c-.43 1.36.76 1.26 1.21 1.74v.44a3.15 3.15 0 01-2.33.47l-.47-.46a3.44 3.44 0 000-.46 5.13 5.13 0 00-1.83-4.24c-.41-.53-.74-.48-.91.16-.27.94.32 1.77.43 2.67-.63.12-1.42-.35-1.85.51V16c-1.64-.62-2 .21-1.95 1.41a6.69 6.69 0 01-1.36 1.89c-1.47.89-1 2.07-.48 3.25a1 1 0 00-.49.94l.05.05v-.06c-.5.09-1.14-.11-1.34.75.13.74 1.52 1.24.67 2.33-.77.6-1.91-.21-2.6.68h-.43c-.4-.52-.78-.35-1.11.05-.58.7-.15 1.28.23 1.87a1.56 1.56 0 01-.7 1.08.72.72 0 00.06 1.25 2 2 0 01-1 2.31c-.58.37-1.38.29-1.78.94-1.36-.18-2.34.18-2.54 1.75a2.86 2.86 0 01.84.29 4.77 4.77 0 01.72.83c-.13.75.88 1.06.75 1.79-.6.71-1.59.72-2.11 1.43-.82.06-1.32-1.49-2.33-.45-.43.16-.48.52-.49.9h-.41a3.1 3.1 0 01-.5-.46c-.33-.6-.89-.46-1.41-.43-.82.56-.27 1.69-1 2.31-.42.17-.46.53-.46.91-.39 0-.76.07-.93.5-.56.31-.51.63 0 1a3.15 3.15 0 000 .44c.3.56.62.51.95 0 .77-.15.87.69 1.38.93a1.53 1.53 0 00.93.93v.92l-.47.48c-.41-.07-.73-.6-1.29-.16a1.94 1.94 0 00.82 2c.31.31.62.62.94.92-1.62 0-1.24 1.58-1.89 2.35-.54-.06-.93.31-1.38.49a3.37 3.37 0 00-1.64.16 1 1 0 001.17.75c.58.35 2-.15 1.38 1.41-1.67 1.95-1.25 4.27.97 4.74l.86 2c1 0 1.95.47 2.93.27l.47.49c.18 1.26-.07 2.34-1.39 2.82.56 1.2 1.29.33 1.88.43h.39c.65.86 1.57.36 2.37.45-.35.8-.93 1.58-.06 2.41l.47.45c.49.67 1.49.59 2 1.29-.11.57.25 1 .45 1.47-.27 1.54-.27 1.54 1.16 1.72-.08.21-.15.42-.22.63-.63 1.19-1.4 2.35-.47 3.74 0 .38 0 .75.45.94l.45.52c.33.49.66.47 1 0a.63.63 0 00.42-.53 5.07 5.07 0 000-4.67c0-.54-1.52-.52-.48-1.4a.91.91 0 00.95.45h.47a3.67 3.67 0 002.34-.45c.32.51.93.6 1.37.94.23 1-.61 1.81-.43 2.79a3.44 3.44 0 00-.05.45.6.6 0 00-.43.49c.18.56-.65 1-.18 1.64a2.34 2.34 0 001.15-1.15.61.61 0 00.46-.47h1.35a.88.88 0 00.92.46l.62.89c-.11.52 0 1.13-.52 1.5a.5.5 0 00-.22.24c-.58.75-.41 1.9-1.26 2.5a.66.66 0 00-.48.46l-.9.48c-.8-.44-1.59 1-2.39 0 .94-1.41-.41-1.34-1-1.83-.69.77-.1 1.27.09 1.82v.45c-.3 0-.69 0-.74.37-.09.56.4.52.76.58.31.64.89.43 1.4.46.49.19.92.64 1.56.36.47-.28.19-1.06.79-1.3h.9c0 .31.05.62.08.92a1.26 1.26 0 000 .43 2.51 2.51 0 00-.87 2.35v1c.32 1.26-.74 1.69-1.42 2.35a.59.59 0 00-.48.44 3.4 3.4 0 00-.46.06c-.78.11-1.69-.43-2.33.43a.56.56 0 00.47.48h1.28a3 3 0 00.42 0 3.07 3.07 0 01-.22.88c-1.09 2-1 2.13 1 3 .42.18.87.35 1 .57a4.6 4.6 0 010 2.6c1.05-.49 1.58-.2 1.5.9-.41.07-.93-.12-1.17.4a.56.56 0 00.35.73c.59.24.73-.29.94-.65h.9l.45.47a2.48 2.48 0 001 1.83 2.72 2.72 0 01.09-.43c0 .12-.06.27-.09.43a.82.82 0 00.9.52l.52.44c.12.79-.44 1.71.43 2.37-.15.31-.29.63-.44 1 0 .51-.17 1.07.45 1.37 0 .66-.29 1-.94.93a.62.62 0 00-.47-.45 1.82 1.82 0 00-1.36-1.2c-1 1.22.4 1.23.88 1.67 0 .5-.16 1.09.47 1.4.64.46.93 1.36 1.85 1.45l.56.88c.16 1.1.31 2.19.47 3.29l-.57.86c-1.65-.1-1.6 1.33-2.16 2.15a2.68 2.68 0 001.28 1.19c.46.76 1.22.36 1.85.5.46.72 1.22.36 1.84.5a1 1 0 00.49.9c1.53.57 1.53.57 2.65-.16-.51-.38-1.21.17-1.68-.34a1.7 1.7 0 00-.93-.93 1.34 1.34 0 011.38-.9c.85.66.85.66 2.16-.59-.81.28-1.18-.2-1.66-.39a3.44 3.44 0 00-.05-.45c0-.38.06-.78.5-1 .46.55.78.42.88-.23a12.69 12.69 0 00.06-1.63.56.56 0 00.43-.49 3.43 3.43 0 00.09-.44 19.26 19.26 0 013.52-1.68 2.22 2.22 0 00.67-.2 1.54 1.54 0 001.4-.92l.5-.44-.07-.08.05.1c.52-.11.9.21 1.3.45.09.55-.1 1.45.8 1.28 1.06-.2.56-1 .28-1.58a1.8 1.8 0 01-.08-.21c-.07-.81.6-1.25.94-1.86.62 0 .9-.33 1-.91h.87c0 .58-.31 1.38 0 1.71.79 1 .53 1.56-.25 2.3a1.51 1.51 0 00-.19 2.05l-.46.45-.93-.44c-.88-1-.88.45-1.39.49a2.57 2.57 0 01-1.39-.52c-.19-.43-.55-.46-.94-.42s-.47.52-.47.9h.47l.45 1.41c0 .52-.17 1.1.46 1.42.15.63-.27 1.4.47 1.88l.44.49v2.7c-.4.81-1.5.69-1.74 1.58a1.93 1.93 0 002 1.26c-.3-.93-.24-1.8.74-2.28l.95.89a2.7 2.7 0 00.41.06c1.34.48 2.56 1.57 4 .69.35.48.15 1.69 1.15.69 1-1.21 1.65 0 2.4.33l.87-.8a1.4 1.4 0 01.92 1.63c-.16.87.57 1.13 1 1.63v1c-1-.13-1.78.15-1.9 1.33-1.3-.1-2.65.63-4.22-.74.35 1.38.57 2.22.76 3 2.15.53 3.37-1 4.92-1.73h.47l.46.48a.6.6 0 00-.47.47v.45c-.91.8-.31 1.86-.49 2.79a4.19 4.19 0 01-.46.48c-.8 1 0 1.57.64 1.91 1 .49 1.7-.06 2.18-1 .75-.35.21-1.29.71-1.68.71-.44 1.61.14 2.13-.64a.9.9 0 00.9-.49 1.48 1.48 0 00.94-.93c.4 0 .76-.05.94-.46h3.26c0 .95.19 1.94-.45 2.8a.63.63 0 00-.49.44.59.59 0 00-.46.48c-.38.17-.34.35 0 .53a1 1 0 000 .42c.79 1 1.86.27 2.78.48a.6.6 0 00.48.44.49.49 0 00.44.43 1.14 1.14 0 00.41.07 1.73 1.73 0 01.53.44h.43c1 .84 2.2.45 3.28.58.72.09 1.49-.62.51-1.53l-.46-.92a.87.87 0 00.46-1c.85-.82.14-.86-.47-1v.24l-.4-.17a1.51 1.51 0 01-.35-.2 1.43 1.43 0 01-.11-.15l.17.07a.29.29 0 00.27-.23c0-.48 2-.87 0-1.42-.09-.5.09-1.09-.52-1.38 0-.52.14-1.1-.46-1.43.32-.75-.77-2.07.91-2.28a1.49 1.49 0 001 .87c.44.1.8 0 1-.44h1.33v-.06c0 .37.08.74.48.93.56.67 1.15.51 1.82.08.09-1-.64-1.87-.36-2.87.6-.6 1.21 0 1.82 0 .27 1.24.27 1.24 1.26 1 0-.54-.7-.55-.82-1a1 1 0 00.06-1.35 1 1 0 00.46-.95c.6-.25 1.33-.87 1.42.47a3.47 3.47 0 00-.06.45c-.5.39-.38.71.13 1a1.4 1.4 0 01.86 1.4c-.46.24-1 .43-.76 1.19.47.29.82-.15 1.21-.26a.77.77 0 01.52.53v.97c-.32.93-1.57.14-1.91 1-.18.45-.54.84-.49 1.38-.43.71-1.26.91-1.86 1.42-1.14 1.27.08 2.21.47 3.27.79.78.06 2.06.92 2.82v-.06.46c-.71.44-1.39.9-1.41 1.86-.3.15-.53.36-.3.69.07.12.26 0 .32-.18A2.26 2.26 0 0089 145.3h1.86a.84.84 0 00.89.64c0-.36 0-.73.07-1.09a3.36 3.36 0 001.36-1.46c0-.3 0-.6.07-.91a1.73 1.73 0 001.86-.94 3.11 3.11 0 00.43 0c1 .06 1.84-.15 1.88-1.4l.94-.47a1.59 1.59 0 00.93 1c0 .38 0 .75.46.92v.93a.61.61 0 00-.44.49v.45l-.46.47a3.39 3.39 0 01-.45 0v-.44-.49c0-.16.37-.49.11-.81-2 .92-2.17 1.3-1.52 3.18.2.45.55.85.49 1.39 0 .22.09.43.21 1 .54-.89 1.66-.79 1.67-1.92l.48-.48a3.15 3.15 0 001.28-.87 5.61 5.61 0 01-.37-1.94 1.85 1.85 0 000-.47v-.47a.59.59 0 00-.46-.47v-1.39-.51.11l.93.35.93.54c1.18 1.31 2.15 2.83 3.76 3.7-.3.72-.89 1.43.07 2.37.31-.87.58-1.6.85-2.34.77-.14 1.14.33 1.44.91l1.84 1.42a.55.55 0 00.47-.46v-.48l.53-.86c1.23.31.47 1.77 1.31 2.3a1.08 1.08 0 000 .44 2.63 2.63 0 00.89 2.36l-.83 1.39a8.6 8.6 0 013.22-.49h.42c.7.66 1.45.46 2.26.24.06-.61.12-1.12.17-1.63a.84.84 0 00.9-1 1 1 0 00.49-.91 2.78 2.78 0 011.86.45c1.6-.23 1.15 1.09 1.41 1.87-.18.54-.79 1-.12 1.77.26 0 .63.08 1 .09a3.53 3.53 0 00.92-.05c1.32-.3 1.5-.72 1-2.28 0-.5.83-.67.6-1.34-1.13-.23-1.07.84-1.52 1.33h-.92a3.5 3.5 0 01-.48-2.32 1.9 1.9 0 000-.41 1 1 0 00.44-.95c.47-.24 1 .52 1.42 0 .66-.07 1.2-.28 1.25-1.09l-2.65-1.33a.54.54 0 00-.51-.39c-.48-.38-1.42-.62-.46-1.46.52 0 1.08.13 1.46-.4a2.45 2.45 0 00.85-1.88c0-.39 0-.8.5-1a.62.62 0 00.48-.47 1.5 1.5 0 00.93-.91c.15-.17.3-.33.44-.5a1.05 1.05 0 001-.44c1 .11 1-1.18 1.78-1.34a1 1 0 00.55.86 1.81 1.81 0 002.39.09 1.55 1.55 0 00.44-.1c.93 0 1 .87 1.4 1.43a5.85 5.85 0 01-.35 2.71 1 1 0 00.57 1.35c.64.27 1-.25 1.21-.76.85-.26 1.94-.31 1.76-1.71-.88 0-1.06.92-1.77.75-1.25-.76-.33-1.86-.44-2.79.67-.52.38-1.24.41-1.89.49-.53.06-1.3.51-1.84 1.25-.12 2.57.25 3.73-.51.63.31.43.9.47 1.41h.5c.63.31-.34 1.08.62 1.42a3.78 3.78 0 002.63-.46c.58-.13 1.06.58 1.82.12a3.38 3.38 0 01.52-2 .52.52 0 00.45-.46v-.47a.91.91 0 00-.45-1v-.41c.6-1.07 1.08-2.13-.48-2.84-.72-.47-.41-1.19-.45-1.82a2.28 2.28 0 00.45 0 .52.52 0 00.44-.48l-.43-.47v-.45c.72-.49.37-1.24.47-1.88.69-1.66-.4-2.89-1-4.22a1.57 1.57 0 011-1.45l.9.06.46.6a.88.88 0 001 .8h.91c.31 1.83.31 1.83 1.65 1.23l-1.19-2.2v-.88c.32-.61.91-.47 1.43-.53.93.25 1.08.15 1.42-.9-.17-.45-.55-.48-.94-.47-.44-.17-.47-.55-.48-.94v-.45c.57.15 1.13.87 1.84-.06-.35-.39-.3-1.06-.92-1.37a2.37 2.37 0 010-2.8c1.18.24 2.33.79 3.56.27a3.13 3.13 0 00.64-1.68 6.4 6.4 0 001.46-2.8c1-.14 1.77.66 2.75.49a.77.77 0 001.2.26 1 1 0 00-.7-.77 3.18 3.18 0 01.06-.43h.87c.56 0 1.26.19 1.33-.68 0-.57-.4-.7-.88-.71s-.93.3-1.39.44a.58.58 0 00-.48-.42c-.14-.44-.51-.47-.88-.49v-.9h.93c.2.35.49.58.79.17.19-.26 0-.51-.32-.63h-.45V100c0-.3 0-.6.07-.9.27-.06.78 0 .61-.4-.27-.71-.73-.2-1.11 0h-1.87a2.38 2.38 0 00-1.43-.47c-.56-.68.32-1.29.1-2 .79-.23 1.67-.23 2.28-.9.51 0 1.08.11 1.41-.46h-.05v.06c.7.12 1.3-.3 1.95-.36.54.29.27 1 .82 1.29a1.2 1.2 0 001 .87c.52 0 1.05.13 1.4-.39.11-.19.35-.39.32-.55-.27-1.91-.28-1.91 1.53-2.36a1.35 1.35 0 00.91-.83 3.1 3.1 0 011.41-.52h.9a1 1 0 001 .48c.21 1 .65 1.28 1.43.44a.55.55 0 00.44-.48 2.91 2.91 0 00.43-.43 1.61 1.61 0 00.07-.43l.91-.53c.2.38.47.3.65 0 .56-.84-.11-1.13-.7-1.43l.07-.91c.92-.77.29-1.56 0-2.34.49-.64 1.52 0 1.8-.53.71-1.3 1.56-.48 2.37-.37.24.39.47.91 1 .55s.44-.9-.11-1.25zm-6 5.56a.56.56 0 00.1-.52h.1a.71.71 0 000 .46zm-87.25-79.1zM15.46 58.65a.43.43 0 000 .07l-.06-.08zM28.78 24v.06zm115.29 102l-.16-.1c.16-.16.32-.33.49-.49a1.67 1.67 0 00-.05.59zm-20.81 7.47h-.07zM92.35 132zM36.54 24s-.05 0-.06-.06zm90.73 19.57zm4.31 3.81v.07h-.05s.04-.1.05-.12zM173.75 78zM29.55 33.31zm126 61h-.07.07zM39.84 105.89h-.12.13zm4.66-77.23h.06zm115.16 56.75zm-14.61 25.23h.08v.08zM38.89 93.78zm0 0zM22 48.36v.06zm142.54 29.09zm-43.29 44.07l-.07-.11h.13zm-4.62-2zm-32.31-2.14v-.15a.33.33 0 000 .16zM46.39 89.55zm53.28 36.31h-.22a1.41 1.41 0 01.22 0zm-14.5-14.63v-.14h.12c-.07.06-.1.1-.12.14zm38 1.75zm-15.9 2.36v.06a.46.46 0 00-.07-.07zM56.13 48.27h.08l.1.07c-.04.12-.31-.07-.18-.07zm98 31.45h.06-.06zM45 46zm36 1.37v.06h-.1zm29.13 0h-.09v-.09zm-61.92 22v.09h-.08.08zm105.86 3.3zm-19.66 29.53zm-83.82-29h-.05l.05-.06zm43.09-29.55zM128.6 88h-.08c-.17-.15.08-.11.08 0zm-17.6.25h-.06.06v-.03zM75.1 73.78h-.16v-.11zm6.69 2.66H82v.06zm20.12 19.61a2.73 2.73 0 010-.41h.17a.93.93 0 01-.17.41zm27.36-8.36zm-21.07-13.6zm-4.14 9.28A1.8 1.8 0 01104 83a2.94 2.94 0 00.48.1 4 4 0 01-.42.27zm-4.17 17v.08a.36.36 0 000-.09zM98.36 77v-.1h.1zm0-.5v-.07zm-28.1-.5l-.05.1V76zm66 18.26zm-6.09-11.7v-.06h.07zM103.51 78h.06zm-5.15-2zm-18.27-5.65v-.06zM56.19 68zm-3.73.94zm28.6 16zm46.34 12.15zM99.3 75s.01 0 0 0zm-19.21-5.59v-.09a1.08 1.08 0 00.18 0 1 1 0 01-.18.09zm-11.71 8.43zM137 88.74l.18.11a2.81 2.81 0 000 .29c-.04-.14-.1-.26-.18-.4zm4.42-1.53zM59 64.73zm4.18 9.8a.43.43 0 00.02 0zm35.65 27.67zm16.38 4.68v.05a.1.1 0 000-.05zm21.09-7zm-14.52-23.44v-.07zM119 74.56zm-57.21-7.88v-.08h.06s-.05.05-.06.08zM47.31 56.3a.57.57 0 00-.13.08v-.08zm-1.88 3.28zm4.21 15v-.05zm52-2.31zM96.33 48.8a1.16 1.16 0 01-.62-.18c.21.06.42.1.64.15zm-19 .19v-.19c0 .08.1.14.14.22zm-10.82 13.3v.1h-.06zM49.18 75zM111 112zm4.68-4.68zm17.23-4.27h.09v.05zM66.77 57.2a.56.56 0 01-.33-.09zm-2.55 31.87a2.12 2.12 0 01.12.2.77.77 0 01-.17-.19zm34.61-41.2zm1-3.75zm-29.57 9.37a.71.71 0 010-.2 1.75 1.75 0 01.16.2zm-21.09 29zm8-3.72l-.15.14a1 1 0 00.16-.12l-.04-.02zm9.79 13.12zm16 9.37h-.11l.09-.05a.17.17 0 00-.04.05zm60-6.09h-.09zm-40.85-50.59zM82 47.69a.75.75 0 01-.26.47s.11-.33.26-.47zm-1.39-.29zM70.72 51v.14s-.1 0-.16-.09zM51.05 81.59zm64.17 29zm13.12-5.16zM148.92 91zm7.52-16.88zM119.9 65.2v-.07h.1zm-19.2-20.61v-.14h.12zm-15-9.38zm-19.2 16.4l.06-.12a.22.22 0 01.05.08zm-20.61 0zm1.87 18.32h-.06zm67.45 41.22s0 .05.09.07l-.11.08v-.15zm12.63-4.7zm21.56-13.1zM137.7 76zm-47-43.08a.75.75 0 01-.22 0h.22zM67.91 48.8zm-19.2-8.9v.1s-.06-.05-.09-.06zM40.28 53v.07zm12.65 26.71a.23.23 0 01-.14-.13l.14.13zm12 16.47c.25-.03.07.15.01 0zM115.68 113zm13.11-6.08zm9.38-1.43v-.07l.09.07zM162.07 61zM103 40.79v-.42a.8.8 0 01.48.74zm-57.57 1.46zm-7 9.36h-.09.09zm11.67 35.1zm75.9 29.13zM138.61 105v.06zm12.67-14.4zm-.06-.09zm10.37-28.12zm-8.1-4.21h.14l-.19.15a1.42 1.42 0 01.05-.17zM148 68.94v.08h-.07zM43.56 50.68a1.83 1.83 0 01-.56-.27h.49c.02.09.04.18.07.27zM30.91 54a.18.18 0 00-.07 0zm.48 0zm12.17 30zM67 107.82zM151.28 91zm10.77-22.39zm-23-3.81s.05-.06.05-.05zm-10.77-2.83v-.15l.15.09zm-22.48-30v-.05zm-3.8-6.68h.07v.1zM39.79 75s-.01 0 0 0zm2.83 5.19v.06a.21.21 0 000-.06h.07zM67 107.33zM70.66 119h.06s-.05.06-.06 0zm.06 0l-.06-.12a.13.13 0 010-.1.42.42 0 00.06.18s.01.04 0 .1zm37.48.46h.11a.6.6 0 00-.11.06zm.45 0zm56.09-56.67h.07v.07zm.13-.48zM148 65.18zm-8.9-1.86a.64.64 0 010-.2h.18c-.07.09-.11.15-.17.2zM30.44 52.54zm64.17 64.65zm1 4.23zm2.75 2.32zm59.48-71.18v-.08h.2zm-52-31.38zM43.56 39.44zm-2.73 3.22c-.17 0-.25-.11-.28-.19zm105.3 58.6a.22.22 0 010-.08.28.28 0 00.11.08zm8.43-12.14zm4.69-39.38zm-53-29.94v.07zM73.2 121.58zm5.4-5.83a.41.41 0 010-.11 1 1 0 00.08.14zm5.7 1.35v.08h-.1s.07-.05.1-.08zM96 120zm20.14 1a.66.66 0 01.45 0zM104.75 19a1.66 1.66 0 01.13-.52c-.04.15-.09.32-.13.52zm-83.7 33.05zm91.37 79.65zm42.15-37.94zm12.2-25.87v.09h-.07zm-.62 4.26zm-.86-12.51zm1-10.37v-.07zm-10.83-.19l.11-.08a.52.52 0 000 .11zm-37.9-16.58v-.09.06zm-2.82-2a.13.13 0 010 .06h-.07zm-30-9.37v.06h-.1a.53.53 0 00.14-.08zM44.63 33.64l-.16.23a1 1 0 00-.1-.18zm-20.71 16a.31.31 0 010 .1h-.08a.29.29 0 01.08-.1zm9.33 13.69zm30.92 54.32zm31.37 13.13zm19.87-1.27v.22a1.79 1.79 0 000-.22zm31.18-18.43v-.09a.32.32 0 000 .09zM99.33 10.9zm-7.06-2.38v.09s-.02-.07 0-.09zm-15 19.15v.06h-.06zm-27.16.16h.05-.05zm-10.3 67.34zM54.32 98zm13.59 24.35zm14.07-7v.08zm65.55-3.3zm17.37-33.21v-.07a.14.14 0 000 .07zm-43.59-39.4h.06v.06zM83.37 16h.09v.06zM54.8 27.73zm-19.19.48zm-7.5 11.22zm6.55 34.21zm3.28 18.72zm16.86 8zm103.51-13.15zM170 73.66zm-2.81-14.08zM33.26 68zm30.93 54.86v-.06s.01.05 0 .07zm66.61-.53c0-.07 0-.13.06-.13h.1zm18.2-9.87h.08-.09zm0-.86zm.4-1zm23.45-47.78zM78.68 15.65zm-47.3 5v.08a.35.35 0 01-.05-.08zm-1.88 7zm3.76 49.18zm0 11.71zm0 1a1.05 1.05 0 01-.07.11v-.11zm21 12.12h-.07zm44.5 34.2zm22 .47zm3.52-5.72a1.77 1.77 0 000-.23 1.69 1.69 0 01.08.29zm32.56-30.81zm0-4.69s.06.07.06.06zm-25.23-49.59h-.05v-.06zM101.13 8.88v.11H101a.81.81 0 01.13-.11zm-15.42 4.33h-.06.06zM40.33 24v-.07zM21.52 43.59h-.11zm-.89.08zM43.56 105zm34.19 23.88zm0-.46zm58.08 0zm7-3.75v.08a.21.21 0 01.03-.07zM157.3 99.8v-.06zm-.41-.87zm10.75-12.18h.06v.06a.34.34 0 01-.06-.06zm6.6-2.81zm-24.45-39.36h.09l-.16.11zm-30.88-23.41zm-10.25-8v-.06zm-8.9-7.5zM55.73 17h.07zM20.62 43.21v.18a.59.59 0 000-.17zm10.27 51zm8.94 21.07zM53 121.37zm48.17 11.27zm43.1-4.21l-.12.1a.49.49 0 000-.12zm13.57-25.76v.07a.13.13 0 000-.08zM134 44.58zM80.1 13.69zM61.83 16zm-6.09 0zm-26.28 4.23h.05zm29.05 104.91zm99.86-26.24zm17.06-13.82a.33.33 0 010-.15l.21.32a.31.31 0 01-.21-.17zm-38.22-40.5zM114.8 20l.15.16a.14.14 0 00-.15.09.21.21 0 010-.25zM87.25 8.45a.91.91 0 01-.14.07v-.15zm-15.58 5.69zm-8.41 3.28zm-.51-.42h.08-.06v-.06zM35.6 14.61zM16 65.69zM29.51 76zm24.35 34.19l.12.09h-.12z" fill="#010101"/><path d="M175 95.14c.38 0 .53-.24.5-.6s-.31-.57-.65-.53a.63.63 0 00-.51.67c.02.43.37.46.66.46zM11.82 19.23a.59.59 0 00.76-.76c-.14-.65-.51-.61-.88-.13-.48.38-.53.75.12.89zM100 152.05c.72.58.72.58 1.3-.19-.46.03-.88-.15-1.3.19zM46.09 8.6a.42.42 0 00-.31-.28c-.59 0-.76.32-.63 1 .64.03 1.03-.11.94-.72zM10.78 36.64h2c-.9-.51-1.25-1.38-2-.5-.46.11-1.12-.23-1.27.58.49.52.88.47 1.27-.08zM85.8 135.17c-.1.86 0 1.42 1.12 1.05zM23.77 83.72c-.53.3-.25 1-.82 1.15-.31.08-.63.25-.66.57s.4.33.67.37c.94-.43 1.04-1.15.81-2.09zM174.86 116.3a.4.4 0 00-.45.39c0 .41.31.42.61.44a.4.4 0 00.45-.39c.01-.4-.31-.43-.61-.44zM6.4 66.91c.46-.48.46-.48.06-1.13-.4.38-.46.74-.06 1.13zM131.85 31.9c.58 0 .67-.43.7-.9 0-.27.37-.49 0-.92-.46.3-1.11.31-1.43.92.05.47.14.9.73.9zM52 132.17zM50.39 132.07c.53.88 1.06.3 1.59.1-.5-.6-.98-.75-1.59-.1zM174.88 108.9c0 .08.26.18.35.15.45-.15.43-.49.23-1-.52.16-.7.44-.58.85zM17.19 28.34a.34.34 0 00-.11.55.59.59 0 001 0c-.21-.42-.47-.68-.89-.55zM19.41 88.85c-.23.27 0 .54.26.7h.47c.3-.16.5-.43.26-.7a.63.63 0 00-.99 0zM101.4 153.94c-.31.47-.25.79.12 1a.41.41 0 00.38-.1c.23-.4 0-.66-.5-.9zM23.31 10.21c.11-.14.34-.3.35-.48a.46.46 0 00-.54-.51.62.62 0 00-.42.44c-.02.34.21.52.61.55zM102.87 146.87c-.34.26-.36.61 0 1 .24-.26.65-.36.52-.83a.34.34 0 00-.52-.17zM57.78 144.67a.32.32 0 00.28.47c.42.05.66-.17.66-.62a.6.6 0 00-.94.15zM10.48 78.13a.33.33 0 00.21.51c.44.1.66-.18.76-.58a.63.63 0 00-.97.07zM58.76 132.46c.69.24.66-.33.73-.75a1.38 1.38 0 00-1.19-1.25c-.19.59.15.88.24 1.24-.54.43-.07.66.22.76zM60.42 138.27a24.17 24.17 0 00-3 0c-1 .14-1.08.71-.34 1.38.16.16.33.3.47.47a.62.62 0 00.48.47H59a2.4 2.4 0 01.5-.45 2.09 2.09 0 00.43 0c.8-.48 1.42-.98.49-1.87zM143.8 136.87c0 .38 0 .75.45.93.16.38.33.35.51 0 .84-1.48-.51-.75-.96-.93zM29.27 116c.16.52.44.7.85.58.08 0 .18-.26.15-.35-.15-.5-.49-.47-1-.23zM19.89 18.1c.35-.27.28-.59.06-.92-.39.11-.68.29-.41.74.06.08.3.21.35.18zM129.62 21.51a.66.66 0 001-.35c0-.4 0-.78-.45-.93a.56.56 0 00-.46.47c-.31.23-.54.53-.09.81zM141.27 21c0-.1-.21-.14-.33-.2a.33.33 0 00-.29.44.39.39 0 00.34.19.31.31 0 00.28-.43zM173.16 100c-.09 0-.13.22-.19.31 0 .28.22.38.44.31s.19-.22.19-.33a.32.32 0 00-.44-.29zM140.86 41a.4.4 0 00-.18.33.31.31 0 00.43.29c.1 0 .14-.22.2-.33a.33.33 0 00-.45-.29zM7.83 69.12c-.09 0-.13.22-.2.33a.34.34 0 00.45.29.4.4 0 00.18-.33.31.31 0 00-.43-.29zM18.89 73.77a.32.32 0 00-.45.29.37.37 0 00.18.34c.22.08.4 0 .46-.29s-.08-.31-.19-.34zM162.18 96c-.19.24-.18.53.11.86.4-.23.61-.42.4-.75-.11-.18-.34-.33-.51-.11zM85.8.32c-.68.65-.17.91.37 1.16-.08-.37.25-.85-.37-1.16zM86.17 1.48zM5 65.37a.39.39 0 00-.14.35.3.3 0 00.47.2c.09 0 .11-.23.16-.35a.33.33 0 00-.49-.2zM4.85 62.39a.31.31 0 00.43.29c.1 0 .14-.22.2-.33S5.26 62 5 62.06a.4.4 0 00-.15.33zM186.07 62.21c.1 0 .14-.22.2-.33a.33.33 0 00-.44-.29.38.38 0 00-.19.33.31.31 0 00.43.29zM155.87 114.05c-.23.1-.32.28-.21.49a.44.44 0 00.36.15.32.32 0 00.21-.48c-.05-.09-.23-.11-.36-.16zM46 122.18c.09 0 .13-.22.2-.34s-.23-.37-.45-.29a.39.39 0 00-.19.34.31.31 0 00.44.29zM162.23 124.17a.41.41 0 00.18.34.35.35 0 00.46-.28c-.06-.11-.1-.3-.19-.33a.32.32 0 00-.45.27zM47.27 125.11c-1 0-2 .18-1.7 1.71a4.52 4.52 0 002.22-1.19c.27-.15.47-.4.28-.66s-.58-.19-.8.14zM160.88 126.75c.11.39.29.67.74.4.1-.06.21-.3.18-.35-.27-.35-.59-.28-.92-.05zM46.25 128.08a.43.43 0 00-.19.33.32.32 0 00.45.29c.09 0 .13-.22.2-.34a.33.33 0 00-.46-.28zM52.8 129.85c-.06-.11-.1-.3-.19-.33a.31.31 0 00-.44.27.41.41 0 00.17.34.35.35 0 00.46-.28zM10.37 47.53c-.41-.17-.8-.27-1.16.11.43.29.79.43 1.16-.11zM141.45 133.11zM140.7 133.71a.19.19 0 00.15.15c.58.06.55-.38.6-.75-.37.05-.81.02-.75.6zM143.78 136.85zM142.64 136.85h1.14c-.63-.68-.64-.68-1.14 0zM85.24 142.94c-.54.43-1.65.45-1.24 1.71l1.25-.78c.39-.18.9-.33.63-.92-.13-.29-.42-.45-.64-.01zM63.87 149a.41.41 0 00.18.34.34.34 0 00.47-.28c-.06-.12-.1-.32-.19-.35a.33.33 0 00-.46.29zM93.45 148.78a.64.64 0 00-.43.4c-.07.26.2.31.41.31s.42 0 .44-.23-.23-.5-.42-.48zM62 152.24a.42.42 0 00.14.36.33.33 0 00.5-.19c0-.13-.06-.32-.15-.37a.32.32 0 00-.49.2zM184.56 82.5c-.07-.64-.25-1.19-1.15-1.28-.74.68-1.42 1.39-1 2.53 1.06.47 1.42-.57 2.12-.74.24.37.61.57.77.06s-.38-.5-.74-.57zM179.88 68.5h.9c.71 1 .71 1 1.62.07a1 1 0 00-1.15-.55c-1.1.3-.67-1.3-1.72-1.28-.59.65-1 1.34-.13 2.21a.59.59 0 00.48-.45zM172.64 115.06c.28.32.55.35.82 0a.56.56 0 00-.82 0zM155.87 112c-.16.17-.16.37.12.41.1 0 .22-.12.33-.19l-.09-.38c-.12.03-.23.05-.36.16zM181.25 80.19c-.13-.39-.29-.4-.47 0-.27.14-.56.44-.23.62s.59-.26.7-.62zM3.67 70.62c-.15-.07-.28 0-.29.16a.43.43 0 00.17.35c.09.05.33 0 .36 0 .09-.26-.06-.4-.24-.51zM19.87 31.14a.39.39 0 00-.45-.34s-.12.25-.09.35a.42.42 0 00.32.2c.07.01.15-.14.22-.21zM171.72 47.09c-.4.29-.2.58.16.78a.57.57 0 00.48-.47c-.13-.29-.36-.5-.64-.31zM39.64 131.44a.35.35 0 00.29.44c.06 0 .18-.12.27-.18-.06-.12-.1-.3-.19-.34a.38.38 0 00-.37.08zM21.78 96.37c.07.12.11.27.22.34a.35.35 0 00.32 0c.1-.21 0-.37-.22-.46zM21.65 18.82a.5.5 0 00.19.34c.09.05.34 0 .36-.07.07-.23-.09-.37-.29-.46-.09.06-.26.13-.26.19zM10.68 74.49c-.06-.18-.18-.23-.33-.11s-.25.22-.24.32c0 .27.25.27.42.15s.1-.23.15-.36zM140.25 44c-.07-.1-.14-.27-.2-.26a.46.46 0 00-.34.18c-.05.09 0 .34.07.36.22.09.37-.07.47-.28zM128.65 139.84c.19-.26 0-.51-.3-.66s-.4-.48-.66-.29-.19.59.16.8.51.55.8.15zM16.55 71.75c.13-.13.1-.28-.06-.33a.31.31 0 00-.44.26c0 .09.11.2.17.3a1.5 1.5 0 00.33-.23zM163.59 97.66a.48.48 0 00.32.2c.07 0 .15-.15.27-.27l-.5-.3c-.03.12-.12.27-.09.37zM19 94.13c0 .11.15.22.26.3s.25 0 .3-.15-.08-.3-.18-.36-.38-.09-.38.21zM11.44 72c-.13.16-.15.38.12.43.09 0 .21-.14.31-.21s.11-.3-.08-.34a.4.4 0 00-.35.12zM53.74 6.38c.1 0 .21-.16.3-.23s.06-.32-.12-.34a.45.45 0 00-.35.16c-.11.18-.11.41.17.41zM65.65 150.08l-.3.18a1.38 1.38 0 00.22.35c.14.12.29.09.34-.07a.34.34 0 00-.26-.46zM80.72 152.21a.3.3 0 00.22.46c.1 0 .23-.09.34-.14-.07-.12-.12-.28-.23-.35a.37.37 0 00-.33.03zM15.91 73.62c-.8.81-.11.85.48.94v-.47a1.82 1.82 0 00-.14-.64c-.07-.12-.25-.01-.34.17zM171.05 118.68s.08.1.13.14l.16-.31-.13-.15a1.59 1.59 0 00-.16.32zM174.94 55.61a2 2 0 00-.33-.16s-.09.08-.14.13l.32.17zM25.85 107s.08.1.13.14.11-.21.17-.32l-.14-.14c-.01.08-.12.18-.16.32zM166.17 101.37a2.42 2.42 0 00-.12-.35c-.05 0-.15.1-.15.13a1.4 1.4 0 00.13.34c.05-.04.15-.09.14-.12zM44.61 122.44a2.42 2.42 0 00-.35.12s.1.15.13.15a2.37 2.37 0 00.34-.13s-.09-.15-.12-.14zM31 109.57a2.06 2.06 0 00.12.35c.05 0 .16-.09.15-.12a2.42 2.42 0 00-.12-.35c-.04.04-.15.09-.15.12zM164 125.25a2 2 0 00-.34.12s.09.15.12.15a2 2 0 00.34-.13s-.05-.15-.12-.14zM132.91 38.4a2 2 0 00.34-.12c0-.05-.09-.16-.12-.15a2 2 0 00-.34.12s.09.15.12.15zM36.77 126.32c0 .05.1.15.13.14a2 2 0 00.34-.14l-.14-.15zM135.37 37.1c.38-.16.39-.33 0-.5-.33-.51-.64-.54-.92 0a2.94 2.94 0 000 .42c.28.64.55.59.92.08zM5.84 50c.06-.1.11-.21.17-.32l-.14-.14a1.91 1.91 0 00-.16.32s.08.07.13.14zM44.59 127.39a1.92 1.92 0 00.14.33l.15-.13-.15-.33s-.15.1-.14.13zM29 82.91l-.14-.15a3.36 3.36 0 00-.16.33s.08.09.13.14c.02-.11.07-.23.17-.32zM34.9 130.54c.05.05.1.14.13.14a2 2 0 00.33-.15l-.13-.14zM3.39 66.7a1.4 1.4 0 00-.34.13s.09.15.12.14a2 2 0 00.34-.12s-.09-.15-.12-.15zM24.59 99.14l.33.17.15-.14a1.66 1.66 0 00-.33-.16s-.1.08-.15.13zM12.88 76.21c-.05.05-.15.1-.14.13a1.92 1.92 0 00.14.33l.15-.13zM152.59 23.15a2.42 2.42 0 00-.12-.35c-.06.05-.16.1-.15.13a2.42 2.42 0 00.12.35c.06-.05.16-.1.15-.13zM158.21 22.69a1.55 1.55 0 00-.13-.36c-.05 0-.16.1-.15.13s.09.24.13.36c.06-.04.16-.1.15-.13zM179.39 60c.08.54 0 1.26.93.93a4.51 4.51 0 001.43-2.33c.38-.25.55-.63 0-.77s-.48.41-.53.77c-.8 1.25-1.47-.3-2.3-.14l.41 1.06c-.33.21-.33.38.06.48zM52.57 135.55a1.66 1.66 0 00-.35.13c.05 0 .1.15.13.14a2 2 0 00.34-.12s-.09-.15-.12-.15zM137.94 135.67c0 .06.09.16.12.15a2.42 2.42 0 00.35-.12c0-.06-.1-.16-.13-.15a2 2 0 00-.34.12zM131.06 136.3l-.13-.14a1.37 1.37 0 00-.16.32s.08.1.13.15zM187.82 64.73a1.9 1.9 0 00-2.14-.51c.23.7.8.72 1.21 1 .39-.01.77-.04.93-.49zM16.75 17.79a2 2 0 00.34-.12c0-.06-.09-.16-.12-.15a2 2 0 00-.34.12c.04.06.09.16.12.15zM133.56 137l.15.15.18-.34-.15-.16a2.91 2.91 0 00-.18.35zM51.64 138.36a2.06 2.06 0 00-.35.12c0 .05.09.15.12.15a2.42 2.42 0 00.35-.12s-.09-.15-.12-.15zM45.2 14.39c0-.05-.09-.16-.12-.15a1.66 1.66 0 00-.35.13c0 .05.1.15.13.14a2.3 2.3 0 00.34-.12zM131.61 140.13c-.42.18-1 .45-.61.93.57.7.85 0 1.1-.44.45-.78-.28-.38-.49-.49zM18.36 90.58s.08.09.13.14.11-.21.16-.32l-.13-.14a1.37 1.37 0 00-.16.32zM38.32 11.42a1.68 1.68 0 00-.15-.34c-.05.05-.14.11-.14.14a2.07 2.07 0 00.15.34c.05-.05.15-.11.14-.14zM182.77 77.73a2.42 2.42 0 00.12.35l.16-.13c-.05-.11-.09-.23-.14-.34-.05.04-.15.09-.14.12zM67.68 144.59s.11.14.14.14a1.61 1.61 0 00.33-.15l-.14-.14zM77.75 6.65zM78 7.28c.21-.36 0-.5-.29-.63.1.22-.07.55.29.63zM61 149.14a1.38 1.38 0 00-.34.12c0 .05.09.15.12.14a2 2 0 00.34-.12c-.04-.05-.12-.15-.12-.14z" fill="#010101"/><path d="M77.75 6.65c-.14-.26-.28-.5-.64-.29.08.4.41.23.64.29zM16 89.17a1.47 1.47 0 00-.34.15c0 .05.1.14.13.13a1.43 1.43 0 00.34-.14s-.06-.15-.13-.14zM87.21 151s.08.1.13.14l.17-.32-.14-.15a1.66 1.66 0 00-.16.33zM103.15 151.47a1.66 1.66 0 00-.35.13c0 .05.1.15.13.15a2.48 2.48 0 00.35-.13c-.05-.05-.1-.16-.13-.15zM109.71 154.75a2.06 2.06 0 00-.35.12c0 .06.09.16.12.15a1.45 1.45 0 00.35-.12c-.04-.05-.09-.15-.12-.15zM162.52 116.71c0-.44.13-.95-.38-1.27L160 116c.07.46.14.84.2 1.22a1.08 1.08 0 001.87 0c.14-.22.28-.36.45-.51zM33.26 119.07c-.29 0-.58-.51-.86 0 .12.49.51.42.86.45.41-.16.39-.31 0-.45zM187.36 66.61c-.51.26-.59.64-.3 1.19a1 1 0 00.75-.74.51.51 0 00-.45-.45zM47.77 9.45c.52 0 1.09.18 1.42-.44.49-.32.53-.64 0-.95-.47-.63-.94-.62-1.4 0a.53.53 0 00-.45.46v.47a.52.52 0 00.43.46zM55.27 12.27zM13.41 19.98l-.11-.02.04.12.07-.1zM175.59 91.9c-.14.14-.28.29-.43.43a.47.47 0 00.43-.43zM182.69 73.65c.4-.21.43-.58.41-1a4.72 4.72 0 000-1.3c-.15-.6-.53-.58-.91-.13-.77-.53-1.55.21-2.32 0-.34-.61-.62 0-.94 0s-.83-.24-1.18.45h1.18a.51.51 0 00.47.41c.6.07 1 .35.92 1-.36.07-.85 0-.8.56.12 1.2.72 1.41 2.21.85l.48-.46z" fill="#010101"/></svg>