<svg data-name="Layer 1" xmlns="http://www.w3.org/2000/svg" viewBox="0 0 328.43 303.5"><path d="M132.3 3.67s-.01 0 0 0zM141.12 3.67s-.01 0 0 0zM149.94 3.67s-.01 0 0 0zM158.76 3.67s-.01 0 0 0zM167.58 3.67zM176.4 3.67zM97 12.49zM105.85 12.49zM114.67 12.49zM123.49 12.49z" fill="#231f20"/><circle cx="132.3" cy="12.46" r=".05" fill="#231f20"/><circle cx="141.12" cy="12.46" r=".05" fill="#231f20"/><path d="M149.94 12.51h.05a.05.05 0 10-.1 0h.05z" fill="#231f20"/><circle cx="158.76" cy="12.46" r=".05" fill="#231f20"/><circle cx="167.58" cy="12.46" r=".05" fill="#231f20"/><circle cx="176.4" cy="12.46" r=".05" fill="#231f20"/><path d="M185.22 12.49zM194 12.49zM202.85 12.49s-.01 0 0 0zM79.39 21.31s-.01 0 0 0zM88.21 21.31s-.01 0 0 0zM97 21.33v-.1.1zM105.85 21.33a.05.05 0 100-.1v.1zM114.67 21.36a.08.08 0 00.07-.08.07.07 0 00-.07-.07.08.08 0 00-.08.07.09.09 0 00.08.08zM123.49 21.38a.09.09 0 00.09-.1.1.2 0 00-.09-.1.1.2 0 00-.1.1.29.09 0 00.1.2zM132.3 21.4a.12.12 0 100-.24.12.12 0 000 .24zM141.12 21.4a.12.12 0 100-.24.12.12 0 000 .24zM149.94 21.4a.12.12 0 10-.12-.12.12.12 0 00.12.12zM158.76 21.4a.12.12 0 10-.12-.12.12.12 0 00.12.12zM167.58 21.4a.12.12 0 10-.12-.12.12.12 0 00.12.12zM176.4 21.38a.1.1 0 00.1-.1.11.11 0 00-.1-.1.1.2 0 00-.1.1.29.09 0 00.1.2zM185.22 21.36a.08.08 0 00.07-.08.07.07 0 00-.07-.07.08.08 0 00-.08.07.09.09 0 00.08.08zM194 21.36a.08.08 0 00.08-.08.07.07 0 00-.08-.07.07.07 0 00-.07.07.08.08 0 00.07.08zM202.85 21.33a.05.05 0 000-.1v.1zM211.67 21.31s-.01 0 0 0zM220.49 21.31s-.01 0 0 0zM61.75 30.13s-.01 0 0 0zM70.57 30.13s-.01 0 0 0zM79.39 30.15v-.1a.05.05 0 000 .1zM88.21 30.17a.07.07 0 10-.07-.07.07.07 0 00.07.07z" fill="#231f20"/><circle cx="97.03" cy="30.1" r=".1" fill="#231f20"/><circle cx="105.85" cy="30.1" r=".12" fill="#231f20"/><path d="M114.67 30.27a.17.17 0 00.17-.17.18.18 0 00-.17-.17.17.17 0 00-.17.17.16.16 0 00.17.17zM123.49 30.3a.2.2 0 10-.2-.2.2.2 0 00.2.2z" fill="#231f20"/><circle cx="132.3" cy="30.1" r=".22" fill="#231f20"/><path d="M141.12 30.35a.25.25 0 100-.49.25.25 0 000 .49zM149.94 30.35a.25.25 0 100-.49.25.25 0 000 .49zM158.76 30.35a.24.24 0 00.24-.25.24.24 0 00-.48 0 .24.24 0 00.24.25z" fill="#231f20"/><circle cx="167.58" cy="30.1" r=".22" fill="#231f20"/><path d="M176.4 30.3a.2.2 0 000-.4.2.2 0 100 .4z" fill="#231f20"/><circle cx="185.22" cy="30.1" r=".17" fill="#231f20"/><path d="M194 30.25a.15.15 0 000-.3.15.15 0 000 .3z" fill="#231f20"/><circle cx="202.85" cy="30.1" r=".1" fill="#231f20"/><circle cx="211.67" cy="30.1" r=".07" fill="#231f20"/><circle cx="220.49" cy="30.1" r=".05" fill="#231f20"/><path d="M229.31 30.13zM238.13 30.13zM52.94 38.94s-.02 0 0 0z" fill="#231f20"/><circle cx="61.75" cy="38.92" r=".02" fill="#231f20"/><circle cx="70.57" cy="38.92" r=".05" fill="#231f20"/><path d="M79.39 39a.1.1 0 000-.2.1.1 0 000 .2zM88.21 39.07a.15.15 0 10-.15-.15.15.15 0 00.15.15zM97 39.11a.19.19 0 00.2-.19.2.2 0 10-.4 0 .19.19 0 00.2.19z" fill="#231f20"/><circle cx="105.85" cy="38.92" r=".27" fill="#231f20"/><path d="M114.67 39.24a.32.32 0 00.31-.32.32.32 0 10-.63 0 .32.32 0 00.32.32zM123.49 39.29a.37.37 0 10-.37-.37.37.37 0 00.37.37z" fill="#231f20"/><circle cx="132.3" cy="38.92" r=".42" fill="#231f20"/><circle cx="141.12" cy="38.92" r=".44" fill="#231f20"/><path d="M149.94 39.36a.44.44 0 10-.44-.44.44.44 0 00.44.44z" fill="#231f20"/><circle cx="158.76" cy="38.92" r=".44" fill="#231f20"/><path d="M167.58 39.33a.41.41 0 00.41-.41.41.41 0 00-.41-.42.42.42 0 00-.42.42.41.41 0 00.42.41zM176.4 39.29a.37.37 0 10-.37-.37.37.37 0 00.37.37zM185.22 39.24a.32.32 0 00.31-.32.32.32 0 10-.63 0 .32.32 0 00.32.32zM194 39.19a.27.27 0 10-.26-.27.27.27 0 00.26.27zM202.85 39.11a.19.19 0 00.2-.19.2.2 0 10-.39 0 .19.19 0 00.19.19zM211.67 39.07a.15.15 0 000-.3.15.15 0 000 .3zM220.49 39a.1.1 0 10-.1-.1.11.11 0 00.1.2zM229.31 39a.07.07 0 10-.07-.07.07.07 0 00.07.07zM238.13 38.94s-.02 0 0 0zM247 38.94s-.07 0 0 0zM44.12 47.76s-.02 0 0 0zM52.94 47.76s-.02 0 0 0zM61.75 47.81a.07.07 0 00.08-.07.08.08 0 00-.08-.08.08.08 0 00-.07.08.07.07 0 00.07.07z" fill="#231f20"/><circle cx="70.57" cy="47.74" r=".12" fill="#231f20"/><path d="M79.39 47.93a.19.19 0 00.2-.19.2.2 0 00-.2-.2.19.19 0 00-.19.2.18.18 0 00.19.19z" fill="#231f20"/><circle cx="88.21" cy="47.74" r=".27" fill="#231f20"/><circle cx="97.03" cy="47.74" r=".34" fill="#231f20"/><circle cx="105.85" cy="47.74" r=".44" fill="#231f20"/><path d="M114.67 48.28a.54.54 0 10-.54-.54.54.54 0 00.54.54z" fill="#231f20"/><circle cx="123.49" cy="47.74" r=".61" fill="#231f20"/><circle cx="132.3" cy="47.74" r=".66" fill="#231f20"/><path d="M141.12 48.45a.71.71 0 10-.71-.71.71.71 0 00.71.71zM149.94 48.47a.74.74 0 000-1.47.74.74 0 000 1.47zM158.76 48.45a.71.71 0 10-.71-.71.71.71 0 00.71.71zM167.58 48.42a.67.67 0 00.68-.68.68.68 0 00-.68-.69.69.69 0 00-.69.69.68.68 0 00.69.68z" fill="#231f20"/><circle cx="176.4" cy="47.74" r=".61" fill="#231f20"/><path d="M185.22 48.28a.54.54 0 10-.54-.54.54.54 0 00.54.54z" fill="#231f20"/><circle cx="194.03" cy="47.74" r=".44" fill="#231f20"/><path d="M202.85 48.1a.36.36 0 00.37-.36.37.37 0 10-.73 0 .36.36 0 00.36.36z" fill="#231f20"/><circle cx="211.67" cy="47.74" r=".27" fill="#231f20"/><path d="M220.49 47.93a.19.19 0 00.2-.19.2.2 0 10-.4 0 .19.19 0 00.2.19zM229.31 47.86a.12.12 0 10-.12-.12.12.12 0 00.12.12zM238.13 47.81a.07.07 0 00.07-.07.08.08 0 00-.07-.08.09.09 0 00-.08.08.08.08 0 00.08.07z" fill="#231f20"/><circle cx="246.95" cy="47.74" r=".05" fill="#231f20"/><path d="M255.76 47.76zM35.3 56.58zM44.12 56.58s-.02 0 0 0zM52.94 56.63a.07.07 0 00.07-.07.08.08 0 00-.07-.08.09.09 0 00-.08.08.08.08 0 00.08.07zM61.75 56.68a.13.13 0 00.13-.12.13.13 0 00-.13-.13.13.13 0 00-.12.13.13.13 0 00.12.12zM70.57 56.78a.22.22 0 00.22-.22.21.21 0 00-.22-.22.22.22 0 00-.22.22.22.22 0 00.22.22zM79.39 56.87a.32.32 0 100-.63.32.32 0 100 .63zM88.21 57a.41.41 0 00.42-.41.42.42 0 00-.42-.42.41.41 0 00-.41.42.41.41 0 00.41.41zM97 57.12a.56.56 0 00.56-.56.56.56 0 10-1.12 0 .56.56 0 00.56.56zM105.85 57.24a.69.69 0 000-1.37.69.69 0 100 1.37zM114.67 57.39a.83.83 0 10-.83-.83.83.83 0 00.83.83zM123.49 57.49a.93.93 0 10-.93-.93.93.93 0 00.93.93zM132.3 57.58a1 1 0 10-1-1 1 1 0 001 1zM141.12 57.63a1.08 1.08 0 10-1.07-1.07 1.07 1.07 0 001.07 1.07zM149.94 57.66a1.1 1.1 0 10-1.1-1.1 1.1 1.1 0 001.1 1.1zM158.76 57.63a1.08 1.08 0 10-1.08-1.07 1.08 1.08 0 001.08 1.07zM167.58 57.58a1 1 0 10-1-1 1 1 0 001 1zM176.4 57.51a1 1 0 10-1-.95 1 1 0 001 .95zM185.22 57.39a.83.83 0 100-1.66.83.83 0 100 1.66zM194 57.27a.71.71 0 100-1.42.71.71 0 000 1.42zM202.85 57.12a.57.57 0 00.57-.56.58.58 0 00-.57-.57.57.57 0 00-.56.57.56.56 0 00.56.56zM211.67 57a.44.44 0 00.44-.44.44.44 0 10-.88 0 .44.44 0 00.44.44zM220.49 56.87a.32.32 0 10-.32-.31.31.31 0 00.32.31zM229.31 56.78a.22.22 0 00.22-.22.22.22 0 00-.44 0 .22.22 0 00.22.22zM238.13 56.7a.14.14 0 00.14-.14.15.15 0 00-.14-.15.15.15 0 00-.15.15.15.15 0 00.15.14zM247 56.63a.07.07 0 00.07-.07.08.08 0 00-.07-.08.09.09 0 00-.08.08.08.08 0 00.08.07zM255.76 56.61a.05.05 0 00.05 0l-.05-.05v.05s-.02 0 0 0zM264.58 56.58zM26.48 65.4zM35.3 65.4s-.01 0 0 0zM44.12 65.45a.07.07 0 00.07-.07.07.07 0 00-.07-.08.08.08 0 00-.08.08.08.08 0 00.08.07z" fill="#231f20"/><circle cx="52.94" cy="65.38" r=".12" fill="#231f20"/><circle cx="61.75" cy="65.38" r=".22" fill="#231f20"/><circle cx="70.57" cy="65.38" r=".34" fill="#231f20"/><path d="M79.39 65.86a.48.48 0 00.49-.48.49.49 0 10-1 0 .48.48 0 00.51.48z" fill="#231f20"/><circle cx="88.21" cy="65.38" r=".66" fill="#231f20"/><circle cx="97.03" cy="65.38" r=".83" fill="#231f20"/><path d="M105.85 66.4a1 1 0 10-1-1 1 1 0 001 1zM114.67 66.57a1.2 1.2 0 10-1.2-1.19 1.19 1.19 0 001.2 1.19zM123.49 66.74a1.37 1.37 0 10-1.37-1.36 1.36 1.36 0 001.37 1.36zM132.3 66.87a1.5 1.5 0 10-1.49-1.49 1.5 1.5 0 001.49 1.49zM141.12 67a1.59 1.59 0 10-1.59-1.58 1.59 1.59 0 001.59 1.58zM149.94 67a1.62 1.62 0 10-1.61-1.61 1.62 1.62 0 001.61 1.61zM158.76 67a1.59 1.59 0 10-1.59-1.58 1.59 1.59 0 001.59 1.58zM167.58 66.87a1.5 1.5 0 10-1.49-1.49 1.49 1.49 0 001.49 1.49zM176.4 66.74a1.37 1.37 0 10-1.4-1.36 1.37 1.37 0 001.4 1.36zM185.22 66.6a1.23 1.23 0 10-1.22-1.22 1.22 1.22 0 001.22 1.22zM194 66.4a1 1 0 10-1-1 1 1 0 001 1zM202.85 66.23a.86.86 0 10-.85-.85.85.85 0 00.85.85z" fill="#231f20"/><circle cx="211.67" cy="65.38" r=".66" fill="#231f20"/><path d="M220.49 65.86a.48.48 0 00.49-.48.49.49 0 00-1 0 .48.48 0 00.51.48zM229.31 65.72a.35.35 0 10-.34-.34.34.34 0 00.34.34zM238.13 65.62a.25.25 0 000-.49.25.25 0 100 .49zM247 65.52a.14.14 0 00.14-.14.14.14 0 00-.14-.15.15.15 0 00-.15.15.15.15 0 00.15.14zM255.76 65.45a.07.07 0 00.08-.07.07.07 0 00-.08-.08.07.07 0 00-.07.08.07.07 0 00.07.07zM264.58 65.4zM273.4 65.4zM26.48 74.22s-.01 0 0 0zM35.3 74.24h-.05.05zM44.12 74.32a.12.12 0 00.12-.13.12.12 0 10-.24 0 .12.12 0 00.12.13z" fill="#231f20"/><circle cx="52.94" cy="74.19" r=".22" fill="#231f20"/><circle cx="61.75" cy="74.19" r=".34" fill="#231f20"/><circle cx="70.57" cy="74.19" r=".51" fill="#231f20"/><path d="M79.39 74.9a.71.71 0 10-.71-.71.71.71 0 00.71.71zM88.21 75.12a.93.93 0 10-.93-.93.93.93 0 00.93.93z" fill="#231f20"/><circle cx="97.03" cy="74.19" r="1.17" fill="#231f20"/><circle cx="105.85" cy="74.19" r="1.44" fill="#231f20"/><path d="M114.67 75.88a1.69 1.69 0 10-1.67-1.69 1.68 1.68 0 001.67 1.69z" fill="#231f20"/><circle cx="123.49" cy="74.19" r="1.91" fill="#231f20"/><circle cx="132.3" cy="74.19" r="2.08" fill="#231f20"/><path d="M141.12 76.39a2.2 2.2 0 10-2.2-2.2 2.19 2.19 0 002.2 2.2zM149.94 76.44a2.25 2.25 0 10-2.25-2.25 2.25 2.25 0 002.25 2.25zM158.76 76.39a2.2 2.2 0 10-2.2-2.2 2.19 2.19 0 002.2 2.2z" fill="#231f20"/><circle cx="167.58" cy="74.19" r="2.1" fill="#231f20"/><path d="M176.4 76.13a1.94 1.94 0 10-1.93-1.94 1.94 1.94 0 001.93 1.94zM185.22 75.91a1.72 1.72 0 10-1.72-1.72 1.72 1.72 0 001.72 1.72zM194 75.66a1.47 1.47 0 100-2.93 1.47 1.47 0 000 2.93zM202.85 75.39a1.2 1.2 0 10-1.2-1.2 1.2 1.2 0 001.2 1.2z" fill="#231f20"/><circle cx="211.67" cy="74.19" r=".95" fill="#231f20"/><path d="M220.49 74.93a.74.74 0 10-.73-.74.73.73 0 00.73.74zM229.31 74.71a.52.52 0 10-.51-.52.51.51 0 00.51.52z" fill="#231f20"/><circle cx="238.13" cy="74.19" r=".34" fill="#231f20"/><path d="M247 74.41a.22.22 0 00.22-.22.22.22 0 00-.22-.19.22.22 0 00-.22.22.21.21 0 00.22.19zM255.76 74.32a.13.13 0 00.13-.13.13.13 0 00-.13-.12.13.13 0 00-.12.12.13.13 0 00.12.13zM264.58 74.27a.09.09 0 00.08-.08.08.08 0 00-.08-.07.07.07 0 00-.07.07.08.08 0 00.07.08zM273.4 74.22s-.01 0 0 0zM17.66 83s-.01 0 0 0zM26.48 83.06h.05a.05.05 0 00-.1 0h.05zM35.3 83.11a.1.1 0 00.1-.1.11.11 0 00-.1-.1.1.2 0 00-.1.1.29.09 0 00.1.2zM44.12 83.21a.19.19 0 00.19-.2.18.18 0 00-.19-.19.19.19 0 00-.2.19.2.2 0 00.2.2zM52.94 83.33a.31.31 0 00.31-.32.32.32 0 10-.63 0 .32.32 0 00.32.32zM61.75 83.5a.49.49 0 10-.48-.49.48.48 0 00.48.49zM70.57 83.72a.71.71 0 10-.71-.71.71.71 0 00.71.71zM79.39 84a1 1 0 10-1-1 1 1 0 001 1zM88.21 84.28A1.27 1.27 0 1086.94 83a1.27 1.27 0 001.27 1.28zM97 84.6a1.59 1.59 0 10-1.56-1.6A1.59 1.59 0 0097 84.6zM105.85 84.94a1.93 1.93 0 10-1.93-1.94 1.92 1.92 0 001.93 1.94zM114.67 85.29a2.28 2.28 0 10-2.28-2.29 2.28 2.28 0 002.28 2.29z" fill="#231f20"/><circle cx="123.49" cy="83.01" r="2.57" fill="#231f20"/><path d="M132.3 85.82a2.81 2.81 0 10-2.81-2.82 2.81 2.81 0 002.81 2.82zM141.12 86a3 3 0 10-3-3 3 3 0 003 3zM149.94 86a3 3 0 10-3-3 3 3 0 003 3zM158.76 86a3 3 0 10-3-3 3 3 0 003 3zM167.58 85.85a2.84 2.84 0 10-2.84-2.85 2.84 2.84 0 002.84 2.85zM176.4 85.6a2.59 2.59 0 10-2.59-2.6 2.59 2.59 0 002.59 2.6zM185.22 85.31a2.3 2.3 0 10-2.3-2.3 2.29 2.29 0 002.3 2.3zM194 85a2 2 0 10-2-2 2 2 0 002 2zM202.85 84.65a1.64 1.64 0 10-1.64-1.65 1.63 1.63 0 001.64 1.65z" fill="#231f20"/><circle cx="211.67" cy="83.01" r="1.3" fill="#231f20"/><path d="M220.49 84a1 1 0 10-1-1 1 1 0 001 1zM229.31 83.75a.74.74 0 000-1.47.74.74 0 000 1.47z" fill="#231f20"/><circle cx="238.13" cy="83.01" r=".51" fill="#231f20"/><path d="M247 83.33a.31.31 0 00.31-.32.32.32 0 10-.63 0 .32.32 0 00.32.32zM255.76 83.21a.2.2 0 00.2-.2.19.19 0 00-.2-.19.19.19 0 00-.19.19.2.2 0 00.19.2zM264.58 83.11a.09.09 0 00.1-.1.1.2 0 00-.1-.1.1.2 0 00-.09.1.09.09 0 00.09.1z" fill="#231f20"/><circle cx="273.4" cy="83.01" r=".05" fill="#231f20"/><path d="M282.22 83s-.01 0 0 0zM17.66 91.86s-.01 0 0 0zM26.48 91.9a.07.07 0 10-.07-.07.07.07 0 00.07.07zM35.3 92a.15.15 0 10-.15-.15.15.15 0 00.15.15zM44.12 92.1a.27.27 0 10-.27-.27.27.27 0 00.27.27zM52.94 92.25a.41.41 0 00.41-.42.41.41 0 00-.41-.41.41.41 0 00-.42.41.42.42 0 00.42.42zM61.75 92.49a.66.66 0 10-.66-.66.66.66 0 00.66.66zM70.57 92.76a.93.93 0 10-.93-.93.93.93 0 00.93.93zM79.39 93.1a1.27 1.27 0 10-1.27-1.27 1.27 1.27 0 001.27 1.27zM88.21 93.49a1.66 1.66 0 10-1.66-1.66 1.66 1.66 0 001.66 1.66zM97 93.91a2.08 2.08 0 10-2-2.08 2.08 2.08 0 002 2.08zM105.85 94.35a2.52 2.52 0 10-2.52-2.52 2.52 2.52 0 002.52 2.52zM114.67 94.79a3 3 0 10-3-3 3 3 0 003 3zM123.49 95.21a3.38 3.38 0 10-3.38-3.38 3.38 3.38 0 003.38 3.38zM132.3 95.52a3.69 3.69 0 10-3.69-3.69 3.7 3.7 0 003.69 3.69zM141.12 95.72a3.89 3.89 0 10-3.89-3.89 3.89 3.89 0 003.89 3.89zM149.94 95.79a4 4 0 10-4-4 4 4 0 004 4zM158.76 95.74a3.91 3.91 0 10-3.91-3.91 3.91 3.91 0 003.91 3.91zM167.58 95.55a3.72 3.72 0 10-3.72-3.72 3.73 3.73 0 003.72 3.72zM176.4 95.23a3.4 3.4 0 10-3.4-3.4 3.4 3.4 0 003.4 3.4zM185.22 94.84a3 3 0 10-3-3 3 3 0 003 3zM194 94.4a2.57 2.57 0 10-2.56-2.57A2.57 2.57 0 00194 94.4zM202.85 94a2.13 2.13 0 10-2.12-2.13 2.13 2.13 0 002.12 2.13zM211.67 93.52a1.69 1.69 0 10-1.67-1.69 1.69 1.69 0 001.67 1.69zM220.49 93.13a1.3 1.3 0 10-1.3-1.3 1.3 1.3 0 001.3 1.3zM229.31 92.78a1 1 0 10-.95-1 .94.94 0 00.95 1zM238.13 92.52a.68.68 0 00.68-.69.67.67 0 00-.68-.68.68.68 0 00-.69.68.69.69 0 00.69.69zM247 92.27a.44.44 0 000-.88.44.44 0 000 .88zM255.76 92.1a.27.27 0 10-.26-.27.27.27 0 00.26.27zM264.58 92a.15.15 0 000-.3.15.15 0 000 .3zM273.4 91.9a.07.07 0 100-.14.07.07 0 000 .14zM282.22 91.86s-.01 0 0 0zM8.84 100.67v-.04z" fill="#231f20"/><circle cx="17.66" cy="100.65" r=".05" fill="#231f20"/><path d="M26.48 100.75a.1.1 0 10-.1-.1.11.11 0 00.1.2zM35.3 100.85a.2.2 0 000-.4.2.2 0 000 .4zM44.12 101a.34.34 0 10-.34-.34.34.34 0 00.34.34z" fill="#231f20"/><circle cx="52.94" cy="100.65" r=".56" fill="#231f20"/><circle cx="61.75" cy="100.65" r=".83" fill="#231f20"/><circle cx="70.57" cy="100.65" r="1.17" fill="#231f20"/><path d="M79.39 102.24a1.59 1.59 0 10-1.59-1.59 1.59 1.59 0 001.59 1.59z" fill="#231f20"/><circle cx="88.21" cy="100.65" r="2.08" fill="#231f20"/><circle cx="97.03" cy="100.65" r="2.62" fill="#231f20"/><circle cx="105.85" cy="100.65" r="3.18" fill="#231f20"/><path d="M114.67 104.42a3.77 3.77 0 10-3.77-3.77 3.76 3.76 0 003.77 3.77z" fill="#231f20"/><circle cx="123.49" cy="100.65" r="4.13" fill="#231f20"/><circle cx="132.3" cy="100.65" r="4.25" fill="#231f20"/><circle cx="141.12" cy="100.65" r="4.25" fill="#231f20"/><path d="M149.94 104.9a4.26 4.26 0 10-4.25-4.25 4.25 4.25 0 004.25 4.25z" fill="#231f20"/><circle cx="158.76" cy="100.65" r="4.25" fill="#231f20"/><circle cx="167.58" cy="100.65" r="4.25" fill="#231f20"/><path d="M176.4 104.81a4.16 4.16 0 10-4.16-4.16 4.15 4.15 0 004.16 4.16zM185.22 104.44a3.79 3.79 0 10-3.79-3.79 3.79 3.79 0 003.79 3.79zM194 103.88a3.23 3.23 0 10-3.22-3.23 3.23 3.23 0 003.22 3.23zM202.85 103.32a2.67 2.67 0 10-2.66-2.67 2.67 2.67 0 002.66 2.67z" fill="#231f20"/><circle cx="211.67" cy="100.65" r="2.13" fill="#231f20"/><path d="M220.49 102.29a1.64 1.64 0 10-1.64-1.64 1.64 1.64 0 001.64 1.64zM229.31 101.87a1.22 1.22 0 10-1.22-1.22 1.22 1.22 0 001.22 1.22zM238.13 101.51a.86.86 0 10-.86-.86.86.86 0 00.86.86zM247 101.24a.59.59 0 10-.59-.59.59.59 0 00.59.59zM255.76 101a.37.37 0 10-.36-.37.37.37 0 00.36.37z" fill="#231f20"/><circle cx="264.58" cy="100.65" r=".22" fill="#231f20"/><path d="M273.4 100.75a.1.1 0 100-.2.1.1 0 000 .2z" fill="#231f20"/><circle cx="282.22" cy="100.65" r=".05" fill="#231f20"/><path d="M291 100.67v-.04zM8.84 109.49z" fill="#231f20"/><circle cx="17.66" cy="109.47" r=".05" fill="#231f20"/><path d="M26.48 109.59a.12.12 0 10-.12-.12.12.12 0 00.12.12z" fill="#231f20"/><circle cx="35.3" cy="109.47" r=".27" transform="rotate(-.38 35.822 110.188)" fill="#231f20"/><path d="M44.12 109.91a.44.44 0 000-.88.44.44 0 000 .88z" fill="#231f20"/><circle cx="52.94" cy="109.47" r=".68" fill="#231f20"/><circle cx="61.75" cy="109.47" r="1.03" fill="#231f20"/><circle cx="70.57" cy="109.47" r="1.44" fill="#231f20"/><path d="M79.39 111.4a1.93 1.93 0 10-1.93-1.93 1.92 1.92 0 001.93 1.93z" fill="#231f20"/><circle cx="88.21" cy="109.47" r="2.52" fill="#231f20"/><circle cx="97.03" cy="109.47" r="3.18" fill="#231f20"/><path d="M105.85 113.36a3.89 3.89 0 10-3.89-3.89 3.89 3.89 0 003.89 3.89zM114.67 113.7a4.23 4.23 0 10-4.23-4.23 4.24 4.24 0 004.23 4.23z" fill="#231f20"/><circle cx="123.49" cy="109.47" r="4.25" fill="#231f20"/><circle cx="132.3" cy="109.47" r="4.25" fill="#231f20"/><circle cx="141.12" cy="109.47" r="4.25" fill="#231f20"/><path d="M149.94 113.72a4.26 4.26 0 10-4.25-4.25 4.25 4.25 0 004.25 4.25z" fill="#231f20"/><circle cx="158.76" cy="109.47" r="4.25" fill="#231f20"/><circle cx="167.58" cy="109.47" r="4.25" fill="#231f20"/><circle cx="176.4" cy="109.47" r="4.25" fill="#231f20"/><path d="M185.22 113.72a4.26 4.26 0 10-4.26-4.25 4.25 4.25 0 004.26 4.25zM194 113.41a3.94 3.94 0 10-3.93-3.94 3.94 3.94 0 003.93 3.94z" fill="#231f20"/><circle cx="202.85" cy="109.47" r="3.25" fill="#231f20"/><circle cx="211.67" cy="109.47" r="2.57" fill="#231f20"/><path d="M220.49 111.45a2 2 0 10-2-2 2 2 0 002 2zM229.31 110.94a1.47 1.47 0 10-1.47-1.47 1.47 1.47 0 001.47 1.47z" fill="#231f20"/><circle cx="238.13" cy="109.47" r="1.05" fill="#231f20"/><circle cx="246.95" cy="109.47" r=".71" fill="#231f20"/><path d="M255.76 109.93a.46.46 0 00.47-.46.47.47 0 10-.93 0 .46.46 0 00.46.46zM264.58 109.74a.27.27 0 000-.54.27.27 0 000 .54zM273.4 109.62a.15.15 0 100-.3.15.15 0 000 .3zM282.22 109.54a.07.07 0 10-.07-.07.07.07 0 00.07.07zM291 109.49zM8.84 118.31zM17.66 118.36a.08.08 0 00.08-.07.09.09 0 00-.08-.08.08.08 0 00-.07.08.07.07 0 00.07.07zM26.48 118.46a.18.18 0 00.17-.17.17.17 0 00-.34 0 .18.18 0 00.17.17zM35.3 118.6a.32.32 0 100-.63.32.32 0 100 .63zM44.12 118.83a.55.55 0 00.54-.54.54.54 0 00-.54-.54.54.54 0 00-.54.54.54.54 0 00.54.54z" fill="#231f20"/><circle cx="52.94" cy="118.29" r=".83" fill="#231f20"/><path d="M61.75 119.49a1.2 1.2 0 10-1.19-1.2 1.2 1.2 0 001.19 1.2z" fill="#231f20"/><circle cx="70.57" cy="118.29" r="1.69" fill="#231f20"/><path d="M79.39 120.56a2.28 2.28 0 10-2.27-2.27 2.28 2.28 0 002.27 2.27z" fill="#231f20"/><circle cx="88.21" cy="118.29" r="2.96" fill="#231f20"/><path d="M97 122.05a3.77 3.77 0 10-3.77-3.76 3.76 3.76 0 003.77 3.76zM105.85 122.52a4.23 4.23 0 10-4.23-4.23 4.24 4.24 0 004.23 4.23zM114.67 122.54a4.26 4.26 0 10-4.26-4.25 4.25 4.25 0 004.26 4.25z" fill="#231f20"/><circle cx="123.49" cy="118.29" r="4.25" fill="#231f20"/><circle cx="132.3" cy="118.29" r="4.25" fill="#231f20"/><circle cx="141.12" cy="118.29" r="4.25" fill="#231f20"/><path d="M149.94 122.54a4.26 4.26 0 10-4.25-4.25 4.25 4.25 0 004.25 4.25z" fill="#231f20"/><circle cx="158.76" cy="118.29" r="4.25" fill="#231f20"/><circle cx="167.58" cy="118.29" r="4.25" fill="#231f20"/><circle cx="176.4" cy="118.29" r="4.25" fill="#231f20"/><path d="M185.22 122.54a4.26 4.26 0 10-4.26-4.25 4.25 4.25 0 004.26 4.25zM194 122.54a4.26 4.26 0 10-4.25-4.25 4.25 4.25 0 004.25 4.25zM202.85 122.1a3.82 3.82 0 10-3.81-3.81 3.82 3.82 0 003.81 3.81zM211.67 121.32a3 3 0 10-3-3 3 3 0 003 3zM220.49 120.61a2.33 2.33 0 10-2.32-2.32 2.32 2.32 0 002.32 2.32z" fill="#231f20"/><circle cx="229.31" cy="118.29" r="1.74" fill="#231f20"/><path d="M238.13 119.53a1.25 1.25 0 000-2.49 1.25 1.25 0 100 2.49zM247 119.14a.86.86 0 10-.86-.85.85.85 0 00.86.85zM255.76 118.83a.54.54 0 00.54-.54.54.54 0 10-.54.54zM264.58 118.6a.32.32 0 10-.31-.31.31.31 0 00.31.31z" fill="#231f20"/><circle cx="273.4" cy="118.29" r=".17" fill="#231f20"/><path d="M282.22 118.36a.07.07 0 00.07-.07.07.07 0 10-.14 0 .07.07 0 00.07.07zM291 118.31zM8.84 127.13zM17.66 127.2a.09.09 0 00.1-.09.09.09 0 00-.1-.1.1.2 0 00-.1.1.2.1 0 00.1.29zM26.48 127.3a.2.2 0 10-.2-.19.2.2 0 00.2.19zM35.3 127.47a.37.37 0 10-.37-.36.37.37 0 00.37.36zM44.12 127.72a.62.62 0 10-.61-.61.61.61 0 00.61.61zM52.94 128a.93.93 0 10-.93-.92.93.93 0 00.93.92zM61.75 128.48a1.37 1.37 0 10-1.36-1.37 1.37 1.37 0 001.36 1.37zM70.57 129a1.91 1.91 0 10-1.9-1.9 1.9 1.9 0 001.9 1.9zM79.39 129.67a2.57 2.57 0 10-2.57-2.56 2.57 2.57 0 002.57 2.56zM88.21 130.48a3.38 3.38 0 10-3.37-3.37 3.38 3.38 0 003.37 3.37zM97 131.24a4.14 4.14 0 10-4.13-4.13 4.13 4.13 0 004.13 4.13zM105.85 131.36a4.26 4.26 0 10-4.26-4.25 4.25 4.25 0 004.26 4.25zM114.67 131.36a4.26 4.26 0 10-4.26-4.25 4.25 4.25 0 004.26 4.25zM123.49 131.36a4.26 4.26 0 10-4.26-4.25 4.25 4.25 0 004.26 4.25zM132.3 131.36a4.26 4.26 0 10-4.25-4.25 4.25 4.25 0 004.25 4.25zM141.12 131.36a4.26 4.26 0 10-4.25-4.25 4.25 4.25 0 004.25 4.25zM149.94 131.36a4.26 4.26 0 10-4.25-4.25 4.25 4.25 0 004.25 4.25zM158.76 131.36a4.26 4.26 0 10-4.25-4.25 4.25 4.25 0 004.25 4.25zM167.58 131.36a4.26 4.26 0 10-4.26-4.25 4.25 4.25 0 004.26 4.25zM176.4 131.36a4.26 4.26 0 10-4.26-4.25 4.25 4.25 0 004.26 4.25zM185.22 131.36a4.26 4.26 0 10-4.26-4.25 4.25 4.25 0 004.26 4.25zM194 131.36a4.26 4.26 0 10-4.25-4.25 4.25 4.25 0 004.25 4.25zM202.85 131.29a4.19 4.19 0 10-4.18-4.18 4.18 4.18 0 004.18 4.18zM211.67 130.55a3.45 3.45 0 10-3.45-3.44 3.44 3.44 0 003.45 3.44zM220.49 129.75a2.65 2.65 0 10-2.64-2.64 2.64 2.64 0 002.64 2.64z" fill="#231f20"/><circle cx="229.31" cy="127.11" r="1.96" fill="#231f20"/><path d="M238.13 128.52a1.42 1.42 0 10-1.42-1.41 1.42 1.42 0 001.42 1.41zM247 128.08a1 1 0 000-2 1 1 0 100 2zM255.76 127.74a.64.64 0 10-.63-.63.63.63 0 00.63.63z" fill="#231f20"/><circle cx="264.58" cy="127.11" r=".39" fill="#231f20"/><path d="M273.4 127.33a.22.22 0 00.22-.22.22.22 0 00-.44 0 .22.22 0 00.22.22zM282.22 127.2a.1.1 0 00.1-.09.1.1 0 00-.2 0 .1.1 0 00.1.29zM291 127.15a.05.05 0 00-.1 0h.1zM299.86 127.13s-.02 0 0 0zM0 136zM8.84 136l.05-.05h-.1a.05.05 0 00.05.05z" fill="#231f20"/><circle cx="17.66" cy="135.92" r=".12" fill="#231f20"/><path d="M26.48 136.14a.22.22 0 00.22-.22.22.22 0 00-.44 0 .22.22 0 00.22.22zM35.3 136.34a.41.41 0 00.41-.42.41.41 0 00-.41-.41.41.41 0 00-.42.41.42.42 0 00.42.42zM44.12 136.58a.66.66 0 10-.66-.66.66.66 0 00.66.66zM52.94 137a1 1 0 10-1-1 1 1 0 001 1zM61.75 137.42a1.5 1.5 0 10-1.49-1.5 1.5 1.5 0 001.49 1.5z" fill="#231f20"/><circle cx="70.57" cy="135.92" r="2.08" fill="#231f20"/><path d="M79.39 138.74a2.82 2.82 0 10-2.81-2.82 2.81 2.81 0 002.81 2.82z" fill="#231f20"/><circle cx="88.21" cy="135.92" r="3.69" fill="#231f20"/><circle cx="97.03" cy="135.92" r="4.25" fill="#231f20"/><circle cx="105.85" cy="135.92" r="4.25" fill="#231f20"/><path d="M114.67 140.18a4.26 4.26 0 10-4.26-4.26 4.25 4.25 0 004.26 4.26z" fill="#231f20"/><circle cx="123.49" cy="135.92" r="4.25" fill="#231f20"/><circle cx="132.3" cy="135.92" r="4.25" fill="#231f20"/><circle cx="141.12" cy="135.92" r="4.25" fill="#231f20"/><path d="M149.94 140.18a4.26 4.26 0 10-4.25-4.26 4.26 4.26 0 004.25 4.26z" fill="#231f20"/><circle cx="158.76" cy="135.92" r="4.25" fill="#231f20"/><circle cx="167.58" cy="135.92" r="4.25" fill="#231f20"/><circle cx="176.4" cy="135.92" r="4.25" fill="#231f20"/><path d="M185.22 140.18a4.26 4.26 0 10-4.26-4.26 4.25 4.25 0 004.26 4.26zM194 140.18a4.26 4.26 0 10-4.25-4.26 4.26 4.26 0 004.25 4.26z" fill="#231f20"/><circle cx="202.85" cy="135.92" r="4.25" fill="#231f20"/><path d="M211.67 139.69a3.77 3.77 0 10-3.76-3.77 3.77 3.77 0 003.76 3.77zM220.49 138.81a2.89 2.89 0 10-2.89-2.89 2.89 2.89 0 002.89 2.89z" fill="#231f20"/><circle cx="229.31" cy="135.92" r="2.13" fill="#231f20"/><path d="M238.13 137.46a1.54 1.54 0 10-1.54-1.54 1.53 1.53 0 001.54 1.54z" fill="#231f20"/><circle cx="246.95" cy="135.92" r="1.05" fill="#231f20"/><path d="M255.76 136.61a.69.69 0 10-.68-.69.69.69 0 00.68.69zM264.58 136.34a.42.42 0 00.42-.42.41.41 0 00-.42-.41.41.41 0 00-.41.41.41.41 0 00.41.42zM273.4 136.17a.25.25 0 100-.49.25.25 0 000 .49z" fill="#231f20"/><circle cx="282.22" cy="135.92" r=".12" fill="#231f20"/><circle cx="291.04" cy="135.92" r=".05" fill="#231f20"/><path d="M299.86 136zM0 144.77zM8.84 144.79h.05a.05.05 0 00-.05-.05.06.06 0 00-.05.05.05.05 0 00.05 0z" fill="#231f20"/><circle cx="17.66" cy="144.74" r=".12" fill="#231f20"/><path d="M26.48 145a.24.24 0 00.24-.25.24.24 0 00-.24-.24.25.25 0 000 .49z" fill="#231f20"/><circle cx="35.3" cy="144.74" r=".44" fill="#231f20"/><circle cx="44.12" cy="144.74" r=".71" fill="#231f20"/><circle cx="52.94" cy="144.74" r="1.08" fill="#231f20"/><circle cx="61.75" cy="144.74" r="1.59" fill="#231f20"/><path d="M70.57 146.94a2.2 2.2 0 10-2.2-2.2 2.19 2.19 0 002.2 2.2zM79.39 147.73a3 3 0 10-3-3 3 3 0 003 3zM88.21 148.63a3.89 3.89 0 10-3.89-3.89 3.89 3.89 0 003.89 3.89z" fill="#231f20"/><circle cx="97.03" cy="144.74" r="4.25" fill="#231f20"/><circle cx="105.85" cy="144.74" r="4.25" fill="#231f20"/><path d="M114.67 149a4.26 4.26 0 10-4.26-4.26 4.25 4.25 0 004.26 4.26z" fill="#231f20"/><circle cx="123.49" cy="144.74" r="4.25" fill="#231f20"/><circle cx="132.3" cy="144.74" r="4.25" fill="#231f20"/><circle cx="141.12" cy="144.74" r="4.25" fill="#231f20"/><path d="M149.94 149a4.26 4.26 0 10-4.25-4.26 4.26 4.26 0 004.25 4.26z" fill="#231f20"/><circle cx="158.76" cy="144.74" r="4.25" fill="#231f20"/><circle cx="167.58" cy="144.74" r="4.25" fill="#231f20"/><circle cx="176.4" cy="144.74" r="4.25" fill="#231f20"/><path d="M185.22 149a4.26 4.26 0 10-4.26-4.26 4.25 4.25 0 004.26 4.26zM194 149a4.26 4.26 0 10-4.25-4.26A4.26 4.26 0 00194 149z" fill="#231f20"/><circle cx="202.85" cy="144.74" r="4.25" fill="#231f20"/><circle cx="211.67" cy="144.74" r="3.96" fill="#231f20"/><path d="M220.49 147.8a3.06 3.06 0 10-3.06-3.06 3.06 3.06 0 003.06 3.06zM229.31 147a2.25 2.25 0 10-2.25-2.25 2.25 2.25 0 002.25 2.25z" fill="#231f20"/><circle cx="238.13" cy="144.74" r="1.61" fill="#231f20"/><circle cx="246.95" cy="144.74" r="1.12" fill="#231f20"/><circle cx="255.76" cy="144.74" r=".73" fill="#231f20"/><path d="M264.58 145.18a.43.43 0 00.44-.44.44.44 0 00-.44-.44.44.44 0 00-.44.44.44.44 0 00.44.44z" fill="#231f20"/><circle cx="273.4" cy="144.74" r=".27" fill="#231f20"/><circle cx="282.22" cy="144.74" r=".12" fill="#231f20"/><circle cx="291.04" cy="144.74" r=".05" fill="#231f20"/><path d="M299.86 144.77zM0 153.59zM8.84 153.61a.05.05 0 100-.1.05.05 0 100 .1z" fill="#231f20"/><circle cx="17.66" cy="153.56" r=".12" fill="#231f20"/><path d="M26.48 153.81a.24.24 0 00.24-.25.24.24 0 00-.24-.24.25.25 0 000 .49z" fill="#231f20"/><circle cx="35.3" cy="153.56" r=".44" fill="#231f20"/><path d="M44.12 154.3a.74.74 0 10-.74-.74.74.74 0 00.74.74zM52.94 154.66a1.1 1.1 0 10-1.1-1.1 1.1 1.1 0 001.1 1.1z" fill="#231f20"/><circle cx="61.75" cy="153.56" r="1.61" fill="#231f20"/><path d="M70.57 155.81a2.25 2.25 0 10-2.25-2.25 2.25 2.25 0 002.25 2.25zM79.39 156.59a3 3 0 10-3-3 3 3 0 003 3z" fill="#231f20"/><circle cx="88.21" cy="153.56" r="3.96" fill="#231f20"/><circle cx="97.03" cy="153.56" r="4.25" fill="#231f20"/><circle cx="105.85" cy="153.56" r="4.25" fill="#231f20"/><path d="M114.67 157.82a4.26 4.26 0 10-4.26-4.26 4.25 4.25 0 004.26 4.26z" fill="#231f20"/><circle cx="123.49" cy="153.56" r="4.25" fill="#231f20"/><circle cx="132.3" cy="153.56" r="4.25" fill="#231f20"/><circle cx="141.12" cy="153.56" r="4.25" fill="#231f20"/><path d="M149.94 157.82a4.26 4.26 0 10-4.25-4.26 4.26 4.26 0 004.25 4.26z" fill="#231f20"/><circle cx="158.76" cy="153.56" r="4.25" fill="#231f20"/><circle cx="167.58" cy="153.56" r="4.25" fill="#231f20"/><circle cx="176.4" cy="153.56" r="4.25" fill="#231f20"/><path d="M185.22 157.82a4.26 4.26 0 10-4.26-4.26 4.25 4.25 0 004.26 4.26zM194 157.82a4.26 4.26 0 10-4.25-4.26 4.26 4.26 0 004.25 4.26z" fill="#231f20"/><circle cx="202.85" cy="153.56" r="4.25" fill="#231f20"/><circle cx="211.67" cy="153.56" r="4.01" fill="#231f20"/><path d="M220.49 156.67a3.11 3.11 0 10-3.11-3.11 3.11 3.11 0 003.11 3.11zM229.31 155.86a2.3 2.3 0 10-2.3-2.3 2.3 2.3 0 002.3 2.3z" fill="#231f20"/><circle cx="238.13" cy="153.56" r="1.66" fill="#231f20"/><path d="M247 154.71a1.15 1.15 0 10-1.15-1.15 1.15 1.15 0 001.15 1.15zM255.76 154.32a.76.76 0 10-.75-.76.76.76 0 00.75.76zM264.58 154a.47.47 0 10-.46-.47.47.47 0 00.46.47z" fill="#231f20"/><circle cx="273.4" cy="153.56" r=".27" fill="#231f20"/><path d="M282.22 153.71a.15.15 0 10-.15-.15.15.15 0 00.15.15z" fill="#231f20"/><circle cx="291.04" cy="153.56" r=".05" fill="#231f20"/><path d="M299.86 153.59zM0 162.4zM8.84 162.43a.05.05 0 100-.1v.1zM17.66 162.5a.12.12 0 10-.12-.12.12.12 0 00.12.12zM26.48 162.62a.23.23 0 00.24-.24.24.24 0 00-.24-.24.24.24 0 00-.24.24.24.24 0 00.24.24zM35.3 162.82a.44.44 0 10-.44-.44.44.44 0 00.44.44zM44.12 163.09a.71.71 0 10-.71-.71.71.71 0 00.71.71zM52.94 163.46a1.08 1.08 0 10-1.08-1.08 1.08 1.08 0 001.08 1.08zM61.75 164a1.59 1.59 0 10-1.58-1.59 1.59 1.59 0 001.58 1.59zM70.57 164.58a2.2 2.2 0 10-2.2-2.2 2.19 2.19 0 002.2 2.2zM79.39 165.36a3 3 0 10-3-3 3 3 0 003 3z" fill="#231f20"/><circle cx="88.21" cy="162.38" r="3.91" fill="#231f20"/><path d="M97 166.64a4.26 4.26 0 10-4.26-4.26 4.25 4.25 0 004.26 4.26zM105.85 166.64a4.26 4.26 0 10-4.26-4.26 4.25 4.25 0 004.26 4.26zM114.67 166.64a4.26 4.26 0 10-4.26-4.26 4.25 4.25 0 004.26 4.26zM123.49 166.64a4.26 4.26 0 10-4.26-4.26 4.25 4.25 0 004.26 4.26zM132.3 166.64a4.26 4.26 0 10-4.25-4.26 4.26 4.26 0 004.25 4.26zM141.12 166.64a4.26 4.26 0 10-4.25-4.26 4.26 4.26 0 004.25 4.26zM149.94 166.64a4.26 4.26 0 10-4.25-4.26 4.26 4.26 0 004.25 4.26zM158.76 166.64a4.26 4.26 0 10-4.25-4.26 4.25 4.25 0 004.25 4.26zM167.58 166.64a4.26 4.26 0 10-4.26-4.26 4.25 4.25 0 004.26 4.26zM176.4 166.64a4.26 4.26 0 10-4.26-4.26 4.25 4.25 0 004.26 4.26zM185.22 166.64a4.26 4.26 0 10-4.26-4.26 4.25 4.25 0 004.26 4.26zM194 166.64a4.26 4.26 0 10-4.25-4.26 4.26 4.26 0 004.25 4.26zM202.85 166.64a4.26 4.26 0 10-4.25-4.26 4.26 4.26 0 004.25 4.26zM211.67 166.34a4 4 0 10-4-4 4 4 0 004 4zM220.49 165.44a3.06 3.06 0 10-3.06-3.06 3.06 3.06 0 003.06 3.06zM229.31 164.65a2.27 2.27 0 10-2.28-2.27 2.26 2.26 0 002.28 2.27zM238.13 164a1.64 1.64 0 10-1.64-1.64 1.64 1.64 0 001.64 1.64zM247 163.51a1.13 1.13 0 10-1.13-1.13 1.13 1.13 0 001.13 1.13zM255.76 163.11a.73.73 0 10-.73-.73.73.73 0 00.73.73zM264.58 162.82a.44.44 0 000-.88.44.44 0 000 .88zM273.4 162.65a.27.27 0 10-.27-.27.27.27 0 00.27.27zM282.22 162.5a.12.12 0 10-.12-.12.12.12 0 00.12.12zM291 162.43a.05.05 0 10-.05-.05l.05.05zM299.86 162.4s-.02 0 0 0zM0 171.22zM8.84 171.25v-.1.1zM17.66 171.32a.12.12 0 10-.12-.12.12.12 0 00.12.12zM26.48 171.42a.22.22 0 10-.22-.22.22.22 0 00.22.22zM35.3 171.61a.41.41 0 00.41-.41.41.41 0 00-.41-.42.42.42 0 00-.42.42.41.41 0 00.42.41zM44.12 171.88a.67.67 0 00.68-.68.68.68 0 00-.68-.69.69.69 0 00-.69.69.68.68 0 00.69.68zM52.94 172.23a1 1 0 10-1-1 1 1 0 001 1zM61.75 172.69a1.49 1.49 0 10-1.49-1.49 1.5 1.5 0 001.49 1.49zM70.57 173.3a2.1 2.1 0 10-2.1-2.1 2.1 2.1 0 002.1 2.1zM79.39 174a2.84 2.84 0 10-2.83-2.84 2.84 2.84 0 002.83 2.84zM88.21 174.92a3.72 3.72 0 10-3.72-3.72 3.73 3.73 0 003.72 3.72z" fill="#231f20"/><circle cx="97.03" cy="171.2" r="4.25" fill="#231f20"/><circle cx="105.85" cy="171.2" r="4.25" fill="#231f20"/><path d="M114.67 175.45a4.26 4.26 0 10-4.26-4.25 4.25 4.25 0 004.26 4.25z" fill="#231f20"/><circle cx="123.49" cy="171.2" r="4.25" fill="#231f20"/><circle cx="132.3" cy="171.2" r="4.25" fill="#231f20"/><circle cx="141.12" cy="171.2" r="4.25" fill="#231f20"/><path d="M149.94 175.45a4.26 4.26 0 10-4.25-4.25 4.25 4.25 0 004.25 4.25z" fill="#231f20"/><circle cx="158.76" cy="171.2" r="4.25" fill="#231f20"/><circle cx="167.58" cy="171.2" r="4.25" fill="#231f20"/><circle cx="176.4" cy="171.2" r="4.25" fill="#231f20"/><path d="M185.22 175.45a4.26 4.26 0 10-4.22-4.25 4.25 4.25 0 004.22 4.25z" fill="#231f20"/><path d="M194 175.45a4.26 4.26 0 10-4.25-4.25 4.25 4.25 0 004.25 4.25z" fill="#231f20"/><circle cx="202.85" cy="171.2" r="4.25" fill="#231f20"/><circle cx="211.67" cy="171.2" r="3.79" fill="#231f20"/><circle cx="220.49" cy="171.2" r="2.91" fill="#231f20"/><path d="M229.31 173.35a2.15 2.15 0 10-2.15-2.15 2.15 2.15 0 002.15 2.15zM238.13 172.74a1.54 1.54 0 10-1.54-1.54 1.54 1.54 0 001.54 1.54zM247 172.27a1.08 1.08 0 10-1.08-1.07 1.07 1.07 0 001.08 1.07zM255.76 171.88a.68.68 0 00.69-.68.69.69 0 10-1.37 0 .68.68 0 00.68.68zM264.58 171.61a.41.41 0 00.42-.41.42.42 0 00-.42-.42.41.41 0 00-.41.42.41.41 0 00.41.41zM273.4 171.44a.25.25 0 10-.24-.24.25.25 0 00.24.24zM282.22 171.32a.12.12 0 10-.12-.12.12.12 0 00.12.12z" fill="#231f20"/><circle cx="291.04" cy="171.2" r=".05" fill="#231f20"/><path d="M299.86 171.22s-.02 0 0 0zM0 180zM8.84 180.07a.05.05 0 00.05 0l-.05-.05a.05.05 0 00-.05.05.06.06 0 00.05 0z" fill="#231f20"/><circle cx="17.66" cy="180.02" r=".1" fill="#231f20"/><path d="M26.48 180.21a.19.19 0 00.2-.19.2.2 0 00-.4 0 .19.19 0 00.2.19zM35.3 180.38a.37.37 0 10-.37-.36.37.37 0 00.37.36zM44.12 180.63a.61.61 0 10-.61-.61.61.61 0 00.61.61z" fill="#231f20"/><circle cx="52.94" cy="180.02" r=".95" fill="#231f20"/><path d="M61.75 181.39a1.37 1.37 0 10-1.36-1.39 1.37 1.37 0 001.36 1.39zM70.57 182a1.93 1.93 0 10-1.93-2 1.94 1.94 0 001.93 2zM79.39 182.61A2.59 2.59 0 1076.8 180a2.59 2.59 0 002.59 2.61z" fill="#231f20"/><circle cx="88.21" cy="180.02" r="3.4" fill="#231f20"/><circle cx="97.03" cy="180.02" r="4.16" fill="#231f20"/><circle cx="105.85" cy="180.02" r="4.25" fill="#231f20"/><path d="M114.67 184.27a4.26 4.26 0 10-4.26-4.25 4.25 4.25 0 004.26 4.25z" fill="#231f20"/><circle cx="123.49" cy="180.02" r="4.25" fill="#231f20"/><circle cx="132.3" cy="180.02" r="4.25" fill="#231f20"/><circle cx="141.12" cy="180.02" r="4.25" fill="#231f20"/><path d="M149.94 184.27a4.26 4.26 0 10-4.25-4.25 4.25 4.25 0 004.25 4.25z" fill="#231f20"/><circle cx="158.76" cy="180.02" r="4.25" fill="#231f20"/><circle cx="167.58" cy="180.02" r="4.25" fill="#231f20"/><circle cx="176.4" cy="180.02" r="4.25" fill="#231f20"/><path d="M185.22 184.27A4.26 4.26 0 10181 180a4.25 4.25 0 004.22 4.27z" fill="#231f20"/><path d="M194 184.27a4.26 4.26 0 10-4.25-4.25 4.25 4.25 0 004.25 4.25z" fill="#231f20"/><circle cx="202.85" cy="180.02" r="4.18" fill="#231f20"/><circle cx="211.67" cy="180.02" r="3.47" fill="#231f20"/><path d="M220.49 182.68a2.67 2.67 0 10-2.66-2.66 2.67 2.67 0 002.66 2.66zM229.31 182a2 2 0 10-2-2 2 2 0 002 2zM238.13 181.44a1.42 1.42 0 10-1.42-1.42 1.43 1.43 0 001.42 1.42zM247 181a1 1 0 10-1-1 1 1 0 001 1zM255.76 180.65a.63.63 0 00.64-.63.64.64 0 10-1.27 0 .63.63 0 00.63.63z" fill="#231f20"/><circle cx="264.58" cy="180.02" r=".39" fill="#231f20"/><circle cx="273.4" cy="180.02" r=".22" fill="#231f20"/><circle cx="282.22" cy="180.02" r=".1" fill="#231f20"/><circle cx="291.04" cy="180.02" r=".05" fill="#231f20"/><path d="M299.86 180s-.02 0 0 0zM8.84 188.86z" fill="#231f20"/><circle cx="17.66" cy="188.84" r=".07" fill="#231f20"/><path d="M26.48 189a.18.18 0 00.17-.17.17.17 0 10-.34 0 .18.18 0 00.17.17z" fill="#231f20"/><circle cx="35.3" cy="188.84" r=".32" fill="#231f20"/><path d="M44.12 189.37a.54.54 0 10-.54-.53.54.54 0 00.54.53z" fill="#231f20"/><circle cx="52.94" cy="188.84" r=".83" fill="#231f20"/><circle cx="61.75" cy="188.84" r="1.22" fill="#231f20"/><path d="M70.57 190.55a1.72 1.72 0 10-1.71-1.71 1.72 1.72 0 001.71 1.71zM79.39 191.13a2.3 2.3 0 10-2.3-2.29 2.29 2.29 0 002.3 2.29z" fill="#231f20"/><circle cx="88.21" cy="188.84" r="3.01" fill="#231f20"/><circle cx="97.03" cy="188.84" r="3.79" fill="#231f20"/><circle cx="105.85" cy="188.84" r="4.25" fill="#231f20"/><path d="M114.67 193.09a4.26 4.26 0 10-4.26-4.25 4.25 4.25 0 004.26 4.25z" fill="#231f20"/><circle cx="123.49" cy="188.84" r="4.25" fill="#231f20"/><circle cx="132.3" cy="188.84" r="4.25" fill="#231f20"/><circle cx="141.12" cy="188.84" r="4.25" fill="#231f20"/><path d="M149.94 193.09a4.26 4.26 0 10-4.25-4.25 4.25 4.25 0 004.25 4.25z" fill="#231f20"/><circle cx="158.76" cy="188.84" r="4.25" fill="#231f20"/><circle cx="167.58" cy="188.84" r="4.25" fill="#231f20"/><circle cx="176.4" cy="188.84" r="4.25" fill="#231f20"/><path d="M185.22 193.09a4.26 4.26 0 10-4.26-4.25 4.25 4.25 0 004.26 4.25zM194 193.09a4.26 4.26 0 10-4.25-4.25 4.25 4.25 0 004.25 4.25z" fill="#231f20"/><circle cx="202.85" cy="188.84" r="3.86" fill="#231f20"/><circle cx="211.67" cy="188.84" r="3.06" fill="#231f20"/><circle cx="220.49" cy="188.84" r="2.35" fill="#231f20"/><path d="M229.31 190.6a1.76 1.76 0 10-1.76-1.76 1.76 1.76 0 001.76 1.76z" fill="#231f20"/><circle cx="238.13" cy="188.84" r="1.25" fill="#231f20"/><circle cx="246.95" cy="188.84" r=".86" fill="#231f20"/><circle cx="255.76" cy="188.84" r=".56" fill="#231f20"/><path d="M264.58 189.18a.35.35 0 00.35-.34.35.35 0 00-.35-.35.35.35 0 00-.34.35.34.34 0 00.34.34z" fill="#231f20"/><circle cx="273.4" cy="188.84" r=".17" fill="#231f20"/><path d="M282.22 188.91a.07.07 0 00.07-.07.07.07 0 10-.14 0 .07.07 0 00.07.07zM291 188.86zM8.84 197.68s-.01 0 0 0zM17.66 197.73a.08.08 0 00.08-.08.08.08 0 00-.08-.07.07.07 0 00-.07.07.07.07 0 00.07.08zM26.48 197.8a.15.15 0 00.15-.15.15.15 0 00-.3 0 .15.15 0 00.15.15zM35.3 197.92a.27.27 0 10-.27-.27.27.27 0 00.27.27zM44.12 198.09a.44.44 0 00.44-.44.44.44 0 00-.44-.44.44.44 0 00-.44.44.43.43 0 00.44.44zM52.94 198.36a.71.71 0 100-1.41.71.71 0 100 1.41zM61.75 198.68a1 1 0 10-1-1 1 1 0 001 1zM70.57 199.12a1.47 1.47 0 10-1.46-1.47 1.47 1.47 0 001.46 1.47zM79.39 199.64a2 2 0 10-2-2 2 2 0 002 2z" fill="#231f20"/><circle cx="88.21" cy="197.65" r="2.57" fill="#231f20"/><path d="M97 200.88a3.23 3.23 0 10-3.23-3.23 3.23 3.23 0 003.23 3.23zM105.85 201.59a3.94 3.94 0 10-3.94-3.94 3.94 3.94 0 003.94 3.94zM114.67 201.91a4.26 4.26 0 10-4.26-4.26 4.25 4.25 0 004.26 4.26zM123.49 201.91a4.26 4.26 0 10-4.26-4.26 4.25 4.25 0 004.26 4.26zM132.3 201.91a4.26 4.26 0 10-4.25-4.26 4.26 4.26 0 004.25 4.26zM141.12 201.91a4.26 4.26 0 10-4.25-4.26 4.26 4.26 0 004.25 4.26zM149.94 201.91a4.26 4.26 0 10-4.25-4.26 4.26 4.26 0 004.25 4.26zM158.76 201.91a4.26 4.26 0 10-4.25-4.26 4.25 4.25 0 004.25 4.26zM167.58 201.91a4.26 4.26 0 10-4.26-4.26 4.25 4.25 0 004.26 4.26zM176.4 201.91a4.26 4.26 0 10-4.26-4.26 4.25 4.25 0 004.26 4.26zM185.22 201.91a4.26 4.26 0 10-4.26-4.26 4.25 4.25 0 004.26 4.26zM194 201.62a4 4 0 10-4-4 4 4 0 004 4z" fill="#231f20"/><circle cx="202.85" cy="197.65" r="3.3" fill="#231f20"/><path d="M211.67 200.27a2.62 2.62 0 10-2.61-2.62 2.62 2.62 0 002.61 2.62zM220.49 199.66a2 2 0 10-2-2 2 2 0 002 2zM229.31 199.15a1.5 1.5 0 10-1.49-1.5 1.5 1.5 0 001.49 1.5zM238.13 198.73a1.08 1.08 0 10-1.08-1.08 1.07 1.07 0 001.08 1.08zM247 198.39a.74.74 0 10-.74-.74.74.74 0 00.74.74zM255.76 198.12a.47.47 0 10-.46-.47.47.47 0 00.46.47zM264.58 197.92a.27.27 0 100-.53.27.27 0 100 .53zM273.4 197.8a.15.15 0 00.15-.15.15.15 0 00-.15-.14.14.14 0 00-.14.14.14.14 0 00.14.15zM282.22 197.73a.07.07 0 00.07-.08.07.07 0 10-.14 0 .07.07 0 00.07.08zM291 197.68zM8.84 206.5s-.01 0 0 0z" fill="#231f20"/><circle cx="17.66" cy="206.47" r=".05" fill="#231f20"/><path d="M26.48 206.57a.1.1 0 00.1-.1.1.2 0 00-.2 0 .1.1 0 00.1.2zM35.3 206.67a.19.19 0 00.19-.2.19.19 0 00-.19-.19.2.2 0 100 .39zM44.12 206.84a.37.37 0 000-.73.37.37 0 100 .73z" fill="#231f20"/><circle cx="52.94" cy="206.47" r=".56" fill="#231f20"/><path d="M61.75 207.33a.86.86 0 10-.85-.86.85.85 0 00.85.86zM70.57 207.67a1.2 1.2 0 10-1.19-1.2 1.19 1.19 0 001.19 1.2zM79.39 208.11a1.64 1.64 0 10-1.64-1.64 1.63 1.63 0 001.64 1.64z" fill="#231f20"/><circle cx="88.21" cy="206.47" r="2.13" fill="#231f20"/><path d="M97 209.14a2.67 2.67 0 10-2.67-2.67 2.66 2.66 0 002.67 2.67zM105.85 209.73a3.26 3.26 0 10-3.25-3.26 3.26 3.26 0 003.25 3.26zM114.67 210.29a3.82 3.82 0 10-3.82-3.82 3.82 3.82 0 003.82 3.82zM123.49 210.65a4.18 4.18 0 10-4.19-4.18 4.18 4.18 0 004.19 4.18zM132.3 210.73a4.26 4.26 0 10-4.25-4.26 4.26 4.26 0 004.25 4.26zM141.12 210.73a4.26 4.26 0 10-4.25-4.26 4.26 4.26 0 004.25 4.26zM149.94 210.73a4.26 4.26 0 10-4.25-4.26 4.26 4.26 0 004.25 4.26zM158.76 210.73a4.26 4.26 0 10-4.25-4.26 4.25 4.25 0 004.25 4.26zM167.58 210.73a4.26 4.26 0 10-4.26-4.26 4.25 4.25 0 004.26 4.26zM176.4 210.65a4.18 4.18 0 10-4.18-4.18 4.18 4.18 0 004.18 4.18zM185.22 210.34a3.87 3.87 0 10-3.87-3.87 3.86 3.86 0 003.87 3.87z" fill="#231f20"/><circle cx="194.03" cy="206.47" r="3.3" fill="#231f20"/><path d="M202.85 209.19a2.72 2.72 0 10-2.71-2.72 2.72 2.72 0 002.71 2.72zM211.67 208.63a2.16 2.16 0 10-2.15-2.16 2.16 2.16 0 002.15 2.16zM220.49 208.14a1.67 1.67 0 10-1.66-1.67 1.66 1.66 0 001.66 1.67zM229.31 207.7a1.23 1.23 0 10-1.22-1.23 1.23 1.23 0 001.22 1.23zM238.13 207.35a.88.88 0 10-.88-.88.88.88 0 00.88.88zM247 207.06a.59.59 0 10-.59-.59.58.58 0 00.59.59zM255.76 206.84a.37.37 0 100-.73.37.37 0 000 .73z" fill="#231f20"/><circle cx="264.58" cy="206.47" r=".22" fill="#231f20"/><path d="M273.4 206.6a.12.12 0 00.12-.13.12.12 0 00-.24 0 .12.12 0 00.12.13z" fill="#231f20"/><circle cx="282.22" cy="206.47" r=".05" fill="#231f20"/><path d="M291 206.5zM17.66 215.32s-.01 0 0 0zM26.48 215.37a.08.08 0 00.07-.08.07.07 0 00-.14 0 .08.08 0 00.07.08z" fill="#231f20"/><circle cx="35.3" cy="215.29" r=".15" transform="rotate(-.19 35.832 214.165)" fill="#231f20"/><path d="M44.12 215.56a.27.27 0 10-.27-.27.27.27 0 00.27.27z" fill="#231f20"/><circle cx="52.94" cy="215.29" r=".44" fill="#231f20"/><circle cx="61.75" cy="215.29" r=".66" fill="#231f20"/><circle cx="70.57" cy="215.29" r=".95" fill="#231f20"/><path d="M79.39 216.59a1.3 1.3 0 10-1.29-1.3 1.3 1.3 0 001.29 1.3z" fill="#231f20"/><circle cx="88.21" cy="215.29" r="1.69" fill="#231f20"/><circle cx="97.03" cy="215.29" r="2.13" fill="#231f20"/><circle cx="105.85" cy="215.29" r="2.57" fill="#231f20"/><path d="M114.67 218.32a3 3 0 10-3-3 3 3 0 003 3zM123.49 218.74a3.45 3.45 0 10-3.45-3.45 3.44 3.44 0 003.45 3.45zM132.3 219.06a3.77 3.77 0 10-3.76-3.77 3.77 3.77 0 003.76 3.77z" fill="#231f20"/><circle cx="141.12" cy="215.29" r="3.96" fill="#231f20"/><path d="M149.94 219.3a4 4 0 10-4-4 4 4 0 004 4z" fill="#231f20"/><circle cx="158.76" cy="215.29" r="3.96" fill="#231f20"/><circle cx="167.58" cy="215.29" r="3.79" fill="#231f20"/><circle cx="176.4" cy="215.29" r="3.47" fill="#231f20"/><path d="M185.22 218.35a3.06 3.06 0 10-3.06-3.06 3.06 3.06 0 003.06 3.06zM194 217.91a2.62 2.62 0 10-2.61-2.62 2.62 2.62 0 002.61 2.62zM202.85 217.44a2.15 2.15 0 10-2.15-2.15 2.16 2.16 0 002.15 2.15z" fill="#231f20"/><circle cx="211.67" cy="215.29" r="1.71" fill="#231f20"/><path d="M220.49 216.61a1.32 1.32 0 10-1.32-1.32 1.32 1.32 0 001.32 1.32zM229.31 216.27a1 1 0 10-1-1 1 1 0 001 1z" fill="#231f20"/><circle cx="238.13" cy="215.29" r=".68" fill="#231f20"/><circle cx="246.95" cy="215.29" r=".46" fill="#231f20"/><path d="M255.76 215.56a.27.27 0 10-.26-.27.27.27 0 00.26.27zM264.58 215.44a.15.15 0 00.15-.15.15.15 0 00-.15-.14.14.14 0 00-.14.14.15.15 0 00.14.15z" fill="#231f20"/><circle cx="273.4" cy="215.29" r=".07" fill="#231f20"/><path d="M282.22 215.32s-.01 0 0 0zM17.66 224.14s-.01 0 0 0zM26.48 224.16h-.05.05z" fill="#231f20"/><circle cx="35.3" cy="224.11" r=".1" fill="#231f20"/><path d="M44.12 224.31a.19.19 0 00.19-.2.18.18 0 00-.19-.19.19.19 0 00-.2.19.2.2 0 00.2.2zM52.94 224.43a.31.31 0 00.31-.32.32.32 0 10-.63 0 .32.32 0 00.32.32z" fill="#231f20"/><circle cx="61.75" cy="224.11" r=".49" fill="#231f20"/><circle cx="70.57" cy="224.11" r=".73" fill="#231f20"/><path d="M79.39 225.09a1 1 0 10-1-1 1 1 0 001 1z" fill="#231f20"/><circle cx="88.21" cy="224.11" r="1.3" fill="#231f20"/><circle cx="97.03" cy="224.11" r="1.64" fill="#231f20"/><path d="M105.85 226.09a2 2 0 10-2-2 2 2 0 002 2zM114.67 226.43a2.32 2.32 0 10-2.33-2.32 2.32 2.32 0 002.33 2.32zM123.49 226.75a2.64 2.64 0 10-2.65-2.64 2.64 2.64 0 002.65 2.64z" fill="#231f20"/><circle cx="132.3" cy="224.11" r="2.89" fill="#231f20"/><circle cx="141.12" cy="224.11" r="3.06" fill="#231f20"/><path d="M149.94 227.22a3.11 3.11 0 10-3.1-3.11 3.11 3.11 0 003.1 3.11zM158.76 227.17a3.06 3.06 0 10-3.06-3.06 3.06 3.06 0 003.06 3.06z" fill="#231f20"/><circle cx="167.58" cy="224.11" r="2.91" fill="#231f20"/><circle cx="176.4" cy="224.11" r="2.67" fill="#231f20"/><circle cx="185.22" cy="224.11" r="2.35" fill="#231f20"/><circle cx="194.03" cy="224.11" r="2.01" fill="#231f20"/><circle cx="202.85" cy="224.11" r="1.66" fill="#231f20"/><path d="M211.67 225.43a1.32 1.32 0 10-1.32-1.32 1.32 1.32 0 001.32 1.32z" fill="#231f20"/><circle cx="220.49" cy="224.11" r="1" fill="#231f20"/><path d="M229.31 224.84a.73.73 0 10-.73-.73.73.73 0 00.73.73z" fill="#231f20"/><circle cx="238.13" cy="224.11" r=".51" fill="#231f20"/><circle cx="246.95" cy="224.11" r=".34" fill="#231f20"/><path d="M255.76 224.31a.2.2 0 00.2-.2.19.19 0 00-.2-.19.19.19 0 00-.19.19.2.2 0 00.19.2zM264.58 224.21a.1.1 0 000-.2.1.1 0 000 .2z" fill="#231f20"/><circle cx="273.4" cy="224.11" r=".05" fill="#231f20"/><path d="M282.22 224.14s-.01 0 0 0zM26.48 233zM35.3 233a.07.07 0 10-.07-.07.07.07 0 00.07.07zM44.12 233.05a.12.12 0 10-.12-.12.12.12 0 00.12.12z" fill="#231f20"/><circle cx="52.94" cy="232.93" r=".22" fill="#231f20"/><path d="M61.75 233.27a.34.34 0 10-.34-.34.35.35 0 00.34.34zM70.57 233.44a.51.51 0 10-.51-.51.51.51 0 00.51.51zM79.39 233.66a.73.73 0 100-1.46.73.73 0 000 1.46z" fill="#231f20"/><circle cx="88.21" cy="232.93" r=".95" fill="#231f20"/><circle cx="97.03" cy="232.93" r="1.22" fill="#231f20"/><path d="M105.85 234.4a1.47 1.47 0 10-1.47-1.47 1.47 1.47 0 001.47 1.47zM114.67 234.67a1.74 1.74 0 10-1.74-1.74 1.73 1.73 0 001.74 1.74z" fill="#231f20"/><circle cx="123.49" cy="232.93" r="1.96" fill="#231f20"/><circle cx="132.3" cy="232.93" r="2.13" fill="#231f20"/><path d="M141.12 235.18a2.25 2.25 0 10-2.25-2.25 2.25 2.25 0 002.25 2.25zM149.94 235.23a2.3 2.3 0 10-2.3-2.3 2.3 2.3 0 002.3 2.3zM158.76 235.2a2.27 2.27 0 10-2.27-2.27 2.26 2.26 0 002.27 2.27zM167.58 235.08a2.15 2.15 0 10-2.15-2.15 2.15 2.15 0 002.15 2.15zM176.4 234.91a2 2 0 10-2-2 2 2 0 002 2zM185.22 234.69a1.76 1.76 0 10-1.76-1.76 1.76 1.76 0 001.76 1.76zM194 234.42a1.49 1.49 0 10-1.49-1.49 1.5 1.5 0 001.49 1.49z" fill="#231f20"/><circle cx="202.85" cy="232.93" r="1.22" fill="#231f20"/><path d="M211.67 233.91a1 1 0 10-1-1 1 1 0 001 1zM220.49 233.66a.73.73 0 10-.73-.73.73.73 0 00.73.73zM229.31 233.47a.54.54 0 10-.54-.54.54.54 0 00.54.54zM238.13 233.3a.37.37 0 000-.74.37.37 0 000 .74zM247 233.15a.22.22 0 000-.44.22.22 0 000 .44zM255.76 233.08a.15.15 0 000-.3.15.15 0 000 .3zM264.58 233a.07.07 0 100-.14.07.07 0 000 .14zM273.4 233zM26.48 241.77zM35.3 241.77zM44.12 241.82a.07.07 0 00.07-.07.08.08 0 00-.07-.08.09.09 0 00-.08.08.08.08 0 00.08.07zM52.94 241.89a.14.14 0 00.14-.14.15.15 0 00-.14-.15.15.15 0 00-.15.15.15.15 0 00.15.14zM61.75 242a.25.25 0 10-.24-.24.25.25 0 00.24.24zM70.57 242.09a.34.34 0 100-.68.34.34 0 000 .68zM79.39 242.26a.52.52 0 10-.51-.51.51.51 0 00.51.51zM88.21 242.43a.68.68 0 00.69-.68.69.69 0 00-.69-.69.68.68 0 00-.68.69.67.67 0 00.68.68zM97 242.6a.86.86 0 10-.86-.85.86.86 0 00.86.85zM105.85 242.8a1.05 1.05 0 10-1-1.05 1 1 0 001 1.05zM114.67 243a1.25 1.25 0 10-1.25-1.25 1.24 1.24 0 001.25 1.25zM123.49 243.17a1.42 1.42 0 10-1.42-1.42 1.42 1.42 0 001.42 1.42zM132.3 243.29a1.54 1.54 0 10-1.54-1.54 1.54 1.54 0 001.54 1.54z" fill="#231f20"/><circle cx="141.12" cy="241.75" r="1.61" fill="#231f20"/><path d="M149.94 243.41a1.66 1.66 0 10-1.66-1.66 1.66 1.66 0 001.66 1.66zM158.76 243.39a1.64 1.64 0 10-1.64-1.64 1.65 1.65 0 001.64 1.64zM167.58 243.29a1.54 1.54 0 10-1.54-1.54 1.54 1.54 0 001.54 1.54zM176.4 243.17a1.42 1.42 0 10-1.42-1.42 1.43 1.43 0 001.42 1.42zM185.22 243a1.25 1.25 0 10-1.25-1.25 1.25 1.25 0 001.25 1.25zM194 242.82a1.08 1.08 0 10-1.07-1.07 1.07 1.07 0 001.07 1.07zM202.85 242.63a.88.88 0 10-.88-.88.88.88 0 00.88.88zM211.67 242.43a.68.68 0 00.69-.68.69.69 0 00-.69-.69.68.68 0 00-.68.69.67.67 0 00.68.68zM220.49 242.26a.52.52 0 10-.51-.51.51.51 0 00.51.51zM229.31 242.11a.37.37 0 00.37-.36.37.37 0 00-.74 0 .37.37 0 00.37.36zM238.13 242a.25.25 0 000-.49.25.25 0 100 .49zM247 241.89a.14.14 0 00.14-.14.15.15 0 00-.14-.15.15.15 0 00-.15.15.15.15 0 00.15.14zM255.76 241.82a.07.07 0 00.08-.07.08.08 0 00-.08-.08.08.08 0 00-.07.08.07.07 0 00.07.07zM264.58 241.77zM273.4 241.77zM35.3 250.59s-.01 0 0 0zM44.12 250.62a.06.06 0 00.05-.05.05.05 0 00-.05 0 .05.05 0 000 .05zM52.94 250.64a.07.07 0 00.07-.07.08.08 0 00-.07-.08.09.09 0 00-.08.08.08.08 0 00.08.07zM61.75 250.71a.14.14 0 00.15-.14.15.15 0 00-.15-.15.15.15 0 00-.14.15.14.14 0 00.14.14z" fill="#231f20"/><circle cx="70.57" cy="250.57" r=".22" fill="#231f20"/><path d="M79.39 250.88a.32.32 0 100-.63.32.32 0 100 .63z" fill="#231f20"/><circle cx="88.21" cy="250.57" r=".44" fill="#231f20"/><path d="M97 251.15a.59.59 0 10-.59-.58.59.59 0 00.59.58zM105.85 251.28a.71.71 0 10-.71-.71.71.71 0 00.71.71zM114.67 251.42a.86.86 0 10-.86-.85.85.85 0 00.86.85zM123.49 251.54a1 1 0 000-1.95 1 1 0 100 1.95z" fill="#231f20"/><circle cx="132.3" cy="250.57" r="1.05" fill="#231f20"/><circle cx="141.12" cy="250.57" r="1.12" fill="#231f20"/><path d="M149.94 251.72a1.15 1.15 0 10-1.15-1.15 1.15 1.15 0 001.15 1.15z" fill="#231f20"/><circle cx="158.76" cy="250.57" r="1.12" fill="#231f20"/><circle cx="167.58" cy="250.57" r="1.08" fill="#231f20"/><path d="M176.4 251.54a1 1 0 10-1-1 1 1 0 001 1zM185.22 251.42a.86.86 0 10-.86-.85.85.85 0 00.86.85z" fill="#231f20"/><circle cx="194.03" cy="250.57" r=".73" fill="#231f20"/><path d="M202.85 251.15a.59.59 0 10-.58-.58.58.58 0 00.58.58z" fill="#231f20"/><circle cx="211.67" cy="250.57" r=".46" fill="#231f20"/><circle cx="220.49" cy="250.57" r=".34" fill="#231f20"/><path d="M229.31 250.79a.22.22 0 10-.22-.22.22.22 0 00.22.22zM238.13 250.71a.14.14 0 00.14-.14.15.15 0 00-.14-.15.15.15 0 00-.15.15.15.15 0 00.15.14z" fill="#231f20"/><circle cx="246.95" cy="250.57" r=".07" fill="#231f20"/><path d="M255.76 250.62a.05.05 0 00.05-.05h-.05s-.02.05 0 .05zM264.58 250.59zM44.12 259.41s-.02 0 0 0z" fill="#231f20"/><circle cx="52.94" cy="259.39" r=".05" fill="#231f20"/><circle cx="61.75" cy="259.39" r=".07" fill="#231f20"/><circle cx="70.57" cy="259.39" r=".12" fill="#231f20"/><path d="M79.39 259.58a.2.2 0 100-.39.19.19 0 00-.19.2.19.19 0 00.19.19z" fill="#231f20"/><circle cx="88.21" cy="259.39" r=".27" fill="#231f20"/><path d="M97 259.75a.37.37 0 10-.37-.36.37.37 0 00.37.36zM105.85 259.85a.47.47 0 10-.47-.46.47.47 0 00.47.46zM114.67 259.92a.54.54 0 10-.54-.53.53.53 0 00.54.53zM123.49 260a.64.64 0 10-.64-.63.63.63 0 00.64.63z" fill="#231f20"/><circle cx="132.3" cy="259.39" r=".68" fill="#231f20"/><circle cx="141.12" cy="259.39" r=".73" fill="#231f20"/><path d="M149.94 260.14a.76.76 0 10-.76-.75.76.76 0 00.76.75z" fill="#231f20"/><circle cx="158.76" cy="259.39" r=".73" fill="#231f20"/><circle cx="167.58" cy="259.39" r=".68" fill="#231f20"/><path d="M176.4 260a.64.64 0 000-1.27.64.64 0 100 1.27z" fill="#231f20"/><circle cx="185.22" cy="259.39" r=".56" fill="#231f20"/><path d="M194 259.85a.47.47 0 10-.46-.46.47.47 0 00.46.46zM202.85 259.75a.37.37 0 10-.36-.36.36.36 0 00.36.36z" fill="#231f20"/><circle cx="211.67" cy="259.39" r=".27" fill="#231f20"/><path d="M220.49 259.58a.2.2 0 10-.2-.19.2.2 0 00.2.19zM229.31 259.53a.15.15 0 00.15-.14.15.15 0 00-.3 0 .15.15 0 00.15.14z" fill="#231f20"/><circle cx="238.13" cy="259.39" r=".07" fill="#231f20"/><circle cx="246.95" cy="259.39" r=".05" fill="#231f20"/><path d="M255.76 259.41zM52.94 268.23zM61.75 268.23s-.01 0 0 0zM70.57 268.28a.09.09 0 00.08-.08.08.08 0 00-.08-.07.07.07 0 00-.07.07.08.08 0 00.07.08zM79.39 268.3a.09.09 0 00.1-.1.09.09 0 00-.1-.09.1.1 0 00-.1.09.1.1 0 00.1.2zM88.21 268.35a.15.15 0 00.15-.15.15.15 0 00-.3 0 .15.15 0 00.15.15z" fill="#231f20"/><circle cx="97.03" cy="268.2" r=".22" fill="#231f20"/><path d="M105.85 268.47a.27.27 0 00.27-.27.27.27 0 10-.54 0 .27.27 0 00.27.27zM114.67 268.52a.32.32 0 10-.32-.32.31.31 0 00.32.32z" fill="#231f20"/><circle cx="123.49" cy="268.2" r=".39" fill="#231f20"/><path d="M132.3 268.62a.42.42 0 00.42-.42.41.41 0 00-.42-.41.41.41 0 00-.41.41.41.41 0 00.41.42z" fill="#231f20"/><circle cx="141.12" cy="268.2" r=".44" fill="#231f20"/><path d="M149.94 268.67a.47.47 0 100-.93.47.47 0 000 .93z" fill="#231f20"/><circle cx="158.76" cy="268.2" r=".44" fill="#231f20"/><path d="M167.58 268.62a.41.41 0 00.41-.42.41.41 0 00-.41-.41.41.41 0 00-.42.41.42.42 0 00.42.42z" fill="#231f20"/><circle cx="176.4" cy="268.2" r=".39" fill="#231f20"/><path d="M185.22 268.55a.35.35 0 00.34-.35.35.35 0 00-.69 0 .35.35 0 00.35.35zM194 268.47a.27.27 0 00.27-.27.27.27 0 10-.53 0 .27.27 0 00.26.27zM202.85 268.42a.22.22 0 00.22-.22.22.22 0 00-.44 0 .22.22 0 00.22.22zM211.67 268.35a.15.15 0 00.15-.15.15.15 0 00-.15-.14.14.14 0 00-.14.14.15.15 0 00.14.15zM220.49 268.3a.1.1 0 00.1-.1.1.2 0 00-.2 0 .1.1 0 00.1.2zM229.31 268.28a.08.08 0 00.07-.08.07.07 0 00-.14 0 .08.08 0 00.07.08zM238.13 268.23zM247 268.23zM61.75 277.05s-.01 0 0 0zM70.57 277.05s-.01 0 0 0zM79.39 277.07v-.05a.05.05 0 000 .05zM88.21 277.1a.08.08 0 00.07-.08.07.07 0 10-.14 0 .08.08 0 00.07.08zM97 277.12a.1.1 0 00.1-.1.1.2 0 00-.2 0 .1.1 0 00.1.2zM105.85 277.17a.15.15 0 00.15-.17.14.14 0 00-.14-.14.15.15 0 00-.15.14.15.15 0 00.14.17zM114.67 277.19a.17.17 0 00.17-.17.18.18 0 00-.17-.17.17.17 0 00-.17.17.16.16 0 00.17.17z" fill="#231f20"/><circle cx="123.49" cy="277.02" r=".22" fill="#231f20"/><path d="M132.3 277.27a.25.25 0 100-.49.25.25 0 000 .49zM141.12 277.29a.27.27 0 10-.27-.27.27.27 0 00.27.27zM149.94 277.29a.27.27 0 10-.27-.27.27.27 0 00.27.27zM158.76 277.29a.27.27 0 10-.27-.27.27.27 0 00.27.27zM167.58 277.27a.25.25 0 10-.25-.25.25.25 0 00.25.25z" fill="#231f20"/><circle cx="176.4" cy="277.02" r=".22" fill="#231f20"/><circle cx="185.22" cy="277.02" r=".17" fill="#231f20"/><path d="M194 277.17a.15.15 0 00.15-.15.14.14 0 00-.15-.14.14.14 0 00-.14.14.15.15 0 00.14.15zM202.85 277.14a.12.12 0 00.15-.14.13.13 0 00-.13-.12.13.13 0 00-.12.12.12.12 0 00.1.24zM211.67 277.1a.09.09 0 00.08-.08.08.08 0 00-.08-.07.07.07 0 00-.07.07.08.08 0 00.07.08zM220.49 277.07v-.05a.05.05 0 00-.1 0l.1.05zM229.31 277.05zM238.13 277.05zM79.39 285.87s-.01 0 0 0zM88.21 285.87s-.01 0 0 0z" fill="#231f20"/><circle cx="97.03" cy="285.84" r=".05" fill="#231f20"/><path d="M105.85 285.91a.07.07 0 000-.14.07.07 0 100 .14zM114.67 285.91a.07.07 0 100-.14.07.07 0 100 .14zM123.49 285.94a.09.09 0 00.09-.1.1.2 0 00-.09-.1.1.2 0 00-.1.1.29.09 0 00.1.2z" fill="#231f20"/><circle cx="132.3" cy="285.84" r=".12" fill="#231f20"/><circle cx="141.12" cy="285.84" r=".12" fill="#231f20"/><path d="M149.94 286a.15.15 0 10-.15-.15.15.15 0 00.15.15zM158.76 286a.12.12 0 10-.12-.12.12.12 0 00.12.12z" fill="#231f20"/><circle cx="167.58" cy="285.84" r=".12" fill="#231f20"/><circle cx="176.4" cy="285.84" r=".1" fill="#231f20"/><path d="M185.22 285.91a.07.07 0 000-.14.07.07 0 100 .14zM194 285.91a.07.07 0 100-.14.07.07 0 100 .14z" fill="#231f20"/><circle cx="202.85" cy="285.84" r=".05" fill="#231f20"/><path d="M211.67 285.87s-.01 0 0 0zM220.49 285.87s-.01 0 0 0zM97 294.68zM105.85 294.68s-.02 0 0 0zM114.67 294.68s-.02 0 0 0z" fill="#231f20"/><circle cx="123.49" cy="294.66" r=".05" fill="#231f20"/><circle cx="132.3" cy="294.66" r=".05" fill="#231f20"/><circle cx="141.12" cy="294.66" r=".05" fill="#231f20"/><path d="M149.94 294.71a.05.05 0 10-.05 0h.05z" fill="#231f20"/><circle cx="158.76" cy="294.66" r=".05" fill="#231f20"/><circle cx="167.58" cy="294.66" r=".05" fill="#231f20"/><circle cx="176.4" cy="294.66" r=".05" fill="#231f20"/><path d="M185.22 294.68s-.02 0 0 0zM194 294.68zM202.85 294.68zM123.49 303.5s-.02 0 0 0zM132.3 303.5zM141.12 303.5zM149.94 303.5zM158.76 303.5zM167.58 303.5zM176.4 303.5s-.02 0 0 0z" fill="#231f20"/><path d="M260.72 83.17a.91.91 0 01-.75-.41.89.89 0 01.28-1.21l48.4-30.31a.87.87 0 011.21.27.88.88 0 01-.28 1.21L261.18 83a.84.84 0 01-.46.17zM303.46 212.17a.8.8 0 01-.37-.08l-25.77-12a.88.88 0 01-.42-1.17.86.86 0 011.16-.42l25.77 12a.88.88 0 01.42 1.17.86.86 0 01-.79.5zM3.17 233.15a.86.86 0 01-.78-.48.88.88 0 01.38-1.18l33-16.78a.88.88 0 11.79 1.57l-33 16.78a1 1 0 01-.39.09zM56.88 110.29h-.17L3.08 100a.88.88 0 11.33-1.72L57 108.55a.88.88 0 01-.16 1.74zM63.16 67.71a.9.9 0 01-.47-.13l-43.15-27a.88.88 0 11.93-1.49l43.15 27a.88.88 0 01-.46 1.62zM325.7 147.76h-.05l-21-1.2a.89.89 0 01-.83-.92.87.87 0 01.93-.83l21 1.2a.88.88 0 01-.05 1.75zM73.17 259.91a.92.92 0 01-.28-.05.87.87 0 01-.55-1.11L79 238.82a.87.87 0 011.11-.55.88.88 0 01.56 1.11L74 259.31a.88.88 0 01-.83.6zM207 43.73a.91.91 0 01-.5-.15.89.89 0 01-.22-1.23l28.18-40.16a.89.89 0 011.23-.19.88.88 0 01.21 1.22l-28.17 40.14a.85.85 0 01-.73.37zM152.17 281.58a.88.88 0 01-.87-.78l-4.67-45.27a.87.87 0 011.74-.18l4.68 45.27a.88.88 0 01-.79 1zM133.89 45.53a.86.86 0 01-.82-.56l-7.19-18.58a.87.87 0 011.63-.63l7.19 18.58a.87.87 0 01-.5 1.13.85.85 0 01-.31.06zM24.34 157a.88.88 0 01-.88-.81.89.89 0 01.81-1L39.86 154a.87.87 0 11.13 1.74L24.41 157zM225.67 256.88a.87.87 0 01-.79-.49l-12.66-25.53a.88.88 0 111.57-.78l12.66 25.53a.88.88 0 01-.4 1.18.85.85 0 01-.38.09z" fill="#010101" stroke="#010101" stroke-miterlimit="10" stroke-width="2"/><path d="M212.74 49.09C196.4 40 183 44.78 171.47 51.28c-32.26 18.21-42.66 9.36-73.31 11.17-36.5 2.15-40.52 31.61-30.41 53.44 4.19 9 9.26 18.34 6.63 28.63-2 8-9.48 15.28-14 22.22-16.59 25.32-4.91 60.27 42.88 62.5 28.28 1.33 43.84-10.64 66-26.19 20.88-14.67 42-16.42 67-16.16 59.48.62 99.33-62.36 4.47-102.25-14.93-6.25-14.9-28.24-27.99-35.55z" fill="#231f20"/></svg>