<svg data-name="Layer 1" xmlns="http://www.w3.org/2000/svg" viewBox="0 0 173.94 163.68"><path d="M11.21 72C.67 68.07-.45 66.84 8.39 68.66c3.64.87 7.65 2.52 9 3.85S16 73.7 11.21 72zm24.08-38a1.3 1.3 0 00-1.72-.51A1.26 1.26 0 0033 35a1.13 1.13 0 001.54.6 1.19 1.19 0 00.75-1.6zm105.48 94.32c.2.46 1.21.85 2.22 1s1.65 0 1.5-.39-1.21-.85-2.11-1-1.77.07-1.61.38zM150 60.88a7.86 7.86 0 005.21-2.32c1.09-1.06-.27-1.05-3 .18S148.47 61 150 60.88zm-2.16 71.5a.74.74 0 001 .39.81.81 0 00.38-1 .72.72 0 00-1-.39.67.67 0 00-.38 1zM87.15 35.09c-.55 3.63-1.6 4.95-3.59 4.53-1.6-.34-4.58-3.13-5-4.67-.33-1.31-.5-1.24-1.34 1.17-2.84 8-14.3 8.83-18.66 1.46-4-6.94-5.7-6.39-2.67.87 2.39 5.82 2.39 5.82 1.64 6.15-.32.14-.9-.88-1.33-2.28s-.88-2.32-1.2-1.9-.08 1.69.42 2.81c1.38 3.4.39 5.05-3.28 5.4-2.62.27-3.36.6-5.28 2.6-2.52 2.65-5.16 2.16-9.18-1.6-1.06-.93-2.2-1.64-2.57-1.47-1 .45-.16 1.79 1.65 2.58 1.51.67 1.53.85.21 2.33-.77.85-1.26 1.77-1.09 2.14.83 1.86-1.63 5.37-3.57 5-2.45-.5-4.37.35-3.91 1.68.21.6.45 1.45.61 2a2.3 2.3 0 001 1.35c2 1.11-.59 5-5.13 7.82-3.46 2.11-3.43 1.91-1.84 7.77s-1.38 9.4-6.85 8.84c-4.34-.44-5.11-.16-5.84 2.08-.57 1.72 3 3.52 8.13 4.1 1.84.27 6.51 7.63 6.63 10.63a14.36 14.36 0 00.8 3.54c.76 1.7-.05 2.89-2.82 4.12a7.22 7.22 0 00-2.85 2.47c-1.73 2.87.18 4 4.64 2.85 2.8-.73 3.23-.61 6.1 2.26 2.4 2.38 3.66 5.52 3 7-2 3.95.83 9.63 4.08 8.19 3.83-1.7 5.57-1.65 6.87.27.63.92 1.42 1.6 1.68 1.48 1.81-.8 2 1.74.23 4.11-1.06 1.49-1.88 2.94-1.76 3.2.26.59.84-.12 2.62-3.14 1.19-2.05 5.83-3.09 6.59-1.52a15.94 15.94 0 001.71 2c2.42 2.46 3.31 11.92 1.46 15.8-.87 1.78-1.25 3.36-.89 3.45 1 .44 5.84-9 6.64-12.89.92-4.68 1.52-5.07 5.46-3.5 2.82 1 3.71 1 5.11 0s2.31-1 4.3-.37a11.72 11.72 0 003.93.68c1.78-.19 3.29 1.53 5 5.57 1.15 2.74 3.16 4.27 2.31 1.78-.16-.51-.41-1.22-.55-1.67a6.36 6.36 0 01.93-3.09c.66-1.25 1-2.69.8-3.22-.73-1.65 3-2.63 6.38-1.56 3.7 1.16 4.92.75 9.87-3.61 2-1.73 4.3-3.23 4.93-3.27 1.41-.08 6.48 2.54 6.92 3.55.17.38.85.46 1.59.13 1.92-.85 1.28-3.44-1.26-5.43-2.92-2.28-2.27-5.11 1.55-6.55a20.27 20.27 0 004.1-2.27c.87-.77 2-1.18 2.31-1 4.32 2.55 6.79-.65 3.41-4.38-2.53-2.83-2.62-3.08-2.05-4.76.87-2.58 1.58-2.62 7.53-.41 5.05 1.9 7.74 1.79 5.31-.25-6.3-5.3-7-7.34-4.58-14.35s2.37-11.31.19-12.64c-2.52-1.5-2.78-2.53-1.38-5.83 1.29-3-.19-5.33-4.48-6.93-5.17-2-2.09-8.31 5.74-11.79 2.13-.94 3.77-2 3.62-2.31s-2.12.38-4.34 1.55c-3.19 1.73-4.31 2-4.92 1.42-.44-.45-2.22-.42-4 .1-3.59 1-4.28.56-6.9-4.2-1.88-3.38-.85-6.38 2.66-7.94 1.87-.83.53-3-2.15-3.57a21.94 21.94 0 01-4.3-1.34c-1.58-.7-2.79-.55-5.29.56-4 1.8-8.16.43-13.61-4.54a24.5 24.5 0 00-6.09-3.67C87 39 87 39 88.26 35c.9-3.28.9-4.42 0-4-.32.11-.77 2-1.11 4.09zM26.41 26c.72 1.6 1.57 2.07 2.06.79a2 2 0 00-1.26-2.85c-1.28-.5-1.51.45-.8 2.06zm136.37 113.48c4 1.83 7.36 2.84 7.67 2.29.14-.62-4.06-2.92-9.47-5.09-10.98-4.43-9.65-2.38 1.8 2.8zM50.15 5.06c.66 1.48 1.46 1.92 1.91.73a1.87 1.87 0 00-1.17-2.64c-1.19-.46-1.4.42-.74 1.91zM11.24 3.31c-2.14.95 8.22 17 11.72 18.25 1.81.66-4.52-11.64-9.27-18.49a3 3 0 00-2.45.24zm95.29 145.44a1.34 1.34 0 001.66.8 1.38 1.38 0 00.72-1.86 1.35 1.35 0 00-1.77-.53 1.29 1.29 0 00-.61 1.59zm5 4.81c.74 1.66 1.54 2 2.12.82a2.3 2.3 0 00-1.38-3.12c-1.27-.33-1.57.47-.76 2.3z" fill="#231f20"/></svg>