<svg data-name="Layer 1" xmlns="http://www.w3.org/2000/svg" viewBox="0 0 175.45 156.13"><path d="M63 149q5.37-1.08 10.76-2.06a70.76 70.76 0 01-20.45-9.4c-2.51 5.09 3 12.79 9.69 11.46zM51.75 136.46a72.23 72.23 0 01-8.56-7.13c.81 3.75 4.3 7.23 8.56 7.13zM128.09 46.3l-3.41 1.09q12.12-5.23 24.06-10.87a70.23 70.23 0 00-12.39-12.75c-17.12 6.13-35 10-52.84 13.54h-.2l41.58-19.11a8.63 8.63 0 001.69-1 69.2 69.2 0 00-21.2-7.56L32.66 43.07a69.25 69.25 0 00-8.34 22.19c4.08-.79 8.16-1.57 12.27-2.31a200.32 200.32 0 00-12.77 5.27 71 71 0 00-.73 10.06 69.78 69.78 0 001 11.91q7.38-1.48 14.74-3.07l-14.22 5.8a69.18 69.18 0 005.61 16.14q23.27-4.62 46.47-9.45-5.83 2-11.73 3.83l-24.85 7.33a7.41 7.41 0 00-5.5 5.92 70.27 70.27 0 007.87 9.82h.58a3.8 3.8 0 00-.06.59 69.54 69.54 0 0010.87 9.08l.37-.08c-.07.07-.11.14-.17.21a69.36 69.36 0 0023.22 10q9.92-1.75 19.89-3.21a8.52 8.52 0 00.12 4.82 69.64 69.64 0 0047.39-23 6.55 6.55 0 00-6.07-2.46q-11.16.87-22.28 2.12c3.57-1.73 7.14-3.46 10.69-5.22 7.33-3.64 3.7-13.43-3-14.7l14-6.27a6.59 6.59 0 004.02-7.39q10.33-4.65 20.51-9.66c.05-1 .08-2.06.08-3.09a70.15 70.15 0 00-1.22-13 7.9 7.9 0 00-2.45.17q-26.86 6-53.81 11.78l53.61-21.87a70.07 70.07 0 00-8.1-16.16c-7.6 2.07-15.01 4.65-22.58 7.13zM14.93 51.22c-8.71 4-2.2 16.29 6.18 14.64l1.63-.31a70.77 70.77 0 017.56-21.39zM40.21 126.28a72 72 0 01-5.63-7 8.07 8.07 0 005.63 7zM166.8 52.11c7.47-3 7.7-17-2.13-15.74-.71.1-1.41.23-2.12.33l-.17.07c-3.45.53-6.82 1.27-10.16 2.11a71 71 0 017.95 16zM116.8 4.4l-9.06 4.17a70.68 70.68 0 0120 7.55c4.35-5.5-2.84-15.44-10.94-11.72zM20 94.8c-9.41 3.84-6.07 17.49 4.26 15.45l4.43-.89a71 71 0 01-5.5-15.87zM150.12 35.86c2-1 4.09-1.94 6.13-2.93 9.4-4.56 1.17-17.88-8.09-13.84q-5 2.19-10.15 4.06a72.89 72.89 0 0112.11 12.71zM22.21 69a126.55 126.55 0 00-16 8.89C-1.6 83 3.41 94.18 12.33 92.5c3.45-.65 6.88-1.33 10.32-2a69.66 69.66 0 01-.44-21.5zM164.09 80.63c.35-.17.71-.33 1.06-.51 7-3.47 4-12.63-2.15-14.5a71.39 71.39 0 011.15 12.66c0 .79-.04 1.57-.06 2.35z" fill="#010101"/><path d="M97.94 149.36a8 8 0 009 4.39 91.19 91.19 0 0035.76-16.39 9.59 9.59 0 002.83-11.09 71.15 71.15 0 01-47.59 23.09zM53.91 136.14l-.63.14a8.17 8.17 0 01-1.53.18c.51.36 1 .72 1.54 1.07a5.78 5.78 0 01.82-1.26zM92.86 8.5a69.74 69.74 0 0112.52 1.15l2.36-1.08A71.18 71.18 0 0030.3 44.16l2.36-1.09A69.8 69.8 0 0192.86 8.5zM43 127.06c-.18-.18-.35-.37-.52-.55a7.53 7.53 0 01-2.31-.23c1 1 2 2.06 3 3.05a7.27 7.27 0 01-.17-2.27zM158.77 55.39a71.31 71.31 0 012.65 9.92 8.34 8.34 0 011.58.31 70.82 70.82 0 00-2.84-10.8zM144.73 124.89a7 7 0 01.8 1.38 71.07 71.07 0 0018.56-45.64l-1.53.74a69.47 69.47 0 01-17.83 43.52zM34.65 116.69a71.86 71.86 0 01-4.39-7.63l-1.53.3a70.92 70.92 0 005.85 9.88 8.72 8.72 0 01.07-2.55zM126.58 17.21a69.47 69.47 0 019.77 6.56l1.66-.62a72.65 72.65 0 00-10.31-7 7.25 7.25 0 01-1.12 1.06zM92.86 148.05a69.75 69.75 0 01-15.53-1.76l-3.59.64a71 71 0 0019.12 2.63c1.71 0 3.4-.08 5.08-.2a9.74 9.74 0 01-.6-1.46c-1.48.1-2.97.15-4.48.15zM24.32 65.26l-1.58.29c-.2 1.13-.38 2.27-.53 3.42l1.61-.75c.18-.99.32-1.98.5-2.96zM150.67 39.23l1.54-.39c-.68-1-1.37-2-2.09-3l-1.38.66c.66.91 1.31 1.81 1.93 2.73zM24.13 90.19l-1.48.29c.17 1 .37 2 .58 3l1.42-.57c-.2-.91-.37-1.8-.52-2.72z" fill="#010101"/></svg>