<svg id="xpro_elementor_icon" data-name="Xpro Icon" xmlns="http://www.w3.org/2000/svg" viewBox="0 0 522 625"><defs><style>.cls-1{fill:#fff}</style></defs><path class="cls-1" d="M180.62 325.39a75.64 75.64 0 010-107l23.29-23.29-78.86-78.86a67.59 67.59 0 00-95.59 95.59l95.59 95.58a67.59 67.59 0 010 95.59l-95.59 95.62a67.59 67.59 0 1095.59 95.58L287.24 432z"/><path class="cls-1" d="M400.26 221.22l95.58-95.59a67.57 67.57 0 000-95.58 67.57 67.57 0 00-95.58 0L209.08 221.22a67.6 67.6 0 000 95.59L400.26 508a67.57 67.57 0 0095.58 0 67.59 67.59 0 000-95.59l-95.58-95.58a67.59 67.59 0 010-95.61z"/></svg>
